M48
; DRILL file {KiCad (5.1.9-0-10_14)} date Monday, April 26, 2021 at 08:01:14 AM
; FORMAT={-:-/ absolute / inch / decimal}
; #@! TF.CreationDate,2021-04-26T08:01:14+02:00
; #@! TF.GenerationSoftware,Kicad,Pcbnew,(5.1.9-0-10_14)
FMAT,2
INCH
T1C0.0177
T2C0.0197
T3C0.0300
T4C0.0315
T5C0.1260
%
G90
G05
T1
X3.6663Y-4.4951
X3.6663Y-4.6683
X3.6663Y-4.8415
X3.6663Y-5.0148
X3.6663Y-5.188
X3.6663Y-5.3612
X3.6663Y-5.5344
X3.753Y-4.7549
X3.753Y-4.9281
X3.753Y-5.1014
X3.753Y-5.2746
X3.7963Y-4.5384
X3.7963Y-5.5778
X3.8396Y-5.188
X3.85Y-5.025
X3.8829Y-5.3179
X3.9262Y-4.4951
X3.9262Y-4.6683
X3.9262Y-5.4478
X3.9695Y-5.0148
X3.9695Y-5.2313
X3.9695Y-5.5778
X4.0128Y-4.5817
X4.0128Y-5.3612
X4.0561Y-5.4911
X4.14Y-4.85
X4.1427Y-4.6683
X4.1427Y-5.2313
X4.1427Y-5.4045
X4.1427Y-5.5778
X4.16Y-5.1
X4.2293Y-4.7982
X4.2293Y-5.4911
X4.235Y-5.05
X4.2726Y-4.625
X4.2726Y-4.9281
X4.2726Y-5.1447
X4.2726Y-5.3612
X4.315Y-5.0
X4.3159Y-5.5778
X4.3593Y-4.8415
X4.3593Y-5.2313
X4.3593Y-5.4478
X4.4026Y-4.6683
X4.4459Y-5.5344
X4.45Y-4.55
X4.4892Y-4.7982
X4.4892Y-5.4045
X4.5087Y-5.165
X4.52Y-4.925
X4.525Y-4.4951
X4.55Y-4.7
X4.5631Y-4.79
X4.5758Y-5.4911
X4.61Y-4.55
X4.6624Y-4.625
X4.6624Y-5.4045
X4.6624Y-5.5778
X4.6812Y-4.9452
X4.6888Y-5.017
X4.6913Y-5.1169
X4.7057Y-4.4951
X4.749Y-4.7982
X4.755Y-5.05
X4.79Y-5.135
X4.8Y-5.58
X4.8356Y-4.5384
X4.8356Y-5.4045
X4.85Y-4.815
X4.895Y-5.005
X4.917Y-5.14
X4.9202Y-4.94
X4.922Y-5.4724
X4.922Y-5.5276
X4.9594Y-5.4724
X4.9594Y-5.5276
X4.9786Y-5.2209
X4.9969Y-5.4724
X5.0323Y-5.4724
X5.0323Y-5.5276
X5.0522Y-5.2313
X5.0677Y-5.4724
X5.0677Y-5.5276
X5.0878Y-5.0498
X5.0896Y-4.8599
X5.09Y-4.555
X5.1031Y-5.5276
X5.14Y-5.01
X5.1406Y-5.4724
X5.1406Y-5.5276
X5.178Y-5.4724
X5.178Y-5.5276
X5.21Y-4.525
X5.2254Y-4.8415
X5.285Y-4.61
X5.29Y-4.965
X5.3Y-5.42
X5.35Y-4.49
X5.36Y-5.42
X5.365Y-4.835
X5.3832Y-4.975
X5.3986Y-4.6683
X5.4Y-5.58
X5.45Y-4.49
X5.46Y-5.5
X5.47Y-4.75
X5.5469Y-5.3069
X5.5476Y-4.8731
X5.55Y-4.49
X5.555Y-5.21
X5.57Y-4.94
X5.57Y-5.13
X5.5869Y-4.6969
X5.635Y-5.415
X5.65Y-4.525
X5.66Y-5.34
X5.7Y-5.58
X5.7096Y-5.2701
X5.715Y-4.935
X5.73Y-4.73
X5.74Y-5.42
X5.7451Y-4.6683
X5.78Y-5.37
X5.85Y-4.57
X5.85Y-5.22
X5.875Y-4.8415
X5.9Y-5.585
X5.9183Y-4.9715
X5.95Y-5.41
X6.0Y-5.13
X6.0049Y-4.7982
X6.01Y-4.565
X6.01Y-5.03
X6.0482Y-4.9281
X6.05Y-5.5
X6.09Y-5.175
X6.1348Y-4.8415
X6.15Y-5.08
X6.15Y-5.575
X6.19Y-5.375
X6.2215Y-5.0148
X6.2575Y-4.51
X6.2648Y-4.7982
X6.2648Y-5.1447
X6.275Y-5.5344
X6.3081Y-4.9281
X6.3514Y-5.0581
X6.3514Y-5.4911
X6.42Y-4.78
X6.42Y-4.82
X6.42Y-4.86
X6.42Y-4.9
X6.42Y-4.94
X6.42Y-4.98
X6.42Y-5.02
X6.42Y-5.06
X6.42Y-5.1
X6.42Y-5.14
X6.42Y-5.18
X6.42Y-5.22
T3
X4.7Y-4.7
X4.7Y-5.3
X4.8Y-4.7
X4.8Y-5.3
X4.9Y-4.7
X4.9Y-5.3
X5.0Y-4.7
X5.0Y-5.3
X5.1Y-4.7
X5.1Y-5.3
X5.2Y-4.7
X5.2Y-5.3
X5.3Y-4.7
X5.3Y-5.3
T4
X4.2047Y-4.5
X4.2953Y-4.5
X5.0047Y-4.5
X5.0953Y-4.5
X5.8047Y-4.5
X5.8953Y-4.5
T5
X3.825Y-4.65
X3.825Y-5.45
T2
G00X4.9467Y-5.424
M15
G01X4.9959Y-5.424
M16
G05
G00X4.9467Y-5.576
M15
G01X4.9959Y-5.576
M16
G05
G00X5.1041Y-5.424
M15
G01X5.1533Y-5.424
M16
G05
G00X5.1041Y-5.576
M15
G01X5.1533Y-5.576
M16
G05
T0
M30
