%TF.GenerationSoftware,KiCad,Pcbnew,(5.1.9-0-10_14)*%
%TF.CreationDate,2021-04-26T08:01:11+02:00*%
%TF.ProjectId,wificlock,77696669-636c-46f6-936b-2e6b69636164,rev?*%
%TF.SameCoordinates,Original*%
%TF.FileFunction,Paste,Top*%
%TF.FilePolarity,Positive*%
%FSLAX46Y46*%
G04 Gerber Fmt 4.6, Leading zero omitted, Abs format (unit mm)*
G04 Created by KiCad (PCBNEW (5.1.9-0-10_14)) date 2021-04-26 08:01:11*
%MOMM*%
%LPD*%
G01*
G04 APERTURE LIST*
%TA.AperFunction,Profile*%
%ADD10C,0.100000*%
%TD*%
%ADD11R,1.200000X0.900000*%
%ADD12R,1.000000X2.500000*%
%ADD13R,1.800000X1.000000*%
%ADD14R,1.900000X0.400000*%
%ADD15R,1.060000X0.650000*%
%ADD16R,0.800000X0.900000*%
G04 APERTURE END LIST*
D10*
X160655000Y-143510000D02*
G75*
G02*
X163830000Y-140335000I3175000J0D01*
G01*
X163830000Y-116332000D02*
G75*
G02*
X160528000Y-113030000I0J3302000D01*
G01*
X92075000Y-113030000D02*
X160528000Y-113030000D01*
X92075000Y-143510000D02*
X92075000Y-113030000D01*
X160655000Y-143510000D02*
X92075000Y-143510000D01*
X163830000Y-116332000D02*
X163830000Y-140335000D01*
%TO.C,SW3*%
G36*
G01*
X151990000Y-114166400D02*
X151990000Y-113233600D01*
G75*
G02*
X152123600Y-113100000I133600J0D01*
G01*
X152656400Y-113100000D01*
G75*
G02*
X152790000Y-113233600I0J-133600D01*
G01*
X152790000Y-114166400D01*
G75*
G02*
X152656400Y-114300000I-133600J0D01*
G01*
X152123600Y-114300000D01*
G75*
G02*
X151990000Y-114166400I0J133600D01*
G01*
G37*
G36*
G01*
X144390000Y-114166400D02*
X144390000Y-113233600D01*
G75*
G02*
X144523600Y-113100000I133600J0D01*
G01*
X145056400Y-113100000D01*
G75*
G02*
X145190000Y-113233600I0J-133600D01*
G01*
X145190000Y-114166400D01*
G75*
G02*
X145056400Y-114300000I-133600J0D01*
G01*
X144523600Y-114300000D01*
G75*
G02*
X144390000Y-114166400I0J133600D01*
G01*
G37*
G36*
G01*
X150290000Y-116150000D02*
X150290000Y-115150000D01*
G75*
G02*
X150390000Y-115050000I100000J0D01*
G01*
X150990000Y-115050000D01*
G75*
G02*
X151090000Y-115150000I0J-100000D01*
G01*
X151090000Y-116150000D01*
G75*
G02*
X150990000Y-116250000I-100000J0D01*
G01*
X150390000Y-116250000D01*
G75*
G02*
X150290000Y-116150000I0J100000D01*
G01*
G37*
G36*
G01*
X146090000Y-116150000D02*
X146090000Y-115150000D01*
G75*
G02*
X146190000Y-115050000I100000J0D01*
G01*
X146790000Y-115050000D01*
G75*
G02*
X146890000Y-115150000I0J-100000D01*
G01*
X146890000Y-116150000D01*
G75*
G02*
X146790000Y-116250000I-100000J0D01*
G01*
X146190000Y-116250000D01*
G75*
G02*
X146090000Y-116150000I0J100000D01*
G01*
G37*
%TD*%
%TO.C,SW2*%
G36*
G01*
X131670000Y-114166400D02*
X131670000Y-113233600D01*
G75*
G02*
X131803600Y-113100000I133600J0D01*
G01*
X132336400Y-113100000D01*
G75*
G02*
X132470000Y-113233600I0J-133600D01*
G01*
X132470000Y-114166400D01*
G75*
G02*
X132336400Y-114300000I-133600J0D01*
G01*
X131803600Y-114300000D01*
G75*
G02*
X131670000Y-114166400I0J133600D01*
G01*
G37*
G36*
G01*
X124070000Y-114166400D02*
X124070000Y-113233600D01*
G75*
G02*
X124203600Y-113100000I133600J0D01*
G01*
X124736400Y-113100000D01*
G75*
G02*
X124870000Y-113233600I0J-133600D01*
G01*
X124870000Y-114166400D01*
G75*
G02*
X124736400Y-114300000I-133600J0D01*
G01*
X124203600Y-114300000D01*
G75*
G02*
X124070000Y-114166400I0J133600D01*
G01*
G37*
G36*
G01*
X129970000Y-116150000D02*
X129970000Y-115150000D01*
G75*
G02*
X130070000Y-115050000I100000J0D01*
G01*
X130670000Y-115050000D01*
G75*
G02*
X130770000Y-115150000I0J-100000D01*
G01*
X130770000Y-116150000D01*
G75*
G02*
X130670000Y-116250000I-100000J0D01*
G01*
X130070000Y-116250000D01*
G75*
G02*
X129970000Y-116150000I0J100000D01*
G01*
G37*
G36*
G01*
X125770000Y-116150000D02*
X125770000Y-115150000D01*
G75*
G02*
X125870000Y-115050000I100000J0D01*
G01*
X126470000Y-115050000D01*
G75*
G02*
X126570000Y-115150000I0J-100000D01*
G01*
X126570000Y-116150000D01*
G75*
G02*
X126470000Y-116250000I-100000J0D01*
G01*
X125870000Y-116250000D01*
G75*
G02*
X125770000Y-116150000I0J100000D01*
G01*
G37*
%TD*%
%TO.C,SW1*%
G36*
G01*
X111350000Y-114166400D02*
X111350000Y-113233600D01*
G75*
G02*
X111483600Y-113100000I133600J0D01*
G01*
X112016400Y-113100000D01*
G75*
G02*
X112150000Y-113233600I0J-133600D01*
G01*
X112150000Y-114166400D01*
G75*
G02*
X112016400Y-114300000I-133600J0D01*
G01*
X111483600Y-114300000D01*
G75*
G02*
X111350000Y-114166400I0J133600D01*
G01*
G37*
G36*
G01*
X103750000Y-114166400D02*
X103750000Y-113233600D01*
G75*
G02*
X103883600Y-113100000I133600J0D01*
G01*
X104416400Y-113100000D01*
G75*
G02*
X104550000Y-113233600I0J-133600D01*
G01*
X104550000Y-114166400D01*
G75*
G02*
X104416400Y-114300000I-133600J0D01*
G01*
X103883600Y-114300000D01*
G75*
G02*
X103750000Y-114166400I0J133600D01*
G01*
G37*
G36*
G01*
X109650000Y-116150000D02*
X109650000Y-115150000D01*
G75*
G02*
X109750000Y-115050000I100000J0D01*
G01*
X110350000Y-115050000D01*
G75*
G02*
X110450000Y-115150000I0J-100000D01*
G01*
X110450000Y-116150000D01*
G75*
G02*
X110350000Y-116250000I-100000J0D01*
G01*
X109750000Y-116250000D01*
G75*
G02*
X109650000Y-116150000I0J100000D01*
G01*
G37*
G36*
G01*
X105450000Y-116150000D02*
X105450000Y-115150000D01*
G75*
G02*
X105550000Y-115050000I100000J0D01*
G01*
X106150000Y-115050000D01*
G75*
G02*
X106250000Y-115150000I0J-100000D01*
G01*
X106250000Y-116150000D01*
G75*
G02*
X106150000Y-116250000I-100000J0D01*
G01*
X105550000Y-116250000D01*
G75*
G02*
X105450000Y-116150000I0J100000D01*
G01*
G37*
%TD*%
D11*
%TO.C,D1*%
X99695000Y-122175000D03*
X99695000Y-125475000D03*
%TD*%
D12*
%TO.C,U2*%
X162250000Y-119400000D03*
X160250000Y-119400000D03*
X158250000Y-119400000D03*
X156250000Y-119400000D03*
X154250000Y-119400000D03*
X152250000Y-119400000D03*
X150250000Y-119400000D03*
X148250000Y-119400000D03*
D13*
X146750000Y-122000000D03*
X146750000Y-124000000D03*
X146750000Y-126000000D03*
X146750000Y-128000000D03*
X146750000Y-130000000D03*
X146750000Y-132000000D03*
D12*
X148250000Y-134600000D03*
X150250000Y-134600000D03*
X152250000Y-134600000D03*
X154250000Y-134600000D03*
X156250000Y-134600000D03*
X158250000Y-134600000D03*
X160250000Y-134600000D03*
X162250000Y-134600000D03*
%TD*%
D14*
%TO.C,Y1*%
X135255000Y-132010000D03*
X135255000Y-130810000D03*
X135255000Y-129610000D03*
%TD*%
%TO.C,U4*%
G36*
G01*
X102275000Y-123340000D02*
X102275000Y-123040000D01*
G75*
G02*
X102425000Y-122890000I150000J0D01*
G01*
X104175000Y-122890000D01*
G75*
G02*
X104325000Y-123040000I0J-150000D01*
G01*
X104325000Y-123340000D01*
G75*
G02*
X104175000Y-123490000I-150000J0D01*
G01*
X102425000Y-123490000D01*
G75*
G02*
X102275000Y-123340000I0J150000D01*
G01*
G37*
G36*
G01*
X102275000Y-124610000D02*
X102275000Y-124310000D01*
G75*
G02*
X102425000Y-124160000I150000J0D01*
G01*
X104175000Y-124160000D01*
G75*
G02*
X104325000Y-124310000I0J-150000D01*
G01*
X104325000Y-124610000D01*
G75*
G02*
X104175000Y-124760000I-150000J0D01*
G01*
X102425000Y-124760000D01*
G75*
G02*
X102275000Y-124610000I0J150000D01*
G01*
G37*
G36*
G01*
X102275000Y-125880000D02*
X102275000Y-125580000D01*
G75*
G02*
X102425000Y-125430000I150000J0D01*
G01*
X104175000Y-125430000D01*
G75*
G02*
X104325000Y-125580000I0J-150000D01*
G01*
X104325000Y-125880000D01*
G75*
G02*
X104175000Y-126030000I-150000J0D01*
G01*
X102425000Y-126030000D01*
G75*
G02*
X102275000Y-125880000I0J150000D01*
G01*
G37*
G36*
G01*
X102275000Y-127150000D02*
X102275000Y-126850000D01*
G75*
G02*
X102425000Y-126700000I150000J0D01*
G01*
X104175000Y-126700000D01*
G75*
G02*
X104325000Y-126850000I0J-150000D01*
G01*
X104325000Y-127150000D01*
G75*
G02*
X104175000Y-127300000I-150000J0D01*
G01*
X102425000Y-127300000D01*
G75*
G02*
X102275000Y-127150000I0J150000D01*
G01*
G37*
G36*
G01*
X102275000Y-128420000D02*
X102275000Y-128120000D01*
G75*
G02*
X102425000Y-127970000I150000J0D01*
G01*
X104175000Y-127970000D01*
G75*
G02*
X104325000Y-128120000I0J-150000D01*
G01*
X104325000Y-128420000D01*
G75*
G02*
X104175000Y-128570000I-150000J0D01*
G01*
X102425000Y-128570000D01*
G75*
G02*
X102275000Y-128420000I0J150000D01*
G01*
G37*
G36*
G01*
X102275000Y-129690000D02*
X102275000Y-129390000D01*
G75*
G02*
X102425000Y-129240000I150000J0D01*
G01*
X104175000Y-129240000D01*
G75*
G02*
X104325000Y-129390000I0J-150000D01*
G01*
X104325000Y-129690000D01*
G75*
G02*
X104175000Y-129840000I-150000J0D01*
G01*
X102425000Y-129840000D01*
G75*
G02*
X102275000Y-129690000I0J150000D01*
G01*
G37*
G36*
G01*
X102275000Y-130960000D02*
X102275000Y-130660000D01*
G75*
G02*
X102425000Y-130510000I150000J0D01*
G01*
X104175000Y-130510000D01*
G75*
G02*
X104325000Y-130660000I0J-150000D01*
G01*
X104325000Y-130960000D01*
G75*
G02*
X104175000Y-131110000I-150000J0D01*
G01*
X102425000Y-131110000D01*
G75*
G02*
X102275000Y-130960000I0J150000D01*
G01*
G37*
G36*
G01*
X102275000Y-132230000D02*
X102275000Y-131930000D01*
G75*
G02*
X102425000Y-131780000I150000J0D01*
G01*
X104175000Y-131780000D01*
G75*
G02*
X104325000Y-131930000I0J-150000D01*
G01*
X104325000Y-132230000D01*
G75*
G02*
X104175000Y-132380000I-150000J0D01*
G01*
X102425000Y-132380000D01*
G75*
G02*
X102275000Y-132230000I0J150000D01*
G01*
G37*
G36*
G01*
X102275000Y-133500000D02*
X102275000Y-133200000D01*
G75*
G02*
X102425000Y-133050000I150000J0D01*
G01*
X104175000Y-133050000D01*
G75*
G02*
X104325000Y-133200000I0J-150000D01*
G01*
X104325000Y-133500000D01*
G75*
G02*
X104175000Y-133650000I-150000J0D01*
G01*
X102425000Y-133650000D01*
G75*
G02*
X102275000Y-133500000I0J150000D01*
G01*
G37*
G36*
G01*
X102275000Y-134770000D02*
X102275000Y-134470000D01*
G75*
G02*
X102425000Y-134320000I150000J0D01*
G01*
X104175000Y-134320000D01*
G75*
G02*
X104325000Y-134470000I0J-150000D01*
G01*
X104325000Y-134770000D01*
G75*
G02*
X104175000Y-134920000I-150000J0D01*
G01*
X102425000Y-134920000D01*
G75*
G02*
X102275000Y-134770000I0J150000D01*
G01*
G37*
G36*
G01*
X111575000Y-134770000D02*
X111575000Y-134470000D01*
G75*
G02*
X111725000Y-134320000I150000J0D01*
G01*
X113475000Y-134320000D01*
G75*
G02*
X113625000Y-134470000I0J-150000D01*
G01*
X113625000Y-134770000D01*
G75*
G02*
X113475000Y-134920000I-150000J0D01*
G01*
X111725000Y-134920000D01*
G75*
G02*
X111575000Y-134770000I0J150000D01*
G01*
G37*
G36*
G01*
X111575000Y-133500000D02*
X111575000Y-133200000D01*
G75*
G02*
X111725000Y-133050000I150000J0D01*
G01*
X113475000Y-133050000D01*
G75*
G02*
X113625000Y-133200000I0J-150000D01*
G01*
X113625000Y-133500000D01*
G75*
G02*
X113475000Y-133650000I-150000J0D01*
G01*
X111725000Y-133650000D01*
G75*
G02*
X111575000Y-133500000I0J150000D01*
G01*
G37*
G36*
G01*
X111575000Y-132230000D02*
X111575000Y-131930000D01*
G75*
G02*
X111725000Y-131780000I150000J0D01*
G01*
X113475000Y-131780000D01*
G75*
G02*
X113625000Y-131930000I0J-150000D01*
G01*
X113625000Y-132230000D01*
G75*
G02*
X113475000Y-132380000I-150000J0D01*
G01*
X111725000Y-132380000D01*
G75*
G02*
X111575000Y-132230000I0J150000D01*
G01*
G37*
G36*
G01*
X111575000Y-130960000D02*
X111575000Y-130660000D01*
G75*
G02*
X111725000Y-130510000I150000J0D01*
G01*
X113475000Y-130510000D01*
G75*
G02*
X113625000Y-130660000I0J-150000D01*
G01*
X113625000Y-130960000D01*
G75*
G02*
X113475000Y-131110000I-150000J0D01*
G01*
X111725000Y-131110000D01*
G75*
G02*
X111575000Y-130960000I0J150000D01*
G01*
G37*
G36*
G01*
X111575000Y-129690000D02*
X111575000Y-129390000D01*
G75*
G02*
X111725000Y-129240000I150000J0D01*
G01*
X113475000Y-129240000D01*
G75*
G02*
X113625000Y-129390000I0J-150000D01*
G01*
X113625000Y-129690000D01*
G75*
G02*
X113475000Y-129840000I-150000J0D01*
G01*
X111725000Y-129840000D01*
G75*
G02*
X111575000Y-129690000I0J150000D01*
G01*
G37*
G36*
G01*
X111575000Y-128420000D02*
X111575000Y-128120000D01*
G75*
G02*
X111725000Y-127970000I150000J0D01*
G01*
X113475000Y-127970000D01*
G75*
G02*
X113625000Y-128120000I0J-150000D01*
G01*
X113625000Y-128420000D01*
G75*
G02*
X113475000Y-128570000I-150000J0D01*
G01*
X111725000Y-128570000D01*
G75*
G02*
X111575000Y-128420000I0J150000D01*
G01*
G37*
G36*
G01*
X111575000Y-127150000D02*
X111575000Y-126850000D01*
G75*
G02*
X111725000Y-126700000I150000J0D01*
G01*
X113475000Y-126700000D01*
G75*
G02*
X113625000Y-126850000I0J-150000D01*
G01*
X113625000Y-127150000D01*
G75*
G02*
X113475000Y-127300000I-150000J0D01*
G01*
X111725000Y-127300000D01*
G75*
G02*
X111575000Y-127150000I0J150000D01*
G01*
G37*
G36*
G01*
X111575000Y-125880000D02*
X111575000Y-125580000D01*
G75*
G02*
X111725000Y-125430000I150000J0D01*
G01*
X113475000Y-125430000D01*
G75*
G02*
X113625000Y-125580000I0J-150000D01*
G01*
X113625000Y-125880000D01*
G75*
G02*
X113475000Y-126030000I-150000J0D01*
G01*
X111725000Y-126030000D01*
G75*
G02*
X111575000Y-125880000I0J150000D01*
G01*
G37*
G36*
G01*
X111575000Y-124610000D02*
X111575000Y-124310000D01*
G75*
G02*
X111725000Y-124160000I150000J0D01*
G01*
X113475000Y-124160000D01*
G75*
G02*
X113625000Y-124310000I0J-150000D01*
G01*
X113625000Y-124610000D01*
G75*
G02*
X113475000Y-124760000I-150000J0D01*
G01*
X111725000Y-124760000D01*
G75*
G02*
X111575000Y-124610000I0J150000D01*
G01*
G37*
G36*
G01*
X111575000Y-123340000D02*
X111575000Y-123040000D01*
G75*
G02*
X111725000Y-122890000I150000J0D01*
G01*
X113475000Y-122890000D01*
G75*
G02*
X113625000Y-123040000I0J-150000D01*
G01*
X113625000Y-123340000D01*
G75*
G02*
X113475000Y-123490000I-150000J0D01*
G01*
X111725000Y-123490000D01*
G75*
G02*
X111575000Y-123340000I0J150000D01*
G01*
G37*
%TD*%
D15*
%TO.C,U3*%
X139870000Y-138750000D03*
X139870000Y-139700000D03*
X139870000Y-140650000D03*
X142070000Y-140650000D03*
X142070000Y-138750000D03*
%TD*%
%TO.C,U1*%
G36*
G01*
X137520000Y-122705000D02*
X137520000Y-122405000D01*
G75*
G02*
X137670000Y-122255000I150000J0D01*
G01*
X139320000Y-122255000D01*
G75*
G02*
X139470000Y-122405000I0J-150000D01*
G01*
X139470000Y-122705000D01*
G75*
G02*
X139320000Y-122855000I-150000J0D01*
G01*
X137670000Y-122855000D01*
G75*
G02*
X137520000Y-122705000I0J150000D01*
G01*
G37*
G36*
G01*
X137520000Y-123975000D02*
X137520000Y-123675000D01*
G75*
G02*
X137670000Y-123525000I150000J0D01*
G01*
X139320000Y-123525000D01*
G75*
G02*
X139470000Y-123675000I0J-150000D01*
G01*
X139470000Y-123975000D01*
G75*
G02*
X139320000Y-124125000I-150000J0D01*
G01*
X137670000Y-124125000D01*
G75*
G02*
X137520000Y-123975000I0J150000D01*
G01*
G37*
G36*
G01*
X137520000Y-125245000D02*
X137520000Y-124945000D01*
G75*
G02*
X137670000Y-124795000I150000J0D01*
G01*
X139320000Y-124795000D01*
G75*
G02*
X139470000Y-124945000I0J-150000D01*
G01*
X139470000Y-125245000D01*
G75*
G02*
X139320000Y-125395000I-150000J0D01*
G01*
X137670000Y-125395000D01*
G75*
G02*
X137520000Y-125245000I0J150000D01*
G01*
G37*
G36*
G01*
X137520000Y-126515000D02*
X137520000Y-126215000D01*
G75*
G02*
X137670000Y-126065000I150000J0D01*
G01*
X139320000Y-126065000D01*
G75*
G02*
X139470000Y-126215000I0J-150000D01*
G01*
X139470000Y-126515000D01*
G75*
G02*
X139320000Y-126665000I-150000J0D01*
G01*
X137670000Y-126665000D01*
G75*
G02*
X137520000Y-126515000I0J150000D01*
G01*
G37*
G36*
G01*
X137520000Y-127785000D02*
X137520000Y-127485000D01*
G75*
G02*
X137670000Y-127335000I150000J0D01*
G01*
X139320000Y-127335000D01*
G75*
G02*
X139470000Y-127485000I0J-150000D01*
G01*
X139470000Y-127785000D01*
G75*
G02*
X139320000Y-127935000I-150000J0D01*
G01*
X137670000Y-127935000D01*
G75*
G02*
X137520000Y-127785000I0J150000D01*
G01*
G37*
G36*
G01*
X137520000Y-129055000D02*
X137520000Y-128755000D01*
G75*
G02*
X137670000Y-128605000I150000J0D01*
G01*
X139320000Y-128605000D01*
G75*
G02*
X139470000Y-128755000I0J-150000D01*
G01*
X139470000Y-129055000D01*
G75*
G02*
X139320000Y-129205000I-150000J0D01*
G01*
X137670000Y-129205000D01*
G75*
G02*
X137520000Y-129055000I0J150000D01*
G01*
G37*
G36*
G01*
X137520000Y-130325000D02*
X137520000Y-130025000D01*
G75*
G02*
X137670000Y-129875000I150000J0D01*
G01*
X139320000Y-129875000D01*
G75*
G02*
X139470000Y-130025000I0J-150000D01*
G01*
X139470000Y-130325000D01*
G75*
G02*
X139320000Y-130475000I-150000J0D01*
G01*
X137670000Y-130475000D01*
G75*
G02*
X137520000Y-130325000I0J150000D01*
G01*
G37*
G36*
G01*
X137520000Y-131595000D02*
X137520000Y-131295000D01*
G75*
G02*
X137670000Y-131145000I150000J0D01*
G01*
X139320000Y-131145000D01*
G75*
G02*
X139470000Y-131295000I0J-150000D01*
G01*
X139470000Y-131595000D01*
G75*
G02*
X139320000Y-131745000I-150000J0D01*
G01*
X137670000Y-131745000D01*
G75*
G02*
X137520000Y-131595000I0J150000D01*
G01*
G37*
G36*
G01*
X142470000Y-131595000D02*
X142470000Y-131295000D01*
G75*
G02*
X142620000Y-131145000I150000J0D01*
G01*
X144270000Y-131145000D01*
G75*
G02*
X144420000Y-131295000I0J-150000D01*
G01*
X144420000Y-131595000D01*
G75*
G02*
X144270000Y-131745000I-150000J0D01*
G01*
X142620000Y-131745000D01*
G75*
G02*
X142470000Y-131595000I0J150000D01*
G01*
G37*
G36*
G01*
X142470000Y-130325000D02*
X142470000Y-130025000D01*
G75*
G02*
X142620000Y-129875000I150000J0D01*
G01*
X144270000Y-129875000D01*
G75*
G02*
X144420000Y-130025000I0J-150000D01*
G01*
X144420000Y-130325000D01*
G75*
G02*
X144270000Y-130475000I-150000J0D01*
G01*
X142620000Y-130475000D01*
G75*
G02*
X142470000Y-130325000I0J150000D01*
G01*
G37*
G36*
G01*
X142470000Y-129055000D02*
X142470000Y-128755000D01*
G75*
G02*
X142620000Y-128605000I150000J0D01*
G01*
X144270000Y-128605000D01*
G75*
G02*
X144420000Y-128755000I0J-150000D01*
G01*
X144420000Y-129055000D01*
G75*
G02*
X144270000Y-129205000I-150000J0D01*
G01*
X142620000Y-129205000D01*
G75*
G02*
X142470000Y-129055000I0J150000D01*
G01*
G37*
G36*
G01*
X142470000Y-127785000D02*
X142470000Y-127485000D01*
G75*
G02*
X142620000Y-127335000I150000J0D01*
G01*
X144270000Y-127335000D01*
G75*
G02*
X144420000Y-127485000I0J-150000D01*
G01*
X144420000Y-127785000D01*
G75*
G02*
X144270000Y-127935000I-150000J0D01*
G01*
X142620000Y-127935000D01*
G75*
G02*
X142470000Y-127785000I0J150000D01*
G01*
G37*
G36*
G01*
X142470000Y-126515000D02*
X142470000Y-126215000D01*
G75*
G02*
X142620000Y-126065000I150000J0D01*
G01*
X144270000Y-126065000D01*
G75*
G02*
X144420000Y-126215000I0J-150000D01*
G01*
X144420000Y-126515000D01*
G75*
G02*
X144270000Y-126665000I-150000J0D01*
G01*
X142620000Y-126665000D01*
G75*
G02*
X142470000Y-126515000I0J150000D01*
G01*
G37*
G36*
G01*
X142470000Y-125245000D02*
X142470000Y-124945000D01*
G75*
G02*
X142620000Y-124795000I150000J0D01*
G01*
X144270000Y-124795000D01*
G75*
G02*
X144420000Y-124945000I0J-150000D01*
G01*
X144420000Y-125245000D01*
G75*
G02*
X144270000Y-125395000I-150000J0D01*
G01*
X142620000Y-125395000D01*
G75*
G02*
X142470000Y-125245000I0J150000D01*
G01*
G37*
G36*
G01*
X142470000Y-123975000D02*
X142470000Y-123675000D01*
G75*
G02*
X142620000Y-123525000I150000J0D01*
G01*
X144270000Y-123525000D01*
G75*
G02*
X144420000Y-123675000I0J-150000D01*
G01*
X144420000Y-123975000D01*
G75*
G02*
X144270000Y-124125000I-150000J0D01*
G01*
X142620000Y-124125000D01*
G75*
G02*
X142470000Y-123975000I0J150000D01*
G01*
G37*
G36*
G01*
X142470000Y-122705000D02*
X142470000Y-122405000D01*
G75*
G02*
X142620000Y-122255000I150000J0D01*
G01*
X144270000Y-122255000D01*
G75*
G02*
X144420000Y-122405000I0J-150000D01*
G01*
X144420000Y-122705000D01*
G75*
G02*
X144270000Y-122855000I-150000J0D01*
G01*
X142620000Y-122855000D01*
G75*
G02*
X142470000Y-122705000I0J150000D01*
G01*
G37*
%TD*%
%TO.C,R16*%
G36*
G01*
X115415000Y-131266250D02*
X115415000Y-130353750D01*
G75*
G02*
X115658750Y-130110000I243750J0D01*
G01*
X116146250Y-130110000D01*
G75*
G02*
X116390000Y-130353750I0J-243750D01*
G01*
X116390000Y-131266250D01*
G75*
G02*
X116146250Y-131510000I-243750J0D01*
G01*
X115658750Y-131510000D01*
G75*
G02*
X115415000Y-131266250I0J243750D01*
G01*
G37*
G36*
G01*
X117290000Y-131266250D02*
X117290000Y-130353750D01*
G75*
G02*
X117533750Y-130110000I243750J0D01*
G01*
X118021250Y-130110000D01*
G75*
G02*
X118265000Y-130353750I0J-243750D01*
G01*
X118265000Y-131266250D01*
G75*
G02*
X118021250Y-131510000I-243750J0D01*
G01*
X117533750Y-131510000D01*
G75*
G02*
X117290000Y-131266250I0J243750D01*
G01*
G37*
%TD*%
%TO.C,R15*%
G36*
G01*
X115415000Y-128726250D02*
X115415000Y-127813750D01*
G75*
G02*
X115658750Y-127570000I243750J0D01*
G01*
X116146250Y-127570000D01*
G75*
G02*
X116390000Y-127813750I0J-243750D01*
G01*
X116390000Y-128726250D01*
G75*
G02*
X116146250Y-128970000I-243750J0D01*
G01*
X115658750Y-128970000D01*
G75*
G02*
X115415000Y-128726250I0J243750D01*
G01*
G37*
G36*
G01*
X117290000Y-128726250D02*
X117290000Y-127813750D01*
G75*
G02*
X117533750Y-127570000I243750J0D01*
G01*
X118021250Y-127570000D01*
G75*
G02*
X118265000Y-127813750I0J-243750D01*
G01*
X118265000Y-128726250D01*
G75*
G02*
X118021250Y-128970000I-243750J0D01*
G01*
X117533750Y-128970000D01*
G75*
G02*
X117290000Y-128726250I0J243750D01*
G01*
G37*
%TD*%
%TO.C,R14*%
G36*
G01*
X123646250Y-130965000D02*
X122733750Y-130965000D01*
G75*
G02*
X122490000Y-130721250I0J243750D01*
G01*
X122490000Y-130233750D01*
G75*
G02*
X122733750Y-129990000I243750J0D01*
G01*
X123646250Y-129990000D01*
G75*
G02*
X123890000Y-130233750I0J-243750D01*
G01*
X123890000Y-130721250D01*
G75*
G02*
X123646250Y-130965000I-243750J0D01*
G01*
G37*
G36*
G01*
X123646250Y-129090000D02*
X122733750Y-129090000D01*
G75*
G02*
X122490000Y-128846250I0J243750D01*
G01*
X122490000Y-128358750D01*
G75*
G02*
X122733750Y-128115000I243750J0D01*
G01*
X123646250Y-128115000D01*
G75*
G02*
X123890000Y-128358750I0J-243750D01*
G01*
X123890000Y-128846250D01*
G75*
G02*
X123646250Y-129090000I-243750J0D01*
G01*
G37*
%TD*%
%TO.C,R13*%
G36*
G01*
X122733750Y-123035000D02*
X123646250Y-123035000D01*
G75*
G02*
X123890000Y-123278750I0J-243750D01*
G01*
X123890000Y-123766250D01*
G75*
G02*
X123646250Y-124010000I-243750J0D01*
G01*
X122733750Y-124010000D01*
G75*
G02*
X122490000Y-123766250I0J243750D01*
G01*
X122490000Y-123278750D01*
G75*
G02*
X122733750Y-123035000I243750J0D01*
G01*
G37*
G36*
G01*
X122733750Y-124910000D02*
X123646250Y-124910000D01*
G75*
G02*
X123890000Y-125153750I0J-243750D01*
G01*
X123890000Y-125641250D01*
G75*
G02*
X123646250Y-125885000I-243750J0D01*
G01*
X122733750Y-125885000D01*
G75*
G02*
X122490000Y-125641250I0J243750D01*
G01*
X122490000Y-125153750D01*
G75*
G02*
X122733750Y-124910000I243750J0D01*
G01*
G37*
%TD*%
%TO.C,R12*%
G36*
G01*
X130353750Y-128115000D02*
X131266250Y-128115000D01*
G75*
G02*
X131510000Y-128358750I0J-243750D01*
G01*
X131510000Y-128846250D01*
G75*
G02*
X131266250Y-129090000I-243750J0D01*
G01*
X130353750Y-129090000D01*
G75*
G02*
X130110000Y-128846250I0J243750D01*
G01*
X130110000Y-128358750D01*
G75*
G02*
X130353750Y-128115000I243750J0D01*
G01*
G37*
G36*
G01*
X130353750Y-129990000D02*
X131266250Y-129990000D01*
G75*
G02*
X131510000Y-130233750I0J-243750D01*
G01*
X131510000Y-130721250D01*
G75*
G02*
X131266250Y-130965000I-243750J0D01*
G01*
X130353750Y-130965000D01*
G75*
G02*
X130110000Y-130721250I0J243750D01*
G01*
X130110000Y-130233750D01*
G75*
G02*
X130353750Y-129990000I243750J0D01*
G01*
G37*
%TD*%
%TO.C,R11*%
G36*
G01*
X130353750Y-123035000D02*
X131266250Y-123035000D01*
G75*
G02*
X131510000Y-123278750I0J-243750D01*
G01*
X131510000Y-123766250D01*
G75*
G02*
X131266250Y-124010000I-243750J0D01*
G01*
X130353750Y-124010000D01*
G75*
G02*
X130110000Y-123766250I0J243750D01*
G01*
X130110000Y-123278750D01*
G75*
G02*
X130353750Y-123035000I243750J0D01*
G01*
G37*
G36*
G01*
X130353750Y-124910000D02*
X131266250Y-124910000D01*
G75*
G02*
X131510000Y-125153750I0J-243750D01*
G01*
X131510000Y-125641250D01*
G75*
G02*
X131266250Y-125885000I-243750J0D01*
G01*
X130353750Y-125885000D01*
G75*
G02*
X130110000Y-125641250I0J243750D01*
G01*
X130110000Y-125153750D01*
G75*
G02*
X130353750Y-124910000I243750J0D01*
G01*
G37*
%TD*%
%TO.C,R10*%
G36*
G01*
X115415000Y-126186250D02*
X115415000Y-125273750D01*
G75*
G02*
X115658750Y-125030000I243750J0D01*
G01*
X116146250Y-125030000D01*
G75*
G02*
X116390000Y-125273750I0J-243750D01*
G01*
X116390000Y-126186250D01*
G75*
G02*
X116146250Y-126430000I-243750J0D01*
G01*
X115658750Y-126430000D01*
G75*
G02*
X115415000Y-126186250I0J243750D01*
G01*
G37*
G36*
G01*
X117290000Y-126186250D02*
X117290000Y-125273750D01*
G75*
G02*
X117533750Y-125030000I243750J0D01*
G01*
X118021250Y-125030000D01*
G75*
G02*
X118265000Y-125273750I0J-243750D01*
G01*
X118265000Y-126186250D01*
G75*
G02*
X118021250Y-126430000I-243750J0D01*
G01*
X117533750Y-126430000D01*
G75*
G02*
X117290000Y-126186250I0J243750D01*
G01*
G37*
%TD*%
%TO.C,R9*%
G36*
G01*
X146863750Y-138275000D02*
X147776250Y-138275000D01*
G75*
G02*
X148020000Y-138518750I0J-243750D01*
G01*
X148020000Y-139006250D01*
G75*
G02*
X147776250Y-139250000I-243750J0D01*
G01*
X146863750Y-139250000D01*
G75*
G02*
X146620000Y-139006250I0J243750D01*
G01*
X146620000Y-138518750D01*
G75*
G02*
X146863750Y-138275000I243750J0D01*
G01*
G37*
G36*
G01*
X146863750Y-140150000D02*
X147776250Y-140150000D01*
G75*
G02*
X148020000Y-140393750I0J-243750D01*
G01*
X148020000Y-140881250D01*
G75*
G02*
X147776250Y-141125000I-243750J0D01*
G01*
X146863750Y-141125000D01*
G75*
G02*
X146620000Y-140881250I0J243750D01*
G01*
X146620000Y-140393750D01*
G75*
G02*
X146863750Y-140150000I243750J0D01*
G01*
G37*
%TD*%
%TO.C,R8*%
G36*
G01*
X150316250Y-141125000D02*
X149403750Y-141125000D01*
G75*
G02*
X149160000Y-140881250I0J243750D01*
G01*
X149160000Y-140393750D01*
G75*
G02*
X149403750Y-140150000I243750J0D01*
G01*
X150316250Y-140150000D01*
G75*
G02*
X150560000Y-140393750I0J-243750D01*
G01*
X150560000Y-140881250D01*
G75*
G02*
X150316250Y-141125000I-243750J0D01*
G01*
G37*
G36*
G01*
X150316250Y-139250000D02*
X149403750Y-139250000D01*
G75*
G02*
X149160000Y-139006250I0J243750D01*
G01*
X149160000Y-138518750D01*
G75*
G02*
X149403750Y-138275000I243750J0D01*
G01*
X150316250Y-138275000D01*
G75*
G02*
X150560000Y-138518750I0J-243750D01*
G01*
X150560000Y-139006250D01*
G75*
G02*
X150316250Y-139250000I-243750J0D01*
G01*
G37*
%TD*%
%TO.C,R7*%
G36*
G01*
X152856250Y-141125000D02*
X151943750Y-141125000D01*
G75*
G02*
X151700000Y-140881250I0J243750D01*
G01*
X151700000Y-140393750D01*
G75*
G02*
X151943750Y-140150000I243750J0D01*
G01*
X152856250Y-140150000D01*
G75*
G02*
X153100000Y-140393750I0J-243750D01*
G01*
X153100000Y-140881250D01*
G75*
G02*
X152856250Y-141125000I-243750J0D01*
G01*
G37*
G36*
G01*
X152856250Y-139250000D02*
X151943750Y-139250000D01*
G75*
G02*
X151700000Y-139006250I0J243750D01*
G01*
X151700000Y-138518750D01*
G75*
G02*
X151943750Y-138275000I243750J0D01*
G01*
X152856250Y-138275000D01*
G75*
G02*
X153100000Y-138518750I0J-243750D01*
G01*
X153100000Y-139006250D01*
G75*
G02*
X152856250Y-139250000I-243750J0D01*
G01*
G37*
%TD*%
%TO.C,R6*%
G36*
G01*
X154483750Y-114145000D02*
X155396250Y-114145000D01*
G75*
G02*
X155640000Y-114388750I0J-243750D01*
G01*
X155640000Y-114876250D01*
G75*
G02*
X155396250Y-115120000I-243750J0D01*
G01*
X154483750Y-115120000D01*
G75*
G02*
X154240000Y-114876250I0J243750D01*
G01*
X154240000Y-114388750D01*
G75*
G02*
X154483750Y-114145000I243750J0D01*
G01*
G37*
G36*
G01*
X154483750Y-116020000D02*
X155396250Y-116020000D01*
G75*
G02*
X155640000Y-116263750I0J-243750D01*
G01*
X155640000Y-116751250D01*
G75*
G02*
X155396250Y-116995000I-243750J0D01*
G01*
X154483750Y-116995000D01*
G75*
G02*
X154240000Y-116751250I0J243750D01*
G01*
X154240000Y-116263750D01*
G75*
G02*
X154483750Y-116020000I243750J0D01*
G01*
G37*
%TD*%
%TO.C,R5*%
G36*
G01*
X157023750Y-114145000D02*
X157936250Y-114145000D01*
G75*
G02*
X158180000Y-114388750I0J-243750D01*
G01*
X158180000Y-114876250D01*
G75*
G02*
X157936250Y-115120000I-243750J0D01*
G01*
X157023750Y-115120000D01*
G75*
G02*
X156780000Y-114876250I0J243750D01*
G01*
X156780000Y-114388750D01*
G75*
G02*
X157023750Y-114145000I243750J0D01*
G01*
G37*
G36*
G01*
X157023750Y-116020000D02*
X157936250Y-116020000D01*
G75*
G02*
X158180000Y-116263750I0J-243750D01*
G01*
X158180000Y-116751250D01*
G75*
G02*
X157936250Y-116995000I-243750J0D01*
G01*
X157023750Y-116995000D01*
G75*
G02*
X156780000Y-116751250I0J243750D01*
G01*
X156780000Y-116263750D01*
G75*
G02*
X157023750Y-116020000I243750J0D01*
G01*
G37*
%TD*%
%TO.C,R4*%
G36*
G01*
X157936250Y-141125000D02*
X157023750Y-141125000D01*
G75*
G02*
X156780000Y-140881250I0J243750D01*
G01*
X156780000Y-140393750D01*
G75*
G02*
X157023750Y-140150000I243750J0D01*
G01*
X157936250Y-140150000D01*
G75*
G02*
X158180000Y-140393750I0J-243750D01*
G01*
X158180000Y-140881250D01*
G75*
G02*
X157936250Y-141125000I-243750J0D01*
G01*
G37*
G36*
G01*
X157936250Y-139250000D02*
X157023750Y-139250000D01*
G75*
G02*
X156780000Y-139006250I0J243750D01*
G01*
X156780000Y-138518750D01*
G75*
G02*
X157023750Y-138275000I243750J0D01*
G01*
X157936250Y-138275000D01*
G75*
G02*
X158180000Y-138518750I0J-243750D01*
G01*
X158180000Y-139006250D01*
G75*
G02*
X157936250Y-139250000I-243750J0D01*
G01*
G37*
%TD*%
%TO.C,R3*%
G36*
G01*
X134163750Y-140150000D02*
X135076250Y-140150000D01*
G75*
G02*
X135320000Y-140393750I0J-243750D01*
G01*
X135320000Y-140881250D01*
G75*
G02*
X135076250Y-141125000I-243750J0D01*
G01*
X134163750Y-141125000D01*
G75*
G02*
X133920000Y-140881250I0J243750D01*
G01*
X133920000Y-140393750D01*
G75*
G02*
X134163750Y-140150000I243750J0D01*
G01*
G37*
G36*
G01*
X134163750Y-138275000D02*
X135076250Y-138275000D01*
G75*
G02*
X135320000Y-138518750I0J-243750D01*
G01*
X135320000Y-139006250D01*
G75*
G02*
X135076250Y-139250000I-243750J0D01*
G01*
X134163750Y-139250000D01*
G75*
G02*
X133920000Y-139006250I0J243750D01*
G01*
X133920000Y-138518750D01*
G75*
G02*
X134163750Y-138275000I243750J0D01*
G01*
G37*
%TD*%
%TO.C,R2*%
G36*
G01*
X154483750Y-138275000D02*
X155396250Y-138275000D01*
G75*
G02*
X155640000Y-138518750I0J-243750D01*
G01*
X155640000Y-139006250D01*
G75*
G02*
X155396250Y-139250000I-243750J0D01*
G01*
X154483750Y-139250000D01*
G75*
G02*
X154240000Y-139006250I0J243750D01*
G01*
X154240000Y-138518750D01*
G75*
G02*
X154483750Y-138275000I243750J0D01*
G01*
G37*
G36*
G01*
X154483750Y-140150000D02*
X155396250Y-140150000D01*
G75*
G02*
X155640000Y-140393750I0J-243750D01*
G01*
X155640000Y-140881250D01*
G75*
G02*
X155396250Y-141125000I-243750J0D01*
G01*
X154483750Y-141125000D01*
G75*
G02*
X154240000Y-140881250I0J243750D01*
G01*
X154240000Y-140393750D01*
G75*
G02*
X154483750Y-140150000I243750J0D01*
G01*
G37*
%TD*%
%TO.C,R1*%
G36*
G01*
X122376250Y-139250000D02*
X121463750Y-139250000D01*
G75*
G02*
X121220000Y-139006250I0J243750D01*
G01*
X121220000Y-138518750D01*
G75*
G02*
X121463750Y-138275000I243750J0D01*
G01*
X122376250Y-138275000D01*
G75*
G02*
X122620000Y-138518750I0J-243750D01*
G01*
X122620000Y-139006250D01*
G75*
G02*
X122376250Y-139250000I-243750J0D01*
G01*
G37*
G36*
G01*
X122376250Y-141125000D02*
X121463750Y-141125000D01*
G75*
G02*
X121220000Y-140881250I0J243750D01*
G01*
X121220000Y-140393750D01*
G75*
G02*
X121463750Y-140150000I243750J0D01*
G01*
X122376250Y-140150000D01*
G75*
G02*
X122620000Y-140393750I0J-243750D01*
G01*
X122620000Y-140881250D01*
G75*
G02*
X122376250Y-141125000I-243750J0D01*
G01*
G37*
%TD*%
D16*
%TO.C,Q4*%
X126050000Y-130540000D03*
X127950000Y-130540000D03*
X127000000Y-128540000D03*
%TD*%
%TO.C,Q3*%
X126050000Y-125460000D03*
X127950000Y-125460000D03*
X127000000Y-123460000D03*
%TD*%
%TO.C,Q2*%
X143190000Y-133620000D03*
X141290000Y-133620000D03*
X142240000Y-135620000D03*
%TD*%
%TO.C,Q1*%
X139380000Y-133620000D03*
X137480000Y-133620000D03*
X138430000Y-135620000D03*
%TD*%
%TO.C,C8*%
G36*
G01*
X115415000Y-123646250D02*
X115415000Y-122733750D01*
G75*
G02*
X115658750Y-122490000I243750J0D01*
G01*
X116146250Y-122490000D01*
G75*
G02*
X116390000Y-122733750I0J-243750D01*
G01*
X116390000Y-123646250D01*
G75*
G02*
X116146250Y-123890000I-243750J0D01*
G01*
X115658750Y-123890000D01*
G75*
G02*
X115415000Y-123646250I0J243750D01*
G01*
G37*
G36*
G01*
X117290000Y-123646250D02*
X117290000Y-122733750D01*
G75*
G02*
X117533750Y-122490000I243750J0D01*
G01*
X118021250Y-122490000D01*
G75*
G02*
X118265000Y-122733750I0J-243750D01*
G01*
X118265000Y-123646250D01*
G75*
G02*
X118021250Y-123890000I-243750J0D01*
G01*
X117533750Y-123890000D01*
G75*
G02*
X117290000Y-123646250I0J243750D01*
G01*
G37*
%TD*%
%TO.C,C7*%
G36*
G01*
X144323750Y-138275000D02*
X145236250Y-138275000D01*
G75*
G02*
X145480000Y-138518750I0J-243750D01*
G01*
X145480000Y-139006250D01*
G75*
G02*
X145236250Y-139250000I-243750J0D01*
G01*
X144323750Y-139250000D01*
G75*
G02*
X144080000Y-139006250I0J243750D01*
G01*
X144080000Y-138518750D01*
G75*
G02*
X144323750Y-138275000I243750J0D01*
G01*
G37*
G36*
G01*
X144323750Y-140150000D02*
X145236250Y-140150000D01*
G75*
G02*
X145480000Y-140393750I0J-243750D01*
G01*
X145480000Y-140881250D01*
G75*
G02*
X145236250Y-141125000I-243750J0D01*
G01*
X144323750Y-141125000D01*
G75*
G02*
X144080000Y-140881250I0J243750D01*
G01*
X144080000Y-140393750D01*
G75*
G02*
X144323750Y-140150000I243750J0D01*
G01*
G37*
%TD*%
%TO.C,C6*%
G36*
G01*
X137616250Y-141125000D02*
X136703750Y-141125000D01*
G75*
G02*
X136460000Y-140881250I0J243750D01*
G01*
X136460000Y-140393750D01*
G75*
G02*
X136703750Y-140150000I243750J0D01*
G01*
X137616250Y-140150000D01*
G75*
G02*
X137860000Y-140393750I0J-243750D01*
G01*
X137860000Y-140881250D01*
G75*
G02*
X137616250Y-141125000I-243750J0D01*
G01*
G37*
G36*
G01*
X137616250Y-139250000D02*
X136703750Y-139250000D01*
G75*
G02*
X136460000Y-139006250I0J243750D01*
G01*
X136460000Y-138518750D01*
G75*
G02*
X136703750Y-138275000I243750J0D01*
G01*
X137616250Y-138275000D01*
G75*
G02*
X137860000Y-138518750I0J-243750D01*
G01*
X137860000Y-139006250D01*
G75*
G02*
X137616250Y-139250000I-243750J0D01*
G01*
G37*
%TD*%
%TO.C,C5*%
G36*
G01*
X143688750Y-117955000D02*
X144601250Y-117955000D01*
G75*
G02*
X144845000Y-118198750I0J-243750D01*
G01*
X144845000Y-118686250D01*
G75*
G02*
X144601250Y-118930000I-243750J0D01*
G01*
X143688750Y-118930000D01*
G75*
G02*
X143445000Y-118686250I0J243750D01*
G01*
X143445000Y-118198750D01*
G75*
G02*
X143688750Y-117955000I243750J0D01*
G01*
G37*
G36*
G01*
X143688750Y-119830000D02*
X144601250Y-119830000D01*
G75*
G02*
X144845000Y-120073750I0J-243750D01*
G01*
X144845000Y-120561250D01*
G75*
G02*
X144601250Y-120805000I-243750J0D01*
G01*
X143688750Y-120805000D01*
G75*
G02*
X143445000Y-120561250I0J243750D01*
G01*
X143445000Y-120073750D01*
G75*
G02*
X143688750Y-119830000I243750J0D01*
G01*
G37*
%TD*%
%TO.C,C4*%
G36*
G01*
X141426250Y-117630000D02*
X140513750Y-117630000D01*
G75*
G02*
X140270000Y-117386250I0J243750D01*
G01*
X140270000Y-116898750D01*
G75*
G02*
X140513750Y-116655000I243750J0D01*
G01*
X141426250Y-116655000D01*
G75*
G02*
X141670000Y-116898750I0J-243750D01*
G01*
X141670000Y-117386250D01*
G75*
G02*
X141426250Y-117630000I-243750J0D01*
G01*
G37*
G36*
G01*
X141426250Y-115755000D02*
X140513750Y-115755000D01*
G75*
G02*
X140270000Y-115511250I0J243750D01*
G01*
X140270000Y-115023750D01*
G75*
G02*
X140513750Y-114780000I243750J0D01*
G01*
X141426250Y-114780000D01*
G75*
G02*
X141670000Y-115023750I0J-243750D01*
G01*
X141670000Y-115511250D01*
G75*
G02*
X141426250Y-115755000I-243750J0D01*
G01*
G37*
%TD*%
%TO.C,C3*%
G36*
G01*
X138886250Y-117630000D02*
X137973750Y-117630000D01*
G75*
G02*
X137730000Y-117386250I0J243750D01*
G01*
X137730000Y-116898750D01*
G75*
G02*
X137973750Y-116655000I243750J0D01*
G01*
X138886250Y-116655000D01*
G75*
G02*
X139130000Y-116898750I0J-243750D01*
G01*
X139130000Y-117386250D01*
G75*
G02*
X138886250Y-117630000I-243750J0D01*
G01*
G37*
G36*
G01*
X138886250Y-115755000D02*
X137973750Y-115755000D01*
G75*
G02*
X137730000Y-115511250I0J243750D01*
G01*
X137730000Y-115023750D01*
G75*
G02*
X137973750Y-114780000I243750J0D01*
G01*
X138886250Y-114780000D01*
G75*
G02*
X139130000Y-115023750I0J-243750D01*
G01*
X139130000Y-115511250D01*
G75*
G02*
X138886250Y-115755000I-243750J0D01*
G01*
G37*
%TD*%
%TO.C,C2*%
G36*
G01*
X136346250Y-117630000D02*
X135433750Y-117630000D01*
G75*
G02*
X135190000Y-117386250I0J243750D01*
G01*
X135190000Y-116898750D01*
G75*
G02*
X135433750Y-116655000I243750J0D01*
G01*
X136346250Y-116655000D01*
G75*
G02*
X136590000Y-116898750I0J-243750D01*
G01*
X136590000Y-117386250D01*
G75*
G02*
X136346250Y-117630000I-243750J0D01*
G01*
G37*
G36*
G01*
X136346250Y-115755000D02*
X135433750Y-115755000D01*
G75*
G02*
X135190000Y-115511250I0J243750D01*
G01*
X135190000Y-115023750D01*
G75*
G02*
X135433750Y-114780000I243750J0D01*
G01*
X136346250Y-114780000D01*
G75*
G02*
X136590000Y-115023750I0J-243750D01*
G01*
X136590000Y-115511250D01*
G75*
G02*
X136346250Y-115755000I-243750J0D01*
G01*
G37*
%TD*%
%TO.C,C1*%
G36*
G01*
X139545000Y-121106250D02*
X139545000Y-120193750D01*
G75*
G02*
X139788750Y-119950000I243750J0D01*
G01*
X140276250Y-119950000D01*
G75*
G02*
X140520000Y-120193750I0J-243750D01*
G01*
X140520000Y-121106250D01*
G75*
G02*
X140276250Y-121350000I-243750J0D01*
G01*
X139788750Y-121350000D01*
G75*
G02*
X139545000Y-121106250I0J243750D01*
G01*
G37*
G36*
G01*
X141420000Y-121106250D02*
X141420000Y-120193750D01*
G75*
G02*
X141663750Y-119950000I243750J0D01*
G01*
X142151250Y-119950000D01*
G75*
G02*
X142395000Y-120193750I0J-243750D01*
G01*
X142395000Y-121106250D01*
G75*
G02*
X142151250Y-121350000I-243750J0D01*
G01*
X141663750Y-121350000D01*
G75*
G02*
X141420000Y-121106250I0J243750D01*
G01*
G37*
%TD*%
M02*
