M48
; DRILL file {KiCad (5.1.6-0-10_14)} date Wednesday, March 31, 2021 at 10:59:48 PM
; FORMAT={-:-/ absolute / inch / decimal}
; #@! TF.CreationDate,2021-03-31T22:59:48+02:00
; #@! TF.GenerationSoftware,Kicad,Pcbnew,(5.1.6-0-10_14)
FMAT,2
INCH
T1C0.0177
T2C0.0197
T3C0.0300
T4C0.0315
T5C0.1260
%
G90
G05
T1
X3.6663Y-4.4951
X3.6663Y-4.6683
X3.6663Y-4.8415
X3.6663Y-5.0148
X3.6663Y-5.188
X3.6663Y-5.3612
X3.6663Y-5.5344
X3.753Y-4.7549
X3.753Y-4.9281
X3.753Y-5.1014
X3.753Y-5.2746
X3.7963Y-4.5384
X3.7963Y-5.5778
X3.8396Y-5.188
X3.8829Y-5.3179
X3.9262Y-4.4951
X3.9262Y-4.6683
X3.9262Y-4.8848
X3.9262Y-5.4478
X3.9695Y-5.0148
X3.9695Y-5.2313
X3.9695Y-5.5778
X4.0128Y-4.5817
X4.0128Y-5.3612
X4.0561Y-5.4911
X4.0994Y-4.4951
X4.14Y-4.85
X4.1427Y-4.6683
X4.1427Y-5.2313
X4.1427Y-5.4045
X4.1427Y-5.5778
X4.1674Y-5.0791
X4.1789Y-4.975
X4.1789Y-5.1479
X4.2293Y-4.7982
X4.2293Y-5.4911
X4.2726Y-4.625
X4.2726Y-4.9281
X4.2726Y-5.1447
X4.2726Y-5.3612
X4.3159Y-5.5778
X4.3532Y-4.5432
X4.3593Y-4.8415
X4.3593Y-5.2313
X4.3593Y-5.4478
X4.4026Y-4.6683
X4.4459Y-4.4951
X4.4459Y-5.5344
X4.4892Y-4.7982
X4.4892Y-5.4045
X4.5087Y-5.165
X4.5202Y-4.925
X4.5631Y-4.79
X4.5758Y-4.5384
X4.5758Y-5.4911
X4.6006Y-4.7017
X4.6624Y-4.625
X4.6624Y-5.4045
X4.6624Y-5.5778
X4.6812Y-4.9452
X4.6888Y-5.0114
X4.6913Y-5.1169
X4.7057Y-4.4951
X4.749Y-4.7982
X4.7659Y-5.0255
X4.79Y-5.12
X4.8356Y-4.5384
X4.8356Y-5.4045
X4.842Y-4.805
X4.895Y-5.005
X4.917Y-5.1495
X4.9202Y-4.9316
X4.9786Y-5.2209
X4.9996Y-4.5357
X5.0522Y-5.2313
X5.0878Y-5.0498
X5.0896Y-4.8599
X5.0955Y-4.4951
X5.14Y-5.01
X5.2254Y-4.5384
X5.2254Y-4.8415
X5.2481Y-4.6119
X5.2718Y-4.9932
X5.3Y-4.49
X5.31Y-5.42
X5.35Y-5.58
X5.3832Y-4.987
X5.385Y-4.83
X5.3986Y-4.6683
X5.3986Y-5.4045
X5.4Y-4.49
X5.41Y-5.5
X5.47Y-4.75
X5.5Y-4.49
X5.5469Y-5.3069
X5.5476Y-4.8731
X5.5576Y-5.0969
X5.5622Y-4.9512
X5.5719Y-4.4951
X5.5719Y-5.4045
X5.5765Y-5.2099
X5.5869Y-4.6969
X5.6401Y-5.3152
X5.65Y-5.58
X5.69Y-5.42
X5.7096Y-5.2701
X5.714Y-4.9409
X5.73Y-4.73
X5.7451Y-4.6683
X5.7884Y-5.3612
X5.8317Y-4.5817
X5.85Y-5.22
X5.8734Y-5.5918
X5.875Y-4.8415
X5.9074Y-5.4277
X5.9183Y-4.9715
X5.9616Y-4.5384
X6.0049Y-4.7982
X6.0049Y-5.0581
X6.0407Y-5.4101
X6.0482Y-4.9281
X6.0508Y-5.1773
X6.1068Y-5.5717
X6.1235Y-5.2212
X6.1348Y-4.8415
X6.1348Y-5.1014
X6.1781Y-5.4045
X6.2215Y-5.0148
X6.2215Y-5.5344
X6.2371Y-4.5167
X6.2648Y-4.7982
X6.2648Y-5.1447
X6.3081Y-4.9281
X6.3514Y-5.0581
X6.3514Y-5.4911
X6.42Y-4.78
X6.42Y-4.82
X6.42Y-4.86
X6.42Y-4.9
X6.42Y-4.94
X6.42Y-4.98
X6.42Y-5.02
X6.42Y-5.06
X6.42Y-5.1
X6.42Y-5.14
X6.42Y-5.18
X6.42Y-5.22
X4.872Y-5.4724
X4.872Y-5.5276
X4.9094Y-5.4724
X4.9094Y-5.5276
X4.9469Y-5.4724
X4.9823Y-5.4724
X4.9823Y-5.5276
X5.0177Y-5.4724
X5.0177Y-5.5276
X5.0531Y-5.5276
X5.0906Y-5.4724
X5.0906Y-5.5276
X5.128Y-5.4724
X5.128Y-5.5276
T3
X4.7Y-4.7
X4.7Y-5.3
X4.8Y-4.7
X4.8Y-5.3
X4.9Y-4.7
X4.9Y-5.3
X5.0Y-4.7
X5.0Y-5.3
X5.1Y-4.7
X5.1Y-5.3
X5.2Y-4.7
X5.2Y-5.3
X5.3Y-4.7
X5.3Y-5.3
T4
X4.1547Y-4.5
X4.2453Y-4.5
X4.9547Y-4.5
X5.0453Y-4.5
X5.7547Y-4.5
X5.8453Y-4.5
T5
X3.825Y-4.65
X3.825Y-5.45
T2
G00X4.8967Y-5.424
M15
G01X4.9459Y-5.424
M16
G05
G00X4.8967Y-5.576
M15
G01X4.9459Y-5.576
M16
G05
G00X5.0541Y-5.424
M15
G01X5.1033Y-5.424
M16
G05
G00X5.0541Y-5.576
M15
G01X5.1033Y-5.576
M16
G05
T0
M30
