%TF.GenerationSoftware,KiCad,Pcbnew,(5.1.9-0-10_14)*%
%TF.CreationDate,2021-04-26T08:01:11+02:00*%
%TF.ProjectId,wificlock,77696669-636c-46f6-936b-2e6b69636164,rev?*%
%TF.SameCoordinates,Original*%
%TF.FileFunction,Copper,L4,Bot*%
%TF.FilePolarity,Positive*%
%FSLAX46Y46*%
G04 Gerber Fmt 4.6, Leading zero omitted, Abs format (unit mm)*
G04 Created by KiCad (PCBNEW (5.1.9-0-10_14)) date 2021-04-26 08:01:11*
%MOMM*%
%LPD*%
G01*
G04 APERTURE LIST*
%TA.AperFunction,Profile*%
%ADD10C,0.100000*%
%TD*%
%TA.AperFunction,ComponentPad*%
%ADD11C,1.524000*%
%TD*%
%TA.AperFunction,ComponentPad*%
%ADD12R,1.524000X1.524000*%
%TD*%
%TA.AperFunction,ComponentPad*%
%ADD13C,0.700000*%
%TD*%
%TA.AperFunction,ViaPad*%
%ADD14C,0.800000*%
%TD*%
%TA.AperFunction,Conductor*%
%ADD15C,0.200000*%
%TD*%
%TA.AperFunction,Conductor*%
%ADD16C,0.150000*%
%TD*%
%TA.AperFunction,Conductor*%
%ADD17C,0.100000*%
%TD*%
G04 APERTURE END LIST*
D10*
X160655000Y-143510000D02*
G75*
G02*
X163830000Y-140335000I3175000J0D01*
G01*
X163830000Y-116332000D02*
G75*
G02*
X160528000Y-113030000I0J3302000D01*
G01*
X92075000Y-113030000D02*
X160528000Y-113030000D01*
X92075000Y-143510000D02*
X92075000Y-113030000D01*
X160655000Y-143510000D02*
X92075000Y-143510000D01*
X163830000Y-116332000D02*
X163830000Y-140335000D01*
D11*
%TO.P,U5,14*%
%TO.N,COM0*%
X134620000Y-119380000D03*
%TO.P,U5,13*%
%TO.N,K1*%
X132080000Y-119380000D03*
%TO.P,U5,12*%
%TO.N,ROW5*%
X129540000Y-119380000D03*
%TO.P,U5,11*%
%TO.N,COM1*%
X127000000Y-119380000D03*
%TO.P,U5,10*%
%TO.N,COM2*%
X124460000Y-119380000D03*
%TO.P,U5,9*%
%TO.N,K2*%
X121920000Y-119380000D03*
%TO.P,U5,8*%
%TO.N,K1*%
X119380000Y-119380000D03*
%TO.P,U5,7*%
%TO.N,COM4*%
X119380000Y-134620000D03*
%TO.P,U5,6*%
%TO.N,COM3*%
X121920000Y-134620000D03*
%TO.P,U5,5*%
%TO.N,ROW6*%
X124460000Y-134620000D03*
%TO.P,U5,4*%
%TO.N,K3*%
X127000000Y-134620000D03*
%TO.P,U5,3*%
%TO.N,ROW7*%
X129540000Y-134620000D03*
%TO.P,U5,2*%
%TO.N,ROW3*%
X132080000Y-134620000D03*
D12*
%TO.P,U5,1*%
%TO.N,ROW4*%
X134620000Y-134620000D03*
%TD*%
D13*
%TO.P,J1,A1*%
%TO.N,GND*%
X125020000Y-139000000D03*
%TO.P,J1,A4*%
%TO.N,+5V*%
X125970000Y-139000000D03*
%TO.P,J1,A5*%
%TO.N,Net-(J1-PadA5)*%
X126920000Y-139000000D03*
%TO.P,J1,A6*%
%TO.N,D+*%
X127820000Y-139000000D03*
%TO.P,J1,B12*%
%TO.N,GND*%
X125020000Y-140400000D03*
%TO.P,J1,B9*%
%TO.N,+5V*%
X125970000Y-140400000D03*
%TO.P,J1,B6*%
%TO.N,D+*%
X128720000Y-140400000D03*
%TO.P,J1,B5*%
%TO.N,Net-(J1-PadB5)*%
X129620000Y-140400000D03*
%TO.P,J1,B4*%
%TO.N,+5V*%
X130570000Y-140400000D03*
%TO.P,J1,B1*%
%TO.N,GND*%
X131520000Y-140400000D03*
%TO.P,J1,A9*%
%TO.N,+5V*%
X130570000Y-139000000D03*
%TO.P,J1,A12*%
%TO.N,GND*%
X131520000Y-139000000D03*
%TO.P,J1,S1*%
%TO.N,N/C*%
%TA.AperFunction,ComponentPad*%
G36*
G01*
X125195000Y-137770000D02*
X125195000Y-137770000D01*
G75*
G02*
X125645000Y-137320000I450000J0D01*
G01*
X126895000Y-137320000D01*
G75*
G02*
X127345000Y-137770000I0J-450000D01*
G01*
X127345000Y-137770000D01*
G75*
G02*
X126895000Y-138220000I-450000J0D01*
G01*
X125645000Y-138220000D01*
G75*
G02*
X125195000Y-137770000I0J450000D01*
G01*
G37*
%TD.AperFunction*%
%TA.AperFunction,ComponentPad*%
G36*
G01*
X129195000Y-137770000D02*
X129195000Y-137770000D01*
G75*
G02*
X129645000Y-137320000I450000J0D01*
G01*
X130895000Y-137320000D01*
G75*
G02*
X131345000Y-137770000I0J-450000D01*
G01*
X131345000Y-137770000D01*
G75*
G02*
X130895000Y-138220000I-450000J0D01*
G01*
X129645000Y-138220000D01*
G75*
G02*
X129195000Y-137770000I0J450000D01*
G01*
G37*
%TD.AperFunction*%
%TA.AperFunction,ComponentPad*%
G36*
G01*
X129195000Y-141630000D02*
X129195000Y-141630000D01*
G75*
G02*
X129645000Y-141180000I450000J0D01*
G01*
X130895000Y-141180000D01*
G75*
G02*
X131345000Y-141630000I0J-450000D01*
G01*
X131345000Y-141630000D01*
G75*
G02*
X130895000Y-142080000I-450000J0D01*
G01*
X129645000Y-142080000D01*
G75*
G02*
X129195000Y-141630000I0J450000D01*
G01*
G37*
%TD.AperFunction*%
%TA.AperFunction,ComponentPad*%
G36*
G01*
X125195000Y-141630000D02*
X125195000Y-141630000D01*
G75*
G02*
X125645000Y-141180000I450000J0D01*
G01*
X126895000Y-141180000D01*
G75*
G02*
X127345000Y-141630000I0J-450000D01*
G01*
X127345000Y-141630000D01*
G75*
G02*
X126895000Y-142080000I-450000J0D01*
G01*
X125645000Y-142080000D01*
G75*
G02*
X125195000Y-141630000I0J450000D01*
G01*
G37*
%TD.AperFunction*%
%TO.P,J1,B7*%
%TO.N,D-*%
X127820000Y-140400000D03*
%TO.P,J1,A7*%
X128720000Y-139000000D03*
%TD*%
D14*
%TO.N,+3V3*%
X129276600Y-123440900D03*
X129229600Y-128264300D03*
X124973400Y-125476000D03*
X145796000Y-137668000D03*
X141908000Y-119301000D03*
X149860000Y-141859000D03*
X134239000Y-117094000D03*
X158940500Y-114554000D03*
X124891600Y-130556000D03*
X136733500Y-126365000D03*
%TO.N,GND*%
X137160000Y-141732000D03*
X105156000Y-123190000D03*
X138938000Y-120650000D03*
X148590000Y-132588000D03*
X144780000Y-141732000D03*
X145542000Y-120142000D03*
X140970000Y-114046000D03*
X138430000Y-114046000D03*
X135890000Y-114046000D03*
X138684000Y-139700000D03*
X163068000Y-132588000D03*
X163068000Y-131572000D03*
X163068000Y-130556000D03*
X163068000Y-129540000D03*
X163068000Y-128524000D03*
X163068000Y-127508000D03*
X163068000Y-126492000D03*
X163068000Y-125476000D03*
X163068000Y-124460000D03*
X163068000Y-123444000D03*
X163068000Y-122428000D03*
X163068000Y-121412000D03*
X136271000Y-122809000D03*
X130556000Y-127254000D03*
X124333000Y-127127000D03*
X93124999Y-114174999D03*
X93124999Y-118574999D03*
X93124999Y-122974999D03*
X93124999Y-127374999D03*
X93124999Y-131774999D03*
X93124999Y-136174999D03*
X93124999Y-140574999D03*
X95324999Y-120774999D03*
X95324999Y-125174999D03*
X95324999Y-129574999D03*
X95324999Y-133974999D03*
X96424999Y-115274999D03*
X96424999Y-141674999D03*
X97524999Y-131774999D03*
X98624999Y-135074999D03*
X99724999Y-114174999D03*
X99724999Y-118574999D03*
X97790000Y-127635000D03*
X99724999Y-138374999D03*
X100824999Y-127374999D03*
X100824999Y-132874999D03*
X100824999Y-141674999D03*
X101924999Y-116374999D03*
X101924999Y-136174999D03*
X103024999Y-139474999D03*
X105224999Y-118574999D03*
X105224999Y-132874999D03*
X105224999Y-137274999D03*
X105224999Y-141674999D03*
X107424999Y-121874999D03*
X107424999Y-139474999D03*
X108524999Y-117474999D03*
X108524999Y-125174999D03*
X108524999Y-130674999D03*
X108524999Y-136174999D03*
X109624999Y-141674999D03*
X110724999Y-122974999D03*
X110724999Y-132874999D03*
X110724999Y-138374999D03*
X111824999Y-118574999D03*
X114935000Y-114174999D03*
X112924999Y-140574999D03*
X114024999Y-121874999D03*
X114024999Y-137274999D03*
X117094000Y-115570000D03*
X116224999Y-139474999D03*
X118424999Y-117474999D03*
X118424999Y-137274999D03*
X118424999Y-141674999D03*
X119524999Y-114174999D03*
X120624999Y-121874999D03*
X122824999Y-115274999D03*
X122824999Y-137274999D03*
X128324999Y-132874999D03*
X132334000Y-114935000D03*
X132724999Y-122974999D03*
X137124999Y-118574999D03*
X134620000Y-137668000D03*
X143510000Y-114935000D03*
X143129000Y-137541000D03*
X145924999Y-118574999D03*
X146812000Y-136398000D03*
X148590000Y-116078000D03*
X149224999Y-122974999D03*
X150324999Y-126274999D03*
X152654000Y-115951000D03*
X152524999Y-121874999D03*
X152654000Y-127762000D03*
X153624999Y-125174999D03*
X155824999Y-122974999D03*
X156210000Y-129032000D03*
X157226000Y-136525000D03*
X158024999Y-127374999D03*
X159385000Y-140574999D03*
X159124999Y-121874999D03*
X159124999Y-130674999D03*
X160224999Y-125174999D03*
X161324999Y-128474999D03*
X161324999Y-139474999D03*
X121920000Y-141732000D03*
%TO.N,+5V*%
X123190000Y-122301000D03*
X136144000Y-137668000D03*
X115903000Y-121666000D03*
X121666000Y-130429000D03*
%TO.N,~RTS*%
X141097000Y-132333994D03*
X141478000Y-125476000D03*
%TO.N,~DTR*%
X140892500Y-134795000D03*
X141478000Y-130302000D03*
%TO.N,GPIO0*%
X151129994Y-137414000D03*
X143764004Y-135636000D03*
%TO.N,SDA33*%
X154686000Y-131445000D03*
X145161000Y-125349000D03*
%TO.N,SCL33*%
X134366000Y-126111004D03*
X152400000Y-130301986D03*
%TO.N,Net-(R2-Pad2)*%
X140908200Y-123776100D03*
X153670008Y-139700000D03*
%TO.N,Net-(R4-Pad1)*%
X145025100Y-133861500D03*
X156210000Y-141605000D03*
%TO.N,Net-(R10-Pad2)*%
X118903000Y-125607500D03*
X113029990Y-115570000D03*
%TO.N,K1*%
X114808000Y-125095000D03*
X115570000Y-119379994D03*
%TO.N,Net-(R15-Pad2)*%
X120777000Y-128269996D03*
X129285992Y-115697000D03*
%TO.N,K2*%
X119096500Y-127431310D03*
%TO.N,K3*%
X119159800Y-129969500D03*
%TO.N,ROW3*%
X114519900Y-131191500D03*
%TO.N,ROW5*%
X126457700Y-132609600D03*
%TO.N,COM4*%
X105663974Y-129540000D03*
%TO.N,COM3*%
X107568992Y-128270000D03*
%TO.N,COM2*%
X109601000Y-127000000D03*
%TD*%
D15*
%TO.N,D+*%
X127820000Y-139000000D02*
X127820000Y-139250000D01*
X128720000Y-140150000D02*
X128720000Y-140400000D01*
X127820000Y-139250000D02*
X128720000Y-140150000D01*
%TO.N,~RTS*%
X141478000Y-127508000D02*
X141478000Y-125476000D01*
X142748000Y-128778000D02*
X141478000Y-127508000D01*
X142748000Y-130682994D02*
X142748000Y-128778000D01*
X141097000Y-132333994D02*
X142748000Y-130682994D01*
%TO.N,~DTR*%
X140335000Y-134237500D02*
X140335000Y-131445000D01*
X140892500Y-134795000D02*
X140335000Y-134237500D01*
X140335000Y-131445000D02*
X141478000Y-130302000D01*
%TO.N,GPIO0*%
X149351994Y-135636000D02*
X143764004Y-135636000D01*
X151129994Y-137414000D02*
X149351994Y-135636000D01*
%TO.N,SDA33*%
X154686000Y-131445000D02*
X151257000Y-131445000D01*
X151257000Y-131445000D02*
X145161000Y-125349000D01*
%TO.N,SCL33*%
X134366000Y-126111004D02*
X137444204Y-123032800D01*
X137444204Y-123032800D02*
X145130814Y-123032800D01*
X145130814Y-123032800D02*
X152400000Y-130301986D01*
%TO.N,Net-(R2-Pad2)*%
X153670008Y-136537908D02*
X153670008Y-139700000D01*
X140908200Y-123776100D02*
X153670008Y-136537908D01*
%TO.N,Net-(R4-Pad1)*%
X154178000Y-141605000D02*
X156210000Y-141605000D01*
X152654000Y-140081000D02*
X154178000Y-141605000D01*
X152654000Y-137541000D02*
X152654000Y-140081000D01*
X148974500Y-133861500D02*
X152654000Y-137541000D01*
X145025100Y-133861500D02*
X148974500Y-133861500D01*
%TO.N,Net-(R10-Pad2)*%
X114149902Y-115570000D02*
X113029990Y-115570000D01*
X117667001Y-124371501D02*
X117667001Y-119087099D01*
X118903000Y-125607500D02*
X117667001Y-124371501D01*
X117667001Y-119087099D02*
X114149902Y-115570000D01*
%TO.N,K1*%
X114812100Y-120137894D02*
X115570000Y-119379994D01*
X114812100Y-125095000D02*
X114812100Y-120137894D01*
%TO.N,Net-(R15-Pad2)*%
X128396996Y-116585996D02*
X129285992Y-115697000D01*
X120777000Y-128269996D02*
X128396996Y-120650000D01*
X128396996Y-120650000D02*
X128396996Y-116585996D01*
%TO.N,K2*%
X121920000Y-119380000D02*
X121920000Y-124607810D01*
X121920000Y-124607810D02*
X119096500Y-127431310D01*
%TO.N,K3*%
X124460000Y-132080000D02*
X127000000Y-134620000D01*
X121270300Y-132080000D02*
X124460000Y-132080000D01*
X119159800Y-129969500D02*
X121270300Y-132080000D01*
%TO.N,ROW3*%
X117729500Y-131191500D02*
X114519900Y-131191500D01*
X120650000Y-135128000D02*
X120650000Y-134112000D01*
X120650000Y-134112000D02*
X117729500Y-131191500D01*
X132080000Y-134620000D02*
X130937000Y-135763000D01*
X130937000Y-135763000D02*
X121285000Y-135763000D01*
X121285000Y-135763000D02*
X120650000Y-135128000D01*
%TO.N,ROW5*%
X126457700Y-132609600D02*
X126457700Y-123154996D01*
X126457700Y-123154996D02*
X129540000Y-120072696D01*
X129540000Y-120072696D02*
X129540000Y-119380000D01*
%TO.N,COM4*%
X119380000Y-134620000D02*
X110743974Y-134620000D01*
X110743974Y-134620000D02*
X105663974Y-129540000D01*
%TO.N,COM3*%
X108711992Y-129413000D02*
X107568992Y-128270000D01*
X116713000Y-129413000D02*
X108711992Y-129413000D01*
X121920000Y-134620000D02*
X116713000Y-129413000D01*
%TO.N,COM2*%
X110732311Y-128131311D02*
X109601000Y-127000000D01*
X119645689Y-128131311D02*
X110732311Y-128131311D01*
X124460000Y-123317000D02*
X119645689Y-128131311D01*
X124460000Y-119380000D02*
X124460000Y-123317000D01*
%TD*%
D16*
%TO.N,GND*%
X160272223Y-113727931D02*
X160278150Y-113756805D01*
X160283666Y-113785719D01*
X160284977Y-113790064D01*
X160475542Y-114405681D01*
X160486966Y-114432856D01*
X160497992Y-114460147D01*
X160500122Y-114464154D01*
X160806632Y-115031033D01*
X160823109Y-115055460D01*
X160839233Y-115080101D01*
X160842101Y-115083618D01*
X161252881Y-115580166D01*
X161273791Y-115600930D01*
X161294392Y-115621967D01*
X161297889Y-115624860D01*
X161797291Y-116032163D01*
X161821836Y-116048470D01*
X161846131Y-116065105D01*
X161850123Y-116067264D01*
X162419128Y-116369809D01*
X162446310Y-116381012D01*
X162473435Y-116392638D01*
X162477771Y-116393980D01*
X163094703Y-116580243D01*
X163123593Y-116585963D01*
X163152410Y-116592088D01*
X163156924Y-116592563D01*
X163505000Y-116626692D01*
X163505001Y-140040116D01*
X163157606Y-140076629D01*
X163128758Y-140082551D01*
X163099818Y-140088072D01*
X163095474Y-140089383D01*
X162503533Y-140272618D01*
X162476382Y-140284031D01*
X162449066Y-140295068D01*
X162445059Y-140297199D01*
X161899985Y-140591920D01*
X161875565Y-140608392D01*
X161850917Y-140624521D01*
X161847400Y-140627389D01*
X161369951Y-141022369D01*
X161349222Y-141043244D01*
X161328149Y-141063880D01*
X161325256Y-141067377D01*
X160933618Y-141547573D01*
X160917307Y-141572122D01*
X160900676Y-141596412D01*
X160898517Y-141600404D01*
X160607608Y-142147524D01*
X160596399Y-142174719D01*
X160584779Y-142201832D01*
X160583437Y-142206167D01*
X160404338Y-142799371D01*
X160398615Y-142828276D01*
X160392493Y-142857079D01*
X160392018Y-142861592D01*
X160360308Y-143185000D01*
X92400000Y-143185000D01*
X92400000Y-141629999D01*
X124918670Y-141629999D01*
X124918670Y-141630001D01*
X124932626Y-141771701D01*
X124973959Y-141907955D01*
X125041079Y-142033528D01*
X125131407Y-142143594D01*
X125241473Y-142233922D01*
X125367046Y-142301042D01*
X125503300Y-142342375D01*
X125645000Y-142356331D01*
X126895000Y-142356331D01*
X127036700Y-142342375D01*
X127172954Y-142301042D01*
X127298527Y-142233922D01*
X127408593Y-142143594D01*
X127498921Y-142033528D01*
X127566041Y-141907955D01*
X127607374Y-141771701D01*
X127621330Y-141630001D01*
X127621330Y-141629999D01*
X127607374Y-141488299D01*
X127566041Y-141352045D01*
X127498921Y-141226472D01*
X127408593Y-141116406D01*
X127298527Y-141026078D01*
X127172954Y-140958958D01*
X127036700Y-140917625D01*
X126895000Y-140903669D01*
X126341176Y-140903669D01*
X126368414Y-140885469D01*
X126455469Y-140798414D01*
X126523868Y-140696048D01*
X126570981Y-140582306D01*
X126595000Y-140461557D01*
X126595000Y-140338443D01*
X126570981Y-140217694D01*
X126523868Y-140103952D01*
X126455469Y-140001586D01*
X126368414Y-139914531D01*
X126266048Y-139846132D01*
X126152306Y-139799019D01*
X126031557Y-139775000D01*
X125908443Y-139775000D01*
X125787694Y-139799019D01*
X125673952Y-139846132D01*
X125571586Y-139914531D01*
X125484531Y-140001586D01*
X125416132Y-140103952D01*
X125411902Y-140114164D01*
X125126066Y-140400000D01*
X125411902Y-140685836D01*
X125416132Y-140696048D01*
X125484531Y-140798414D01*
X125571586Y-140885469D01*
X125604756Y-140907633D01*
X125503300Y-140917625D01*
X125367046Y-140958958D01*
X125241473Y-141026078D01*
X125131407Y-141116406D01*
X125041079Y-141226472D01*
X124973959Y-141352045D01*
X124932626Y-141488299D01*
X124918670Y-141629999D01*
X92400000Y-141629999D01*
X92400000Y-140844927D01*
X124681139Y-140844927D01*
X124714174Y-140948530D01*
X124827064Y-140997654D01*
X124947367Y-141023811D01*
X125070462Y-141025995D01*
X125191618Y-141004122D01*
X125306179Y-140959033D01*
X125325826Y-140948530D01*
X125358861Y-140844927D01*
X125020000Y-140506066D01*
X124681139Y-140844927D01*
X92400000Y-140844927D01*
X92400000Y-140450462D01*
X124394005Y-140450462D01*
X124415878Y-140571618D01*
X124460967Y-140686179D01*
X124471470Y-140705826D01*
X124575073Y-140738861D01*
X124913934Y-140400000D01*
X124575073Y-140061139D01*
X124471470Y-140094174D01*
X124422346Y-140207064D01*
X124396189Y-140327367D01*
X124394005Y-140450462D01*
X92400000Y-140450462D01*
X92400000Y-138245329D01*
X95280000Y-138245329D01*
X95280000Y-138614671D01*
X95352056Y-138976917D01*
X95493397Y-139318145D01*
X95698593Y-139625243D01*
X95959757Y-139886407D01*
X96266855Y-140091603D01*
X96608083Y-140232944D01*
X96970329Y-140305000D01*
X97339671Y-140305000D01*
X97701917Y-140232944D01*
X98043145Y-140091603D01*
X98247476Y-139955073D01*
X124681139Y-139955073D01*
X125020000Y-140293934D01*
X125358861Y-139955073D01*
X125325826Y-139851470D01*
X125212936Y-139802346D01*
X125092633Y-139776189D01*
X124969538Y-139774005D01*
X124848382Y-139795878D01*
X124733821Y-139840967D01*
X124714174Y-139851470D01*
X124681139Y-139955073D01*
X98247476Y-139955073D01*
X98350243Y-139886407D01*
X98611407Y-139625243D01*
X98731890Y-139444927D01*
X124681139Y-139444927D01*
X124714174Y-139548530D01*
X124827064Y-139597654D01*
X124947367Y-139623811D01*
X125070462Y-139625995D01*
X125191618Y-139604122D01*
X125306179Y-139559033D01*
X125325826Y-139548530D01*
X125358861Y-139444927D01*
X125020000Y-139106066D01*
X124681139Y-139444927D01*
X98731890Y-139444927D01*
X98816603Y-139318145D01*
X98927480Y-139050462D01*
X124394005Y-139050462D01*
X124415878Y-139171618D01*
X124460967Y-139286179D01*
X124471470Y-139305826D01*
X124575073Y-139338861D01*
X124913934Y-139000000D01*
X124575073Y-138661139D01*
X124471470Y-138694174D01*
X124422346Y-138807064D01*
X124396189Y-138927367D01*
X124394005Y-139050462D01*
X98927480Y-139050462D01*
X98957944Y-138976917D01*
X99030000Y-138614671D01*
X99030000Y-138555073D01*
X124681139Y-138555073D01*
X125020000Y-138893934D01*
X125358861Y-138555073D01*
X125325826Y-138451470D01*
X125212936Y-138402346D01*
X125092633Y-138376189D01*
X124969538Y-138374005D01*
X124848382Y-138395878D01*
X124733821Y-138440967D01*
X124714174Y-138451470D01*
X124681139Y-138555073D01*
X99030000Y-138555073D01*
X99030000Y-138245329D01*
X98957944Y-137883083D01*
X98911104Y-137769999D01*
X124918670Y-137769999D01*
X124918670Y-137770001D01*
X124932626Y-137911701D01*
X124973959Y-138047955D01*
X125041079Y-138173528D01*
X125131407Y-138283594D01*
X125241473Y-138373922D01*
X125367046Y-138441042D01*
X125503300Y-138482375D01*
X125604756Y-138492367D01*
X125571586Y-138514531D01*
X125484531Y-138601586D01*
X125416132Y-138703952D01*
X125411902Y-138714164D01*
X125126066Y-139000000D01*
X125411902Y-139285836D01*
X125416132Y-139296048D01*
X125484531Y-139398414D01*
X125571586Y-139485469D01*
X125673952Y-139553868D01*
X125787694Y-139600981D01*
X125908443Y-139625000D01*
X126031557Y-139625000D01*
X126152306Y-139600981D01*
X126266048Y-139553868D01*
X126368414Y-139485469D01*
X126445000Y-139408883D01*
X126521586Y-139485469D01*
X126623952Y-139553868D01*
X126737694Y-139600981D01*
X126858443Y-139625000D01*
X126981557Y-139625000D01*
X127102306Y-139600981D01*
X127216048Y-139553868D01*
X127318414Y-139485469D01*
X127370000Y-139433883D01*
X127421586Y-139485469D01*
X127523952Y-139553868D01*
X127637694Y-139600981D01*
X127641386Y-139601715D01*
X127814671Y-139775000D01*
X127758443Y-139775000D01*
X127637694Y-139799019D01*
X127523952Y-139846132D01*
X127421586Y-139914531D01*
X127334531Y-140001586D01*
X127266132Y-140103952D01*
X127219019Y-140217694D01*
X127195000Y-140338443D01*
X127195000Y-140461557D01*
X127219019Y-140582306D01*
X127266132Y-140696048D01*
X127334531Y-140798414D01*
X127421586Y-140885469D01*
X127523952Y-140953868D01*
X127637694Y-141000981D01*
X127758443Y-141025000D01*
X127881557Y-141025000D01*
X128002306Y-141000981D01*
X128116048Y-140953868D01*
X128218414Y-140885469D01*
X128270000Y-140833883D01*
X128321586Y-140885469D01*
X128423952Y-140953868D01*
X128537694Y-141000981D01*
X128658443Y-141025000D01*
X128781557Y-141025000D01*
X128902306Y-141000981D01*
X129016048Y-140953868D01*
X129118414Y-140885469D01*
X129170000Y-140833883D01*
X129221586Y-140885469D01*
X129323952Y-140953868D01*
X129353596Y-140966147D01*
X129241473Y-141026078D01*
X129131407Y-141116406D01*
X129041079Y-141226472D01*
X128973959Y-141352045D01*
X128932626Y-141488299D01*
X128918670Y-141629999D01*
X128918670Y-141630001D01*
X128932626Y-141771701D01*
X128973959Y-141907955D01*
X129041079Y-142033528D01*
X129131407Y-142143594D01*
X129241473Y-142233922D01*
X129367046Y-142301042D01*
X129503300Y-142342375D01*
X129645000Y-142356331D01*
X130895000Y-142356331D01*
X131036700Y-142342375D01*
X131172954Y-142301042D01*
X131298527Y-142233922D01*
X131408593Y-142143594D01*
X131498921Y-142033528D01*
X131566041Y-141907955D01*
X131601059Y-141792518D01*
X149185000Y-141792518D01*
X149185000Y-141925482D01*
X149210940Y-142055890D01*
X149261823Y-142178732D01*
X149335693Y-142289287D01*
X149429713Y-142383307D01*
X149540268Y-142457177D01*
X149663110Y-142508060D01*
X149793518Y-142534000D01*
X149926482Y-142534000D01*
X150056890Y-142508060D01*
X150179732Y-142457177D01*
X150290287Y-142383307D01*
X150384307Y-142289287D01*
X150458177Y-142178732D01*
X150509060Y-142055890D01*
X150535000Y-141925482D01*
X150535000Y-141792518D01*
X150509060Y-141662110D01*
X150458177Y-141539268D01*
X150384307Y-141428713D01*
X150290287Y-141334693D01*
X150179732Y-141260823D01*
X150056890Y-141209940D01*
X149926482Y-141184000D01*
X149793518Y-141184000D01*
X149663110Y-141209940D01*
X149540268Y-141260823D01*
X149429713Y-141334693D01*
X149335693Y-141428713D01*
X149261823Y-141539268D01*
X149210940Y-141662110D01*
X149185000Y-141792518D01*
X131601059Y-141792518D01*
X131607374Y-141771701D01*
X131621330Y-141630001D01*
X131621330Y-141629999D01*
X131607374Y-141488299D01*
X131566041Y-141352045D01*
X131498921Y-141226472D01*
X131408593Y-141116406D01*
X131298527Y-141026078D01*
X131172954Y-140958958D01*
X131036700Y-140917625D01*
X130935244Y-140907633D01*
X130968414Y-140885469D01*
X131008956Y-140844927D01*
X131181139Y-140844927D01*
X131214174Y-140948530D01*
X131327064Y-140997654D01*
X131447367Y-141023811D01*
X131570462Y-141025995D01*
X131691618Y-141004122D01*
X131806179Y-140959033D01*
X131825826Y-140948530D01*
X131858861Y-140844927D01*
X131520000Y-140506066D01*
X131181139Y-140844927D01*
X131008956Y-140844927D01*
X131055469Y-140798414D01*
X131123868Y-140696048D01*
X131128098Y-140685836D01*
X131413934Y-140400000D01*
X131626066Y-140400000D01*
X131964927Y-140738861D01*
X132068530Y-140705826D01*
X132117654Y-140592936D01*
X132143811Y-140472633D01*
X132145995Y-140349538D01*
X132124122Y-140228382D01*
X132079033Y-140113821D01*
X132068530Y-140094174D01*
X131964927Y-140061139D01*
X131626066Y-140400000D01*
X131413934Y-140400000D01*
X131128098Y-140114164D01*
X131123868Y-140103952D01*
X131055469Y-140001586D01*
X131008956Y-139955073D01*
X131181139Y-139955073D01*
X131520000Y-140293934D01*
X131858861Y-139955073D01*
X131825826Y-139851470D01*
X131712936Y-139802346D01*
X131592633Y-139776189D01*
X131469538Y-139774005D01*
X131348382Y-139795878D01*
X131233821Y-139840967D01*
X131214174Y-139851470D01*
X131181139Y-139955073D01*
X131008956Y-139955073D01*
X130968414Y-139914531D01*
X130866048Y-139846132D01*
X130752306Y-139799019D01*
X130631557Y-139775000D01*
X130508443Y-139775000D01*
X130387694Y-139799019D01*
X130273952Y-139846132D01*
X130171586Y-139914531D01*
X130095000Y-139991117D01*
X130018414Y-139914531D01*
X129916048Y-139846132D01*
X129802306Y-139799019D01*
X129681557Y-139775000D01*
X129558443Y-139775000D01*
X129437694Y-139799019D01*
X129323952Y-139846132D01*
X129221586Y-139914531D01*
X129170000Y-139966117D01*
X129118414Y-139914531D01*
X129016048Y-139846132D01*
X128902306Y-139799019D01*
X128898615Y-139798285D01*
X128725330Y-139625000D01*
X128781557Y-139625000D01*
X128902306Y-139600981D01*
X129016048Y-139553868D01*
X129118414Y-139485469D01*
X129205469Y-139398414D01*
X129273868Y-139296048D01*
X129320981Y-139182306D01*
X129345000Y-139061557D01*
X129345000Y-138938443D01*
X129320981Y-138817694D01*
X129273868Y-138703952D01*
X129205469Y-138601586D01*
X129118414Y-138514531D01*
X129016048Y-138446132D01*
X128902306Y-138399019D01*
X128781557Y-138375000D01*
X128658443Y-138375000D01*
X128537694Y-138399019D01*
X128423952Y-138446132D01*
X128321586Y-138514531D01*
X128270000Y-138566117D01*
X128218414Y-138514531D01*
X128116048Y-138446132D01*
X128002306Y-138399019D01*
X127881557Y-138375000D01*
X127758443Y-138375000D01*
X127637694Y-138399019D01*
X127523952Y-138446132D01*
X127421586Y-138514531D01*
X127370000Y-138566117D01*
X127318414Y-138514531D01*
X127216048Y-138446132D01*
X127186404Y-138433853D01*
X127298527Y-138373922D01*
X127408593Y-138283594D01*
X127498921Y-138173528D01*
X127566041Y-138047955D01*
X127607374Y-137911701D01*
X127621330Y-137770001D01*
X127621330Y-137769999D01*
X128918670Y-137769999D01*
X128918670Y-137770001D01*
X128932626Y-137911701D01*
X128973959Y-138047955D01*
X129041079Y-138173528D01*
X129131407Y-138283594D01*
X129241473Y-138373922D01*
X129367046Y-138441042D01*
X129503300Y-138482375D01*
X129645000Y-138496331D01*
X130198824Y-138496331D01*
X130171586Y-138514531D01*
X130084531Y-138601586D01*
X130016132Y-138703952D01*
X129969019Y-138817694D01*
X129945000Y-138938443D01*
X129945000Y-139061557D01*
X129969019Y-139182306D01*
X130016132Y-139296048D01*
X130084531Y-139398414D01*
X130171586Y-139485469D01*
X130273952Y-139553868D01*
X130387694Y-139600981D01*
X130508443Y-139625000D01*
X130631557Y-139625000D01*
X130752306Y-139600981D01*
X130866048Y-139553868D01*
X130968414Y-139485469D01*
X131008956Y-139444927D01*
X131181139Y-139444927D01*
X131214174Y-139548530D01*
X131327064Y-139597654D01*
X131447367Y-139623811D01*
X131570462Y-139625995D01*
X131691618Y-139604122D01*
X131806179Y-139559033D01*
X131825826Y-139548530D01*
X131858861Y-139444927D01*
X131520000Y-139106066D01*
X131181139Y-139444927D01*
X131008956Y-139444927D01*
X131055469Y-139398414D01*
X131123868Y-139296048D01*
X131128098Y-139285836D01*
X131413934Y-139000000D01*
X131626066Y-139000000D01*
X131964927Y-139338861D01*
X132068530Y-139305826D01*
X132117654Y-139192936D01*
X132143811Y-139072633D01*
X132145995Y-138949538D01*
X132124122Y-138828382D01*
X132079033Y-138713821D01*
X132068530Y-138694174D01*
X131964927Y-138661139D01*
X131626066Y-139000000D01*
X131413934Y-139000000D01*
X131128098Y-138714164D01*
X131123868Y-138703952D01*
X131055469Y-138601586D01*
X131008956Y-138555073D01*
X131181139Y-138555073D01*
X131520000Y-138893934D01*
X131858861Y-138555073D01*
X131825826Y-138451470D01*
X131712936Y-138402346D01*
X131592633Y-138376189D01*
X131469538Y-138374005D01*
X131348382Y-138395878D01*
X131233821Y-138440967D01*
X131214174Y-138451470D01*
X131181139Y-138555073D01*
X131008956Y-138555073D01*
X130968414Y-138514531D01*
X130935244Y-138492367D01*
X131036700Y-138482375D01*
X131172954Y-138441042D01*
X131298527Y-138373922D01*
X131408593Y-138283594D01*
X131498921Y-138173528D01*
X131566041Y-138047955D01*
X131607374Y-137911701D01*
X131621330Y-137770001D01*
X131621330Y-137769999D01*
X131607374Y-137628299D01*
X131599250Y-137601518D01*
X135469000Y-137601518D01*
X135469000Y-137734482D01*
X135494940Y-137864890D01*
X135545823Y-137987732D01*
X135619693Y-138098287D01*
X135713713Y-138192307D01*
X135824268Y-138266177D01*
X135947110Y-138317060D01*
X136077518Y-138343000D01*
X136210482Y-138343000D01*
X136340890Y-138317060D01*
X136463732Y-138266177D01*
X136574287Y-138192307D01*
X136668307Y-138098287D01*
X136742177Y-137987732D01*
X136793060Y-137864890D01*
X136819000Y-137734482D01*
X136819000Y-137601518D01*
X145121000Y-137601518D01*
X145121000Y-137734482D01*
X145146940Y-137864890D01*
X145197823Y-137987732D01*
X145271693Y-138098287D01*
X145365713Y-138192307D01*
X145476268Y-138266177D01*
X145599110Y-138317060D01*
X145729518Y-138343000D01*
X145862482Y-138343000D01*
X145992890Y-138317060D01*
X146115732Y-138266177D01*
X146226287Y-138192307D01*
X146320307Y-138098287D01*
X146394177Y-137987732D01*
X146445060Y-137864890D01*
X146471000Y-137734482D01*
X146471000Y-137601518D01*
X146445060Y-137471110D01*
X146394177Y-137348268D01*
X146320307Y-137237713D01*
X146226287Y-137143693D01*
X146115732Y-137069823D01*
X145992890Y-137018940D01*
X145862482Y-136993000D01*
X145729518Y-136993000D01*
X145599110Y-137018940D01*
X145476268Y-137069823D01*
X145365713Y-137143693D01*
X145271693Y-137237713D01*
X145197823Y-137348268D01*
X145146940Y-137471110D01*
X145121000Y-137601518D01*
X136819000Y-137601518D01*
X136793060Y-137471110D01*
X136742177Y-137348268D01*
X136668307Y-137237713D01*
X136574287Y-137143693D01*
X136463732Y-137069823D01*
X136340890Y-137018940D01*
X136210482Y-136993000D01*
X136077518Y-136993000D01*
X135947110Y-137018940D01*
X135824268Y-137069823D01*
X135713713Y-137143693D01*
X135619693Y-137237713D01*
X135545823Y-137348268D01*
X135494940Y-137471110D01*
X135469000Y-137601518D01*
X131599250Y-137601518D01*
X131566041Y-137492045D01*
X131498921Y-137366472D01*
X131408593Y-137256406D01*
X131298527Y-137166078D01*
X131172954Y-137098958D01*
X131036700Y-137057625D01*
X130895000Y-137043669D01*
X129645000Y-137043669D01*
X129503300Y-137057625D01*
X129367046Y-137098958D01*
X129241473Y-137166078D01*
X129131407Y-137256406D01*
X129041079Y-137366472D01*
X128973959Y-137492045D01*
X128932626Y-137628299D01*
X128918670Y-137769999D01*
X127621330Y-137769999D01*
X127607374Y-137628299D01*
X127566041Y-137492045D01*
X127498921Y-137366472D01*
X127408593Y-137256406D01*
X127298527Y-137166078D01*
X127172954Y-137098958D01*
X127036700Y-137057625D01*
X126895000Y-137043669D01*
X125645000Y-137043669D01*
X125503300Y-137057625D01*
X125367046Y-137098958D01*
X125241473Y-137166078D01*
X125131407Y-137256406D01*
X125041079Y-137366472D01*
X124973959Y-137492045D01*
X124932626Y-137628299D01*
X124918670Y-137769999D01*
X98911104Y-137769999D01*
X98816603Y-137541855D01*
X98611407Y-137234757D01*
X98350243Y-136973593D01*
X98043145Y-136768397D01*
X97701917Y-136627056D01*
X97339671Y-136555000D01*
X96970329Y-136555000D01*
X96608083Y-136627056D01*
X96266855Y-136768397D01*
X95959757Y-136973593D01*
X95698593Y-137234757D01*
X95493397Y-137541855D01*
X95352056Y-137883083D01*
X95280000Y-138245329D01*
X92400000Y-138245329D01*
X92400000Y-129473518D01*
X104988974Y-129473518D01*
X104988974Y-129606482D01*
X105014914Y-129736890D01*
X105065797Y-129859732D01*
X105139667Y-129970287D01*
X105233687Y-130064307D01*
X105344242Y-130138177D01*
X105467084Y-130189060D01*
X105597492Y-130215000D01*
X105730456Y-130215000D01*
X105795672Y-130202028D01*
X110465783Y-134872139D01*
X110477526Y-134886448D01*
X110534627Y-134933309D01*
X110599774Y-134968131D01*
X110670461Y-134989574D01*
X110725555Y-134995000D01*
X110725558Y-134995000D01*
X110743974Y-134996814D01*
X110762390Y-134995000D01*
X118412889Y-134995000D01*
X118461022Y-135111204D01*
X118574509Y-135281049D01*
X118718951Y-135425491D01*
X118888796Y-135538978D01*
X119077518Y-135617149D01*
X119277864Y-135657000D01*
X119482136Y-135657000D01*
X119682482Y-135617149D01*
X119871204Y-135538978D01*
X120041049Y-135425491D01*
X120185491Y-135281049D01*
X120275058Y-135147003D01*
X120280426Y-135201512D01*
X120301869Y-135272199D01*
X120336691Y-135337346D01*
X120383552Y-135394448D01*
X120397866Y-135406195D01*
X121006809Y-136015139D01*
X121018552Y-136029448D01*
X121032859Y-136041189D01*
X121075653Y-136076310D01*
X121120107Y-136100070D01*
X121140800Y-136111131D01*
X121211487Y-136132574D01*
X121266581Y-136138000D01*
X121266584Y-136138000D01*
X121285000Y-136139814D01*
X121303416Y-136138000D01*
X130918584Y-136138000D01*
X130937000Y-136139814D01*
X130955416Y-136138000D01*
X130955419Y-136138000D01*
X131010513Y-136132574D01*
X131081200Y-136111131D01*
X131146347Y-136076309D01*
X131203448Y-136029448D01*
X131215195Y-136015134D01*
X131661314Y-135569016D01*
X131777518Y-135617149D01*
X131977864Y-135657000D01*
X132182136Y-135657000D01*
X132382482Y-135617149D01*
X132571204Y-135538978D01*
X132741049Y-135425491D01*
X132885491Y-135281049D01*
X132998978Y-135111204D01*
X133077149Y-134922482D01*
X133117000Y-134722136D01*
X133117000Y-134517864D01*
X133077149Y-134317518D01*
X132998978Y-134128796D01*
X132885491Y-133958951D01*
X132784540Y-133858000D01*
X133581670Y-133858000D01*
X133581670Y-135382000D01*
X133586980Y-135435909D01*
X133602704Y-135487747D01*
X133628240Y-135535521D01*
X133662605Y-135577395D01*
X133704479Y-135611760D01*
X133752253Y-135637296D01*
X133804091Y-135653020D01*
X133858000Y-135658330D01*
X135382000Y-135658330D01*
X135435909Y-135653020D01*
X135487747Y-135637296D01*
X135535521Y-135611760D01*
X135577395Y-135577395D01*
X135611760Y-135535521D01*
X135637296Y-135487747D01*
X135653020Y-135435909D01*
X135658330Y-135382000D01*
X135658330Y-133858000D01*
X135653020Y-133804091D01*
X135637296Y-133752253D01*
X135611760Y-133704479D01*
X135577395Y-133662605D01*
X135535521Y-133628240D01*
X135487747Y-133602704D01*
X135435909Y-133586980D01*
X135382000Y-133581670D01*
X133858000Y-133581670D01*
X133804091Y-133586980D01*
X133752253Y-133602704D01*
X133704479Y-133628240D01*
X133662605Y-133662605D01*
X133628240Y-133704479D01*
X133602704Y-133752253D01*
X133586980Y-133804091D01*
X133581670Y-133858000D01*
X132784540Y-133858000D01*
X132741049Y-133814509D01*
X132571204Y-133701022D01*
X132382482Y-133622851D01*
X132182136Y-133583000D01*
X131977864Y-133583000D01*
X131777518Y-133622851D01*
X131588796Y-133701022D01*
X131418951Y-133814509D01*
X131274509Y-133958951D01*
X131161022Y-134128796D01*
X131082851Y-134317518D01*
X131043000Y-134517864D01*
X131043000Y-134722136D01*
X131082851Y-134922482D01*
X131130984Y-135038686D01*
X130781671Y-135388000D01*
X130238540Y-135388000D01*
X130345491Y-135281049D01*
X130458978Y-135111204D01*
X130537149Y-134922482D01*
X130577000Y-134722136D01*
X130577000Y-134517864D01*
X130537149Y-134317518D01*
X130458978Y-134128796D01*
X130345491Y-133958951D01*
X130201049Y-133814509D01*
X130031204Y-133701022D01*
X129842482Y-133622851D01*
X129642136Y-133583000D01*
X129437864Y-133583000D01*
X129237518Y-133622851D01*
X129048796Y-133701022D01*
X128878951Y-133814509D01*
X128734509Y-133958951D01*
X128621022Y-134128796D01*
X128542851Y-134317518D01*
X128503000Y-134517864D01*
X128503000Y-134722136D01*
X128542851Y-134922482D01*
X128621022Y-135111204D01*
X128734509Y-135281049D01*
X128841460Y-135388000D01*
X127698540Y-135388000D01*
X127805491Y-135281049D01*
X127918978Y-135111204D01*
X127997149Y-134922482D01*
X128037000Y-134722136D01*
X128037000Y-134517864D01*
X127997149Y-134317518D01*
X127918978Y-134128796D01*
X127805491Y-133958951D01*
X127661049Y-133814509D01*
X127491204Y-133701022D01*
X127302482Y-133622851D01*
X127102136Y-133583000D01*
X126897864Y-133583000D01*
X126697518Y-133622851D01*
X126581314Y-133670984D01*
X126078113Y-133167783D01*
X126137968Y-133207777D01*
X126260810Y-133258660D01*
X126391218Y-133284600D01*
X126524182Y-133284600D01*
X126654590Y-133258660D01*
X126777432Y-133207777D01*
X126887987Y-133133907D01*
X126982007Y-133039887D01*
X127055877Y-132929332D01*
X127106760Y-132806490D01*
X127132700Y-132676082D01*
X127132700Y-132543118D01*
X127106760Y-132412710D01*
X127055877Y-132289868D01*
X126982007Y-132179313D01*
X126887987Y-132085293D01*
X126832700Y-132048352D01*
X126832700Y-128197818D01*
X128554600Y-128197818D01*
X128554600Y-128330782D01*
X128580540Y-128461190D01*
X128631423Y-128584032D01*
X128705293Y-128694587D01*
X128799313Y-128788607D01*
X128909868Y-128862477D01*
X129032710Y-128913360D01*
X129163118Y-128939300D01*
X129296082Y-128939300D01*
X129426490Y-128913360D01*
X129549332Y-128862477D01*
X129659887Y-128788607D01*
X129753907Y-128694587D01*
X129827777Y-128584032D01*
X129878660Y-128461190D01*
X129904600Y-128330782D01*
X129904600Y-128197818D01*
X129878660Y-128067410D01*
X129827777Y-127944568D01*
X129753907Y-127834013D01*
X129659887Y-127739993D01*
X129549332Y-127666123D01*
X129426490Y-127615240D01*
X129296082Y-127589300D01*
X129163118Y-127589300D01*
X129032710Y-127615240D01*
X128909868Y-127666123D01*
X128799313Y-127739993D01*
X128705293Y-127834013D01*
X128631423Y-127944568D01*
X128580540Y-128067410D01*
X128554600Y-128197818D01*
X126832700Y-128197818D01*
X126832700Y-126044522D01*
X133691000Y-126044522D01*
X133691000Y-126177486D01*
X133716940Y-126307894D01*
X133767823Y-126430736D01*
X133841693Y-126541291D01*
X133935713Y-126635311D01*
X134046268Y-126709181D01*
X134169110Y-126760064D01*
X134299518Y-126786004D01*
X134432482Y-126786004D01*
X134562890Y-126760064D01*
X134685732Y-126709181D01*
X134796287Y-126635311D01*
X134890307Y-126541291D01*
X134964177Y-126430736D01*
X135015060Y-126307894D01*
X135016925Y-126298518D01*
X136058500Y-126298518D01*
X136058500Y-126431482D01*
X136084440Y-126561890D01*
X136135323Y-126684732D01*
X136209193Y-126795287D01*
X136303213Y-126889307D01*
X136413768Y-126963177D01*
X136536610Y-127014060D01*
X136667018Y-127040000D01*
X136799982Y-127040000D01*
X136930390Y-127014060D01*
X137053232Y-126963177D01*
X137163787Y-126889307D01*
X137257807Y-126795287D01*
X137331677Y-126684732D01*
X137382560Y-126561890D01*
X137408500Y-126431482D01*
X137408500Y-126298518D01*
X137382560Y-126168110D01*
X137331677Y-126045268D01*
X137257807Y-125934713D01*
X137163787Y-125840693D01*
X137053232Y-125766823D01*
X136930390Y-125715940D01*
X136799982Y-125690000D01*
X136667018Y-125690000D01*
X136536610Y-125715940D01*
X136413768Y-125766823D01*
X136303213Y-125840693D01*
X136209193Y-125934713D01*
X136135323Y-126045268D01*
X136084440Y-126168110D01*
X136058500Y-126298518D01*
X135016925Y-126298518D01*
X135041000Y-126177486D01*
X135041000Y-126044522D01*
X135028028Y-125979306D01*
X137599534Y-123407800D01*
X140342475Y-123407800D01*
X140310023Y-123456368D01*
X140259140Y-123579210D01*
X140233200Y-123709618D01*
X140233200Y-123842582D01*
X140259140Y-123972990D01*
X140310023Y-124095832D01*
X140383893Y-124206387D01*
X140477913Y-124300407D01*
X140588468Y-124374277D01*
X140711310Y-124425160D01*
X140841718Y-124451100D01*
X140974682Y-124451100D01*
X141039898Y-124438128D01*
X141404222Y-124802451D01*
X141281110Y-124826940D01*
X141158268Y-124877823D01*
X141047713Y-124951693D01*
X140953693Y-125045713D01*
X140879823Y-125156268D01*
X140828940Y-125279110D01*
X140803000Y-125409518D01*
X140803000Y-125542482D01*
X140828940Y-125672890D01*
X140879823Y-125795732D01*
X140953693Y-125906287D01*
X141047713Y-126000307D01*
X141103001Y-126037249D01*
X141103000Y-127489584D01*
X141101186Y-127508000D01*
X141103000Y-127526416D01*
X141103000Y-127526418D01*
X141108426Y-127581512D01*
X141129869Y-127652199D01*
X141164691Y-127717346D01*
X141211552Y-127774448D01*
X141225866Y-127786195D01*
X142373001Y-128933332D01*
X142373000Y-130527664D01*
X141228698Y-131671966D01*
X141163482Y-131658994D01*
X141030518Y-131658994D01*
X140900110Y-131684934D01*
X140777268Y-131735817D01*
X140710000Y-131780764D01*
X140710000Y-131600329D01*
X141346302Y-130964028D01*
X141411518Y-130977000D01*
X141544482Y-130977000D01*
X141674890Y-130951060D01*
X141797732Y-130900177D01*
X141908287Y-130826307D01*
X142002307Y-130732287D01*
X142076177Y-130621732D01*
X142127060Y-130498890D01*
X142153000Y-130368482D01*
X142153000Y-130235518D01*
X142127060Y-130105110D01*
X142076177Y-129982268D01*
X142002307Y-129871713D01*
X141908287Y-129777693D01*
X141797732Y-129703823D01*
X141674890Y-129652940D01*
X141544482Y-129627000D01*
X141411518Y-129627000D01*
X141281110Y-129652940D01*
X141158268Y-129703823D01*
X141047713Y-129777693D01*
X140953693Y-129871713D01*
X140879823Y-129982268D01*
X140828940Y-130105110D01*
X140803000Y-130235518D01*
X140803000Y-130368482D01*
X140815972Y-130433698D01*
X140082862Y-131166809D01*
X140068553Y-131178552D01*
X140056812Y-131192859D01*
X140056811Y-131192860D01*
X140021691Y-131235654D01*
X139986870Y-131300800D01*
X139965427Y-131371488D01*
X139958186Y-131445000D01*
X139960001Y-131463426D01*
X139960000Y-134219084D01*
X139958186Y-134237500D01*
X139960000Y-134255916D01*
X139960000Y-134255918D01*
X139965426Y-134311012D01*
X139986869Y-134381699D01*
X140021691Y-134446846D01*
X140068552Y-134503948D01*
X140082866Y-134515695D01*
X140230472Y-134663302D01*
X140217500Y-134728518D01*
X140217500Y-134861482D01*
X140243440Y-134991890D01*
X140294323Y-135114732D01*
X140368193Y-135225287D01*
X140462213Y-135319307D01*
X140572768Y-135393177D01*
X140695610Y-135444060D01*
X140826018Y-135470000D01*
X140958982Y-135470000D01*
X141089390Y-135444060D01*
X141212232Y-135393177D01*
X141322787Y-135319307D01*
X141416807Y-135225287D01*
X141490677Y-135114732D01*
X141541560Y-134991890D01*
X141567500Y-134861482D01*
X141567500Y-134728518D01*
X141541560Y-134598110D01*
X141490677Y-134475268D01*
X141416807Y-134364713D01*
X141322787Y-134270693D01*
X141212232Y-134196823D01*
X141089390Y-134145940D01*
X140958982Y-134120000D01*
X140826018Y-134120000D01*
X140760802Y-134132972D01*
X140710000Y-134082171D01*
X140710000Y-132887224D01*
X140777268Y-132932171D01*
X140900110Y-132983054D01*
X141030518Y-133008994D01*
X141163482Y-133008994D01*
X141293890Y-132983054D01*
X141416732Y-132932171D01*
X141527287Y-132858301D01*
X141621307Y-132764281D01*
X141695177Y-132653726D01*
X141746060Y-132530884D01*
X141772000Y-132400476D01*
X141772000Y-132267512D01*
X141759028Y-132202296D01*
X143000140Y-130961184D01*
X143014448Y-130949442D01*
X143034464Y-130925052D01*
X143061310Y-130892341D01*
X143096130Y-130827195D01*
X143096131Y-130827194D01*
X143117574Y-130756507D01*
X143123000Y-130701413D01*
X143123000Y-130701410D01*
X143124814Y-130682994D01*
X143123000Y-130664578D01*
X143123000Y-128796415D01*
X143124814Y-128777999D01*
X143123000Y-128759581D01*
X143117574Y-128704487D01*
X143096131Y-128633800D01*
X143061309Y-128568653D01*
X143044512Y-128548185D01*
X143026189Y-128525858D01*
X143026186Y-128525855D01*
X143014448Y-128511552D01*
X143000145Y-128499814D01*
X141853000Y-127352671D01*
X141853000Y-126037248D01*
X141908287Y-126000307D01*
X142002307Y-125906287D01*
X142076177Y-125795732D01*
X142127060Y-125672890D01*
X142151549Y-125549778D01*
X153295008Y-136693238D01*
X153295009Y-139138751D01*
X153239721Y-139175693D01*
X153145701Y-139269713D01*
X153071831Y-139380268D01*
X153029000Y-139483671D01*
X153029000Y-137559416D01*
X153030814Y-137541000D01*
X153029000Y-137522581D01*
X153023574Y-137467487D01*
X153002131Y-137396800D01*
X152967309Y-137331653D01*
X152920448Y-137274552D01*
X152906140Y-137262810D01*
X149252695Y-133609366D01*
X149240948Y-133595052D01*
X149183847Y-133548191D01*
X149118700Y-133513369D01*
X149048013Y-133491926D01*
X148992919Y-133486500D01*
X148992916Y-133486500D01*
X148974500Y-133484686D01*
X148956084Y-133486500D01*
X145586348Y-133486500D01*
X145549407Y-133431213D01*
X145455387Y-133337193D01*
X145344832Y-133263323D01*
X145221990Y-133212440D01*
X145091582Y-133186500D01*
X144958618Y-133186500D01*
X144828210Y-133212440D01*
X144705368Y-133263323D01*
X144594813Y-133337193D01*
X144500793Y-133431213D01*
X144426923Y-133541768D01*
X144376040Y-133664610D01*
X144350100Y-133795018D01*
X144350100Y-133927982D01*
X144376040Y-134058390D01*
X144426923Y-134181232D01*
X144500793Y-134291787D01*
X144594813Y-134385807D01*
X144705368Y-134459677D01*
X144828210Y-134510560D01*
X144958618Y-134536500D01*
X145091582Y-134536500D01*
X145221990Y-134510560D01*
X145344832Y-134459677D01*
X145455387Y-134385807D01*
X145549407Y-134291787D01*
X145586348Y-134236500D01*
X148819171Y-134236500D01*
X151362266Y-136779596D01*
X151326884Y-136764940D01*
X151196476Y-136739000D01*
X151063512Y-136739000D01*
X150998296Y-136751972D01*
X149630189Y-135383866D01*
X149618442Y-135369552D01*
X149561341Y-135322691D01*
X149496194Y-135287869D01*
X149425507Y-135266426D01*
X149370413Y-135261000D01*
X149370410Y-135261000D01*
X149351994Y-135259186D01*
X149333578Y-135261000D01*
X144325252Y-135261000D01*
X144288311Y-135205713D01*
X144194291Y-135111693D01*
X144083736Y-135037823D01*
X143960894Y-134986940D01*
X143830486Y-134961000D01*
X143697522Y-134961000D01*
X143567114Y-134986940D01*
X143444272Y-135037823D01*
X143333717Y-135111693D01*
X143239697Y-135205713D01*
X143165827Y-135316268D01*
X143114944Y-135439110D01*
X143089004Y-135569518D01*
X143089004Y-135702482D01*
X143114944Y-135832890D01*
X143165827Y-135955732D01*
X143239697Y-136066287D01*
X143333717Y-136160307D01*
X143444272Y-136234177D01*
X143567114Y-136285060D01*
X143697522Y-136311000D01*
X143830486Y-136311000D01*
X143960894Y-136285060D01*
X144083736Y-136234177D01*
X144194291Y-136160307D01*
X144288311Y-136066287D01*
X144325252Y-136011000D01*
X149196665Y-136011000D01*
X150467966Y-137282302D01*
X150454994Y-137347518D01*
X150454994Y-137480482D01*
X150480934Y-137610890D01*
X150531817Y-137733732D01*
X150605687Y-137844287D01*
X150699707Y-137938307D01*
X150810262Y-138012177D01*
X150933104Y-138063060D01*
X151063512Y-138089000D01*
X151196476Y-138089000D01*
X151326884Y-138063060D01*
X151449726Y-138012177D01*
X151560281Y-137938307D01*
X151654301Y-137844287D01*
X151728171Y-137733732D01*
X151779054Y-137610890D01*
X151804994Y-137480482D01*
X151804994Y-137347518D01*
X151779054Y-137217110D01*
X151764398Y-137181728D01*
X152279000Y-137696330D01*
X152279001Y-140062574D01*
X152277186Y-140081000D01*
X152283767Y-140147813D01*
X152284427Y-140154513D01*
X152301929Y-140212207D01*
X152305870Y-140225200D01*
X152331416Y-140272992D01*
X152340692Y-140290347D01*
X152387553Y-140347448D01*
X152401862Y-140359191D01*
X153899809Y-141857139D01*
X153911552Y-141871448D01*
X153941766Y-141896243D01*
X153968652Y-141918309D01*
X154033798Y-141953130D01*
X154033800Y-141953131D01*
X154104487Y-141974574D01*
X154159581Y-141980000D01*
X154159583Y-141980000D01*
X154177999Y-141981814D01*
X154196415Y-141980000D01*
X155648752Y-141980000D01*
X155685693Y-142035287D01*
X155779713Y-142129307D01*
X155890268Y-142203177D01*
X156013110Y-142254060D01*
X156143518Y-142280000D01*
X156276482Y-142280000D01*
X156406890Y-142254060D01*
X156529732Y-142203177D01*
X156640287Y-142129307D01*
X156734307Y-142035287D01*
X156808177Y-141924732D01*
X156859060Y-141801890D01*
X156885000Y-141671482D01*
X156885000Y-141538518D01*
X156859060Y-141408110D01*
X156808177Y-141285268D01*
X156734307Y-141174713D01*
X156640287Y-141080693D01*
X156529732Y-141006823D01*
X156406890Y-140955940D01*
X156276482Y-140930000D01*
X156143518Y-140930000D01*
X156013110Y-140955940D01*
X155890268Y-141006823D01*
X155779713Y-141080693D01*
X155685693Y-141174713D01*
X155648752Y-141230000D01*
X154333330Y-141230000D01*
X153437732Y-140334403D01*
X153473118Y-140349060D01*
X153603526Y-140375000D01*
X153736490Y-140375000D01*
X153866898Y-140349060D01*
X153989740Y-140298177D01*
X154100295Y-140224307D01*
X154194315Y-140130287D01*
X154268185Y-140019732D01*
X154319068Y-139896890D01*
X154345008Y-139766482D01*
X154345008Y-139633518D01*
X154319068Y-139503110D01*
X154268185Y-139380268D01*
X154194315Y-139269713D01*
X154100295Y-139175693D01*
X154045008Y-139138752D01*
X154045008Y-136556324D01*
X154046822Y-136537908D01*
X154045008Y-136519489D01*
X154039582Y-136464395D01*
X154018139Y-136393708D01*
X153983317Y-136328561D01*
X153936456Y-136271460D01*
X153922148Y-136259718D01*
X142944948Y-125282518D01*
X144486000Y-125282518D01*
X144486000Y-125415482D01*
X144511940Y-125545890D01*
X144562823Y-125668732D01*
X144636693Y-125779287D01*
X144730713Y-125873307D01*
X144841268Y-125947177D01*
X144964110Y-125998060D01*
X145094518Y-126024000D01*
X145227482Y-126024000D01*
X145292698Y-126011028D01*
X150978809Y-131697139D01*
X150990552Y-131711448D01*
X151047653Y-131758309D01*
X151112800Y-131793131D01*
X151183487Y-131814574D01*
X151238581Y-131820000D01*
X151238584Y-131820000D01*
X151257000Y-131821814D01*
X151275416Y-131820000D01*
X154124752Y-131820000D01*
X154161693Y-131875287D01*
X154255713Y-131969307D01*
X154366268Y-132043177D01*
X154489110Y-132094060D01*
X154619518Y-132120000D01*
X154752482Y-132120000D01*
X154882890Y-132094060D01*
X155005732Y-132043177D01*
X155116287Y-131969307D01*
X155210307Y-131875287D01*
X155284177Y-131764732D01*
X155335060Y-131641890D01*
X155361000Y-131511482D01*
X155361000Y-131378518D01*
X155335060Y-131248110D01*
X155284177Y-131125268D01*
X155210307Y-131014713D01*
X155116287Y-130920693D01*
X155005732Y-130846823D01*
X154882890Y-130795940D01*
X154752482Y-130770000D01*
X154619518Y-130770000D01*
X154489110Y-130795940D01*
X154366268Y-130846823D01*
X154255713Y-130920693D01*
X154161693Y-131014713D01*
X154124752Y-131070000D01*
X151412330Y-131070000D01*
X145823028Y-125480698D01*
X145836000Y-125415482D01*
X145836000Y-125282518D01*
X145810060Y-125152110D01*
X145759177Y-125029268D01*
X145685307Y-124918713D01*
X145591287Y-124824693D01*
X145480732Y-124750823D01*
X145357890Y-124699940D01*
X145227482Y-124674000D01*
X145094518Y-124674000D01*
X144964110Y-124699940D01*
X144841268Y-124750823D01*
X144730713Y-124824693D01*
X144636693Y-124918713D01*
X144562823Y-125029268D01*
X144511940Y-125152110D01*
X144486000Y-125282518D01*
X142944948Y-125282518D01*
X141570228Y-123907798D01*
X141583200Y-123842582D01*
X141583200Y-123709618D01*
X141557260Y-123579210D01*
X141506377Y-123456368D01*
X141473925Y-123407800D01*
X144975485Y-123407800D01*
X151737972Y-130170288D01*
X151725000Y-130235504D01*
X151725000Y-130368468D01*
X151750940Y-130498876D01*
X151801823Y-130621718D01*
X151875693Y-130732273D01*
X151969713Y-130826293D01*
X152080268Y-130900163D01*
X152203110Y-130951046D01*
X152333518Y-130976986D01*
X152466482Y-130976986D01*
X152596890Y-130951046D01*
X152719732Y-130900163D01*
X152830287Y-130826293D01*
X152924307Y-130732273D01*
X152998177Y-130621718D01*
X153049060Y-130498876D01*
X153075000Y-130368468D01*
X153075000Y-130235504D01*
X153049060Y-130105096D01*
X152998177Y-129982254D01*
X152924307Y-129871699D01*
X152830287Y-129777679D01*
X152719732Y-129703809D01*
X152596890Y-129652926D01*
X152466482Y-129626986D01*
X152333518Y-129626986D01*
X152268302Y-129639958D01*
X145409009Y-122780666D01*
X145397262Y-122766352D01*
X145340161Y-122719491D01*
X145275014Y-122684669D01*
X145204327Y-122663226D01*
X145149233Y-122657800D01*
X145149230Y-122657800D01*
X145130814Y-122655986D01*
X145112398Y-122657800D01*
X137462620Y-122657800D01*
X137444204Y-122655986D01*
X137425788Y-122657800D01*
X137425785Y-122657800D01*
X137370691Y-122663226D01*
X137300004Y-122684669D01*
X137234857Y-122719491D01*
X137177756Y-122766352D01*
X137166013Y-122780661D01*
X134497698Y-125448976D01*
X134432482Y-125436004D01*
X134299518Y-125436004D01*
X134169110Y-125461944D01*
X134046268Y-125512827D01*
X133935713Y-125586697D01*
X133841693Y-125680717D01*
X133767823Y-125791272D01*
X133716940Y-125914114D01*
X133691000Y-126044522D01*
X126832700Y-126044522D01*
X126832700Y-123374418D01*
X128601600Y-123374418D01*
X128601600Y-123507382D01*
X128627540Y-123637790D01*
X128678423Y-123760632D01*
X128752293Y-123871187D01*
X128846313Y-123965207D01*
X128956868Y-124039077D01*
X129079710Y-124089960D01*
X129210118Y-124115900D01*
X129343082Y-124115900D01*
X129473490Y-124089960D01*
X129596332Y-124039077D01*
X129706887Y-123965207D01*
X129800907Y-123871187D01*
X129874777Y-123760632D01*
X129925660Y-123637790D01*
X129951600Y-123507382D01*
X129951600Y-123374418D01*
X129925660Y-123244010D01*
X129874777Y-123121168D01*
X129800907Y-123010613D01*
X129706887Y-122916593D01*
X129596332Y-122842723D01*
X129473490Y-122791840D01*
X129343082Y-122765900D01*
X129210118Y-122765900D01*
X129079710Y-122791840D01*
X128956868Y-122842723D01*
X128846313Y-122916593D01*
X128752293Y-123010613D01*
X128678423Y-123121168D01*
X128627540Y-123244010D01*
X128601600Y-123374418D01*
X126832700Y-123374418D01*
X126832700Y-123310325D01*
X129746856Y-120396170D01*
X129842482Y-120377149D01*
X130031204Y-120298978D01*
X130201049Y-120185491D01*
X130345491Y-120041049D01*
X130458978Y-119871204D01*
X130537149Y-119682482D01*
X130577000Y-119482136D01*
X130577000Y-119277864D01*
X131043000Y-119277864D01*
X131043000Y-119482136D01*
X131082851Y-119682482D01*
X131161022Y-119871204D01*
X131274509Y-120041049D01*
X131418951Y-120185491D01*
X131588796Y-120298978D01*
X131777518Y-120377149D01*
X131977864Y-120417000D01*
X132182136Y-120417000D01*
X132382482Y-120377149D01*
X132571204Y-120298978D01*
X132741049Y-120185491D01*
X132885491Y-120041049D01*
X132998978Y-119871204D01*
X133077149Y-119682482D01*
X133117000Y-119482136D01*
X133117000Y-119277864D01*
X133583000Y-119277864D01*
X133583000Y-119482136D01*
X133622851Y-119682482D01*
X133701022Y-119871204D01*
X133814509Y-120041049D01*
X133958951Y-120185491D01*
X134128796Y-120298978D01*
X134317518Y-120377149D01*
X134517864Y-120417000D01*
X134722136Y-120417000D01*
X134922482Y-120377149D01*
X135111204Y-120298978D01*
X135281049Y-120185491D01*
X135425491Y-120041049D01*
X135538978Y-119871204D01*
X135617149Y-119682482D01*
X135657000Y-119482136D01*
X135657000Y-119277864D01*
X135648379Y-119234518D01*
X141233000Y-119234518D01*
X141233000Y-119367482D01*
X141258940Y-119497890D01*
X141309823Y-119620732D01*
X141383693Y-119731287D01*
X141477713Y-119825307D01*
X141588268Y-119899177D01*
X141711110Y-119950060D01*
X141841518Y-119976000D01*
X141974482Y-119976000D01*
X142104890Y-119950060D01*
X142227732Y-119899177D01*
X142338287Y-119825307D01*
X142432307Y-119731287D01*
X142506177Y-119620732D01*
X142557060Y-119497890D01*
X142583000Y-119367482D01*
X142583000Y-119234518D01*
X142557060Y-119104110D01*
X142506177Y-118981268D01*
X142432307Y-118870713D01*
X142338287Y-118776693D01*
X142227732Y-118702823D01*
X142104890Y-118651940D01*
X141974482Y-118626000D01*
X141841518Y-118626000D01*
X141711110Y-118651940D01*
X141588268Y-118702823D01*
X141477713Y-118776693D01*
X141383693Y-118870713D01*
X141309823Y-118981268D01*
X141258940Y-119104110D01*
X141233000Y-119234518D01*
X135648379Y-119234518D01*
X135617149Y-119077518D01*
X135538978Y-118888796D01*
X135425491Y-118718951D01*
X135281049Y-118574509D01*
X135111204Y-118461022D01*
X134922482Y-118382851D01*
X134722136Y-118343000D01*
X134517864Y-118343000D01*
X134317518Y-118382851D01*
X134128796Y-118461022D01*
X133958951Y-118574509D01*
X133814509Y-118718951D01*
X133701022Y-118888796D01*
X133622851Y-119077518D01*
X133583000Y-119277864D01*
X133117000Y-119277864D01*
X133077149Y-119077518D01*
X132998978Y-118888796D01*
X132885491Y-118718951D01*
X132741049Y-118574509D01*
X132571204Y-118461022D01*
X132382482Y-118382851D01*
X132182136Y-118343000D01*
X131977864Y-118343000D01*
X131777518Y-118382851D01*
X131588796Y-118461022D01*
X131418951Y-118574509D01*
X131274509Y-118718951D01*
X131161022Y-118888796D01*
X131082851Y-119077518D01*
X131043000Y-119277864D01*
X130577000Y-119277864D01*
X130537149Y-119077518D01*
X130458978Y-118888796D01*
X130345491Y-118718951D01*
X130201049Y-118574509D01*
X130031204Y-118461022D01*
X129842482Y-118382851D01*
X129642136Y-118343000D01*
X129437864Y-118343000D01*
X129237518Y-118382851D01*
X129048796Y-118461022D01*
X128878951Y-118574509D01*
X128771996Y-118681464D01*
X128771996Y-117027518D01*
X133564000Y-117027518D01*
X133564000Y-117160482D01*
X133589940Y-117290890D01*
X133640823Y-117413732D01*
X133714693Y-117524287D01*
X133808713Y-117618307D01*
X133919268Y-117692177D01*
X134042110Y-117743060D01*
X134172518Y-117769000D01*
X134305482Y-117769000D01*
X134435890Y-117743060D01*
X134558732Y-117692177D01*
X134669287Y-117618307D01*
X134763307Y-117524287D01*
X134837177Y-117413732D01*
X134888060Y-117290890D01*
X134914000Y-117160482D01*
X134914000Y-117027518D01*
X134888060Y-116897110D01*
X134837177Y-116774268D01*
X134763307Y-116663713D01*
X134669287Y-116569693D01*
X134558732Y-116495823D01*
X134435890Y-116444940D01*
X134305482Y-116419000D01*
X134172518Y-116419000D01*
X134042110Y-116444940D01*
X133919268Y-116495823D01*
X133808713Y-116569693D01*
X133714693Y-116663713D01*
X133640823Y-116774268D01*
X133589940Y-116897110D01*
X133564000Y-117027518D01*
X128771996Y-117027518D01*
X128771996Y-116741325D01*
X129154294Y-116359028D01*
X129219510Y-116372000D01*
X129352474Y-116372000D01*
X129482882Y-116346060D01*
X129605724Y-116295177D01*
X129716279Y-116221307D01*
X129810299Y-116127287D01*
X129884169Y-116016732D01*
X129935052Y-115893890D01*
X129960992Y-115763482D01*
X129960992Y-115630518D01*
X129935052Y-115500110D01*
X129884169Y-115377268D01*
X129810299Y-115266713D01*
X129716279Y-115172693D01*
X129605724Y-115098823D01*
X129482882Y-115047940D01*
X129352474Y-115022000D01*
X129219510Y-115022000D01*
X129089102Y-115047940D01*
X128966260Y-115098823D01*
X128855705Y-115172693D01*
X128761685Y-115266713D01*
X128687815Y-115377268D01*
X128636932Y-115500110D01*
X128610992Y-115630518D01*
X128610992Y-115763482D01*
X128623964Y-115828698D01*
X128144858Y-116307805D01*
X128130549Y-116319548D01*
X128118807Y-116333856D01*
X128083687Y-116376650D01*
X128058543Y-116423692D01*
X128048866Y-116441796D01*
X128035282Y-116486578D01*
X128027423Y-116512484D01*
X128020182Y-116585996D01*
X128021997Y-116604422D01*
X128021996Y-119202435D01*
X127997149Y-119077518D01*
X127918978Y-118888796D01*
X127805491Y-118718951D01*
X127661049Y-118574509D01*
X127491204Y-118461022D01*
X127302482Y-118382851D01*
X127102136Y-118343000D01*
X126897864Y-118343000D01*
X126697518Y-118382851D01*
X126508796Y-118461022D01*
X126338951Y-118574509D01*
X126194509Y-118718951D01*
X126081022Y-118888796D01*
X126002851Y-119077518D01*
X125963000Y-119277864D01*
X125963000Y-119482136D01*
X126002851Y-119682482D01*
X126081022Y-119871204D01*
X126194509Y-120041049D01*
X126338951Y-120185491D01*
X126508796Y-120298978D01*
X126697518Y-120377149D01*
X126897864Y-120417000D01*
X127102136Y-120417000D01*
X127302482Y-120377149D01*
X127491204Y-120298978D01*
X127661049Y-120185491D01*
X127805491Y-120041049D01*
X127918978Y-119871204D01*
X127997149Y-119682482D01*
X128021996Y-119557565D01*
X128021996Y-120494670D01*
X120908698Y-127607968D01*
X120843482Y-127594996D01*
X120712333Y-127594996D01*
X124712139Y-123595191D01*
X124726448Y-123583448D01*
X124773309Y-123526347D01*
X124808131Y-123461200D01*
X124829574Y-123390513D01*
X124835000Y-123335419D01*
X124835000Y-123335416D01*
X124836814Y-123317000D01*
X124835000Y-123298584D01*
X124835000Y-120347111D01*
X124951204Y-120298978D01*
X125121049Y-120185491D01*
X125265491Y-120041049D01*
X125378978Y-119871204D01*
X125457149Y-119682482D01*
X125497000Y-119482136D01*
X125497000Y-119277864D01*
X125457149Y-119077518D01*
X125378978Y-118888796D01*
X125265491Y-118718951D01*
X125121049Y-118574509D01*
X124951204Y-118461022D01*
X124762482Y-118382851D01*
X124562136Y-118343000D01*
X124357864Y-118343000D01*
X124157518Y-118382851D01*
X123968796Y-118461022D01*
X123798951Y-118574509D01*
X123654509Y-118718951D01*
X123541022Y-118888796D01*
X123462851Y-119077518D01*
X123423000Y-119277864D01*
X123423000Y-119482136D01*
X123462851Y-119682482D01*
X123541022Y-119871204D01*
X123654509Y-120041049D01*
X123798951Y-120185491D01*
X123968796Y-120298978D01*
X124085000Y-120347111D01*
X124085001Y-123161669D01*
X119771500Y-127475171D01*
X119771500Y-127364828D01*
X119758528Y-127299612D01*
X122172139Y-124886001D01*
X122186448Y-124874258D01*
X122233309Y-124817157D01*
X122268131Y-124752010D01*
X122289574Y-124681323D01*
X122295000Y-124626229D01*
X122295000Y-124626226D01*
X122296814Y-124607810D01*
X122295000Y-124589394D01*
X122295000Y-122234518D01*
X122515000Y-122234518D01*
X122515000Y-122367482D01*
X122540940Y-122497890D01*
X122591823Y-122620732D01*
X122665693Y-122731287D01*
X122759713Y-122825307D01*
X122870268Y-122899177D01*
X122993110Y-122950060D01*
X123123518Y-122976000D01*
X123256482Y-122976000D01*
X123386890Y-122950060D01*
X123509732Y-122899177D01*
X123620287Y-122825307D01*
X123714307Y-122731287D01*
X123788177Y-122620732D01*
X123839060Y-122497890D01*
X123865000Y-122367482D01*
X123865000Y-122234518D01*
X123839060Y-122104110D01*
X123788177Y-121981268D01*
X123714307Y-121870713D01*
X123620287Y-121776693D01*
X123509732Y-121702823D01*
X123386890Y-121651940D01*
X123256482Y-121626000D01*
X123123518Y-121626000D01*
X122993110Y-121651940D01*
X122870268Y-121702823D01*
X122759713Y-121776693D01*
X122665693Y-121870713D01*
X122591823Y-121981268D01*
X122540940Y-122104110D01*
X122515000Y-122234518D01*
X122295000Y-122234518D01*
X122295000Y-120347111D01*
X122411204Y-120298978D01*
X122581049Y-120185491D01*
X122725491Y-120041049D01*
X122838978Y-119871204D01*
X122917149Y-119682482D01*
X122957000Y-119482136D01*
X122957000Y-119277864D01*
X122917149Y-119077518D01*
X122838978Y-118888796D01*
X122725491Y-118718951D01*
X122581049Y-118574509D01*
X122411204Y-118461022D01*
X122222482Y-118382851D01*
X122022136Y-118343000D01*
X121817864Y-118343000D01*
X121617518Y-118382851D01*
X121428796Y-118461022D01*
X121258951Y-118574509D01*
X121114509Y-118718951D01*
X121001022Y-118888796D01*
X120922851Y-119077518D01*
X120883000Y-119277864D01*
X120883000Y-119482136D01*
X120922851Y-119682482D01*
X121001022Y-119871204D01*
X121114509Y-120041049D01*
X121258951Y-120185491D01*
X121428796Y-120298978D01*
X121545000Y-120347111D01*
X121545001Y-124452479D01*
X119228198Y-126769282D01*
X119162982Y-126756310D01*
X119030018Y-126756310D01*
X118899610Y-126782250D01*
X118776768Y-126833133D01*
X118666213Y-126907003D01*
X118572193Y-127001023D01*
X118498323Y-127111578D01*
X118447440Y-127234420D01*
X118421500Y-127364828D01*
X118421500Y-127497792D01*
X118447440Y-127628200D01*
X118498323Y-127751042D01*
X118501844Y-127756311D01*
X110887641Y-127756311D01*
X110263028Y-127131698D01*
X110276000Y-127066482D01*
X110276000Y-126933518D01*
X110250060Y-126803110D01*
X110199177Y-126680268D01*
X110125307Y-126569713D01*
X110031287Y-126475693D01*
X109920732Y-126401823D01*
X109797890Y-126350940D01*
X109667482Y-126325000D01*
X109534518Y-126325000D01*
X109404110Y-126350940D01*
X109281268Y-126401823D01*
X109170713Y-126475693D01*
X109076693Y-126569713D01*
X109002823Y-126680268D01*
X108951940Y-126803110D01*
X108926000Y-126933518D01*
X108926000Y-127066482D01*
X108951940Y-127196890D01*
X109002823Y-127319732D01*
X109076693Y-127430287D01*
X109170713Y-127524307D01*
X109281268Y-127598177D01*
X109404110Y-127649060D01*
X109534518Y-127675000D01*
X109667482Y-127675000D01*
X109732698Y-127662028D01*
X110454120Y-128383450D01*
X110465863Y-128397759D01*
X110480170Y-128409500D01*
X110522964Y-128444620D01*
X110564621Y-128466886D01*
X110588111Y-128479442D01*
X110658798Y-128500885D01*
X110713892Y-128506311D01*
X110713894Y-128506311D01*
X110732310Y-128508125D01*
X110750726Y-128506311D01*
X119627273Y-128506311D01*
X119645689Y-128508125D01*
X119664105Y-128506311D01*
X119664108Y-128506311D01*
X119719202Y-128500885D01*
X119789889Y-128479442D01*
X119855036Y-128444620D01*
X119912137Y-128397759D01*
X119923884Y-128383445D01*
X120102000Y-128205329D01*
X120102000Y-128336478D01*
X120127940Y-128466886D01*
X120178823Y-128589728D01*
X120252693Y-128700283D01*
X120346713Y-128794303D01*
X120457268Y-128868173D01*
X120580110Y-128919056D01*
X120710518Y-128944996D01*
X120843482Y-128944996D01*
X120973890Y-128919056D01*
X121096732Y-128868173D01*
X121207287Y-128794303D01*
X121301307Y-128700283D01*
X121375177Y-128589728D01*
X121426060Y-128466886D01*
X121452000Y-128336478D01*
X121452000Y-128203514D01*
X121439028Y-128138298D01*
X124342813Y-125234512D01*
X124324340Y-125279110D01*
X124298400Y-125409518D01*
X124298400Y-125542482D01*
X124324340Y-125672890D01*
X124375223Y-125795732D01*
X124449093Y-125906287D01*
X124543113Y-126000307D01*
X124653668Y-126074177D01*
X124776510Y-126125060D01*
X124906918Y-126151000D01*
X125039882Y-126151000D01*
X125170290Y-126125060D01*
X125293132Y-126074177D01*
X125403687Y-126000307D01*
X125497707Y-125906287D01*
X125571577Y-125795732D01*
X125622460Y-125672890D01*
X125648400Y-125542482D01*
X125648400Y-125409518D01*
X125622460Y-125279110D01*
X125571577Y-125156268D01*
X125497707Y-125045713D01*
X125403687Y-124951693D01*
X125293132Y-124877823D01*
X125170290Y-124826940D01*
X125039882Y-124801000D01*
X124906918Y-124801000D01*
X124776510Y-124826940D01*
X124731913Y-124845413D01*
X126082701Y-123494625D01*
X126082700Y-132048352D01*
X126027413Y-132085293D01*
X125933393Y-132179313D01*
X125859523Y-132289868D01*
X125808640Y-132412710D01*
X125782700Y-132543118D01*
X125782700Y-132676082D01*
X125808640Y-132806490D01*
X125859523Y-132929332D01*
X125899517Y-132989187D01*
X124738195Y-131827866D01*
X124726448Y-131813552D01*
X124669347Y-131766691D01*
X124604200Y-131731869D01*
X124533513Y-131710426D01*
X124478419Y-131705000D01*
X124478416Y-131705000D01*
X124460000Y-131703186D01*
X124441584Y-131705000D01*
X121425630Y-131705000D01*
X120083148Y-130362518D01*
X120991000Y-130362518D01*
X120991000Y-130495482D01*
X121016940Y-130625890D01*
X121067823Y-130748732D01*
X121141693Y-130859287D01*
X121235713Y-130953307D01*
X121346268Y-131027177D01*
X121469110Y-131078060D01*
X121599518Y-131104000D01*
X121732482Y-131104000D01*
X121862890Y-131078060D01*
X121985732Y-131027177D01*
X122096287Y-130953307D01*
X122190307Y-130859287D01*
X122264177Y-130748732D01*
X122315060Y-130625890D01*
X122341000Y-130495482D01*
X122341000Y-130489518D01*
X124216600Y-130489518D01*
X124216600Y-130622482D01*
X124242540Y-130752890D01*
X124293423Y-130875732D01*
X124367293Y-130986287D01*
X124461313Y-131080307D01*
X124571868Y-131154177D01*
X124694710Y-131205060D01*
X124825118Y-131231000D01*
X124958082Y-131231000D01*
X125088490Y-131205060D01*
X125211332Y-131154177D01*
X125321887Y-131080307D01*
X125415907Y-130986287D01*
X125489777Y-130875732D01*
X125540660Y-130752890D01*
X125566600Y-130622482D01*
X125566600Y-130489518D01*
X125540660Y-130359110D01*
X125489777Y-130236268D01*
X125415907Y-130125713D01*
X125321887Y-130031693D01*
X125211332Y-129957823D01*
X125088490Y-129906940D01*
X124958082Y-129881000D01*
X124825118Y-129881000D01*
X124694710Y-129906940D01*
X124571868Y-129957823D01*
X124461313Y-130031693D01*
X124367293Y-130125713D01*
X124293423Y-130236268D01*
X124242540Y-130359110D01*
X124216600Y-130489518D01*
X122341000Y-130489518D01*
X122341000Y-130362518D01*
X122315060Y-130232110D01*
X122264177Y-130109268D01*
X122190307Y-129998713D01*
X122096287Y-129904693D01*
X121985732Y-129830823D01*
X121862890Y-129779940D01*
X121732482Y-129754000D01*
X121599518Y-129754000D01*
X121469110Y-129779940D01*
X121346268Y-129830823D01*
X121235713Y-129904693D01*
X121141693Y-129998713D01*
X121067823Y-130109268D01*
X121016940Y-130232110D01*
X120991000Y-130362518D01*
X120083148Y-130362518D01*
X119821828Y-130101198D01*
X119834800Y-130035982D01*
X119834800Y-129903018D01*
X119808860Y-129772610D01*
X119757977Y-129649768D01*
X119684107Y-129539213D01*
X119590087Y-129445193D01*
X119479532Y-129371323D01*
X119356690Y-129320440D01*
X119226282Y-129294500D01*
X119093318Y-129294500D01*
X118962910Y-129320440D01*
X118840068Y-129371323D01*
X118729513Y-129445193D01*
X118635493Y-129539213D01*
X118561623Y-129649768D01*
X118510740Y-129772610D01*
X118484800Y-129903018D01*
X118484800Y-130035982D01*
X118510740Y-130166390D01*
X118561623Y-130289232D01*
X118635493Y-130399787D01*
X118729513Y-130493807D01*
X118840068Y-130567677D01*
X118962910Y-130618560D01*
X119093318Y-130644500D01*
X119226282Y-130644500D01*
X119291498Y-130631528D01*
X120992109Y-132332139D01*
X121003852Y-132346448D01*
X121018159Y-132358189D01*
X121060953Y-132393310D01*
X121105407Y-132417070D01*
X121126100Y-132428131D01*
X121196787Y-132449574D01*
X121251881Y-132455000D01*
X121251884Y-132455000D01*
X121270300Y-132456814D01*
X121288716Y-132455000D01*
X124304671Y-132455000D01*
X126050984Y-134201314D01*
X126002851Y-134317518D01*
X125963000Y-134517864D01*
X125963000Y-134722136D01*
X126002851Y-134922482D01*
X126081022Y-135111204D01*
X126194509Y-135281049D01*
X126301460Y-135388000D01*
X125158540Y-135388000D01*
X125265491Y-135281049D01*
X125378978Y-135111204D01*
X125457149Y-134922482D01*
X125497000Y-134722136D01*
X125497000Y-134517864D01*
X125457149Y-134317518D01*
X125378978Y-134128796D01*
X125265491Y-133958951D01*
X125121049Y-133814509D01*
X124951204Y-133701022D01*
X124762482Y-133622851D01*
X124562136Y-133583000D01*
X124357864Y-133583000D01*
X124157518Y-133622851D01*
X123968796Y-133701022D01*
X123798951Y-133814509D01*
X123654509Y-133958951D01*
X123541022Y-134128796D01*
X123462851Y-134317518D01*
X123423000Y-134517864D01*
X123423000Y-134722136D01*
X123462851Y-134922482D01*
X123541022Y-135111204D01*
X123654509Y-135281049D01*
X123761460Y-135388000D01*
X122618540Y-135388000D01*
X122725491Y-135281049D01*
X122838978Y-135111204D01*
X122917149Y-134922482D01*
X122957000Y-134722136D01*
X122957000Y-134517864D01*
X122917149Y-134317518D01*
X122838978Y-134128796D01*
X122725491Y-133958951D01*
X122581049Y-133814509D01*
X122411204Y-133701022D01*
X122222482Y-133622851D01*
X122022136Y-133583000D01*
X121817864Y-133583000D01*
X121617518Y-133622851D01*
X121501314Y-133670984D01*
X116991195Y-129160866D01*
X116979448Y-129146552D01*
X116922347Y-129099691D01*
X116857200Y-129064869D01*
X116786513Y-129043426D01*
X116731419Y-129038000D01*
X116731416Y-129038000D01*
X116713000Y-129036186D01*
X116694584Y-129038000D01*
X108867322Y-129038000D01*
X108231020Y-128401698D01*
X108243992Y-128336482D01*
X108243992Y-128203518D01*
X108218052Y-128073110D01*
X108167169Y-127950268D01*
X108093299Y-127839713D01*
X107999279Y-127745693D01*
X107888724Y-127671823D01*
X107765882Y-127620940D01*
X107635474Y-127595000D01*
X107502510Y-127595000D01*
X107372102Y-127620940D01*
X107249260Y-127671823D01*
X107138705Y-127745693D01*
X107044685Y-127839713D01*
X106970815Y-127950268D01*
X106919932Y-128073110D01*
X106893992Y-128203518D01*
X106893992Y-128336482D01*
X106919932Y-128466890D01*
X106970815Y-128589732D01*
X107044685Y-128700287D01*
X107138705Y-128794307D01*
X107249260Y-128868177D01*
X107372102Y-128919060D01*
X107502510Y-128945000D01*
X107635474Y-128945000D01*
X107700690Y-128932028D01*
X108433801Y-129665139D01*
X108445544Y-129679448D01*
X108502645Y-129726309D01*
X108567792Y-129761131D01*
X108638479Y-129782574D01*
X108693573Y-129788000D01*
X108693575Y-129788000D01*
X108711991Y-129789814D01*
X108730407Y-129788000D01*
X116557671Y-129788000D01*
X117586171Y-130816500D01*
X115081148Y-130816500D01*
X115044207Y-130761213D01*
X114950187Y-130667193D01*
X114839632Y-130593323D01*
X114716790Y-130542440D01*
X114586382Y-130516500D01*
X114453418Y-130516500D01*
X114323010Y-130542440D01*
X114200168Y-130593323D01*
X114089613Y-130667193D01*
X113995593Y-130761213D01*
X113921723Y-130871768D01*
X113870840Y-130994610D01*
X113844900Y-131125018D01*
X113844900Y-131257982D01*
X113870840Y-131388390D01*
X113921723Y-131511232D01*
X113995593Y-131621787D01*
X114089613Y-131715807D01*
X114200168Y-131789677D01*
X114323010Y-131840560D01*
X114453418Y-131866500D01*
X114586382Y-131866500D01*
X114716790Y-131840560D01*
X114839632Y-131789677D01*
X114950187Y-131715807D01*
X115044207Y-131621787D01*
X115081148Y-131566500D01*
X117574171Y-131566500D01*
X119617619Y-133609949D01*
X119482136Y-133583000D01*
X119277864Y-133583000D01*
X119077518Y-133622851D01*
X118888796Y-133701022D01*
X118718951Y-133814509D01*
X118574509Y-133958951D01*
X118461022Y-134128796D01*
X118412889Y-134245000D01*
X110899304Y-134245000D01*
X106326002Y-129671698D01*
X106338974Y-129606482D01*
X106338974Y-129473518D01*
X106313034Y-129343110D01*
X106262151Y-129220268D01*
X106188281Y-129109713D01*
X106094261Y-129015693D01*
X105983706Y-128941823D01*
X105860864Y-128890940D01*
X105730456Y-128865000D01*
X105597492Y-128865000D01*
X105467084Y-128890940D01*
X105344242Y-128941823D01*
X105233687Y-129015693D01*
X105139667Y-129109713D01*
X105065797Y-129220268D01*
X105014914Y-129343110D01*
X104988974Y-129473518D01*
X92400000Y-129473518D01*
X92400000Y-125028518D01*
X114133000Y-125028518D01*
X114133000Y-125161482D01*
X114158940Y-125291890D01*
X114209823Y-125414732D01*
X114283693Y-125525287D01*
X114377713Y-125619307D01*
X114488268Y-125693177D01*
X114611110Y-125744060D01*
X114741518Y-125770000D01*
X114874482Y-125770000D01*
X115004890Y-125744060D01*
X115127732Y-125693177D01*
X115238287Y-125619307D01*
X115332307Y-125525287D01*
X115406177Y-125414732D01*
X115457060Y-125291890D01*
X115483000Y-125161482D01*
X115483000Y-125028518D01*
X115457060Y-124898110D01*
X115406177Y-124775268D01*
X115332307Y-124664713D01*
X115238287Y-124570693D01*
X115187100Y-124536491D01*
X115187100Y-121599518D01*
X115228000Y-121599518D01*
X115228000Y-121732482D01*
X115253940Y-121862890D01*
X115304823Y-121985732D01*
X115378693Y-122096287D01*
X115472713Y-122190307D01*
X115583268Y-122264177D01*
X115706110Y-122315060D01*
X115836518Y-122341000D01*
X115969482Y-122341000D01*
X116099890Y-122315060D01*
X116222732Y-122264177D01*
X116333287Y-122190307D01*
X116427307Y-122096287D01*
X116501177Y-121985732D01*
X116552060Y-121862890D01*
X116578000Y-121732482D01*
X116578000Y-121599518D01*
X116552060Y-121469110D01*
X116501177Y-121346268D01*
X116427307Y-121235713D01*
X116333287Y-121141693D01*
X116222732Y-121067823D01*
X116099890Y-121016940D01*
X115969482Y-120991000D01*
X115836518Y-120991000D01*
X115706110Y-121016940D01*
X115583268Y-121067823D01*
X115472713Y-121141693D01*
X115378693Y-121235713D01*
X115304823Y-121346268D01*
X115253940Y-121469110D01*
X115228000Y-121599518D01*
X115187100Y-121599518D01*
X115187100Y-120293223D01*
X115438302Y-120042022D01*
X115503518Y-120054994D01*
X115636482Y-120054994D01*
X115766890Y-120029054D01*
X115889732Y-119978171D01*
X116000287Y-119904301D01*
X116094307Y-119810281D01*
X116168177Y-119699726D01*
X116219060Y-119576884D01*
X116245000Y-119446476D01*
X116245000Y-119313512D01*
X116219060Y-119183104D01*
X116168177Y-119060262D01*
X116094307Y-118949707D01*
X116000287Y-118855687D01*
X115889732Y-118781817D01*
X115766890Y-118730934D01*
X115636482Y-118704994D01*
X115503518Y-118704994D01*
X115373110Y-118730934D01*
X115250268Y-118781817D01*
X115139713Y-118855687D01*
X115045693Y-118949707D01*
X114971823Y-119060262D01*
X114920940Y-119183104D01*
X114895000Y-119313512D01*
X114895000Y-119446476D01*
X114907972Y-119511692D01*
X114559962Y-119859703D01*
X114545653Y-119871446D01*
X114498792Y-119928547D01*
X114463970Y-119993694D01*
X114453244Y-120029054D01*
X114442527Y-120064382D01*
X114435286Y-120137894D01*
X114437101Y-120156320D01*
X114437100Y-124531012D01*
X114377713Y-124570693D01*
X114283693Y-124664713D01*
X114209823Y-124775268D01*
X114158940Y-124898110D01*
X114133000Y-125028518D01*
X92400000Y-125028518D01*
X92400000Y-117925329D01*
X95280000Y-117925329D01*
X95280000Y-118294671D01*
X95352056Y-118656917D01*
X95493397Y-118998145D01*
X95698593Y-119305243D01*
X95959757Y-119566407D01*
X96266855Y-119771603D01*
X96608083Y-119912944D01*
X96970329Y-119985000D01*
X97339671Y-119985000D01*
X97701917Y-119912944D01*
X98043145Y-119771603D01*
X98350243Y-119566407D01*
X98611407Y-119305243D01*
X98816603Y-118998145D01*
X98957944Y-118656917D01*
X99030000Y-118294671D01*
X99030000Y-117925329D01*
X98957944Y-117563083D01*
X98816603Y-117221855D01*
X98611407Y-116914757D01*
X98350243Y-116653593D01*
X98043145Y-116448397D01*
X97701917Y-116307056D01*
X97339671Y-116235000D01*
X96970329Y-116235000D01*
X96608083Y-116307056D01*
X96266855Y-116448397D01*
X95959757Y-116653593D01*
X95698593Y-116914757D01*
X95493397Y-117221855D01*
X95352056Y-117563083D01*
X95280000Y-117925329D01*
X92400000Y-117925329D01*
X92400000Y-115503518D01*
X112354990Y-115503518D01*
X112354990Y-115636482D01*
X112380930Y-115766890D01*
X112431813Y-115889732D01*
X112505683Y-116000287D01*
X112599703Y-116094307D01*
X112710258Y-116168177D01*
X112833100Y-116219060D01*
X112963508Y-116245000D01*
X113096472Y-116245000D01*
X113226880Y-116219060D01*
X113349722Y-116168177D01*
X113460277Y-116094307D01*
X113554297Y-116000287D01*
X113591238Y-115945000D01*
X113994573Y-115945000D01*
X117292002Y-119242430D01*
X117292001Y-124353085D01*
X117290187Y-124371501D01*
X117292001Y-124389917D01*
X117292001Y-124389919D01*
X117297427Y-124445013D01*
X117318870Y-124515700D01*
X117353692Y-124580847D01*
X117400553Y-124637949D01*
X117414867Y-124649696D01*
X118240972Y-125475802D01*
X118228000Y-125541018D01*
X118228000Y-125673982D01*
X118253940Y-125804390D01*
X118304823Y-125927232D01*
X118378693Y-126037787D01*
X118472713Y-126131807D01*
X118583268Y-126205677D01*
X118706110Y-126256560D01*
X118836518Y-126282500D01*
X118969482Y-126282500D01*
X119099890Y-126256560D01*
X119222732Y-126205677D01*
X119333287Y-126131807D01*
X119427307Y-126037787D01*
X119501177Y-125927232D01*
X119552060Y-125804390D01*
X119578000Y-125673982D01*
X119578000Y-125541018D01*
X119552060Y-125410610D01*
X119501177Y-125287768D01*
X119427307Y-125177213D01*
X119333287Y-125083193D01*
X119222732Y-125009323D01*
X119099890Y-124958440D01*
X118969482Y-124932500D01*
X118836518Y-124932500D01*
X118771302Y-124945472D01*
X118042001Y-124216172D01*
X118042001Y-119277864D01*
X118343000Y-119277864D01*
X118343000Y-119482136D01*
X118382851Y-119682482D01*
X118461022Y-119871204D01*
X118574509Y-120041049D01*
X118718951Y-120185491D01*
X118888796Y-120298978D01*
X119077518Y-120377149D01*
X119277864Y-120417000D01*
X119482136Y-120417000D01*
X119682482Y-120377149D01*
X119871204Y-120298978D01*
X120041049Y-120185491D01*
X120185491Y-120041049D01*
X120298978Y-119871204D01*
X120377149Y-119682482D01*
X120417000Y-119482136D01*
X120417000Y-119277864D01*
X120377149Y-119077518D01*
X120298978Y-118888796D01*
X120185491Y-118718951D01*
X120041049Y-118574509D01*
X119871204Y-118461022D01*
X119682482Y-118382851D01*
X119482136Y-118343000D01*
X119277864Y-118343000D01*
X119077518Y-118382851D01*
X118888796Y-118461022D01*
X118718951Y-118574509D01*
X118574509Y-118718951D01*
X118461022Y-118888796D01*
X118382851Y-119077518D01*
X118343000Y-119277864D01*
X118042001Y-119277864D01*
X118042001Y-119105514D01*
X118043815Y-119087098D01*
X118041805Y-119066691D01*
X118036575Y-119013586D01*
X118015132Y-118942899D01*
X117980310Y-118877752D01*
X117933449Y-118820651D01*
X117919140Y-118808908D01*
X114428097Y-115317866D01*
X114416350Y-115303552D01*
X114359249Y-115256691D01*
X114294102Y-115221869D01*
X114223415Y-115200426D01*
X114168321Y-115195000D01*
X114168318Y-115195000D01*
X114149902Y-115193186D01*
X114131486Y-115195000D01*
X113591238Y-115195000D01*
X113554297Y-115139713D01*
X113460277Y-115045693D01*
X113349722Y-114971823D01*
X113226880Y-114920940D01*
X113096472Y-114895000D01*
X112963508Y-114895000D01*
X112833100Y-114920940D01*
X112710258Y-114971823D01*
X112599703Y-115045693D01*
X112505683Y-115139713D01*
X112431813Y-115250268D01*
X112380930Y-115373110D01*
X112354990Y-115503518D01*
X92400000Y-115503518D01*
X92400000Y-114233518D01*
X106125000Y-114233518D01*
X106125000Y-114366482D01*
X106150940Y-114496890D01*
X106201823Y-114619732D01*
X106275693Y-114730287D01*
X106369713Y-114824307D01*
X106480268Y-114898177D01*
X106603110Y-114949060D01*
X106733518Y-114975000D01*
X106866482Y-114975000D01*
X106996890Y-114949060D01*
X107119732Y-114898177D01*
X107230287Y-114824307D01*
X107324307Y-114730287D01*
X107398177Y-114619732D01*
X107449060Y-114496890D01*
X107475000Y-114366482D01*
X107475000Y-114233518D01*
X108425000Y-114233518D01*
X108425000Y-114366482D01*
X108450940Y-114496890D01*
X108501823Y-114619732D01*
X108575693Y-114730287D01*
X108669713Y-114824307D01*
X108780268Y-114898177D01*
X108903110Y-114949060D01*
X109033518Y-114975000D01*
X109166482Y-114975000D01*
X109296890Y-114949060D01*
X109419732Y-114898177D01*
X109530287Y-114824307D01*
X109624307Y-114730287D01*
X109698177Y-114619732D01*
X109749060Y-114496890D01*
X109775000Y-114366482D01*
X109775000Y-114233518D01*
X126445000Y-114233518D01*
X126445000Y-114366482D01*
X126470940Y-114496890D01*
X126521823Y-114619732D01*
X126595693Y-114730287D01*
X126689713Y-114824307D01*
X126800268Y-114898177D01*
X126923110Y-114949060D01*
X127053518Y-114975000D01*
X127186482Y-114975000D01*
X127316890Y-114949060D01*
X127439732Y-114898177D01*
X127550287Y-114824307D01*
X127644307Y-114730287D01*
X127718177Y-114619732D01*
X127769060Y-114496890D01*
X127795000Y-114366482D01*
X127795000Y-114233518D01*
X128745000Y-114233518D01*
X128745000Y-114366482D01*
X128770940Y-114496890D01*
X128821823Y-114619732D01*
X128895693Y-114730287D01*
X128989713Y-114824307D01*
X129100268Y-114898177D01*
X129223110Y-114949060D01*
X129353518Y-114975000D01*
X129486482Y-114975000D01*
X129616890Y-114949060D01*
X129739732Y-114898177D01*
X129850287Y-114824307D01*
X129944307Y-114730287D01*
X130018177Y-114619732D01*
X130069060Y-114496890D01*
X130095000Y-114366482D01*
X130095000Y-114233518D01*
X146765000Y-114233518D01*
X146765000Y-114366482D01*
X146790940Y-114496890D01*
X146841823Y-114619732D01*
X146915693Y-114730287D01*
X147009713Y-114824307D01*
X147120268Y-114898177D01*
X147243110Y-114949060D01*
X147373518Y-114975000D01*
X147506482Y-114975000D01*
X147636890Y-114949060D01*
X147759732Y-114898177D01*
X147870287Y-114824307D01*
X147964307Y-114730287D01*
X148038177Y-114619732D01*
X148089060Y-114496890D01*
X148115000Y-114366482D01*
X148115000Y-114233518D01*
X149065000Y-114233518D01*
X149065000Y-114366482D01*
X149090940Y-114496890D01*
X149141823Y-114619732D01*
X149215693Y-114730287D01*
X149309713Y-114824307D01*
X149420268Y-114898177D01*
X149543110Y-114949060D01*
X149673518Y-114975000D01*
X149806482Y-114975000D01*
X149936890Y-114949060D01*
X150059732Y-114898177D01*
X150170287Y-114824307D01*
X150264307Y-114730287D01*
X150338177Y-114619732D01*
X150389060Y-114496890D01*
X150390924Y-114487518D01*
X158265500Y-114487518D01*
X158265500Y-114620482D01*
X158291440Y-114750890D01*
X158342323Y-114873732D01*
X158416193Y-114984287D01*
X158510213Y-115078307D01*
X158620768Y-115152177D01*
X158743610Y-115203060D01*
X158874018Y-115229000D01*
X159006982Y-115229000D01*
X159137390Y-115203060D01*
X159260232Y-115152177D01*
X159370787Y-115078307D01*
X159464807Y-114984287D01*
X159538677Y-114873732D01*
X159589560Y-114750890D01*
X159615500Y-114620482D01*
X159615500Y-114487518D01*
X159589560Y-114357110D01*
X159538677Y-114234268D01*
X159464807Y-114123713D01*
X159370787Y-114029693D01*
X159260232Y-113955823D01*
X159137390Y-113904940D01*
X159006982Y-113879000D01*
X158874018Y-113879000D01*
X158743610Y-113904940D01*
X158620768Y-113955823D01*
X158510213Y-114029693D01*
X158416193Y-114123713D01*
X158342323Y-114234268D01*
X158291440Y-114357110D01*
X158265500Y-114487518D01*
X150390924Y-114487518D01*
X150415000Y-114366482D01*
X150415000Y-114233518D01*
X150389060Y-114103110D01*
X150338177Y-113980268D01*
X150264307Y-113869713D01*
X150170287Y-113775693D01*
X150059732Y-113701823D01*
X149936890Y-113650940D01*
X149806482Y-113625000D01*
X149673518Y-113625000D01*
X149543110Y-113650940D01*
X149420268Y-113701823D01*
X149309713Y-113775693D01*
X149215693Y-113869713D01*
X149141823Y-113980268D01*
X149090940Y-114103110D01*
X149065000Y-114233518D01*
X148115000Y-114233518D01*
X148089060Y-114103110D01*
X148038177Y-113980268D01*
X147964307Y-113869713D01*
X147870287Y-113775693D01*
X147759732Y-113701823D01*
X147636890Y-113650940D01*
X147506482Y-113625000D01*
X147373518Y-113625000D01*
X147243110Y-113650940D01*
X147120268Y-113701823D01*
X147009713Y-113775693D01*
X146915693Y-113869713D01*
X146841823Y-113980268D01*
X146790940Y-114103110D01*
X146765000Y-114233518D01*
X130095000Y-114233518D01*
X130069060Y-114103110D01*
X130018177Y-113980268D01*
X129944307Y-113869713D01*
X129850287Y-113775693D01*
X129739732Y-113701823D01*
X129616890Y-113650940D01*
X129486482Y-113625000D01*
X129353518Y-113625000D01*
X129223110Y-113650940D01*
X129100268Y-113701823D01*
X128989713Y-113775693D01*
X128895693Y-113869713D01*
X128821823Y-113980268D01*
X128770940Y-114103110D01*
X128745000Y-114233518D01*
X127795000Y-114233518D01*
X127769060Y-114103110D01*
X127718177Y-113980268D01*
X127644307Y-113869713D01*
X127550287Y-113775693D01*
X127439732Y-113701823D01*
X127316890Y-113650940D01*
X127186482Y-113625000D01*
X127053518Y-113625000D01*
X126923110Y-113650940D01*
X126800268Y-113701823D01*
X126689713Y-113775693D01*
X126595693Y-113869713D01*
X126521823Y-113980268D01*
X126470940Y-114103110D01*
X126445000Y-114233518D01*
X109775000Y-114233518D01*
X109749060Y-114103110D01*
X109698177Y-113980268D01*
X109624307Y-113869713D01*
X109530287Y-113775693D01*
X109419732Y-113701823D01*
X109296890Y-113650940D01*
X109166482Y-113625000D01*
X109033518Y-113625000D01*
X108903110Y-113650940D01*
X108780268Y-113701823D01*
X108669713Y-113775693D01*
X108575693Y-113869713D01*
X108501823Y-113980268D01*
X108450940Y-114103110D01*
X108425000Y-114233518D01*
X107475000Y-114233518D01*
X107449060Y-114103110D01*
X107398177Y-113980268D01*
X107324307Y-113869713D01*
X107230287Y-113775693D01*
X107119732Y-113701823D01*
X106996890Y-113650940D01*
X106866482Y-113625000D01*
X106733518Y-113625000D01*
X106603110Y-113650940D01*
X106480268Y-113701823D01*
X106369713Y-113775693D01*
X106275693Y-113869713D01*
X106201823Y-113980268D01*
X106150940Y-114103110D01*
X106125000Y-114233518D01*
X92400000Y-114233518D01*
X92400000Y-113355000D01*
X160233026Y-113355000D01*
X160272223Y-113727931D01*
%TA.AperFunction,Conductor*%
D17*
G36*
X160272223Y-113727931D02*
G01*
X160278150Y-113756805D01*
X160283666Y-113785719D01*
X160284977Y-113790064D01*
X160475542Y-114405681D01*
X160486966Y-114432856D01*
X160497992Y-114460147D01*
X160500122Y-114464154D01*
X160806632Y-115031033D01*
X160823109Y-115055460D01*
X160839233Y-115080101D01*
X160842101Y-115083618D01*
X161252881Y-115580166D01*
X161273791Y-115600930D01*
X161294392Y-115621967D01*
X161297889Y-115624860D01*
X161797291Y-116032163D01*
X161821836Y-116048470D01*
X161846131Y-116065105D01*
X161850123Y-116067264D01*
X162419128Y-116369809D01*
X162446310Y-116381012D01*
X162473435Y-116392638D01*
X162477771Y-116393980D01*
X163094703Y-116580243D01*
X163123593Y-116585963D01*
X163152410Y-116592088D01*
X163156924Y-116592563D01*
X163505000Y-116626692D01*
X163505001Y-140040116D01*
X163157606Y-140076629D01*
X163128758Y-140082551D01*
X163099818Y-140088072D01*
X163095474Y-140089383D01*
X162503533Y-140272618D01*
X162476382Y-140284031D01*
X162449066Y-140295068D01*
X162445059Y-140297199D01*
X161899985Y-140591920D01*
X161875565Y-140608392D01*
X161850917Y-140624521D01*
X161847400Y-140627389D01*
X161369951Y-141022369D01*
X161349222Y-141043244D01*
X161328149Y-141063880D01*
X161325256Y-141067377D01*
X160933618Y-141547573D01*
X160917307Y-141572122D01*
X160900676Y-141596412D01*
X160898517Y-141600404D01*
X160607608Y-142147524D01*
X160596399Y-142174719D01*
X160584779Y-142201832D01*
X160583437Y-142206167D01*
X160404338Y-142799371D01*
X160398615Y-142828276D01*
X160392493Y-142857079D01*
X160392018Y-142861592D01*
X160360308Y-143185000D01*
X92400000Y-143185000D01*
X92400000Y-141629999D01*
X124918670Y-141629999D01*
X124918670Y-141630001D01*
X124932626Y-141771701D01*
X124973959Y-141907955D01*
X125041079Y-142033528D01*
X125131407Y-142143594D01*
X125241473Y-142233922D01*
X125367046Y-142301042D01*
X125503300Y-142342375D01*
X125645000Y-142356331D01*
X126895000Y-142356331D01*
X127036700Y-142342375D01*
X127172954Y-142301042D01*
X127298527Y-142233922D01*
X127408593Y-142143594D01*
X127498921Y-142033528D01*
X127566041Y-141907955D01*
X127607374Y-141771701D01*
X127621330Y-141630001D01*
X127621330Y-141629999D01*
X127607374Y-141488299D01*
X127566041Y-141352045D01*
X127498921Y-141226472D01*
X127408593Y-141116406D01*
X127298527Y-141026078D01*
X127172954Y-140958958D01*
X127036700Y-140917625D01*
X126895000Y-140903669D01*
X126341176Y-140903669D01*
X126368414Y-140885469D01*
X126455469Y-140798414D01*
X126523868Y-140696048D01*
X126570981Y-140582306D01*
X126595000Y-140461557D01*
X126595000Y-140338443D01*
X126570981Y-140217694D01*
X126523868Y-140103952D01*
X126455469Y-140001586D01*
X126368414Y-139914531D01*
X126266048Y-139846132D01*
X126152306Y-139799019D01*
X126031557Y-139775000D01*
X125908443Y-139775000D01*
X125787694Y-139799019D01*
X125673952Y-139846132D01*
X125571586Y-139914531D01*
X125484531Y-140001586D01*
X125416132Y-140103952D01*
X125411902Y-140114164D01*
X125126066Y-140400000D01*
X125411902Y-140685836D01*
X125416132Y-140696048D01*
X125484531Y-140798414D01*
X125571586Y-140885469D01*
X125604756Y-140907633D01*
X125503300Y-140917625D01*
X125367046Y-140958958D01*
X125241473Y-141026078D01*
X125131407Y-141116406D01*
X125041079Y-141226472D01*
X124973959Y-141352045D01*
X124932626Y-141488299D01*
X124918670Y-141629999D01*
X92400000Y-141629999D01*
X92400000Y-140844927D01*
X124681139Y-140844927D01*
X124714174Y-140948530D01*
X124827064Y-140997654D01*
X124947367Y-141023811D01*
X125070462Y-141025995D01*
X125191618Y-141004122D01*
X125306179Y-140959033D01*
X125325826Y-140948530D01*
X125358861Y-140844927D01*
X125020000Y-140506066D01*
X124681139Y-140844927D01*
X92400000Y-140844927D01*
X92400000Y-140450462D01*
X124394005Y-140450462D01*
X124415878Y-140571618D01*
X124460967Y-140686179D01*
X124471470Y-140705826D01*
X124575073Y-140738861D01*
X124913934Y-140400000D01*
X124575073Y-140061139D01*
X124471470Y-140094174D01*
X124422346Y-140207064D01*
X124396189Y-140327367D01*
X124394005Y-140450462D01*
X92400000Y-140450462D01*
X92400000Y-138245329D01*
X95280000Y-138245329D01*
X95280000Y-138614671D01*
X95352056Y-138976917D01*
X95493397Y-139318145D01*
X95698593Y-139625243D01*
X95959757Y-139886407D01*
X96266855Y-140091603D01*
X96608083Y-140232944D01*
X96970329Y-140305000D01*
X97339671Y-140305000D01*
X97701917Y-140232944D01*
X98043145Y-140091603D01*
X98247476Y-139955073D01*
X124681139Y-139955073D01*
X125020000Y-140293934D01*
X125358861Y-139955073D01*
X125325826Y-139851470D01*
X125212936Y-139802346D01*
X125092633Y-139776189D01*
X124969538Y-139774005D01*
X124848382Y-139795878D01*
X124733821Y-139840967D01*
X124714174Y-139851470D01*
X124681139Y-139955073D01*
X98247476Y-139955073D01*
X98350243Y-139886407D01*
X98611407Y-139625243D01*
X98731890Y-139444927D01*
X124681139Y-139444927D01*
X124714174Y-139548530D01*
X124827064Y-139597654D01*
X124947367Y-139623811D01*
X125070462Y-139625995D01*
X125191618Y-139604122D01*
X125306179Y-139559033D01*
X125325826Y-139548530D01*
X125358861Y-139444927D01*
X125020000Y-139106066D01*
X124681139Y-139444927D01*
X98731890Y-139444927D01*
X98816603Y-139318145D01*
X98927480Y-139050462D01*
X124394005Y-139050462D01*
X124415878Y-139171618D01*
X124460967Y-139286179D01*
X124471470Y-139305826D01*
X124575073Y-139338861D01*
X124913934Y-139000000D01*
X124575073Y-138661139D01*
X124471470Y-138694174D01*
X124422346Y-138807064D01*
X124396189Y-138927367D01*
X124394005Y-139050462D01*
X98927480Y-139050462D01*
X98957944Y-138976917D01*
X99030000Y-138614671D01*
X99030000Y-138555073D01*
X124681139Y-138555073D01*
X125020000Y-138893934D01*
X125358861Y-138555073D01*
X125325826Y-138451470D01*
X125212936Y-138402346D01*
X125092633Y-138376189D01*
X124969538Y-138374005D01*
X124848382Y-138395878D01*
X124733821Y-138440967D01*
X124714174Y-138451470D01*
X124681139Y-138555073D01*
X99030000Y-138555073D01*
X99030000Y-138245329D01*
X98957944Y-137883083D01*
X98911104Y-137769999D01*
X124918670Y-137769999D01*
X124918670Y-137770001D01*
X124932626Y-137911701D01*
X124973959Y-138047955D01*
X125041079Y-138173528D01*
X125131407Y-138283594D01*
X125241473Y-138373922D01*
X125367046Y-138441042D01*
X125503300Y-138482375D01*
X125604756Y-138492367D01*
X125571586Y-138514531D01*
X125484531Y-138601586D01*
X125416132Y-138703952D01*
X125411902Y-138714164D01*
X125126066Y-139000000D01*
X125411902Y-139285836D01*
X125416132Y-139296048D01*
X125484531Y-139398414D01*
X125571586Y-139485469D01*
X125673952Y-139553868D01*
X125787694Y-139600981D01*
X125908443Y-139625000D01*
X126031557Y-139625000D01*
X126152306Y-139600981D01*
X126266048Y-139553868D01*
X126368414Y-139485469D01*
X126445000Y-139408883D01*
X126521586Y-139485469D01*
X126623952Y-139553868D01*
X126737694Y-139600981D01*
X126858443Y-139625000D01*
X126981557Y-139625000D01*
X127102306Y-139600981D01*
X127216048Y-139553868D01*
X127318414Y-139485469D01*
X127370000Y-139433883D01*
X127421586Y-139485469D01*
X127523952Y-139553868D01*
X127637694Y-139600981D01*
X127641386Y-139601715D01*
X127814671Y-139775000D01*
X127758443Y-139775000D01*
X127637694Y-139799019D01*
X127523952Y-139846132D01*
X127421586Y-139914531D01*
X127334531Y-140001586D01*
X127266132Y-140103952D01*
X127219019Y-140217694D01*
X127195000Y-140338443D01*
X127195000Y-140461557D01*
X127219019Y-140582306D01*
X127266132Y-140696048D01*
X127334531Y-140798414D01*
X127421586Y-140885469D01*
X127523952Y-140953868D01*
X127637694Y-141000981D01*
X127758443Y-141025000D01*
X127881557Y-141025000D01*
X128002306Y-141000981D01*
X128116048Y-140953868D01*
X128218414Y-140885469D01*
X128270000Y-140833883D01*
X128321586Y-140885469D01*
X128423952Y-140953868D01*
X128537694Y-141000981D01*
X128658443Y-141025000D01*
X128781557Y-141025000D01*
X128902306Y-141000981D01*
X129016048Y-140953868D01*
X129118414Y-140885469D01*
X129170000Y-140833883D01*
X129221586Y-140885469D01*
X129323952Y-140953868D01*
X129353596Y-140966147D01*
X129241473Y-141026078D01*
X129131407Y-141116406D01*
X129041079Y-141226472D01*
X128973959Y-141352045D01*
X128932626Y-141488299D01*
X128918670Y-141629999D01*
X128918670Y-141630001D01*
X128932626Y-141771701D01*
X128973959Y-141907955D01*
X129041079Y-142033528D01*
X129131407Y-142143594D01*
X129241473Y-142233922D01*
X129367046Y-142301042D01*
X129503300Y-142342375D01*
X129645000Y-142356331D01*
X130895000Y-142356331D01*
X131036700Y-142342375D01*
X131172954Y-142301042D01*
X131298527Y-142233922D01*
X131408593Y-142143594D01*
X131498921Y-142033528D01*
X131566041Y-141907955D01*
X131601059Y-141792518D01*
X149185000Y-141792518D01*
X149185000Y-141925482D01*
X149210940Y-142055890D01*
X149261823Y-142178732D01*
X149335693Y-142289287D01*
X149429713Y-142383307D01*
X149540268Y-142457177D01*
X149663110Y-142508060D01*
X149793518Y-142534000D01*
X149926482Y-142534000D01*
X150056890Y-142508060D01*
X150179732Y-142457177D01*
X150290287Y-142383307D01*
X150384307Y-142289287D01*
X150458177Y-142178732D01*
X150509060Y-142055890D01*
X150535000Y-141925482D01*
X150535000Y-141792518D01*
X150509060Y-141662110D01*
X150458177Y-141539268D01*
X150384307Y-141428713D01*
X150290287Y-141334693D01*
X150179732Y-141260823D01*
X150056890Y-141209940D01*
X149926482Y-141184000D01*
X149793518Y-141184000D01*
X149663110Y-141209940D01*
X149540268Y-141260823D01*
X149429713Y-141334693D01*
X149335693Y-141428713D01*
X149261823Y-141539268D01*
X149210940Y-141662110D01*
X149185000Y-141792518D01*
X131601059Y-141792518D01*
X131607374Y-141771701D01*
X131621330Y-141630001D01*
X131621330Y-141629999D01*
X131607374Y-141488299D01*
X131566041Y-141352045D01*
X131498921Y-141226472D01*
X131408593Y-141116406D01*
X131298527Y-141026078D01*
X131172954Y-140958958D01*
X131036700Y-140917625D01*
X130935244Y-140907633D01*
X130968414Y-140885469D01*
X131008956Y-140844927D01*
X131181139Y-140844927D01*
X131214174Y-140948530D01*
X131327064Y-140997654D01*
X131447367Y-141023811D01*
X131570462Y-141025995D01*
X131691618Y-141004122D01*
X131806179Y-140959033D01*
X131825826Y-140948530D01*
X131858861Y-140844927D01*
X131520000Y-140506066D01*
X131181139Y-140844927D01*
X131008956Y-140844927D01*
X131055469Y-140798414D01*
X131123868Y-140696048D01*
X131128098Y-140685836D01*
X131413934Y-140400000D01*
X131626066Y-140400000D01*
X131964927Y-140738861D01*
X132068530Y-140705826D01*
X132117654Y-140592936D01*
X132143811Y-140472633D01*
X132145995Y-140349538D01*
X132124122Y-140228382D01*
X132079033Y-140113821D01*
X132068530Y-140094174D01*
X131964927Y-140061139D01*
X131626066Y-140400000D01*
X131413934Y-140400000D01*
X131128098Y-140114164D01*
X131123868Y-140103952D01*
X131055469Y-140001586D01*
X131008956Y-139955073D01*
X131181139Y-139955073D01*
X131520000Y-140293934D01*
X131858861Y-139955073D01*
X131825826Y-139851470D01*
X131712936Y-139802346D01*
X131592633Y-139776189D01*
X131469538Y-139774005D01*
X131348382Y-139795878D01*
X131233821Y-139840967D01*
X131214174Y-139851470D01*
X131181139Y-139955073D01*
X131008956Y-139955073D01*
X130968414Y-139914531D01*
X130866048Y-139846132D01*
X130752306Y-139799019D01*
X130631557Y-139775000D01*
X130508443Y-139775000D01*
X130387694Y-139799019D01*
X130273952Y-139846132D01*
X130171586Y-139914531D01*
X130095000Y-139991117D01*
X130018414Y-139914531D01*
X129916048Y-139846132D01*
X129802306Y-139799019D01*
X129681557Y-139775000D01*
X129558443Y-139775000D01*
X129437694Y-139799019D01*
X129323952Y-139846132D01*
X129221586Y-139914531D01*
X129170000Y-139966117D01*
X129118414Y-139914531D01*
X129016048Y-139846132D01*
X128902306Y-139799019D01*
X128898615Y-139798285D01*
X128725330Y-139625000D01*
X128781557Y-139625000D01*
X128902306Y-139600981D01*
X129016048Y-139553868D01*
X129118414Y-139485469D01*
X129205469Y-139398414D01*
X129273868Y-139296048D01*
X129320981Y-139182306D01*
X129345000Y-139061557D01*
X129345000Y-138938443D01*
X129320981Y-138817694D01*
X129273868Y-138703952D01*
X129205469Y-138601586D01*
X129118414Y-138514531D01*
X129016048Y-138446132D01*
X128902306Y-138399019D01*
X128781557Y-138375000D01*
X128658443Y-138375000D01*
X128537694Y-138399019D01*
X128423952Y-138446132D01*
X128321586Y-138514531D01*
X128270000Y-138566117D01*
X128218414Y-138514531D01*
X128116048Y-138446132D01*
X128002306Y-138399019D01*
X127881557Y-138375000D01*
X127758443Y-138375000D01*
X127637694Y-138399019D01*
X127523952Y-138446132D01*
X127421586Y-138514531D01*
X127370000Y-138566117D01*
X127318414Y-138514531D01*
X127216048Y-138446132D01*
X127186404Y-138433853D01*
X127298527Y-138373922D01*
X127408593Y-138283594D01*
X127498921Y-138173528D01*
X127566041Y-138047955D01*
X127607374Y-137911701D01*
X127621330Y-137770001D01*
X127621330Y-137769999D01*
X128918670Y-137769999D01*
X128918670Y-137770001D01*
X128932626Y-137911701D01*
X128973959Y-138047955D01*
X129041079Y-138173528D01*
X129131407Y-138283594D01*
X129241473Y-138373922D01*
X129367046Y-138441042D01*
X129503300Y-138482375D01*
X129645000Y-138496331D01*
X130198824Y-138496331D01*
X130171586Y-138514531D01*
X130084531Y-138601586D01*
X130016132Y-138703952D01*
X129969019Y-138817694D01*
X129945000Y-138938443D01*
X129945000Y-139061557D01*
X129969019Y-139182306D01*
X130016132Y-139296048D01*
X130084531Y-139398414D01*
X130171586Y-139485469D01*
X130273952Y-139553868D01*
X130387694Y-139600981D01*
X130508443Y-139625000D01*
X130631557Y-139625000D01*
X130752306Y-139600981D01*
X130866048Y-139553868D01*
X130968414Y-139485469D01*
X131008956Y-139444927D01*
X131181139Y-139444927D01*
X131214174Y-139548530D01*
X131327064Y-139597654D01*
X131447367Y-139623811D01*
X131570462Y-139625995D01*
X131691618Y-139604122D01*
X131806179Y-139559033D01*
X131825826Y-139548530D01*
X131858861Y-139444927D01*
X131520000Y-139106066D01*
X131181139Y-139444927D01*
X131008956Y-139444927D01*
X131055469Y-139398414D01*
X131123868Y-139296048D01*
X131128098Y-139285836D01*
X131413934Y-139000000D01*
X131626066Y-139000000D01*
X131964927Y-139338861D01*
X132068530Y-139305826D01*
X132117654Y-139192936D01*
X132143811Y-139072633D01*
X132145995Y-138949538D01*
X132124122Y-138828382D01*
X132079033Y-138713821D01*
X132068530Y-138694174D01*
X131964927Y-138661139D01*
X131626066Y-139000000D01*
X131413934Y-139000000D01*
X131128098Y-138714164D01*
X131123868Y-138703952D01*
X131055469Y-138601586D01*
X131008956Y-138555073D01*
X131181139Y-138555073D01*
X131520000Y-138893934D01*
X131858861Y-138555073D01*
X131825826Y-138451470D01*
X131712936Y-138402346D01*
X131592633Y-138376189D01*
X131469538Y-138374005D01*
X131348382Y-138395878D01*
X131233821Y-138440967D01*
X131214174Y-138451470D01*
X131181139Y-138555073D01*
X131008956Y-138555073D01*
X130968414Y-138514531D01*
X130935244Y-138492367D01*
X131036700Y-138482375D01*
X131172954Y-138441042D01*
X131298527Y-138373922D01*
X131408593Y-138283594D01*
X131498921Y-138173528D01*
X131566041Y-138047955D01*
X131607374Y-137911701D01*
X131621330Y-137770001D01*
X131621330Y-137769999D01*
X131607374Y-137628299D01*
X131599250Y-137601518D01*
X135469000Y-137601518D01*
X135469000Y-137734482D01*
X135494940Y-137864890D01*
X135545823Y-137987732D01*
X135619693Y-138098287D01*
X135713713Y-138192307D01*
X135824268Y-138266177D01*
X135947110Y-138317060D01*
X136077518Y-138343000D01*
X136210482Y-138343000D01*
X136340890Y-138317060D01*
X136463732Y-138266177D01*
X136574287Y-138192307D01*
X136668307Y-138098287D01*
X136742177Y-137987732D01*
X136793060Y-137864890D01*
X136819000Y-137734482D01*
X136819000Y-137601518D01*
X145121000Y-137601518D01*
X145121000Y-137734482D01*
X145146940Y-137864890D01*
X145197823Y-137987732D01*
X145271693Y-138098287D01*
X145365713Y-138192307D01*
X145476268Y-138266177D01*
X145599110Y-138317060D01*
X145729518Y-138343000D01*
X145862482Y-138343000D01*
X145992890Y-138317060D01*
X146115732Y-138266177D01*
X146226287Y-138192307D01*
X146320307Y-138098287D01*
X146394177Y-137987732D01*
X146445060Y-137864890D01*
X146471000Y-137734482D01*
X146471000Y-137601518D01*
X146445060Y-137471110D01*
X146394177Y-137348268D01*
X146320307Y-137237713D01*
X146226287Y-137143693D01*
X146115732Y-137069823D01*
X145992890Y-137018940D01*
X145862482Y-136993000D01*
X145729518Y-136993000D01*
X145599110Y-137018940D01*
X145476268Y-137069823D01*
X145365713Y-137143693D01*
X145271693Y-137237713D01*
X145197823Y-137348268D01*
X145146940Y-137471110D01*
X145121000Y-137601518D01*
X136819000Y-137601518D01*
X136793060Y-137471110D01*
X136742177Y-137348268D01*
X136668307Y-137237713D01*
X136574287Y-137143693D01*
X136463732Y-137069823D01*
X136340890Y-137018940D01*
X136210482Y-136993000D01*
X136077518Y-136993000D01*
X135947110Y-137018940D01*
X135824268Y-137069823D01*
X135713713Y-137143693D01*
X135619693Y-137237713D01*
X135545823Y-137348268D01*
X135494940Y-137471110D01*
X135469000Y-137601518D01*
X131599250Y-137601518D01*
X131566041Y-137492045D01*
X131498921Y-137366472D01*
X131408593Y-137256406D01*
X131298527Y-137166078D01*
X131172954Y-137098958D01*
X131036700Y-137057625D01*
X130895000Y-137043669D01*
X129645000Y-137043669D01*
X129503300Y-137057625D01*
X129367046Y-137098958D01*
X129241473Y-137166078D01*
X129131407Y-137256406D01*
X129041079Y-137366472D01*
X128973959Y-137492045D01*
X128932626Y-137628299D01*
X128918670Y-137769999D01*
X127621330Y-137769999D01*
X127607374Y-137628299D01*
X127566041Y-137492045D01*
X127498921Y-137366472D01*
X127408593Y-137256406D01*
X127298527Y-137166078D01*
X127172954Y-137098958D01*
X127036700Y-137057625D01*
X126895000Y-137043669D01*
X125645000Y-137043669D01*
X125503300Y-137057625D01*
X125367046Y-137098958D01*
X125241473Y-137166078D01*
X125131407Y-137256406D01*
X125041079Y-137366472D01*
X124973959Y-137492045D01*
X124932626Y-137628299D01*
X124918670Y-137769999D01*
X98911104Y-137769999D01*
X98816603Y-137541855D01*
X98611407Y-137234757D01*
X98350243Y-136973593D01*
X98043145Y-136768397D01*
X97701917Y-136627056D01*
X97339671Y-136555000D01*
X96970329Y-136555000D01*
X96608083Y-136627056D01*
X96266855Y-136768397D01*
X95959757Y-136973593D01*
X95698593Y-137234757D01*
X95493397Y-137541855D01*
X95352056Y-137883083D01*
X95280000Y-138245329D01*
X92400000Y-138245329D01*
X92400000Y-129473518D01*
X104988974Y-129473518D01*
X104988974Y-129606482D01*
X105014914Y-129736890D01*
X105065797Y-129859732D01*
X105139667Y-129970287D01*
X105233687Y-130064307D01*
X105344242Y-130138177D01*
X105467084Y-130189060D01*
X105597492Y-130215000D01*
X105730456Y-130215000D01*
X105795672Y-130202028D01*
X110465783Y-134872139D01*
X110477526Y-134886448D01*
X110534627Y-134933309D01*
X110599774Y-134968131D01*
X110670461Y-134989574D01*
X110725555Y-134995000D01*
X110725558Y-134995000D01*
X110743974Y-134996814D01*
X110762390Y-134995000D01*
X118412889Y-134995000D01*
X118461022Y-135111204D01*
X118574509Y-135281049D01*
X118718951Y-135425491D01*
X118888796Y-135538978D01*
X119077518Y-135617149D01*
X119277864Y-135657000D01*
X119482136Y-135657000D01*
X119682482Y-135617149D01*
X119871204Y-135538978D01*
X120041049Y-135425491D01*
X120185491Y-135281049D01*
X120275058Y-135147003D01*
X120280426Y-135201512D01*
X120301869Y-135272199D01*
X120336691Y-135337346D01*
X120383552Y-135394448D01*
X120397866Y-135406195D01*
X121006809Y-136015139D01*
X121018552Y-136029448D01*
X121032859Y-136041189D01*
X121075653Y-136076310D01*
X121120107Y-136100070D01*
X121140800Y-136111131D01*
X121211487Y-136132574D01*
X121266581Y-136138000D01*
X121266584Y-136138000D01*
X121285000Y-136139814D01*
X121303416Y-136138000D01*
X130918584Y-136138000D01*
X130937000Y-136139814D01*
X130955416Y-136138000D01*
X130955419Y-136138000D01*
X131010513Y-136132574D01*
X131081200Y-136111131D01*
X131146347Y-136076309D01*
X131203448Y-136029448D01*
X131215195Y-136015134D01*
X131661314Y-135569016D01*
X131777518Y-135617149D01*
X131977864Y-135657000D01*
X132182136Y-135657000D01*
X132382482Y-135617149D01*
X132571204Y-135538978D01*
X132741049Y-135425491D01*
X132885491Y-135281049D01*
X132998978Y-135111204D01*
X133077149Y-134922482D01*
X133117000Y-134722136D01*
X133117000Y-134517864D01*
X133077149Y-134317518D01*
X132998978Y-134128796D01*
X132885491Y-133958951D01*
X132784540Y-133858000D01*
X133581670Y-133858000D01*
X133581670Y-135382000D01*
X133586980Y-135435909D01*
X133602704Y-135487747D01*
X133628240Y-135535521D01*
X133662605Y-135577395D01*
X133704479Y-135611760D01*
X133752253Y-135637296D01*
X133804091Y-135653020D01*
X133858000Y-135658330D01*
X135382000Y-135658330D01*
X135435909Y-135653020D01*
X135487747Y-135637296D01*
X135535521Y-135611760D01*
X135577395Y-135577395D01*
X135611760Y-135535521D01*
X135637296Y-135487747D01*
X135653020Y-135435909D01*
X135658330Y-135382000D01*
X135658330Y-133858000D01*
X135653020Y-133804091D01*
X135637296Y-133752253D01*
X135611760Y-133704479D01*
X135577395Y-133662605D01*
X135535521Y-133628240D01*
X135487747Y-133602704D01*
X135435909Y-133586980D01*
X135382000Y-133581670D01*
X133858000Y-133581670D01*
X133804091Y-133586980D01*
X133752253Y-133602704D01*
X133704479Y-133628240D01*
X133662605Y-133662605D01*
X133628240Y-133704479D01*
X133602704Y-133752253D01*
X133586980Y-133804091D01*
X133581670Y-133858000D01*
X132784540Y-133858000D01*
X132741049Y-133814509D01*
X132571204Y-133701022D01*
X132382482Y-133622851D01*
X132182136Y-133583000D01*
X131977864Y-133583000D01*
X131777518Y-133622851D01*
X131588796Y-133701022D01*
X131418951Y-133814509D01*
X131274509Y-133958951D01*
X131161022Y-134128796D01*
X131082851Y-134317518D01*
X131043000Y-134517864D01*
X131043000Y-134722136D01*
X131082851Y-134922482D01*
X131130984Y-135038686D01*
X130781671Y-135388000D01*
X130238540Y-135388000D01*
X130345491Y-135281049D01*
X130458978Y-135111204D01*
X130537149Y-134922482D01*
X130577000Y-134722136D01*
X130577000Y-134517864D01*
X130537149Y-134317518D01*
X130458978Y-134128796D01*
X130345491Y-133958951D01*
X130201049Y-133814509D01*
X130031204Y-133701022D01*
X129842482Y-133622851D01*
X129642136Y-133583000D01*
X129437864Y-133583000D01*
X129237518Y-133622851D01*
X129048796Y-133701022D01*
X128878951Y-133814509D01*
X128734509Y-133958951D01*
X128621022Y-134128796D01*
X128542851Y-134317518D01*
X128503000Y-134517864D01*
X128503000Y-134722136D01*
X128542851Y-134922482D01*
X128621022Y-135111204D01*
X128734509Y-135281049D01*
X128841460Y-135388000D01*
X127698540Y-135388000D01*
X127805491Y-135281049D01*
X127918978Y-135111204D01*
X127997149Y-134922482D01*
X128037000Y-134722136D01*
X128037000Y-134517864D01*
X127997149Y-134317518D01*
X127918978Y-134128796D01*
X127805491Y-133958951D01*
X127661049Y-133814509D01*
X127491204Y-133701022D01*
X127302482Y-133622851D01*
X127102136Y-133583000D01*
X126897864Y-133583000D01*
X126697518Y-133622851D01*
X126581314Y-133670984D01*
X126078113Y-133167783D01*
X126137968Y-133207777D01*
X126260810Y-133258660D01*
X126391218Y-133284600D01*
X126524182Y-133284600D01*
X126654590Y-133258660D01*
X126777432Y-133207777D01*
X126887987Y-133133907D01*
X126982007Y-133039887D01*
X127055877Y-132929332D01*
X127106760Y-132806490D01*
X127132700Y-132676082D01*
X127132700Y-132543118D01*
X127106760Y-132412710D01*
X127055877Y-132289868D01*
X126982007Y-132179313D01*
X126887987Y-132085293D01*
X126832700Y-132048352D01*
X126832700Y-128197818D01*
X128554600Y-128197818D01*
X128554600Y-128330782D01*
X128580540Y-128461190D01*
X128631423Y-128584032D01*
X128705293Y-128694587D01*
X128799313Y-128788607D01*
X128909868Y-128862477D01*
X129032710Y-128913360D01*
X129163118Y-128939300D01*
X129296082Y-128939300D01*
X129426490Y-128913360D01*
X129549332Y-128862477D01*
X129659887Y-128788607D01*
X129753907Y-128694587D01*
X129827777Y-128584032D01*
X129878660Y-128461190D01*
X129904600Y-128330782D01*
X129904600Y-128197818D01*
X129878660Y-128067410D01*
X129827777Y-127944568D01*
X129753907Y-127834013D01*
X129659887Y-127739993D01*
X129549332Y-127666123D01*
X129426490Y-127615240D01*
X129296082Y-127589300D01*
X129163118Y-127589300D01*
X129032710Y-127615240D01*
X128909868Y-127666123D01*
X128799313Y-127739993D01*
X128705293Y-127834013D01*
X128631423Y-127944568D01*
X128580540Y-128067410D01*
X128554600Y-128197818D01*
X126832700Y-128197818D01*
X126832700Y-126044522D01*
X133691000Y-126044522D01*
X133691000Y-126177486D01*
X133716940Y-126307894D01*
X133767823Y-126430736D01*
X133841693Y-126541291D01*
X133935713Y-126635311D01*
X134046268Y-126709181D01*
X134169110Y-126760064D01*
X134299518Y-126786004D01*
X134432482Y-126786004D01*
X134562890Y-126760064D01*
X134685732Y-126709181D01*
X134796287Y-126635311D01*
X134890307Y-126541291D01*
X134964177Y-126430736D01*
X135015060Y-126307894D01*
X135016925Y-126298518D01*
X136058500Y-126298518D01*
X136058500Y-126431482D01*
X136084440Y-126561890D01*
X136135323Y-126684732D01*
X136209193Y-126795287D01*
X136303213Y-126889307D01*
X136413768Y-126963177D01*
X136536610Y-127014060D01*
X136667018Y-127040000D01*
X136799982Y-127040000D01*
X136930390Y-127014060D01*
X137053232Y-126963177D01*
X137163787Y-126889307D01*
X137257807Y-126795287D01*
X137331677Y-126684732D01*
X137382560Y-126561890D01*
X137408500Y-126431482D01*
X137408500Y-126298518D01*
X137382560Y-126168110D01*
X137331677Y-126045268D01*
X137257807Y-125934713D01*
X137163787Y-125840693D01*
X137053232Y-125766823D01*
X136930390Y-125715940D01*
X136799982Y-125690000D01*
X136667018Y-125690000D01*
X136536610Y-125715940D01*
X136413768Y-125766823D01*
X136303213Y-125840693D01*
X136209193Y-125934713D01*
X136135323Y-126045268D01*
X136084440Y-126168110D01*
X136058500Y-126298518D01*
X135016925Y-126298518D01*
X135041000Y-126177486D01*
X135041000Y-126044522D01*
X135028028Y-125979306D01*
X137599534Y-123407800D01*
X140342475Y-123407800D01*
X140310023Y-123456368D01*
X140259140Y-123579210D01*
X140233200Y-123709618D01*
X140233200Y-123842582D01*
X140259140Y-123972990D01*
X140310023Y-124095832D01*
X140383893Y-124206387D01*
X140477913Y-124300407D01*
X140588468Y-124374277D01*
X140711310Y-124425160D01*
X140841718Y-124451100D01*
X140974682Y-124451100D01*
X141039898Y-124438128D01*
X141404222Y-124802451D01*
X141281110Y-124826940D01*
X141158268Y-124877823D01*
X141047713Y-124951693D01*
X140953693Y-125045713D01*
X140879823Y-125156268D01*
X140828940Y-125279110D01*
X140803000Y-125409518D01*
X140803000Y-125542482D01*
X140828940Y-125672890D01*
X140879823Y-125795732D01*
X140953693Y-125906287D01*
X141047713Y-126000307D01*
X141103001Y-126037249D01*
X141103000Y-127489584D01*
X141101186Y-127508000D01*
X141103000Y-127526416D01*
X141103000Y-127526418D01*
X141108426Y-127581512D01*
X141129869Y-127652199D01*
X141164691Y-127717346D01*
X141211552Y-127774448D01*
X141225866Y-127786195D01*
X142373001Y-128933332D01*
X142373000Y-130527664D01*
X141228698Y-131671966D01*
X141163482Y-131658994D01*
X141030518Y-131658994D01*
X140900110Y-131684934D01*
X140777268Y-131735817D01*
X140710000Y-131780764D01*
X140710000Y-131600329D01*
X141346302Y-130964028D01*
X141411518Y-130977000D01*
X141544482Y-130977000D01*
X141674890Y-130951060D01*
X141797732Y-130900177D01*
X141908287Y-130826307D01*
X142002307Y-130732287D01*
X142076177Y-130621732D01*
X142127060Y-130498890D01*
X142153000Y-130368482D01*
X142153000Y-130235518D01*
X142127060Y-130105110D01*
X142076177Y-129982268D01*
X142002307Y-129871713D01*
X141908287Y-129777693D01*
X141797732Y-129703823D01*
X141674890Y-129652940D01*
X141544482Y-129627000D01*
X141411518Y-129627000D01*
X141281110Y-129652940D01*
X141158268Y-129703823D01*
X141047713Y-129777693D01*
X140953693Y-129871713D01*
X140879823Y-129982268D01*
X140828940Y-130105110D01*
X140803000Y-130235518D01*
X140803000Y-130368482D01*
X140815972Y-130433698D01*
X140082862Y-131166809D01*
X140068553Y-131178552D01*
X140056812Y-131192859D01*
X140056811Y-131192860D01*
X140021691Y-131235654D01*
X139986870Y-131300800D01*
X139965427Y-131371488D01*
X139958186Y-131445000D01*
X139960001Y-131463426D01*
X139960000Y-134219084D01*
X139958186Y-134237500D01*
X139960000Y-134255916D01*
X139960000Y-134255918D01*
X139965426Y-134311012D01*
X139986869Y-134381699D01*
X140021691Y-134446846D01*
X140068552Y-134503948D01*
X140082866Y-134515695D01*
X140230472Y-134663302D01*
X140217500Y-134728518D01*
X140217500Y-134861482D01*
X140243440Y-134991890D01*
X140294323Y-135114732D01*
X140368193Y-135225287D01*
X140462213Y-135319307D01*
X140572768Y-135393177D01*
X140695610Y-135444060D01*
X140826018Y-135470000D01*
X140958982Y-135470000D01*
X141089390Y-135444060D01*
X141212232Y-135393177D01*
X141322787Y-135319307D01*
X141416807Y-135225287D01*
X141490677Y-135114732D01*
X141541560Y-134991890D01*
X141567500Y-134861482D01*
X141567500Y-134728518D01*
X141541560Y-134598110D01*
X141490677Y-134475268D01*
X141416807Y-134364713D01*
X141322787Y-134270693D01*
X141212232Y-134196823D01*
X141089390Y-134145940D01*
X140958982Y-134120000D01*
X140826018Y-134120000D01*
X140760802Y-134132972D01*
X140710000Y-134082171D01*
X140710000Y-132887224D01*
X140777268Y-132932171D01*
X140900110Y-132983054D01*
X141030518Y-133008994D01*
X141163482Y-133008994D01*
X141293890Y-132983054D01*
X141416732Y-132932171D01*
X141527287Y-132858301D01*
X141621307Y-132764281D01*
X141695177Y-132653726D01*
X141746060Y-132530884D01*
X141772000Y-132400476D01*
X141772000Y-132267512D01*
X141759028Y-132202296D01*
X143000140Y-130961184D01*
X143014448Y-130949442D01*
X143034464Y-130925052D01*
X143061310Y-130892341D01*
X143096130Y-130827195D01*
X143096131Y-130827194D01*
X143117574Y-130756507D01*
X143123000Y-130701413D01*
X143123000Y-130701410D01*
X143124814Y-130682994D01*
X143123000Y-130664578D01*
X143123000Y-128796415D01*
X143124814Y-128777999D01*
X143123000Y-128759581D01*
X143117574Y-128704487D01*
X143096131Y-128633800D01*
X143061309Y-128568653D01*
X143044512Y-128548185D01*
X143026189Y-128525858D01*
X143026186Y-128525855D01*
X143014448Y-128511552D01*
X143000145Y-128499814D01*
X141853000Y-127352671D01*
X141853000Y-126037248D01*
X141908287Y-126000307D01*
X142002307Y-125906287D01*
X142076177Y-125795732D01*
X142127060Y-125672890D01*
X142151549Y-125549778D01*
X153295008Y-136693238D01*
X153295009Y-139138751D01*
X153239721Y-139175693D01*
X153145701Y-139269713D01*
X153071831Y-139380268D01*
X153029000Y-139483671D01*
X153029000Y-137559416D01*
X153030814Y-137541000D01*
X153029000Y-137522581D01*
X153023574Y-137467487D01*
X153002131Y-137396800D01*
X152967309Y-137331653D01*
X152920448Y-137274552D01*
X152906140Y-137262810D01*
X149252695Y-133609366D01*
X149240948Y-133595052D01*
X149183847Y-133548191D01*
X149118700Y-133513369D01*
X149048013Y-133491926D01*
X148992919Y-133486500D01*
X148992916Y-133486500D01*
X148974500Y-133484686D01*
X148956084Y-133486500D01*
X145586348Y-133486500D01*
X145549407Y-133431213D01*
X145455387Y-133337193D01*
X145344832Y-133263323D01*
X145221990Y-133212440D01*
X145091582Y-133186500D01*
X144958618Y-133186500D01*
X144828210Y-133212440D01*
X144705368Y-133263323D01*
X144594813Y-133337193D01*
X144500793Y-133431213D01*
X144426923Y-133541768D01*
X144376040Y-133664610D01*
X144350100Y-133795018D01*
X144350100Y-133927982D01*
X144376040Y-134058390D01*
X144426923Y-134181232D01*
X144500793Y-134291787D01*
X144594813Y-134385807D01*
X144705368Y-134459677D01*
X144828210Y-134510560D01*
X144958618Y-134536500D01*
X145091582Y-134536500D01*
X145221990Y-134510560D01*
X145344832Y-134459677D01*
X145455387Y-134385807D01*
X145549407Y-134291787D01*
X145586348Y-134236500D01*
X148819171Y-134236500D01*
X151362266Y-136779596D01*
X151326884Y-136764940D01*
X151196476Y-136739000D01*
X151063512Y-136739000D01*
X150998296Y-136751972D01*
X149630189Y-135383866D01*
X149618442Y-135369552D01*
X149561341Y-135322691D01*
X149496194Y-135287869D01*
X149425507Y-135266426D01*
X149370413Y-135261000D01*
X149370410Y-135261000D01*
X149351994Y-135259186D01*
X149333578Y-135261000D01*
X144325252Y-135261000D01*
X144288311Y-135205713D01*
X144194291Y-135111693D01*
X144083736Y-135037823D01*
X143960894Y-134986940D01*
X143830486Y-134961000D01*
X143697522Y-134961000D01*
X143567114Y-134986940D01*
X143444272Y-135037823D01*
X143333717Y-135111693D01*
X143239697Y-135205713D01*
X143165827Y-135316268D01*
X143114944Y-135439110D01*
X143089004Y-135569518D01*
X143089004Y-135702482D01*
X143114944Y-135832890D01*
X143165827Y-135955732D01*
X143239697Y-136066287D01*
X143333717Y-136160307D01*
X143444272Y-136234177D01*
X143567114Y-136285060D01*
X143697522Y-136311000D01*
X143830486Y-136311000D01*
X143960894Y-136285060D01*
X144083736Y-136234177D01*
X144194291Y-136160307D01*
X144288311Y-136066287D01*
X144325252Y-136011000D01*
X149196665Y-136011000D01*
X150467966Y-137282302D01*
X150454994Y-137347518D01*
X150454994Y-137480482D01*
X150480934Y-137610890D01*
X150531817Y-137733732D01*
X150605687Y-137844287D01*
X150699707Y-137938307D01*
X150810262Y-138012177D01*
X150933104Y-138063060D01*
X151063512Y-138089000D01*
X151196476Y-138089000D01*
X151326884Y-138063060D01*
X151449726Y-138012177D01*
X151560281Y-137938307D01*
X151654301Y-137844287D01*
X151728171Y-137733732D01*
X151779054Y-137610890D01*
X151804994Y-137480482D01*
X151804994Y-137347518D01*
X151779054Y-137217110D01*
X151764398Y-137181728D01*
X152279000Y-137696330D01*
X152279001Y-140062574D01*
X152277186Y-140081000D01*
X152283767Y-140147813D01*
X152284427Y-140154513D01*
X152301929Y-140212207D01*
X152305870Y-140225200D01*
X152331416Y-140272992D01*
X152340692Y-140290347D01*
X152387553Y-140347448D01*
X152401862Y-140359191D01*
X153899809Y-141857139D01*
X153911552Y-141871448D01*
X153941766Y-141896243D01*
X153968652Y-141918309D01*
X154033798Y-141953130D01*
X154033800Y-141953131D01*
X154104487Y-141974574D01*
X154159581Y-141980000D01*
X154159583Y-141980000D01*
X154177999Y-141981814D01*
X154196415Y-141980000D01*
X155648752Y-141980000D01*
X155685693Y-142035287D01*
X155779713Y-142129307D01*
X155890268Y-142203177D01*
X156013110Y-142254060D01*
X156143518Y-142280000D01*
X156276482Y-142280000D01*
X156406890Y-142254060D01*
X156529732Y-142203177D01*
X156640287Y-142129307D01*
X156734307Y-142035287D01*
X156808177Y-141924732D01*
X156859060Y-141801890D01*
X156885000Y-141671482D01*
X156885000Y-141538518D01*
X156859060Y-141408110D01*
X156808177Y-141285268D01*
X156734307Y-141174713D01*
X156640287Y-141080693D01*
X156529732Y-141006823D01*
X156406890Y-140955940D01*
X156276482Y-140930000D01*
X156143518Y-140930000D01*
X156013110Y-140955940D01*
X155890268Y-141006823D01*
X155779713Y-141080693D01*
X155685693Y-141174713D01*
X155648752Y-141230000D01*
X154333330Y-141230000D01*
X153437732Y-140334403D01*
X153473118Y-140349060D01*
X153603526Y-140375000D01*
X153736490Y-140375000D01*
X153866898Y-140349060D01*
X153989740Y-140298177D01*
X154100295Y-140224307D01*
X154194315Y-140130287D01*
X154268185Y-140019732D01*
X154319068Y-139896890D01*
X154345008Y-139766482D01*
X154345008Y-139633518D01*
X154319068Y-139503110D01*
X154268185Y-139380268D01*
X154194315Y-139269713D01*
X154100295Y-139175693D01*
X154045008Y-139138752D01*
X154045008Y-136556324D01*
X154046822Y-136537908D01*
X154045008Y-136519489D01*
X154039582Y-136464395D01*
X154018139Y-136393708D01*
X153983317Y-136328561D01*
X153936456Y-136271460D01*
X153922148Y-136259718D01*
X142944948Y-125282518D01*
X144486000Y-125282518D01*
X144486000Y-125415482D01*
X144511940Y-125545890D01*
X144562823Y-125668732D01*
X144636693Y-125779287D01*
X144730713Y-125873307D01*
X144841268Y-125947177D01*
X144964110Y-125998060D01*
X145094518Y-126024000D01*
X145227482Y-126024000D01*
X145292698Y-126011028D01*
X150978809Y-131697139D01*
X150990552Y-131711448D01*
X151047653Y-131758309D01*
X151112800Y-131793131D01*
X151183487Y-131814574D01*
X151238581Y-131820000D01*
X151238584Y-131820000D01*
X151257000Y-131821814D01*
X151275416Y-131820000D01*
X154124752Y-131820000D01*
X154161693Y-131875287D01*
X154255713Y-131969307D01*
X154366268Y-132043177D01*
X154489110Y-132094060D01*
X154619518Y-132120000D01*
X154752482Y-132120000D01*
X154882890Y-132094060D01*
X155005732Y-132043177D01*
X155116287Y-131969307D01*
X155210307Y-131875287D01*
X155284177Y-131764732D01*
X155335060Y-131641890D01*
X155361000Y-131511482D01*
X155361000Y-131378518D01*
X155335060Y-131248110D01*
X155284177Y-131125268D01*
X155210307Y-131014713D01*
X155116287Y-130920693D01*
X155005732Y-130846823D01*
X154882890Y-130795940D01*
X154752482Y-130770000D01*
X154619518Y-130770000D01*
X154489110Y-130795940D01*
X154366268Y-130846823D01*
X154255713Y-130920693D01*
X154161693Y-131014713D01*
X154124752Y-131070000D01*
X151412330Y-131070000D01*
X145823028Y-125480698D01*
X145836000Y-125415482D01*
X145836000Y-125282518D01*
X145810060Y-125152110D01*
X145759177Y-125029268D01*
X145685307Y-124918713D01*
X145591287Y-124824693D01*
X145480732Y-124750823D01*
X145357890Y-124699940D01*
X145227482Y-124674000D01*
X145094518Y-124674000D01*
X144964110Y-124699940D01*
X144841268Y-124750823D01*
X144730713Y-124824693D01*
X144636693Y-124918713D01*
X144562823Y-125029268D01*
X144511940Y-125152110D01*
X144486000Y-125282518D01*
X142944948Y-125282518D01*
X141570228Y-123907798D01*
X141583200Y-123842582D01*
X141583200Y-123709618D01*
X141557260Y-123579210D01*
X141506377Y-123456368D01*
X141473925Y-123407800D01*
X144975485Y-123407800D01*
X151737972Y-130170288D01*
X151725000Y-130235504D01*
X151725000Y-130368468D01*
X151750940Y-130498876D01*
X151801823Y-130621718D01*
X151875693Y-130732273D01*
X151969713Y-130826293D01*
X152080268Y-130900163D01*
X152203110Y-130951046D01*
X152333518Y-130976986D01*
X152466482Y-130976986D01*
X152596890Y-130951046D01*
X152719732Y-130900163D01*
X152830287Y-130826293D01*
X152924307Y-130732273D01*
X152998177Y-130621718D01*
X153049060Y-130498876D01*
X153075000Y-130368468D01*
X153075000Y-130235504D01*
X153049060Y-130105096D01*
X152998177Y-129982254D01*
X152924307Y-129871699D01*
X152830287Y-129777679D01*
X152719732Y-129703809D01*
X152596890Y-129652926D01*
X152466482Y-129626986D01*
X152333518Y-129626986D01*
X152268302Y-129639958D01*
X145409009Y-122780666D01*
X145397262Y-122766352D01*
X145340161Y-122719491D01*
X145275014Y-122684669D01*
X145204327Y-122663226D01*
X145149233Y-122657800D01*
X145149230Y-122657800D01*
X145130814Y-122655986D01*
X145112398Y-122657800D01*
X137462620Y-122657800D01*
X137444204Y-122655986D01*
X137425788Y-122657800D01*
X137425785Y-122657800D01*
X137370691Y-122663226D01*
X137300004Y-122684669D01*
X137234857Y-122719491D01*
X137177756Y-122766352D01*
X137166013Y-122780661D01*
X134497698Y-125448976D01*
X134432482Y-125436004D01*
X134299518Y-125436004D01*
X134169110Y-125461944D01*
X134046268Y-125512827D01*
X133935713Y-125586697D01*
X133841693Y-125680717D01*
X133767823Y-125791272D01*
X133716940Y-125914114D01*
X133691000Y-126044522D01*
X126832700Y-126044522D01*
X126832700Y-123374418D01*
X128601600Y-123374418D01*
X128601600Y-123507382D01*
X128627540Y-123637790D01*
X128678423Y-123760632D01*
X128752293Y-123871187D01*
X128846313Y-123965207D01*
X128956868Y-124039077D01*
X129079710Y-124089960D01*
X129210118Y-124115900D01*
X129343082Y-124115900D01*
X129473490Y-124089960D01*
X129596332Y-124039077D01*
X129706887Y-123965207D01*
X129800907Y-123871187D01*
X129874777Y-123760632D01*
X129925660Y-123637790D01*
X129951600Y-123507382D01*
X129951600Y-123374418D01*
X129925660Y-123244010D01*
X129874777Y-123121168D01*
X129800907Y-123010613D01*
X129706887Y-122916593D01*
X129596332Y-122842723D01*
X129473490Y-122791840D01*
X129343082Y-122765900D01*
X129210118Y-122765900D01*
X129079710Y-122791840D01*
X128956868Y-122842723D01*
X128846313Y-122916593D01*
X128752293Y-123010613D01*
X128678423Y-123121168D01*
X128627540Y-123244010D01*
X128601600Y-123374418D01*
X126832700Y-123374418D01*
X126832700Y-123310325D01*
X129746856Y-120396170D01*
X129842482Y-120377149D01*
X130031204Y-120298978D01*
X130201049Y-120185491D01*
X130345491Y-120041049D01*
X130458978Y-119871204D01*
X130537149Y-119682482D01*
X130577000Y-119482136D01*
X130577000Y-119277864D01*
X131043000Y-119277864D01*
X131043000Y-119482136D01*
X131082851Y-119682482D01*
X131161022Y-119871204D01*
X131274509Y-120041049D01*
X131418951Y-120185491D01*
X131588796Y-120298978D01*
X131777518Y-120377149D01*
X131977864Y-120417000D01*
X132182136Y-120417000D01*
X132382482Y-120377149D01*
X132571204Y-120298978D01*
X132741049Y-120185491D01*
X132885491Y-120041049D01*
X132998978Y-119871204D01*
X133077149Y-119682482D01*
X133117000Y-119482136D01*
X133117000Y-119277864D01*
X133583000Y-119277864D01*
X133583000Y-119482136D01*
X133622851Y-119682482D01*
X133701022Y-119871204D01*
X133814509Y-120041049D01*
X133958951Y-120185491D01*
X134128796Y-120298978D01*
X134317518Y-120377149D01*
X134517864Y-120417000D01*
X134722136Y-120417000D01*
X134922482Y-120377149D01*
X135111204Y-120298978D01*
X135281049Y-120185491D01*
X135425491Y-120041049D01*
X135538978Y-119871204D01*
X135617149Y-119682482D01*
X135657000Y-119482136D01*
X135657000Y-119277864D01*
X135648379Y-119234518D01*
X141233000Y-119234518D01*
X141233000Y-119367482D01*
X141258940Y-119497890D01*
X141309823Y-119620732D01*
X141383693Y-119731287D01*
X141477713Y-119825307D01*
X141588268Y-119899177D01*
X141711110Y-119950060D01*
X141841518Y-119976000D01*
X141974482Y-119976000D01*
X142104890Y-119950060D01*
X142227732Y-119899177D01*
X142338287Y-119825307D01*
X142432307Y-119731287D01*
X142506177Y-119620732D01*
X142557060Y-119497890D01*
X142583000Y-119367482D01*
X142583000Y-119234518D01*
X142557060Y-119104110D01*
X142506177Y-118981268D01*
X142432307Y-118870713D01*
X142338287Y-118776693D01*
X142227732Y-118702823D01*
X142104890Y-118651940D01*
X141974482Y-118626000D01*
X141841518Y-118626000D01*
X141711110Y-118651940D01*
X141588268Y-118702823D01*
X141477713Y-118776693D01*
X141383693Y-118870713D01*
X141309823Y-118981268D01*
X141258940Y-119104110D01*
X141233000Y-119234518D01*
X135648379Y-119234518D01*
X135617149Y-119077518D01*
X135538978Y-118888796D01*
X135425491Y-118718951D01*
X135281049Y-118574509D01*
X135111204Y-118461022D01*
X134922482Y-118382851D01*
X134722136Y-118343000D01*
X134517864Y-118343000D01*
X134317518Y-118382851D01*
X134128796Y-118461022D01*
X133958951Y-118574509D01*
X133814509Y-118718951D01*
X133701022Y-118888796D01*
X133622851Y-119077518D01*
X133583000Y-119277864D01*
X133117000Y-119277864D01*
X133077149Y-119077518D01*
X132998978Y-118888796D01*
X132885491Y-118718951D01*
X132741049Y-118574509D01*
X132571204Y-118461022D01*
X132382482Y-118382851D01*
X132182136Y-118343000D01*
X131977864Y-118343000D01*
X131777518Y-118382851D01*
X131588796Y-118461022D01*
X131418951Y-118574509D01*
X131274509Y-118718951D01*
X131161022Y-118888796D01*
X131082851Y-119077518D01*
X131043000Y-119277864D01*
X130577000Y-119277864D01*
X130537149Y-119077518D01*
X130458978Y-118888796D01*
X130345491Y-118718951D01*
X130201049Y-118574509D01*
X130031204Y-118461022D01*
X129842482Y-118382851D01*
X129642136Y-118343000D01*
X129437864Y-118343000D01*
X129237518Y-118382851D01*
X129048796Y-118461022D01*
X128878951Y-118574509D01*
X128771996Y-118681464D01*
X128771996Y-117027518D01*
X133564000Y-117027518D01*
X133564000Y-117160482D01*
X133589940Y-117290890D01*
X133640823Y-117413732D01*
X133714693Y-117524287D01*
X133808713Y-117618307D01*
X133919268Y-117692177D01*
X134042110Y-117743060D01*
X134172518Y-117769000D01*
X134305482Y-117769000D01*
X134435890Y-117743060D01*
X134558732Y-117692177D01*
X134669287Y-117618307D01*
X134763307Y-117524287D01*
X134837177Y-117413732D01*
X134888060Y-117290890D01*
X134914000Y-117160482D01*
X134914000Y-117027518D01*
X134888060Y-116897110D01*
X134837177Y-116774268D01*
X134763307Y-116663713D01*
X134669287Y-116569693D01*
X134558732Y-116495823D01*
X134435890Y-116444940D01*
X134305482Y-116419000D01*
X134172518Y-116419000D01*
X134042110Y-116444940D01*
X133919268Y-116495823D01*
X133808713Y-116569693D01*
X133714693Y-116663713D01*
X133640823Y-116774268D01*
X133589940Y-116897110D01*
X133564000Y-117027518D01*
X128771996Y-117027518D01*
X128771996Y-116741325D01*
X129154294Y-116359028D01*
X129219510Y-116372000D01*
X129352474Y-116372000D01*
X129482882Y-116346060D01*
X129605724Y-116295177D01*
X129716279Y-116221307D01*
X129810299Y-116127287D01*
X129884169Y-116016732D01*
X129935052Y-115893890D01*
X129960992Y-115763482D01*
X129960992Y-115630518D01*
X129935052Y-115500110D01*
X129884169Y-115377268D01*
X129810299Y-115266713D01*
X129716279Y-115172693D01*
X129605724Y-115098823D01*
X129482882Y-115047940D01*
X129352474Y-115022000D01*
X129219510Y-115022000D01*
X129089102Y-115047940D01*
X128966260Y-115098823D01*
X128855705Y-115172693D01*
X128761685Y-115266713D01*
X128687815Y-115377268D01*
X128636932Y-115500110D01*
X128610992Y-115630518D01*
X128610992Y-115763482D01*
X128623964Y-115828698D01*
X128144858Y-116307805D01*
X128130549Y-116319548D01*
X128118807Y-116333856D01*
X128083687Y-116376650D01*
X128058543Y-116423692D01*
X128048866Y-116441796D01*
X128035282Y-116486578D01*
X128027423Y-116512484D01*
X128020182Y-116585996D01*
X128021997Y-116604422D01*
X128021996Y-119202435D01*
X127997149Y-119077518D01*
X127918978Y-118888796D01*
X127805491Y-118718951D01*
X127661049Y-118574509D01*
X127491204Y-118461022D01*
X127302482Y-118382851D01*
X127102136Y-118343000D01*
X126897864Y-118343000D01*
X126697518Y-118382851D01*
X126508796Y-118461022D01*
X126338951Y-118574509D01*
X126194509Y-118718951D01*
X126081022Y-118888796D01*
X126002851Y-119077518D01*
X125963000Y-119277864D01*
X125963000Y-119482136D01*
X126002851Y-119682482D01*
X126081022Y-119871204D01*
X126194509Y-120041049D01*
X126338951Y-120185491D01*
X126508796Y-120298978D01*
X126697518Y-120377149D01*
X126897864Y-120417000D01*
X127102136Y-120417000D01*
X127302482Y-120377149D01*
X127491204Y-120298978D01*
X127661049Y-120185491D01*
X127805491Y-120041049D01*
X127918978Y-119871204D01*
X127997149Y-119682482D01*
X128021996Y-119557565D01*
X128021996Y-120494670D01*
X120908698Y-127607968D01*
X120843482Y-127594996D01*
X120712333Y-127594996D01*
X124712139Y-123595191D01*
X124726448Y-123583448D01*
X124773309Y-123526347D01*
X124808131Y-123461200D01*
X124829574Y-123390513D01*
X124835000Y-123335419D01*
X124835000Y-123335416D01*
X124836814Y-123317000D01*
X124835000Y-123298584D01*
X124835000Y-120347111D01*
X124951204Y-120298978D01*
X125121049Y-120185491D01*
X125265491Y-120041049D01*
X125378978Y-119871204D01*
X125457149Y-119682482D01*
X125497000Y-119482136D01*
X125497000Y-119277864D01*
X125457149Y-119077518D01*
X125378978Y-118888796D01*
X125265491Y-118718951D01*
X125121049Y-118574509D01*
X124951204Y-118461022D01*
X124762482Y-118382851D01*
X124562136Y-118343000D01*
X124357864Y-118343000D01*
X124157518Y-118382851D01*
X123968796Y-118461022D01*
X123798951Y-118574509D01*
X123654509Y-118718951D01*
X123541022Y-118888796D01*
X123462851Y-119077518D01*
X123423000Y-119277864D01*
X123423000Y-119482136D01*
X123462851Y-119682482D01*
X123541022Y-119871204D01*
X123654509Y-120041049D01*
X123798951Y-120185491D01*
X123968796Y-120298978D01*
X124085000Y-120347111D01*
X124085001Y-123161669D01*
X119771500Y-127475171D01*
X119771500Y-127364828D01*
X119758528Y-127299612D01*
X122172139Y-124886001D01*
X122186448Y-124874258D01*
X122233309Y-124817157D01*
X122268131Y-124752010D01*
X122289574Y-124681323D01*
X122295000Y-124626229D01*
X122295000Y-124626226D01*
X122296814Y-124607810D01*
X122295000Y-124589394D01*
X122295000Y-122234518D01*
X122515000Y-122234518D01*
X122515000Y-122367482D01*
X122540940Y-122497890D01*
X122591823Y-122620732D01*
X122665693Y-122731287D01*
X122759713Y-122825307D01*
X122870268Y-122899177D01*
X122993110Y-122950060D01*
X123123518Y-122976000D01*
X123256482Y-122976000D01*
X123386890Y-122950060D01*
X123509732Y-122899177D01*
X123620287Y-122825307D01*
X123714307Y-122731287D01*
X123788177Y-122620732D01*
X123839060Y-122497890D01*
X123865000Y-122367482D01*
X123865000Y-122234518D01*
X123839060Y-122104110D01*
X123788177Y-121981268D01*
X123714307Y-121870713D01*
X123620287Y-121776693D01*
X123509732Y-121702823D01*
X123386890Y-121651940D01*
X123256482Y-121626000D01*
X123123518Y-121626000D01*
X122993110Y-121651940D01*
X122870268Y-121702823D01*
X122759713Y-121776693D01*
X122665693Y-121870713D01*
X122591823Y-121981268D01*
X122540940Y-122104110D01*
X122515000Y-122234518D01*
X122295000Y-122234518D01*
X122295000Y-120347111D01*
X122411204Y-120298978D01*
X122581049Y-120185491D01*
X122725491Y-120041049D01*
X122838978Y-119871204D01*
X122917149Y-119682482D01*
X122957000Y-119482136D01*
X122957000Y-119277864D01*
X122917149Y-119077518D01*
X122838978Y-118888796D01*
X122725491Y-118718951D01*
X122581049Y-118574509D01*
X122411204Y-118461022D01*
X122222482Y-118382851D01*
X122022136Y-118343000D01*
X121817864Y-118343000D01*
X121617518Y-118382851D01*
X121428796Y-118461022D01*
X121258951Y-118574509D01*
X121114509Y-118718951D01*
X121001022Y-118888796D01*
X120922851Y-119077518D01*
X120883000Y-119277864D01*
X120883000Y-119482136D01*
X120922851Y-119682482D01*
X121001022Y-119871204D01*
X121114509Y-120041049D01*
X121258951Y-120185491D01*
X121428796Y-120298978D01*
X121545000Y-120347111D01*
X121545001Y-124452479D01*
X119228198Y-126769282D01*
X119162982Y-126756310D01*
X119030018Y-126756310D01*
X118899610Y-126782250D01*
X118776768Y-126833133D01*
X118666213Y-126907003D01*
X118572193Y-127001023D01*
X118498323Y-127111578D01*
X118447440Y-127234420D01*
X118421500Y-127364828D01*
X118421500Y-127497792D01*
X118447440Y-127628200D01*
X118498323Y-127751042D01*
X118501844Y-127756311D01*
X110887641Y-127756311D01*
X110263028Y-127131698D01*
X110276000Y-127066482D01*
X110276000Y-126933518D01*
X110250060Y-126803110D01*
X110199177Y-126680268D01*
X110125307Y-126569713D01*
X110031287Y-126475693D01*
X109920732Y-126401823D01*
X109797890Y-126350940D01*
X109667482Y-126325000D01*
X109534518Y-126325000D01*
X109404110Y-126350940D01*
X109281268Y-126401823D01*
X109170713Y-126475693D01*
X109076693Y-126569713D01*
X109002823Y-126680268D01*
X108951940Y-126803110D01*
X108926000Y-126933518D01*
X108926000Y-127066482D01*
X108951940Y-127196890D01*
X109002823Y-127319732D01*
X109076693Y-127430287D01*
X109170713Y-127524307D01*
X109281268Y-127598177D01*
X109404110Y-127649060D01*
X109534518Y-127675000D01*
X109667482Y-127675000D01*
X109732698Y-127662028D01*
X110454120Y-128383450D01*
X110465863Y-128397759D01*
X110480170Y-128409500D01*
X110522964Y-128444620D01*
X110564621Y-128466886D01*
X110588111Y-128479442D01*
X110658798Y-128500885D01*
X110713892Y-128506311D01*
X110713894Y-128506311D01*
X110732310Y-128508125D01*
X110750726Y-128506311D01*
X119627273Y-128506311D01*
X119645689Y-128508125D01*
X119664105Y-128506311D01*
X119664108Y-128506311D01*
X119719202Y-128500885D01*
X119789889Y-128479442D01*
X119855036Y-128444620D01*
X119912137Y-128397759D01*
X119923884Y-128383445D01*
X120102000Y-128205329D01*
X120102000Y-128336478D01*
X120127940Y-128466886D01*
X120178823Y-128589728D01*
X120252693Y-128700283D01*
X120346713Y-128794303D01*
X120457268Y-128868173D01*
X120580110Y-128919056D01*
X120710518Y-128944996D01*
X120843482Y-128944996D01*
X120973890Y-128919056D01*
X121096732Y-128868173D01*
X121207287Y-128794303D01*
X121301307Y-128700283D01*
X121375177Y-128589728D01*
X121426060Y-128466886D01*
X121452000Y-128336478D01*
X121452000Y-128203514D01*
X121439028Y-128138298D01*
X124342813Y-125234512D01*
X124324340Y-125279110D01*
X124298400Y-125409518D01*
X124298400Y-125542482D01*
X124324340Y-125672890D01*
X124375223Y-125795732D01*
X124449093Y-125906287D01*
X124543113Y-126000307D01*
X124653668Y-126074177D01*
X124776510Y-126125060D01*
X124906918Y-126151000D01*
X125039882Y-126151000D01*
X125170290Y-126125060D01*
X125293132Y-126074177D01*
X125403687Y-126000307D01*
X125497707Y-125906287D01*
X125571577Y-125795732D01*
X125622460Y-125672890D01*
X125648400Y-125542482D01*
X125648400Y-125409518D01*
X125622460Y-125279110D01*
X125571577Y-125156268D01*
X125497707Y-125045713D01*
X125403687Y-124951693D01*
X125293132Y-124877823D01*
X125170290Y-124826940D01*
X125039882Y-124801000D01*
X124906918Y-124801000D01*
X124776510Y-124826940D01*
X124731913Y-124845413D01*
X126082701Y-123494625D01*
X126082700Y-132048352D01*
X126027413Y-132085293D01*
X125933393Y-132179313D01*
X125859523Y-132289868D01*
X125808640Y-132412710D01*
X125782700Y-132543118D01*
X125782700Y-132676082D01*
X125808640Y-132806490D01*
X125859523Y-132929332D01*
X125899517Y-132989187D01*
X124738195Y-131827866D01*
X124726448Y-131813552D01*
X124669347Y-131766691D01*
X124604200Y-131731869D01*
X124533513Y-131710426D01*
X124478419Y-131705000D01*
X124478416Y-131705000D01*
X124460000Y-131703186D01*
X124441584Y-131705000D01*
X121425630Y-131705000D01*
X120083148Y-130362518D01*
X120991000Y-130362518D01*
X120991000Y-130495482D01*
X121016940Y-130625890D01*
X121067823Y-130748732D01*
X121141693Y-130859287D01*
X121235713Y-130953307D01*
X121346268Y-131027177D01*
X121469110Y-131078060D01*
X121599518Y-131104000D01*
X121732482Y-131104000D01*
X121862890Y-131078060D01*
X121985732Y-131027177D01*
X122096287Y-130953307D01*
X122190307Y-130859287D01*
X122264177Y-130748732D01*
X122315060Y-130625890D01*
X122341000Y-130495482D01*
X122341000Y-130489518D01*
X124216600Y-130489518D01*
X124216600Y-130622482D01*
X124242540Y-130752890D01*
X124293423Y-130875732D01*
X124367293Y-130986287D01*
X124461313Y-131080307D01*
X124571868Y-131154177D01*
X124694710Y-131205060D01*
X124825118Y-131231000D01*
X124958082Y-131231000D01*
X125088490Y-131205060D01*
X125211332Y-131154177D01*
X125321887Y-131080307D01*
X125415907Y-130986287D01*
X125489777Y-130875732D01*
X125540660Y-130752890D01*
X125566600Y-130622482D01*
X125566600Y-130489518D01*
X125540660Y-130359110D01*
X125489777Y-130236268D01*
X125415907Y-130125713D01*
X125321887Y-130031693D01*
X125211332Y-129957823D01*
X125088490Y-129906940D01*
X124958082Y-129881000D01*
X124825118Y-129881000D01*
X124694710Y-129906940D01*
X124571868Y-129957823D01*
X124461313Y-130031693D01*
X124367293Y-130125713D01*
X124293423Y-130236268D01*
X124242540Y-130359110D01*
X124216600Y-130489518D01*
X122341000Y-130489518D01*
X122341000Y-130362518D01*
X122315060Y-130232110D01*
X122264177Y-130109268D01*
X122190307Y-129998713D01*
X122096287Y-129904693D01*
X121985732Y-129830823D01*
X121862890Y-129779940D01*
X121732482Y-129754000D01*
X121599518Y-129754000D01*
X121469110Y-129779940D01*
X121346268Y-129830823D01*
X121235713Y-129904693D01*
X121141693Y-129998713D01*
X121067823Y-130109268D01*
X121016940Y-130232110D01*
X120991000Y-130362518D01*
X120083148Y-130362518D01*
X119821828Y-130101198D01*
X119834800Y-130035982D01*
X119834800Y-129903018D01*
X119808860Y-129772610D01*
X119757977Y-129649768D01*
X119684107Y-129539213D01*
X119590087Y-129445193D01*
X119479532Y-129371323D01*
X119356690Y-129320440D01*
X119226282Y-129294500D01*
X119093318Y-129294500D01*
X118962910Y-129320440D01*
X118840068Y-129371323D01*
X118729513Y-129445193D01*
X118635493Y-129539213D01*
X118561623Y-129649768D01*
X118510740Y-129772610D01*
X118484800Y-129903018D01*
X118484800Y-130035982D01*
X118510740Y-130166390D01*
X118561623Y-130289232D01*
X118635493Y-130399787D01*
X118729513Y-130493807D01*
X118840068Y-130567677D01*
X118962910Y-130618560D01*
X119093318Y-130644500D01*
X119226282Y-130644500D01*
X119291498Y-130631528D01*
X120992109Y-132332139D01*
X121003852Y-132346448D01*
X121018159Y-132358189D01*
X121060953Y-132393310D01*
X121105407Y-132417070D01*
X121126100Y-132428131D01*
X121196787Y-132449574D01*
X121251881Y-132455000D01*
X121251884Y-132455000D01*
X121270300Y-132456814D01*
X121288716Y-132455000D01*
X124304671Y-132455000D01*
X126050984Y-134201314D01*
X126002851Y-134317518D01*
X125963000Y-134517864D01*
X125963000Y-134722136D01*
X126002851Y-134922482D01*
X126081022Y-135111204D01*
X126194509Y-135281049D01*
X126301460Y-135388000D01*
X125158540Y-135388000D01*
X125265491Y-135281049D01*
X125378978Y-135111204D01*
X125457149Y-134922482D01*
X125497000Y-134722136D01*
X125497000Y-134517864D01*
X125457149Y-134317518D01*
X125378978Y-134128796D01*
X125265491Y-133958951D01*
X125121049Y-133814509D01*
X124951204Y-133701022D01*
X124762482Y-133622851D01*
X124562136Y-133583000D01*
X124357864Y-133583000D01*
X124157518Y-133622851D01*
X123968796Y-133701022D01*
X123798951Y-133814509D01*
X123654509Y-133958951D01*
X123541022Y-134128796D01*
X123462851Y-134317518D01*
X123423000Y-134517864D01*
X123423000Y-134722136D01*
X123462851Y-134922482D01*
X123541022Y-135111204D01*
X123654509Y-135281049D01*
X123761460Y-135388000D01*
X122618540Y-135388000D01*
X122725491Y-135281049D01*
X122838978Y-135111204D01*
X122917149Y-134922482D01*
X122957000Y-134722136D01*
X122957000Y-134517864D01*
X122917149Y-134317518D01*
X122838978Y-134128796D01*
X122725491Y-133958951D01*
X122581049Y-133814509D01*
X122411204Y-133701022D01*
X122222482Y-133622851D01*
X122022136Y-133583000D01*
X121817864Y-133583000D01*
X121617518Y-133622851D01*
X121501314Y-133670984D01*
X116991195Y-129160866D01*
X116979448Y-129146552D01*
X116922347Y-129099691D01*
X116857200Y-129064869D01*
X116786513Y-129043426D01*
X116731419Y-129038000D01*
X116731416Y-129038000D01*
X116713000Y-129036186D01*
X116694584Y-129038000D01*
X108867322Y-129038000D01*
X108231020Y-128401698D01*
X108243992Y-128336482D01*
X108243992Y-128203518D01*
X108218052Y-128073110D01*
X108167169Y-127950268D01*
X108093299Y-127839713D01*
X107999279Y-127745693D01*
X107888724Y-127671823D01*
X107765882Y-127620940D01*
X107635474Y-127595000D01*
X107502510Y-127595000D01*
X107372102Y-127620940D01*
X107249260Y-127671823D01*
X107138705Y-127745693D01*
X107044685Y-127839713D01*
X106970815Y-127950268D01*
X106919932Y-128073110D01*
X106893992Y-128203518D01*
X106893992Y-128336482D01*
X106919932Y-128466890D01*
X106970815Y-128589732D01*
X107044685Y-128700287D01*
X107138705Y-128794307D01*
X107249260Y-128868177D01*
X107372102Y-128919060D01*
X107502510Y-128945000D01*
X107635474Y-128945000D01*
X107700690Y-128932028D01*
X108433801Y-129665139D01*
X108445544Y-129679448D01*
X108502645Y-129726309D01*
X108567792Y-129761131D01*
X108638479Y-129782574D01*
X108693573Y-129788000D01*
X108693575Y-129788000D01*
X108711991Y-129789814D01*
X108730407Y-129788000D01*
X116557671Y-129788000D01*
X117586171Y-130816500D01*
X115081148Y-130816500D01*
X115044207Y-130761213D01*
X114950187Y-130667193D01*
X114839632Y-130593323D01*
X114716790Y-130542440D01*
X114586382Y-130516500D01*
X114453418Y-130516500D01*
X114323010Y-130542440D01*
X114200168Y-130593323D01*
X114089613Y-130667193D01*
X113995593Y-130761213D01*
X113921723Y-130871768D01*
X113870840Y-130994610D01*
X113844900Y-131125018D01*
X113844900Y-131257982D01*
X113870840Y-131388390D01*
X113921723Y-131511232D01*
X113995593Y-131621787D01*
X114089613Y-131715807D01*
X114200168Y-131789677D01*
X114323010Y-131840560D01*
X114453418Y-131866500D01*
X114586382Y-131866500D01*
X114716790Y-131840560D01*
X114839632Y-131789677D01*
X114950187Y-131715807D01*
X115044207Y-131621787D01*
X115081148Y-131566500D01*
X117574171Y-131566500D01*
X119617619Y-133609949D01*
X119482136Y-133583000D01*
X119277864Y-133583000D01*
X119077518Y-133622851D01*
X118888796Y-133701022D01*
X118718951Y-133814509D01*
X118574509Y-133958951D01*
X118461022Y-134128796D01*
X118412889Y-134245000D01*
X110899304Y-134245000D01*
X106326002Y-129671698D01*
X106338974Y-129606482D01*
X106338974Y-129473518D01*
X106313034Y-129343110D01*
X106262151Y-129220268D01*
X106188281Y-129109713D01*
X106094261Y-129015693D01*
X105983706Y-128941823D01*
X105860864Y-128890940D01*
X105730456Y-128865000D01*
X105597492Y-128865000D01*
X105467084Y-128890940D01*
X105344242Y-128941823D01*
X105233687Y-129015693D01*
X105139667Y-129109713D01*
X105065797Y-129220268D01*
X105014914Y-129343110D01*
X104988974Y-129473518D01*
X92400000Y-129473518D01*
X92400000Y-125028518D01*
X114133000Y-125028518D01*
X114133000Y-125161482D01*
X114158940Y-125291890D01*
X114209823Y-125414732D01*
X114283693Y-125525287D01*
X114377713Y-125619307D01*
X114488268Y-125693177D01*
X114611110Y-125744060D01*
X114741518Y-125770000D01*
X114874482Y-125770000D01*
X115004890Y-125744060D01*
X115127732Y-125693177D01*
X115238287Y-125619307D01*
X115332307Y-125525287D01*
X115406177Y-125414732D01*
X115457060Y-125291890D01*
X115483000Y-125161482D01*
X115483000Y-125028518D01*
X115457060Y-124898110D01*
X115406177Y-124775268D01*
X115332307Y-124664713D01*
X115238287Y-124570693D01*
X115187100Y-124536491D01*
X115187100Y-121599518D01*
X115228000Y-121599518D01*
X115228000Y-121732482D01*
X115253940Y-121862890D01*
X115304823Y-121985732D01*
X115378693Y-122096287D01*
X115472713Y-122190307D01*
X115583268Y-122264177D01*
X115706110Y-122315060D01*
X115836518Y-122341000D01*
X115969482Y-122341000D01*
X116099890Y-122315060D01*
X116222732Y-122264177D01*
X116333287Y-122190307D01*
X116427307Y-122096287D01*
X116501177Y-121985732D01*
X116552060Y-121862890D01*
X116578000Y-121732482D01*
X116578000Y-121599518D01*
X116552060Y-121469110D01*
X116501177Y-121346268D01*
X116427307Y-121235713D01*
X116333287Y-121141693D01*
X116222732Y-121067823D01*
X116099890Y-121016940D01*
X115969482Y-120991000D01*
X115836518Y-120991000D01*
X115706110Y-121016940D01*
X115583268Y-121067823D01*
X115472713Y-121141693D01*
X115378693Y-121235713D01*
X115304823Y-121346268D01*
X115253940Y-121469110D01*
X115228000Y-121599518D01*
X115187100Y-121599518D01*
X115187100Y-120293223D01*
X115438302Y-120042022D01*
X115503518Y-120054994D01*
X115636482Y-120054994D01*
X115766890Y-120029054D01*
X115889732Y-119978171D01*
X116000287Y-119904301D01*
X116094307Y-119810281D01*
X116168177Y-119699726D01*
X116219060Y-119576884D01*
X116245000Y-119446476D01*
X116245000Y-119313512D01*
X116219060Y-119183104D01*
X116168177Y-119060262D01*
X116094307Y-118949707D01*
X116000287Y-118855687D01*
X115889732Y-118781817D01*
X115766890Y-118730934D01*
X115636482Y-118704994D01*
X115503518Y-118704994D01*
X115373110Y-118730934D01*
X115250268Y-118781817D01*
X115139713Y-118855687D01*
X115045693Y-118949707D01*
X114971823Y-119060262D01*
X114920940Y-119183104D01*
X114895000Y-119313512D01*
X114895000Y-119446476D01*
X114907972Y-119511692D01*
X114559962Y-119859703D01*
X114545653Y-119871446D01*
X114498792Y-119928547D01*
X114463970Y-119993694D01*
X114453244Y-120029054D01*
X114442527Y-120064382D01*
X114435286Y-120137894D01*
X114437101Y-120156320D01*
X114437100Y-124531012D01*
X114377713Y-124570693D01*
X114283693Y-124664713D01*
X114209823Y-124775268D01*
X114158940Y-124898110D01*
X114133000Y-125028518D01*
X92400000Y-125028518D01*
X92400000Y-117925329D01*
X95280000Y-117925329D01*
X95280000Y-118294671D01*
X95352056Y-118656917D01*
X95493397Y-118998145D01*
X95698593Y-119305243D01*
X95959757Y-119566407D01*
X96266855Y-119771603D01*
X96608083Y-119912944D01*
X96970329Y-119985000D01*
X97339671Y-119985000D01*
X97701917Y-119912944D01*
X98043145Y-119771603D01*
X98350243Y-119566407D01*
X98611407Y-119305243D01*
X98816603Y-118998145D01*
X98957944Y-118656917D01*
X99030000Y-118294671D01*
X99030000Y-117925329D01*
X98957944Y-117563083D01*
X98816603Y-117221855D01*
X98611407Y-116914757D01*
X98350243Y-116653593D01*
X98043145Y-116448397D01*
X97701917Y-116307056D01*
X97339671Y-116235000D01*
X96970329Y-116235000D01*
X96608083Y-116307056D01*
X96266855Y-116448397D01*
X95959757Y-116653593D01*
X95698593Y-116914757D01*
X95493397Y-117221855D01*
X95352056Y-117563083D01*
X95280000Y-117925329D01*
X92400000Y-117925329D01*
X92400000Y-115503518D01*
X112354990Y-115503518D01*
X112354990Y-115636482D01*
X112380930Y-115766890D01*
X112431813Y-115889732D01*
X112505683Y-116000287D01*
X112599703Y-116094307D01*
X112710258Y-116168177D01*
X112833100Y-116219060D01*
X112963508Y-116245000D01*
X113096472Y-116245000D01*
X113226880Y-116219060D01*
X113349722Y-116168177D01*
X113460277Y-116094307D01*
X113554297Y-116000287D01*
X113591238Y-115945000D01*
X113994573Y-115945000D01*
X117292002Y-119242430D01*
X117292001Y-124353085D01*
X117290187Y-124371501D01*
X117292001Y-124389917D01*
X117292001Y-124389919D01*
X117297427Y-124445013D01*
X117318870Y-124515700D01*
X117353692Y-124580847D01*
X117400553Y-124637949D01*
X117414867Y-124649696D01*
X118240972Y-125475802D01*
X118228000Y-125541018D01*
X118228000Y-125673982D01*
X118253940Y-125804390D01*
X118304823Y-125927232D01*
X118378693Y-126037787D01*
X118472713Y-126131807D01*
X118583268Y-126205677D01*
X118706110Y-126256560D01*
X118836518Y-126282500D01*
X118969482Y-126282500D01*
X119099890Y-126256560D01*
X119222732Y-126205677D01*
X119333287Y-126131807D01*
X119427307Y-126037787D01*
X119501177Y-125927232D01*
X119552060Y-125804390D01*
X119578000Y-125673982D01*
X119578000Y-125541018D01*
X119552060Y-125410610D01*
X119501177Y-125287768D01*
X119427307Y-125177213D01*
X119333287Y-125083193D01*
X119222732Y-125009323D01*
X119099890Y-124958440D01*
X118969482Y-124932500D01*
X118836518Y-124932500D01*
X118771302Y-124945472D01*
X118042001Y-124216172D01*
X118042001Y-119277864D01*
X118343000Y-119277864D01*
X118343000Y-119482136D01*
X118382851Y-119682482D01*
X118461022Y-119871204D01*
X118574509Y-120041049D01*
X118718951Y-120185491D01*
X118888796Y-120298978D01*
X119077518Y-120377149D01*
X119277864Y-120417000D01*
X119482136Y-120417000D01*
X119682482Y-120377149D01*
X119871204Y-120298978D01*
X120041049Y-120185491D01*
X120185491Y-120041049D01*
X120298978Y-119871204D01*
X120377149Y-119682482D01*
X120417000Y-119482136D01*
X120417000Y-119277864D01*
X120377149Y-119077518D01*
X120298978Y-118888796D01*
X120185491Y-118718951D01*
X120041049Y-118574509D01*
X119871204Y-118461022D01*
X119682482Y-118382851D01*
X119482136Y-118343000D01*
X119277864Y-118343000D01*
X119077518Y-118382851D01*
X118888796Y-118461022D01*
X118718951Y-118574509D01*
X118574509Y-118718951D01*
X118461022Y-118888796D01*
X118382851Y-119077518D01*
X118343000Y-119277864D01*
X118042001Y-119277864D01*
X118042001Y-119105514D01*
X118043815Y-119087098D01*
X118041805Y-119066691D01*
X118036575Y-119013586D01*
X118015132Y-118942899D01*
X117980310Y-118877752D01*
X117933449Y-118820651D01*
X117919140Y-118808908D01*
X114428097Y-115317866D01*
X114416350Y-115303552D01*
X114359249Y-115256691D01*
X114294102Y-115221869D01*
X114223415Y-115200426D01*
X114168321Y-115195000D01*
X114168318Y-115195000D01*
X114149902Y-115193186D01*
X114131486Y-115195000D01*
X113591238Y-115195000D01*
X113554297Y-115139713D01*
X113460277Y-115045693D01*
X113349722Y-114971823D01*
X113226880Y-114920940D01*
X113096472Y-114895000D01*
X112963508Y-114895000D01*
X112833100Y-114920940D01*
X112710258Y-114971823D01*
X112599703Y-115045693D01*
X112505683Y-115139713D01*
X112431813Y-115250268D01*
X112380930Y-115373110D01*
X112354990Y-115503518D01*
X92400000Y-115503518D01*
X92400000Y-114233518D01*
X106125000Y-114233518D01*
X106125000Y-114366482D01*
X106150940Y-114496890D01*
X106201823Y-114619732D01*
X106275693Y-114730287D01*
X106369713Y-114824307D01*
X106480268Y-114898177D01*
X106603110Y-114949060D01*
X106733518Y-114975000D01*
X106866482Y-114975000D01*
X106996890Y-114949060D01*
X107119732Y-114898177D01*
X107230287Y-114824307D01*
X107324307Y-114730287D01*
X107398177Y-114619732D01*
X107449060Y-114496890D01*
X107475000Y-114366482D01*
X107475000Y-114233518D01*
X108425000Y-114233518D01*
X108425000Y-114366482D01*
X108450940Y-114496890D01*
X108501823Y-114619732D01*
X108575693Y-114730287D01*
X108669713Y-114824307D01*
X108780268Y-114898177D01*
X108903110Y-114949060D01*
X109033518Y-114975000D01*
X109166482Y-114975000D01*
X109296890Y-114949060D01*
X109419732Y-114898177D01*
X109530287Y-114824307D01*
X109624307Y-114730287D01*
X109698177Y-114619732D01*
X109749060Y-114496890D01*
X109775000Y-114366482D01*
X109775000Y-114233518D01*
X126445000Y-114233518D01*
X126445000Y-114366482D01*
X126470940Y-114496890D01*
X126521823Y-114619732D01*
X126595693Y-114730287D01*
X126689713Y-114824307D01*
X126800268Y-114898177D01*
X126923110Y-114949060D01*
X127053518Y-114975000D01*
X127186482Y-114975000D01*
X127316890Y-114949060D01*
X127439732Y-114898177D01*
X127550287Y-114824307D01*
X127644307Y-114730287D01*
X127718177Y-114619732D01*
X127769060Y-114496890D01*
X127795000Y-114366482D01*
X127795000Y-114233518D01*
X128745000Y-114233518D01*
X128745000Y-114366482D01*
X128770940Y-114496890D01*
X128821823Y-114619732D01*
X128895693Y-114730287D01*
X128989713Y-114824307D01*
X129100268Y-114898177D01*
X129223110Y-114949060D01*
X129353518Y-114975000D01*
X129486482Y-114975000D01*
X129616890Y-114949060D01*
X129739732Y-114898177D01*
X129850287Y-114824307D01*
X129944307Y-114730287D01*
X130018177Y-114619732D01*
X130069060Y-114496890D01*
X130095000Y-114366482D01*
X130095000Y-114233518D01*
X146765000Y-114233518D01*
X146765000Y-114366482D01*
X146790940Y-114496890D01*
X146841823Y-114619732D01*
X146915693Y-114730287D01*
X147009713Y-114824307D01*
X147120268Y-114898177D01*
X147243110Y-114949060D01*
X147373518Y-114975000D01*
X147506482Y-114975000D01*
X147636890Y-114949060D01*
X147759732Y-114898177D01*
X147870287Y-114824307D01*
X147964307Y-114730287D01*
X148038177Y-114619732D01*
X148089060Y-114496890D01*
X148115000Y-114366482D01*
X148115000Y-114233518D01*
X149065000Y-114233518D01*
X149065000Y-114366482D01*
X149090940Y-114496890D01*
X149141823Y-114619732D01*
X149215693Y-114730287D01*
X149309713Y-114824307D01*
X149420268Y-114898177D01*
X149543110Y-114949060D01*
X149673518Y-114975000D01*
X149806482Y-114975000D01*
X149936890Y-114949060D01*
X150059732Y-114898177D01*
X150170287Y-114824307D01*
X150264307Y-114730287D01*
X150338177Y-114619732D01*
X150389060Y-114496890D01*
X150390924Y-114487518D01*
X158265500Y-114487518D01*
X158265500Y-114620482D01*
X158291440Y-114750890D01*
X158342323Y-114873732D01*
X158416193Y-114984287D01*
X158510213Y-115078307D01*
X158620768Y-115152177D01*
X158743610Y-115203060D01*
X158874018Y-115229000D01*
X159006982Y-115229000D01*
X159137390Y-115203060D01*
X159260232Y-115152177D01*
X159370787Y-115078307D01*
X159464807Y-114984287D01*
X159538677Y-114873732D01*
X159589560Y-114750890D01*
X159615500Y-114620482D01*
X159615500Y-114487518D01*
X159589560Y-114357110D01*
X159538677Y-114234268D01*
X159464807Y-114123713D01*
X159370787Y-114029693D01*
X159260232Y-113955823D01*
X159137390Y-113904940D01*
X159006982Y-113879000D01*
X158874018Y-113879000D01*
X158743610Y-113904940D01*
X158620768Y-113955823D01*
X158510213Y-114029693D01*
X158416193Y-114123713D01*
X158342323Y-114234268D01*
X158291440Y-114357110D01*
X158265500Y-114487518D01*
X150390924Y-114487518D01*
X150415000Y-114366482D01*
X150415000Y-114233518D01*
X150389060Y-114103110D01*
X150338177Y-113980268D01*
X150264307Y-113869713D01*
X150170287Y-113775693D01*
X150059732Y-113701823D01*
X149936890Y-113650940D01*
X149806482Y-113625000D01*
X149673518Y-113625000D01*
X149543110Y-113650940D01*
X149420268Y-113701823D01*
X149309713Y-113775693D01*
X149215693Y-113869713D01*
X149141823Y-113980268D01*
X149090940Y-114103110D01*
X149065000Y-114233518D01*
X148115000Y-114233518D01*
X148089060Y-114103110D01*
X148038177Y-113980268D01*
X147964307Y-113869713D01*
X147870287Y-113775693D01*
X147759732Y-113701823D01*
X147636890Y-113650940D01*
X147506482Y-113625000D01*
X147373518Y-113625000D01*
X147243110Y-113650940D01*
X147120268Y-113701823D01*
X147009713Y-113775693D01*
X146915693Y-113869713D01*
X146841823Y-113980268D01*
X146790940Y-114103110D01*
X146765000Y-114233518D01*
X130095000Y-114233518D01*
X130069060Y-114103110D01*
X130018177Y-113980268D01*
X129944307Y-113869713D01*
X129850287Y-113775693D01*
X129739732Y-113701823D01*
X129616890Y-113650940D01*
X129486482Y-113625000D01*
X129353518Y-113625000D01*
X129223110Y-113650940D01*
X129100268Y-113701823D01*
X128989713Y-113775693D01*
X128895693Y-113869713D01*
X128821823Y-113980268D01*
X128770940Y-114103110D01*
X128745000Y-114233518D01*
X127795000Y-114233518D01*
X127769060Y-114103110D01*
X127718177Y-113980268D01*
X127644307Y-113869713D01*
X127550287Y-113775693D01*
X127439732Y-113701823D01*
X127316890Y-113650940D01*
X127186482Y-113625000D01*
X127053518Y-113625000D01*
X126923110Y-113650940D01*
X126800268Y-113701823D01*
X126689713Y-113775693D01*
X126595693Y-113869713D01*
X126521823Y-113980268D01*
X126470940Y-114103110D01*
X126445000Y-114233518D01*
X109775000Y-114233518D01*
X109749060Y-114103110D01*
X109698177Y-113980268D01*
X109624307Y-113869713D01*
X109530287Y-113775693D01*
X109419732Y-113701823D01*
X109296890Y-113650940D01*
X109166482Y-113625000D01*
X109033518Y-113625000D01*
X108903110Y-113650940D01*
X108780268Y-113701823D01*
X108669713Y-113775693D01*
X108575693Y-113869713D01*
X108501823Y-113980268D01*
X108450940Y-114103110D01*
X108425000Y-114233518D01*
X107475000Y-114233518D01*
X107449060Y-114103110D01*
X107398177Y-113980268D01*
X107324307Y-113869713D01*
X107230287Y-113775693D01*
X107119732Y-113701823D01*
X106996890Y-113650940D01*
X106866482Y-113625000D01*
X106733518Y-113625000D01*
X106603110Y-113650940D01*
X106480268Y-113701823D01*
X106369713Y-113775693D01*
X106275693Y-113869713D01*
X106201823Y-113980268D01*
X106150940Y-114103110D01*
X106125000Y-114233518D01*
X92400000Y-114233518D01*
X92400000Y-113355000D01*
X160233026Y-113355000D01*
X160272223Y-113727931D01*
G37*
%TD.AperFunction*%
%TD*%
M02*
