%TF.GenerationSoftware,KiCad,Pcbnew,(5.1.6-0-10_14)*%
%TF.CreationDate,2021-03-31T22:59:44+02:00*%
%TF.ProjectId,wificlock,77696669-636c-46f6-936b-2e6b69636164,rev?*%
%TF.SameCoordinates,Original*%
%TF.FileFunction,Soldermask,Bot*%
%TF.FilePolarity,Negative*%
%FSLAX46Y46*%
G04 Gerber Fmt 4.6, Leading zero omitted, Abs format (unit mm)*
G04 Created by KiCad (PCBNEW (5.1.6-0-10_14)) date 2021-03-31 22:59:44*
%MOMM*%
%LPD*%
G01*
G04 APERTURE LIST*
%TA.AperFunction,Profile*%
%ADD10C,0.100000*%
%TD*%
%ADD11C,0.700000*%
%ADD12C,3.200000*%
%ADD13R,1.524000X1.524000*%
%ADD14C,1.524000*%
%ADD15C,0.800000*%
G04 APERTURE END LIST*
D10*
X160655000Y-143510000D02*
G75*
G02*
X163830000Y-140335000I3175000J0D01*
G01*
X163830000Y-116332000D02*
G75*
G02*
X160528000Y-113030000I0J3302000D01*
G01*
X92075000Y-113030000D02*
X160528000Y-113030000D01*
X92075000Y-143510000D02*
X92075000Y-113030000D01*
X160655000Y-143510000D02*
X92075000Y-143510000D01*
X163830000Y-116332000D02*
X163830000Y-140335000D01*
D11*
%TO.C,J1*%
X127450000Y-139000000D03*
X126550000Y-140400000D03*
G36*
G01*
X123925000Y-141630000D02*
X123925000Y-141630000D01*
G75*
G02*
X124375000Y-141180000I450000J0D01*
G01*
X125625000Y-141180000D01*
G75*
G02*
X126075000Y-141630000I0J-450000D01*
G01*
X126075000Y-141630000D01*
G75*
G02*
X125625000Y-142080000I-450000J0D01*
G01*
X124375000Y-142080000D01*
G75*
G02*
X123925000Y-141630000I0J450000D01*
G01*
G37*
G36*
G01*
X127925000Y-141630000D02*
X127925000Y-141630000D01*
G75*
G02*
X128375000Y-141180000I450000J0D01*
G01*
X129625000Y-141180000D01*
G75*
G02*
X130075000Y-141630000I0J-450000D01*
G01*
X130075000Y-141630000D01*
G75*
G02*
X129625000Y-142080000I-450000J0D01*
G01*
X128375000Y-142080000D01*
G75*
G02*
X127925000Y-141630000I0J450000D01*
G01*
G37*
G36*
G01*
X127925000Y-137770000D02*
X127925000Y-137770000D01*
G75*
G02*
X128375000Y-137320000I450000J0D01*
G01*
X129625000Y-137320000D01*
G75*
G02*
X130075000Y-137770000I0J-450000D01*
G01*
X130075000Y-137770000D01*
G75*
G02*
X129625000Y-138220000I-450000J0D01*
G01*
X128375000Y-138220000D01*
G75*
G02*
X127925000Y-137770000I0J450000D01*
G01*
G37*
G36*
G01*
X123925000Y-137770000D02*
X123925000Y-137770000D01*
G75*
G02*
X124375000Y-137320000I450000J0D01*
G01*
X125625000Y-137320000D01*
G75*
G02*
X126075000Y-137770000I0J-450000D01*
G01*
X126075000Y-137770000D01*
G75*
G02*
X125625000Y-138220000I-450000J0D01*
G01*
X124375000Y-138220000D01*
G75*
G02*
X123925000Y-137770000I0J450000D01*
G01*
G37*
X130250000Y-139000000D03*
X129300000Y-139000000D03*
X130250000Y-140400000D03*
X129300000Y-140400000D03*
X128350000Y-140400000D03*
X127450000Y-140400000D03*
X124700000Y-140400000D03*
X123750000Y-140400000D03*
X126550000Y-139000000D03*
X125650000Y-139000000D03*
X124700000Y-139000000D03*
X123750000Y-139000000D03*
%TD*%
D12*
%TO.C,H2*%
X97155000Y-118110000D03*
%TD*%
%TO.C,H1*%
X97155000Y-138430000D03*
%TD*%
D13*
%TO.C,U5*%
X134620000Y-134620000D03*
D14*
X132080000Y-134620000D03*
X129540000Y-134620000D03*
X127000000Y-134620000D03*
X124460000Y-134620000D03*
X121920000Y-134620000D03*
X119380000Y-134620000D03*
X119380000Y-119380000D03*
X121920000Y-119380000D03*
X124460000Y-119380000D03*
X127000000Y-119380000D03*
X129540000Y-119380000D03*
X132080000Y-119380000D03*
X134620000Y-119380000D03*
%TD*%
D15*
%TO.C,SW3*%
X146170000Y-114300000D03*
X148470000Y-114300000D03*
%TD*%
%TO.C,SW2*%
X125850000Y-114300000D03*
X128150000Y-114300000D03*
%TD*%
%TO.C,SW1*%
X105530000Y-114300000D03*
X107830000Y-114300000D03*
%TD*%
M02*
