%TF.GenerationSoftware,KiCad,Pcbnew,(5.1.6-0-10_14)*%
%TF.CreationDate,2021-03-31T22:59:44+02:00*%
%TF.ProjectId,wificlock,77696669-636c-46f6-936b-2e6b69636164,rev?*%
%TF.SameCoordinates,Original*%
%TF.FileFunction,Copper,L4,Bot*%
%TF.FilePolarity,Positive*%
%FSLAX46Y46*%
G04 Gerber Fmt 4.6, Leading zero omitted, Abs format (unit mm)*
G04 Created by KiCad (PCBNEW (5.1.6-0-10_14)) date 2021-03-31 22:59:44*
%MOMM*%
%LPD*%
G01*
G04 APERTURE LIST*
%TA.AperFunction,Profile*%
%ADD10C,0.100000*%
%TD*%
%TA.AperFunction,ComponentPad*%
%ADD11C,0.700000*%
%TD*%
%TA.AperFunction,ComponentPad*%
%ADD12R,1.524000X1.524000*%
%TD*%
%TA.AperFunction,ComponentPad*%
%ADD13C,1.524000*%
%TD*%
%TA.AperFunction,ViaPad*%
%ADD14C,0.800000*%
%TD*%
%TA.AperFunction,Conductor*%
%ADD15C,0.200000*%
%TD*%
%TA.AperFunction,Conductor*%
%ADD16C,0.150000*%
%TD*%
G04 APERTURE END LIST*
D10*
X160655000Y-143510000D02*
G75*
G02*
X163830000Y-140335000I3175000J0D01*
G01*
X163830000Y-116332000D02*
G75*
G02*
X160528000Y-113030000I0J3302000D01*
G01*
X92075000Y-113030000D02*
X160528000Y-113030000D01*
X92075000Y-143510000D02*
X92075000Y-113030000D01*
X160655000Y-143510000D02*
X92075000Y-143510000D01*
X163830000Y-116332000D02*
X163830000Y-140335000D01*
D11*
%TO.P,J1,A7*%
%TO.N,D-*%
X127450000Y-139000000D03*
%TO.P,J1,B7*%
X126550000Y-140400000D03*
%TO.P,J1,S1*%
%TO.N,N/C*%
%TA.AperFunction,ComponentPad*%
G36*
G01*
X123925000Y-141630000D02*
X123925000Y-141630000D01*
G75*
G02*
X124375000Y-141180000I450000J0D01*
G01*
X125625000Y-141180000D01*
G75*
G02*
X126075000Y-141630000I0J-450000D01*
G01*
X126075000Y-141630000D01*
G75*
G02*
X125625000Y-142080000I-450000J0D01*
G01*
X124375000Y-142080000D01*
G75*
G02*
X123925000Y-141630000I0J450000D01*
G01*
G37*
%TD.AperFunction*%
%TA.AperFunction,ComponentPad*%
G36*
G01*
X127925000Y-141630000D02*
X127925000Y-141630000D01*
G75*
G02*
X128375000Y-141180000I450000J0D01*
G01*
X129625000Y-141180000D01*
G75*
G02*
X130075000Y-141630000I0J-450000D01*
G01*
X130075000Y-141630000D01*
G75*
G02*
X129625000Y-142080000I-450000J0D01*
G01*
X128375000Y-142080000D01*
G75*
G02*
X127925000Y-141630000I0J450000D01*
G01*
G37*
%TD.AperFunction*%
%TA.AperFunction,ComponentPad*%
G36*
G01*
X127925000Y-137770000D02*
X127925000Y-137770000D01*
G75*
G02*
X128375000Y-137320000I450000J0D01*
G01*
X129625000Y-137320000D01*
G75*
G02*
X130075000Y-137770000I0J-450000D01*
G01*
X130075000Y-137770000D01*
G75*
G02*
X129625000Y-138220000I-450000J0D01*
G01*
X128375000Y-138220000D01*
G75*
G02*
X127925000Y-137770000I0J450000D01*
G01*
G37*
%TD.AperFunction*%
%TA.AperFunction,ComponentPad*%
G36*
G01*
X123925000Y-137770000D02*
X123925000Y-137770000D01*
G75*
G02*
X124375000Y-137320000I450000J0D01*
G01*
X125625000Y-137320000D01*
G75*
G02*
X126075000Y-137770000I0J-450000D01*
G01*
X126075000Y-137770000D01*
G75*
G02*
X125625000Y-138220000I-450000J0D01*
G01*
X124375000Y-138220000D01*
G75*
G02*
X123925000Y-137770000I0J450000D01*
G01*
G37*
%TD.AperFunction*%
%TO.P,J1,A12*%
%TO.N,GND*%
X130250000Y-139000000D03*
%TO.P,J1,A9*%
%TO.N,+5V*%
X129300000Y-139000000D03*
%TO.P,J1,B1*%
%TO.N,GND*%
X130250000Y-140400000D03*
%TO.P,J1,B4*%
%TO.N,+5V*%
X129300000Y-140400000D03*
%TO.P,J1,B5*%
%TO.N,Net-(J1-PadB5)*%
X128350000Y-140400000D03*
%TO.P,J1,B6*%
%TO.N,D+*%
X127450000Y-140400000D03*
%TO.P,J1,B9*%
%TO.N,+5V*%
X124700000Y-140400000D03*
%TO.P,J1,B12*%
%TO.N,GND*%
X123750000Y-140400000D03*
%TO.P,J1,A6*%
%TO.N,D+*%
X126550000Y-139000000D03*
%TO.P,J1,A5*%
%TO.N,Net-(J1-PadA5)*%
X125650000Y-139000000D03*
%TO.P,J1,A4*%
%TO.N,+5V*%
X124700000Y-139000000D03*
%TO.P,J1,A1*%
%TO.N,GND*%
X123750000Y-139000000D03*
%TD*%
D12*
%TO.P,U5,1*%
%TO.N,ROW4*%
X134620000Y-134620000D03*
D13*
%TO.P,U5,2*%
%TO.N,ROW3*%
X132080000Y-134620000D03*
%TO.P,U5,3*%
%TO.N,ROW7*%
X129540000Y-134620000D03*
%TO.P,U5,4*%
%TO.N,K3*%
X127000000Y-134620000D03*
%TO.P,U5,5*%
%TO.N,ROW6*%
X124460000Y-134620000D03*
%TO.P,U5,6*%
%TO.N,COM3*%
X121920000Y-134620000D03*
%TO.P,U5,7*%
%TO.N,COM4*%
X119380000Y-134620000D03*
%TO.P,U5,8*%
%TO.N,K1*%
X119380000Y-119380000D03*
%TO.P,U5,9*%
%TO.N,K2*%
X121920000Y-119380000D03*
%TO.P,U5,10*%
%TO.N,COM2*%
X124460000Y-119380000D03*
%TO.P,U5,11*%
%TO.N,COM1*%
X127000000Y-119380000D03*
%TO.P,U5,12*%
%TO.N,ROW5*%
X129540000Y-119380000D03*
%TO.P,U5,13*%
%TO.N,K1*%
X132080000Y-119380000D03*
%TO.P,U5,14*%
%TO.N,COM0*%
X134620000Y-119380000D03*
%TD*%
D14*
%TO.N,+3V3*%
X136733500Y-126670300D03*
X129276600Y-123440900D03*
X129229600Y-128264300D03*
X158421700Y-114723700D03*
X149184600Y-142031900D03*
X124973400Y-125261600D03*
X124891600Y-130796400D03*
X144526000Y-137668000D03*
X133302000Y-117142000D03*
X141908000Y-119301000D03*
%TO.N,GND*%
X135890000Y-141732000D03*
X105156000Y-123190000D03*
X138938000Y-120650000D03*
X148590000Y-132588000D03*
X143510000Y-141732000D03*
X145542000Y-120142000D03*
X139700000Y-114046000D03*
X137160000Y-114046000D03*
X134620000Y-114046000D03*
X137414000Y-139700000D03*
X163068000Y-132588000D03*
X163068000Y-131572000D03*
X163068000Y-130556000D03*
X163068000Y-129540000D03*
X163068000Y-128524000D03*
X163068000Y-127508000D03*
X163068000Y-126492000D03*
X163068000Y-125476000D03*
X163068000Y-124460000D03*
X163068000Y-123444000D03*
X163068000Y-122428000D03*
X163068000Y-121412000D03*
X136779000Y-122682000D03*
X130556000Y-127254000D03*
X124333000Y-127127000D03*
X93124999Y-114174999D03*
X93124999Y-118574999D03*
X93124999Y-122974999D03*
X93124999Y-127374999D03*
X93124999Y-131774999D03*
X93124999Y-136174999D03*
X93124999Y-140574999D03*
X95324999Y-120774999D03*
X95324999Y-125174999D03*
X95324999Y-129574999D03*
X95324999Y-133974999D03*
X96424999Y-115274999D03*
X96424999Y-141674999D03*
X97524999Y-131774999D03*
X98624999Y-135074999D03*
X99724999Y-114174999D03*
X99724999Y-118574999D03*
X99724999Y-124074999D03*
X99724999Y-138374999D03*
X100824999Y-127374999D03*
X100824999Y-132874999D03*
X100824999Y-141674999D03*
X101924999Y-116374999D03*
X101924999Y-136174999D03*
X103024999Y-139474999D03*
X104124999Y-114174999D03*
X105224999Y-118574999D03*
X105224999Y-132874999D03*
X105224999Y-137274999D03*
X105224999Y-141674999D03*
X107424999Y-121874999D03*
X107424999Y-139474999D03*
X108524999Y-117474999D03*
X108524999Y-125174999D03*
X108524999Y-130674999D03*
X108524999Y-136174999D03*
X109624999Y-141674999D03*
X110724999Y-122974999D03*
X110724999Y-132874999D03*
X110724999Y-138374999D03*
X111824999Y-118574999D03*
X112924999Y-114174999D03*
X112924999Y-140574999D03*
X114024999Y-121874999D03*
X114024999Y-137274999D03*
X116224999Y-115274999D03*
X116224999Y-139474999D03*
X118424999Y-117474999D03*
X118424999Y-137274999D03*
X118424999Y-141674999D03*
X119524999Y-114174999D03*
X120624999Y-121874999D03*
X122824999Y-115274999D03*
X122824999Y-137274999D03*
X128324999Y-132874999D03*
X129424999Y-114174999D03*
X132724999Y-115274999D03*
X132724999Y-122974999D03*
X137124999Y-118574999D03*
X137124999Y-137274999D03*
X141524999Y-114174999D03*
X141524999Y-137274999D03*
X145924999Y-118574999D03*
X147024999Y-136174999D03*
X148124999Y-116374999D03*
X149224999Y-122974999D03*
X150324999Y-126274999D03*
X151424999Y-115274999D03*
X152524999Y-121874999D03*
X152524999Y-128474999D03*
X153624999Y-125174999D03*
X155824999Y-122974999D03*
X155824999Y-129574999D03*
X156924999Y-137274999D03*
X158024999Y-127374999D03*
X158024999Y-140574999D03*
X159124999Y-121874999D03*
X159124999Y-130674999D03*
X160224999Y-125174999D03*
X161324999Y-128474999D03*
X161324999Y-139474999D03*
%TO.N,+5V*%
X122987500Y-122045900D03*
X134874000Y-137668000D03*
X115903000Y-121666000D03*
X121666000Y-130048002D03*
%TO.N,~RTS*%
X141279600Y-125761000D03*
X141641900Y-132330400D03*
%TO.N,~DTR*%
X140892500Y-134795000D03*
X141162010Y-129461600D03*
%TO.N,GPIO0*%
X150049000Y-137862900D03*
X143259000Y-135005000D03*
%TO.N,SDA33*%
X155536300Y-132617700D03*
X145135300Y-125500000D03*
%TO.N,SCL33*%
X153689500Y-131502700D03*
X133903300Y-126827698D03*
%TO.N,Net-(R2-Pad2)*%
X140908200Y-123776100D03*
X153434600Y-137417400D03*
%TO.N,Net-(R4-Pad1)*%
X145025100Y-133861500D03*
X155111700Y-141521600D03*
%TO.N,Net-(R10-Pad2)*%
X110571500Y-115396600D03*
X118903000Y-125607500D03*
%TO.N,K1*%
X116854400Y-119423100D03*
X114812100Y-125095000D03*
%TO.N,Net-(R15-Pad2)*%
X126989400Y-115206200D03*
X121054100Y-127648900D03*
%TO.N,K2*%
X119096500Y-127289800D03*
%TO.N,K3*%
X119159800Y-129969500D03*
%TO.N,ROW3*%
X114519900Y-131191500D03*
%TO.N,ROW5*%
X126457700Y-132609600D03*
%TO.N,COM4*%
X106145300Y-130757600D03*
%TO.N,COM3*%
X105851600Y-129010200D03*
%TO.N,COM2*%
X106145300Y-126365000D03*
%TD*%
D15*
%TO.N,D+*%
X126550000Y-139000000D02*
X126550000Y-139250000D01*
X126550000Y-139250000D02*
X127450000Y-140150000D01*
X127450000Y-140150000D02*
X127450000Y-140400000D01*
%TO.N,~RTS*%
X142367000Y-126848400D02*
X141279600Y-125761000D01*
X142367000Y-131605300D02*
X142367000Y-126848400D01*
X141641900Y-132330400D02*
X142367000Y-131605300D01*
%TO.N,~DTR*%
X140335000Y-130288610D02*
X141162010Y-129461600D01*
X140335000Y-134237500D02*
X140335000Y-130288610D01*
X140892500Y-134795000D02*
X140335000Y-134237500D01*
%TO.N,GPIO0*%
X143259000Y-135005000D02*
X146116900Y-137862900D01*
X146116900Y-137862900D02*
X150049000Y-137862900D01*
%TO.N,SDA33*%
X145135300Y-125500000D02*
X152253000Y-132617700D01*
X152253000Y-132617700D02*
X155536300Y-132617700D01*
%TO.N,SCL33*%
X153689500Y-131502700D02*
X145219600Y-123032800D01*
X137698198Y-123032800D02*
X133903300Y-126827698D01*
X145219600Y-123032800D02*
X137698198Y-123032800D01*
%TO.N,Net-(R2-Pad2)*%
X153434600Y-137417400D02*
X153434600Y-136302500D01*
X153434600Y-136302500D02*
X140908200Y-123776100D01*
%TO.N,Net-(R4-Pad1)*%
X150876000Y-138303000D02*
X150876000Y-137287000D01*
X150876000Y-137287000D02*
X147450500Y-133861500D01*
X154094600Y-141521600D02*
X150876000Y-138303000D01*
X147450500Y-133861500D02*
X145025100Y-133861500D01*
X155111700Y-141521600D02*
X154094600Y-141521600D01*
%TO.N,Net-(R10-Pad2)*%
X113877100Y-115396600D02*
X110571500Y-115396600D01*
X119634000Y-121153500D02*
X113877100Y-115396600D01*
X119634000Y-124876500D02*
X119634000Y-121153500D01*
X118903000Y-125607500D02*
X119634000Y-124876500D01*
%TO.N,K1*%
X114812100Y-125095000D02*
X116854400Y-123052700D01*
X116854400Y-123052700D02*
X116854400Y-119423100D01*
%TO.N,Net-(R15-Pad2)*%
X125730000Y-116465600D02*
X126989400Y-115206200D01*
X124968000Y-120650000D02*
X125730000Y-119888000D01*
X124968000Y-123063000D02*
X124968000Y-120650000D01*
X125730000Y-119888000D02*
X125730000Y-116465600D01*
X121054100Y-126976900D02*
X124968000Y-123063000D01*
X121054100Y-127648900D02*
X121054100Y-126976900D01*
%TO.N,K2*%
X121920000Y-124841000D02*
X121920000Y-119380000D01*
X119471200Y-127289800D02*
X121920000Y-124841000D01*
X119096500Y-127289800D02*
X119471200Y-127289800D01*
%TO.N,K3*%
X119159800Y-129969500D02*
X120687100Y-131496800D01*
X120687100Y-131496800D02*
X123876800Y-131496800D01*
X123876800Y-131496800D02*
X127000000Y-134620000D01*
%TO.N,ROW3*%
X117455400Y-131191500D02*
X114519900Y-131191500D01*
X120650000Y-134887100D02*
X120650000Y-134386100D01*
X121525900Y-135763000D02*
X120650000Y-134887100D01*
X132080000Y-134620000D02*
X130937000Y-135763000D01*
X120650000Y-134386100D02*
X117455400Y-131191500D01*
X130937000Y-135763000D02*
X121525900Y-135763000D01*
%TO.N,ROW5*%
X126457700Y-132609600D02*
X126457700Y-122462300D01*
X126457700Y-122462300D02*
X129540000Y-119380000D01*
%TO.N,COM4*%
X106145300Y-130757600D02*
X110007700Y-134620000D01*
X110007700Y-134620000D02*
X119380000Y-134620000D01*
%TO.N,COM3*%
X105851600Y-129010200D02*
X116310200Y-129010200D01*
X116310200Y-129010200D02*
X121920000Y-134620000D01*
%TO.N,COM2*%
X124460000Y-122916700D02*
X124460000Y-119380000D01*
X107188000Y-126365000D02*
X108824800Y-128001800D01*
X119374900Y-128001800D02*
X124460000Y-122916700D01*
X108824800Y-128001800D02*
X119374900Y-128001800D01*
X106145300Y-126365000D02*
X107188000Y-126365000D01*
%TD*%
D16*
%TO.N,GND*%
G36*
X160272223Y-113727931D02*
G01*
X160278150Y-113756805D01*
X160283666Y-113785719D01*
X160284977Y-113790064D01*
X160475542Y-114405681D01*
X160486966Y-114432856D01*
X160497992Y-114460147D01*
X160500122Y-114464154D01*
X160806632Y-115031033D01*
X160823109Y-115055460D01*
X160839233Y-115080101D01*
X160842101Y-115083618D01*
X161252881Y-115580166D01*
X161273791Y-115600930D01*
X161294392Y-115621967D01*
X161297889Y-115624860D01*
X161797291Y-116032163D01*
X161821836Y-116048470D01*
X161846131Y-116065105D01*
X161850123Y-116067264D01*
X162419128Y-116369809D01*
X162446310Y-116381012D01*
X162473435Y-116392638D01*
X162477771Y-116393980D01*
X163094703Y-116580243D01*
X163123593Y-116585963D01*
X163152410Y-116592088D01*
X163156924Y-116592563D01*
X163505000Y-116626692D01*
X163505001Y-140040116D01*
X163157606Y-140076629D01*
X163128758Y-140082551D01*
X163099818Y-140088072D01*
X163095474Y-140089383D01*
X162503533Y-140272618D01*
X162476382Y-140284031D01*
X162449066Y-140295068D01*
X162445059Y-140297199D01*
X161899985Y-140591920D01*
X161875565Y-140608392D01*
X161850917Y-140624521D01*
X161847400Y-140627389D01*
X161369951Y-141022369D01*
X161349222Y-141043244D01*
X161328149Y-141063880D01*
X161325256Y-141067377D01*
X160933618Y-141547573D01*
X160917307Y-141572122D01*
X160900676Y-141596412D01*
X160898517Y-141600404D01*
X160607608Y-142147524D01*
X160596399Y-142174719D01*
X160584779Y-142201832D01*
X160583437Y-142206167D01*
X160404338Y-142799371D01*
X160398615Y-142828276D01*
X160392493Y-142857079D01*
X160392018Y-142861592D01*
X160360308Y-143185000D01*
X92400000Y-143185000D01*
X92400000Y-141629999D01*
X123648670Y-141629999D01*
X123648670Y-141630001D01*
X123662626Y-141771701D01*
X123703959Y-141907955D01*
X123771079Y-142033528D01*
X123861407Y-142143594D01*
X123971473Y-142233922D01*
X124097046Y-142301042D01*
X124233300Y-142342375D01*
X124375000Y-142356331D01*
X125625000Y-142356331D01*
X125766700Y-142342375D01*
X125902954Y-142301042D01*
X126028527Y-142233922D01*
X126138593Y-142143594D01*
X126228921Y-142033528D01*
X126296041Y-141907955D01*
X126337374Y-141771701D01*
X126351330Y-141630001D01*
X126351330Y-141629999D01*
X126337374Y-141488299D01*
X126296041Y-141352045D01*
X126228921Y-141226472D01*
X126138593Y-141116406D01*
X126028527Y-141026078D01*
X125902954Y-140958958D01*
X125766700Y-140917625D01*
X125625000Y-140903669D01*
X125071176Y-140903669D01*
X125098414Y-140885469D01*
X125185469Y-140798414D01*
X125253868Y-140696048D01*
X125300981Y-140582306D01*
X125325000Y-140461557D01*
X125325000Y-140338443D01*
X125300981Y-140217694D01*
X125253868Y-140103952D01*
X125185469Y-140001586D01*
X125098414Y-139914531D01*
X124996048Y-139846132D01*
X124882306Y-139799019D01*
X124761557Y-139775000D01*
X124638443Y-139775000D01*
X124517694Y-139799019D01*
X124403952Y-139846132D01*
X124301586Y-139914531D01*
X124214531Y-140001586D01*
X124146132Y-140103952D01*
X124141902Y-140114164D01*
X123856066Y-140400000D01*
X124141902Y-140685836D01*
X124146132Y-140696048D01*
X124214531Y-140798414D01*
X124301586Y-140885469D01*
X124334756Y-140907633D01*
X124233300Y-140917625D01*
X124097046Y-140958958D01*
X123971473Y-141026078D01*
X123861407Y-141116406D01*
X123771079Y-141226472D01*
X123703959Y-141352045D01*
X123662626Y-141488299D01*
X123648670Y-141629999D01*
X92400000Y-141629999D01*
X92400000Y-140844927D01*
X123411139Y-140844927D01*
X123444174Y-140948530D01*
X123557064Y-140997654D01*
X123677367Y-141023811D01*
X123800462Y-141025995D01*
X123921618Y-141004122D01*
X124036179Y-140959033D01*
X124055826Y-140948530D01*
X124088861Y-140844927D01*
X123750000Y-140506066D01*
X123411139Y-140844927D01*
X92400000Y-140844927D01*
X92400000Y-140450462D01*
X123124005Y-140450462D01*
X123145878Y-140571618D01*
X123190967Y-140686179D01*
X123201470Y-140705826D01*
X123305073Y-140738861D01*
X123643934Y-140400000D01*
X123305073Y-140061139D01*
X123201470Y-140094174D01*
X123152346Y-140207064D01*
X123126189Y-140327367D01*
X123124005Y-140450462D01*
X92400000Y-140450462D01*
X92400000Y-138245329D01*
X95280000Y-138245329D01*
X95280000Y-138614671D01*
X95352056Y-138976917D01*
X95493397Y-139318145D01*
X95698593Y-139625243D01*
X95959757Y-139886407D01*
X96266855Y-140091603D01*
X96608083Y-140232944D01*
X96970329Y-140305000D01*
X97339671Y-140305000D01*
X97701917Y-140232944D01*
X98043145Y-140091603D01*
X98247476Y-139955073D01*
X123411139Y-139955073D01*
X123750000Y-140293934D01*
X124088861Y-139955073D01*
X124055826Y-139851470D01*
X123942936Y-139802346D01*
X123822633Y-139776189D01*
X123699538Y-139774005D01*
X123578382Y-139795878D01*
X123463821Y-139840967D01*
X123444174Y-139851470D01*
X123411139Y-139955073D01*
X98247476Y-139955073D01*
X98350243Y-139886407D01*
X98611407Y-139625243D01*
X98731890Y-139444927D01*
X123411139Y-139444927D01*
X123444174Y-139548530D01*
X123557064Y-139597654D01*
X123677367Y-139623811D01*
X123800462Y-139625995D01*
X123921618Y-139604122D01*
X124036179Y-139559033D01*
X124055826Y-139548530D01*
X124088861Y-139444927D01*
X123750000Y-139106066D01*
X123411139Y-139444927D01*
X98731890Y-139444927D01*
X98816603Y-139318145D01*
X98927480Y-139050462D01*
X123124005Y-139050462D01*
X123145878Y-139171618D01*
X123190967Y-139286179D01*
X123201470Y-139305826D01*
X123305073Y-139338861D01*
X123643934Y-139000000D01*
X123305073Y-138661139D01*
X123201470Y-138694174D01*
X123152346Y-138807064D01*
X123126189Y-138927367D01*
X123124005Y-139050462D01*
X98927480Y-139050462D01*
X98957944Y-138976917D01*
X99030000Y-138614671D01*
X99030000Y-138555073D01*
X123411139Y-138555073D01*
X123750000Y-138893934D01*
X124088861Y-138555073D01*
X124055826Y-138451470D01*
X123942936Y-138402346D01*
X123822633Y-138376189D01*
X123699538Y-138374005D01*
X123578382Y-138395878D01*
X123463821Y-138440967D01*
X123444174Y-138451470D01*
X123411139Y-138555073D01*
X99030000Y-138555073D01*
X99030000Y-138245329D01*
X98957944Y-137883083D01*
X98911104Y-137769999D01*
X123648670Y-137769999D01*
X123648670Y-137770001D01*
X123662626Y-137911701D01*
X123703959Y-138047955D01*
X123771079Y-138173528D01*
X123861407Y-138283594D01*
X123971473Y-138373922D01*
X124097046Y-138441042D01*
X124233300Y-138482375D01*
X124334756Y-138492367D01*
X124301586Y-138514531D01*
X124214531Y-138601586D01*
X124146132Y-138703952D01*
X124141902Y-138714164D01*
X123856066Y-139000000D01*
X124141902Y-139285836D01*
X124146132Y-139296048D01*
X124214531Y-139398414D01*
X124301586Y-139485469D01*
X124403952Y-139553868D01*
X124517694Y-139600981D01*
X124638443Y-139625000D01*
X124761557Y-139625000D01*
X124882306Y-139600981D01*
X124996048Y-139553868D01*
X125098414Y-139485469D01*
X125175000Y-139408883D01*
X125251586Y-139485469D01*
X125353952Y-139553868D01*
X125467694Y-139600981D01*
X125588443Y-139625000D01*
X125711557Y-139625000D01*
X125832306Y-139600981D01*
X125946048Y-139553868D01*
X126048414Y-139485469D01*
X126100000Y-139433883D01*
X126151586Y-139485469D01*
X126253952Y-139553868D01*
X126367694Y-139600981D01*
X126371386Y-139601715D01*
X126544671Y-139775000D01*
X126488443Y-139775000D01*
X126367694Y-139799019D01*
X126253952Y-139846132D01*
X126151586Y-139914531D01*
X126064531Y-140001586D01*
X125996132Y-140103952D01*
X125949019Y-140217694D01*
X125925000Y-140338443D01*
X125925000Y-140461557D01*
X125949019Y-140582306D01*
X125996132Y-140696048D01*
X126064531Y-140798414D01*
X126151586Y-140885469D01*
X126253952Y-140953868D01*
X126367694Y-141000981D01*
X126488443Y-141025000D01*
X126611557Y-141025000D01*
X126732306Y-141000981D01*
X126846048Y-140953868D01*
X126948414Y-140885469D01*
X127000000Y-140833883D01*
X127051586Y-140885469D01*
X127153952Y-140953868D01*
X127267694Y-141000981D01*
X127388443Y-141025000D01*
X127511557Y-141025000D01*
X127632306Y-141000981D01*
X127746048Y-140953868D01*
X127848414Y-140885469D01*
X127900000Y-140833883D01*
X127951586Y-140885469D01*
X128053952Y-140953868D01*
X128083596Y-140966147D01*
X127971473Y-141026078D01*
X127861407Y-141116406D01*
X127771079Y-141226472D01*
X127703959Y-141352045D01*
X127662626Y-141488299D01*
X127648670Y-141629999D01*
X127648670Y-141630001D01*
X127662626Y-141771701D01*
X127703959Y-141907955D01*
X127771079Y-142033528D01*
X127861407Y-142143594D01*
X127971473Y-142233922D01*
X128097046Y-142301042D01*
X128233300Y-142342375D01*
X128375000Y-142356331D01*
X129625000Y-142356331D01*
X129766700Y-142342375D01*
X129902954Y-142301042D01*
X130028527Y-142233922D01*
X130138593Y-142143594D01*
X130228921Y-142033528D01*
X130265326Y-141965418D01*
X148509600Y-141965418D01*
X148509600Y-142098382D01*
X148535540Y-142228790D01*
X148586423Y-142351632D01*
X148660293Y-142462187D01*
X148754313Y-142556207D01*
X148864868Y-142630077D01*
X148987710Y-142680960D01*
X149118118Y-142706900D01*
X149251082Y-142706900D01*
X149381490Y-142680960D01*
X149504332Y-142630077D01*
X149614887Y-142556207D01*
X149708907Y-142462187D01*
X149782777Y-142351632D01*
X149833660Y-142228790D01*
X149859600Y-142098382D01*
X149859600Y-141965418D01*
X149833660Y-141835010D01*
X149782777Y-141712168D01*
X149708907Y-141601613D01*
X149614887Y-141507593D01*
X149504332Y-141433723D01*
X149381490Y-141382840D01*
X149251082Y-141356900D01*
X149118118Y-141356900D01*
X148987710Y-141382840D01*
X148864868Y-141433723D01*
X148754313Y-141507593D01*
X148660293Y-141601613D01*
X148586423Y-141712168D01*
X148535540Y-141835010D01*
X148509600Y-141965418D01*
X130265326Y-141965418D01*
X130296041Y-141907955D01*
X130337374Y-141771701D01*
X130351330Y-141630001D01*
X130351330Y-141629999D01*
X130337374Y-141488299D01*
X130296041Y-141352045D01*
X130228921Y-141226472D01*
X130138593Y-141116406D01*
X130028527Y-141026078D01*
X129902954Y-140958958D01*
X129766700Y-140917625D01*
X129665244Y-140907633D01*
X129698414Y-140885469D01*
X129738956Y-140844927D01*
X129911139Y-140844927D01*
X129944174Y-140948530D01*
X130057064Y-140997654D01*
X130177367Y-141023811D01*
X130300462Y-141025995D01*
X130421618Y-141004122D01*
X130536179Y-140959033D01*
X130555826Y-140948530D01*
X130588861Y-140844927D01*
X130250000Y-140506066D01*
X129911139Y-140844927D01*
X129738956Y-140844927D01*
X129785469Y-140798414D01*
X129853868Y-140696048D01*
X129858098Y-140685836D01*
X130143934Y-140400000D01*
X130356066Y-140400000D01*
X130694927Y-140738861D01*
X130798530Y-140705826D01*
X130847654Y-140592936D01*
X130873811Y-140472633D01*
X130875995Y-140349538D01*
X130854122Y-140228382D01*
X130809033Y-140113821D01*
X130798530Y-140094174D01*
X130694927Y-140061139D01*
X130356066Y-140400000D01*
X130143934Y-140400000D01*
X129858098Y-140114164D01*
X129853868Y-140103952D01*
X129785469Y-140001586D01*
X129738956Y-139955073D01*
X129911139Y-139955073D01*
X130250000Y-140293934D01*
X130588861Y-139955073D01*
X130555826Y-139851470D01*
X130442936Y-139802346D01*
X130322633Y-139776189D01*
X130199538Y-139774005D01*
X130078382Y-139795878D01*
X129963821Y-139840967D01*
X129944174Y-139851470D01*
X129911139Y-139955073D01*
X129738956Y-139955073D01*
X129698414Y-139914531D01*
X129596048Y-139846132D01*
X129482306Y-139799019D01*
X129361557Y-139775000D01*
X129238443Y-139775000D01*
X129117694Y-139799019D01*
X129003952Y-139846132D01*
X128901586Y-139914531D01*
X128825000Y-139991117D01*
X128748414Y-139914531D01*
X128646048Y-139846132D01*
X128532306Y-139799019D01*
X128411557Y-139775000D01*
X128288443Y-139775000D01*
X128167694Y-139799019D01*
X128053952Y-139846132D01*
X127951586Y-139914531D01*
X127900000Y-139966117D01*
X127848414Y-139914531D01*
X127746048Y-139846132D01*
X127632306Y-139799019D01*
X127628615Y-139798285D01*
X127455330Y-139625000D01*
X127511557Y-139625000D01*
X127632306Y-139600981D01*
X127746048Y-139553868D01*
X127848414Y-139485469D01*
X127935469Y-139398414D01*
X128003868Y-139296048D01*
X128050981Y-139182306D01*
X128075000Y-139061557D01*
X128075000Y-138938443D01*
X128050981Y-138817694D01*
X128003868Y-138703952D01*
X127935469Y-138601586D01*
X127848414Y-138514531D01*
X127746048Y-138446132D01*
X127632306Y-138399019D01*
X127511557Y-138375000D01*
X127388443Y-138375000D01*
X127267694Y-138399019D01*
X127153952Y-138446132D01*
X127051586Y-138514531D01*
X127000000Y-138566117D01*
X126948414Y-138514531D01*
X126846048Y-138446132D01*
X126732306Y-138399019D01*
X126611557Y-138375000D01*
X126488443Y-138375000D01*
X126367694Y-138399019D01*
X126253952Y-138446132D01*
X126151586Y-138514531D01*
X126100000Y-138566117D01*
X126048414Y-138514531D01*
X125946048Y-138446132D01*
X125916404Y-138433853D01*
X126028527Y-138373922D01*
X126138593Y-138283594D01*
X126228921Y-138173528D01*
X126296041Y-138047955D01*
X126337374Y-137911701D01*
X126351330Y-137770001D01*
X126351330Y-137769999D01*
X127648670Y-137769999D01*
X127648670Y-137770001D01*
X127662626Y-137911701D01*
X127703959Y-138047955D01*
X127771079Y-138173528D01*
X127861407Y-138283594D01*
X127971473Y-138373922D01*
X128097046Y-138441042D01*
X128233300Y-138482375D01*
X128375000Y-138496331D01*
X128928824Y-138496331D01*
X128901586Y-138514531D01*
X128814531Y-138601586D01*
X128746132Y-138703952D01*
X128699019Y-138817694D01*
X128675000Y-138938443D01*
X128675000Y-139061557D01*
X128699019Y-139182306D01*
X128746132Y-139296048D01*
X128814531Y-139398414D01*
X128901586Y-139485469D01*
X129003952Y-139553868D01*
X129117694Y-139600981D01*
X129238443Y-139625000D01*
X129361557Y-139625000D01*
X129482306Y-139600981D01*
X129596048Y-139553868D01*
X129698414Y-139485469D01*
X129738956Y-139444927D01*
X129911139Y-139444927D01*
X129944174Y-139548530D01*
X130057064Y-139597654D01*
X130177367Y-139623811D01*
X130300462Y-139625995D01*
X130421618Y-139604122D01*
X130536179Y-139559033D01*
X130555826Y-139548530D01*
X130588861Y-139444927D01*
X130250000Y-139106066D01*
X129911139Y-139444927D01*
X129738956Y-139444927D01*
X129785469Y-139398414D01*
X129853868Y-139296048D01*
X129858098Y-139285836D01*
X130143934Y-139000000D01*
X130356066Y-139000000D01*
X130694927Y-139338861D01*
X130798530Y-139305826D01*
X130847654Y-139192936D01*
X130873811Y-139072633D01*
X130875995Y-138949538D01*
X130854122Y-138828382D01*
X130809033Y-138713821D01*
X130798530Y-138694174D01*
X130694927Y-138661139D01*
X130356066Y-139000000D01*
X130143934Y-139000000D01*
X129858098Y-138714164D01*
X129853868Y-138703952D01*
X129785469Y-138601586D01*
X129738956Y-138555073D01*
X129911139Y-138555073D01*
X130250000Y-138893934D01*
X130588861Y-138555073D01*
X130555826Y-138451470D01*
X130442936Y-138402346D01*
X130322633Y-138376189D01*
X130199538Y-138374005D01*
X130078382Y-138395878D01*
X129963821Y-138440967D01*
X129944174Y-138451470D01*
X129911139Y-138555073D01*
X129738956Y-138555073D01*
X129698414Y-138514531D01*
X129665244Y-138492367D01*
X129766700Y-138482375D01*
X129902954Y-138441042D01*
X130028527Y-138373922D01*
X130138593Y-138283594D01*
X130228921Y-138173528D01*
X130296041Y-138047955D01*
X130337374Y-137911701D01*
X130351330Y-137770001D01*
X130351330Y-137769999D01*
X130337374Y-137628299D01*
X130329250Y-137601518D01*
X134199000Y-137601518D01*
X134199000Y-137734482D01*
X134224940Y-137864890D01*
X134275823Y-137987732D01*
X134349693Y-138098287D01*
X134443713Y-138192307D01*
X134554268Y-138266177D01*
X134677110Y-138317060D01*
X134807518Y-138343000D01*
X134940482Y-138343000D01*
X135070890Y-138317060D01*
X135193732Y-138266177D01*
X135304287Y-138192307D01*
X135398307Y-138098287D01*
X135472177Y-137987732D01*
X135523060Y-137864890D01*
X135549000Y-137734482D01*
X135549000Y-137601518D01*
X135523060Y-137471110D01*
X135472177Y-137348268D01*
X135398307Y-137237713D01*
X135304287Y-137143693D01*
X135193732Y-137069823D01*
X135070890Y-137018940D01*
X134940482Y-136993000D01*
X134807518Y-136993000D01*
X134677110Y-137018940D01*
X134554268Y-137069823D01*
X134443713Y-137143693D01*
X134349693Y-137237713D01*
X134275823Y-137348268D01*
X134224940Y-137471110D01*
X134199000Y-137601518D01*
X130329250Y-137601518D01*
X130296041Y-137492045D01*
X130228921Y-137366472D01*
X130138593Y-137256406D01*
X130028527Y-137166078D01*
X129902954Y-137098958D01*
X129766700Y-137057625D01*
X129625000Y-137043669D01*
X128375000Y-137043669D01*
X128233300Y-137057625D01*
X128097046Y-137098958D01*
X127971473Y-137166078D01*
X127861407Y-137256406D01*
X127771079Y-137366472D01*
X127703959Y-137492045D01*
X127662626Y-137628299D01*
X127648670Y-137769999D01*
X126351330Y-137769999D01*
X126337374Y-137628299D01*
X126296041Y-137492045D01*
X126228921Y-137366472D01*
X126138593Y-137256406D01*
X126028527Y-137166078D01*
X125902954Y-137098958D01*
X125766700Y-137057625D01*
X125625000Y-137043669D01*
X124375000Y-137043669D01*
X124233300Y-137057625D01*
X124097046Y-137098958D01*
X123971473Y-137166078D01*
X123861407Y-137256406D01*
X123771079Y-137366472D01*
X123703959Y-137492045D01*
X123662626Y-137628299D01*
X123648670Y-137769999D01*
X98911104Y-137769999D01*
X98816603Y-137541855D01*
X98611407Y-137234757D01*
X98350243Y-136973593D01*
X98043145Y-136768397D01*
X97701917Y-136627056D01*
X97339671Y-136555000D01*
X96970329Y-136555000D01*
X96608083Y-136627056D01*
X96266855Y-136768397D01*
X95959757Y-136973593D01*
X95698593Y-137234757D01*
X95493397Y-137541855D01*
X95352056Y-137883083D01*
X95280000Y-138245329D01*
X92400000Y-138245329D01*
X92400000Y-128943718D01*
X105176600Y-128943718D01*
X105176600Y-129076682D01*
X105202540Y-129207090D01*
X105253423Y-129329932D01*
X105327293Y-129440487D01*
X105421313Y-129534507D01*
X105531868Y-129608377D01*
X105654710Y-129659260D01*
X105785118Y-129685200D01*
X105918082Y-129685200D01*
X106048490Y-129659260D01*
X106171332Y-129608377D01*
X106281887Y-129534507D01*
X106375907Y-129440487D01*
X106412848Y-129385200D01*
X116154871Y-129385200D01*
X117628472Y-130858801D01*
X117599600Y-130843369D01*
X117528913Y-130821926D01*
X117473819Y-130816500D01*
X117473816Y-130816500D01*
X117455400Y-130814686D01*
X117436984Y-130816500D01*
X115081148Y-130816500D01*
X115044207Y-130761213D01*
X114950187Y-130667193D01*
X114839632Y-130593323D01*
X114716790Y-130542440D01*
X114586382Y-130516500D01*
X114453418Y-130516500D01*
X114323010Y-130542440D01*
X114200168Y-130593323D01*
X114089613Y-130667193D01*
X113995593Y-130761213D01*
X113921723Y-130871768D01*
X113870840Y-130994610D01*
X113844900Y-131125018D01*
X113844900Y-131257982D01*
X113870840Y-131388390D01*
X113921723Y-131511232D01*
X113995593Y-131621787D01*
X114089613Y-131715807D01*
X114200168Y-131789677D01*
X114323010Y-131840560D01*
X114453418Y-131866500D01*
X114586382Y-131866500D01*
X114716790Y-131840560D01*
X114839632Y-131789677D01*
X114950187Y-131715807D01*
X115044207Y-131621787D01*
X115081148Y-131566500D01*
X117300071Y-131566500D01*
X119316570Y-133583000D01*
X119277864Y-133583000D01*
X119077518Y-133622851D01*
X118888796Y-133701022D01*
X118718951Y-133814509D01*
X118574509Y-133958951D01*
X118461022Y-134128796D01*
X118412889Y-134245000D01*
X110163030Y-134245000D01*
X106807328Y-130889298D01*
X106820300Y-130824082D01*
X106820300Y-130691118D01*
X106794360Y-130560710D01*
X106743477Y-130437868D01*
X106669607Y-130327313D01*
X106575587Y-130233293D01*
X106465032Y-130159423D01*
X106342190Y-130108540D01*
X106211782Y-130082600D01*
X106078818Y-130082600D01*
X105948410Y-130108540D01*
X105825568Y-130159423D01*
X105715013Y-130233293D01*
X105620993Y-130327313D01*
X105547123Y-130437868D01*
X105496240Y-130560710D01*
X105470300Y-130691118D01*
X105470300Y-130824082D01*
X105496240Y-130954490D01*
X105547123Y-131077332D01*
X105620993Y-131187887D01*
X105715013Y-131281907D01*
X105825568Y-131355777D01*
X105948410Y-131406660D01*
X106078818Y-131432600D01*
X106211782Y-131432600D01*
X106276998Y-131419628D01*
X109729509Y-134872139D01*
X109741252Y-134886448D01*
X109771466Y-134911243D01*
X109798352Y-134933309D01*
X109849433Y-134960612D01*
X109863500Y-134968131D01*
X109934187Y-134989574D01*
X109989281Y-134995000D01*
X109989283Y-134995000D01*
X110007699Y-134996814D01*
X110026115Y-134995000D01*
X118412889Y-134995000D01*
X118461022Y-135111204D01*
X118574509Y-135281049D01*
X118718951Y-135425491D01*
X118888796Y-135538978D01*
X119077518Y-135617149D01*
X119277864Y-135657000D01*
X119482136Y-135657000D01*
X119682482Y-135617149D01*
X119871204Y-135538978D01*
X120041049Y-135425491D01*
X120185491Y-135281049D01*
X120298978Y-135111204D01*
X120318887Y-135063138D01*
X120336691Y-135096446D01*
X120383552Y-135153548D01*
X120397866Y-135165295D01*
X121247709Y-136015139D01*
X121259452Y-136029448D01*
X121273759Y-136041189D01*
X121316553Y-136076310D01*
X121361007Y-136100070D01*
X121381700Y-136111131D01*
X121452387Y-136132574D01*
X121507481Y-136138000D01*
X121507484Y-136138000D01*
X121525900Y-136139814D01*
X121544316Y-136138000D01*
X130918584Y-136138000D01*
X130937000Y-136139814D01*
X130955416Y-136138000D01*
X130955419Y-136138000D01*
X131010513Y-136132574D01*
X131081200Y-136111131D01*
X131146347Y-136076309D01*
X131203448Y-136029448D01*
X131215195Y-136015134D01*
X131661314Y-135569016D01*
X131777518Y-135617149D01*
X131977864Y-135657000D01*
X132182136Y-135657000D01*
X132382482Y-135617149D01*
X132571204Y-135538978D01*
X132741049Y-135425491D01*
X132885491Y-135281049D01*
X132998978Y-135111204D01*
X133077149Y-134922482D01*
X133117000Y-134722136D01*
X133117000Y-134517864D01*
X133077149Y-134317518D01*
X132998978Y-134128796D01*
X132885491Y-133958951D01*
X132784540Y-133858000D01*
X133581670Y-133858000D01*
X133581670Y-135382000D01*
X133586980Y-135435909D01*
X133602704Y-135487747D01*
X133628240Y-135535521D01*
X133662605Y-135577395D01*
X133704479Y-135611760D01*
X133752253Y-135637296D01*
X133804091Y-135653020D01*
X133858000Y-135658330D01*
X135382000Y-135658330D01*
X135435909Y-135653020D01*
X135487747Y-135637296D01*
X135535521Y-135611760D01*
X135577395Y-135577395D01*
X135611760Y-135535521D01*
X135637296Y-135487747D01*
X135653020Y-135435909D01*
X135658330Y-135382000D01*
X135658330Y-133858000D01*
X135653020Y-133804091D01*
X135637296Y-133752253D01*
X135611760Y-133704479D01*
X135577395Y-133662605D01*
X135535521Y-133628240D01*
X135487747Y-133602704D01*
X135435909Y-133586980D01*
X135382000Y-133581670D01*
X133858000Y-133581670D01*
X133804091Y-133586980D01*
X133752253Y-133602704D01*
X133704479Y-133628240D01*
X133662605Y-133662605D01*
X133628240Y-133704479D01*
X133602704Y-133752253D01*
X133586980Y-133804091D01*
X133581670Y-133858000D01*
X132784540Y-133858000D01*
X132741049Y-133814509D01*
X132571204Y-133701022D01*
X132382482Y-133622851D01*
X132182136Y-133583000D01*
X131977864Y-133583000D01*
X131777518Y-133622851D01*
X131588796Y-133701022D01*
X131418951Y-133814509D01*
X131274509Y-133958951D01*
X131161022Y-134128796D01*
X131082851Y-134317518D01*
X131043000Y-134517864D01*
X131043000Y-134722136D01*
X131082851Y-134922482D01*
X131130984Y-135038686D01*
X130781671Y-135388000D01*
X130238540Y-135388000D01*
X130345491Y-135281049D01*
X130458978Y-135111204D01*
X130537149Y-134922482D01*
X130577000Y-134722136D01*
X130577000Y-134517864D01*
X130537149Y-134317518D01*
X130458978Y-134128796D01*
X130345491Y-133958951D01*
X130201049Y-133814509D01*
X130031204Y-133701022D01*
X129842482Y-133622851D01*
X129642136Y-133583000D01*
X129437864Y-133583000D01*
X129237518Y-133622851D01*
X129048796Y-133701022D01*
X128878951Y-133814509D01*
X128734509Y-133958951D01*
X128621022Y-134128796D01*
X128542851Y-134317518D01*
X128503000Y-134517864D01*
X128503000Y-134722136D01*
X128542851Y-134922482D01*
X128621022Y-135111204D01*
X128734509Y-135281049D01*
X128841460Y-135388000D01*
X127698540Y-135388000D01*
X127805491Y-135281049D01*
X127918978Y-135111204D01*
X127997149Y-134922482D01*
X128037000Y-134722136D01*
X128037000Y-134517864D01*
X127997149Y-134317518D01*
X127918978Y-134128796D01*
X127805491Y-133958951D01*
X127661049Y-133814509D01*
X127491204Y-133701022D01*
X127302482Y-133622851D01*
X127102136Y-133583000D01*
X126897864Y-133583000D01*
X126697518Y-133622851D01*
X126581314Y-133670984D01*
X126078113Y-133167784D01*
X126137968Y-133207777D01*
X126260810Y-133258660D01*
X126391218Y-133284600D01*
X126524182Y-133284600D01*
X126654590Y-133258660D01*
X126777432Y-133207777D01*
X126887987Y-133133907D01*
X126982007Y-133039887D01*
X127055877Y-132929332D01*
X127106760Y-132806490D01*
X127132700Y-132676082D01*
X127132700Y-132543118D01*
X127106760Y-132412710D01*
X127055877Y-132289868D01*
X126982007Y-132179313D01*
X126887987Y-132085293D01*
X126832700Y-132048352D01*
X126832700Y-130288610D01*
X139958186Y-130288610D01*
X139960001Y-130307036D01*
X139960000Y-134219084D01*
X139958186Y-134237500D01*
X139960000Y-134255916D01*
X139960000Y-134255918D01*
X139965426Y-134311012D01*
X139986869Y-134381699D01*
X140021691Y-134446846D01*
X140068552Y-134503948D01*
X140082866Y-134515695D01*
X140230472Y-134663302D01*
X140217500Y-134728518D01*
X140217500Y-134861482D01*
X140243440Y-134991890D01*
X140294323Y-135114732D01*
X140368193Y-135225287D01*
X140462213Y-135319307D01*
X140572768Y-135393177D01*
X140695610Y-135444060D01*
X140826018Y-135470000D01*
X140958982Y-135470000D01*
X141089390Y-135444060D01*
X141212232Y-135393177D01*
X141322787Y-135319307D01*
X141416807Y-135225287D01*
X141490677Y-135114732D01*
X141541560Y-134991890D01*
X141552176Y-134938518D01*
X142584000Y-134938518D01*
X142584000Y-135071482D01*
X142609940Y-135201890D01*
X142660823Y-135324732D01*
X142734693Y-135435287D01*
X142828713Y-135529307D01*
X142939268Y-135603177D01*
X143062110Y-135654060D01*
X143192518Y-135680000D01*
X143325482Y-135680000D01*
X143390698Y-135667028D01*
X144756555Y-137032885D01*
X144722890Y-137018940D01*
X144592482Y-136993000D01*
X144459518Y-136993000D01*
X144329110Y-137018940D01*
X144206268Y-137069823D01*
X144095713Y-137143693D01*
X144001693Y-137237713D01*
X143927823Y-137348268D01*
X143876940Y-137471110D01*
X143851000Y-137601518D01*
X143851000Y-137734482D01*
X143876940Y-137864890D01*
X143927823Y-137987732D01*
X144001693Y-138098287D01*
X144095713Y-138192307D01*
X144206268Y-138266177D01*
X144329110Y-138317060D01*
X144459518Y-138343000D01*
X144592482Y-138343000D01*
X144722890Y-138317060D01*
X144845732Y-138266177D01*
X144956287Y-138192307D01*
X145050307Y-138098287D01*
X145124177Y-137987732D01*
X145175060Y-137864890D01*
X145201000Y-137734482D01*
X145201000Y-137601518D01*
X145175060Y-137471110D01*
X145161116Y-137437445D01*
X145838709Y-138115039D01*
X145850452Y-138129348D01*
X145907553Y-138176209D01*
X145972700Y-138211031D01*
X146043387Y-138232474D01*
X146098481Y-138237900D01*
X146098484Y-138237900D01*
X146116900Y-138239714D01*
X146135316Y-138237900D01*
X149487752Y-138237900D01*
X149524693Y-138293187D01*
X149618713Y-138387207D01*
X149729268Y-138461077D01*
X149852110Y-138511960D01*
X149982518Y-138537900D01*
X150115482Y-138537900D01*
X150245890Y-138511960D01*
X150368732Y-138461077D01*
X150479287Y-138387207D01*
X150504952Y-138361542D01*
X150506426Y-138376512D01*
X150527869Y-138447199D01*
X150562691Y-138512346D01*
X150609552Y-138569448D01*
X150623866Y-138581195D01*
X153816409Y-141773739D01*
X153828152Y-141788048D01*
X153885253Y-141834909D01*
X153950400Y-141869731D01*
X154021087Y-141891174D01*
X154076181Y-141896600D01*
X154076184Y-141896600D01*
X154094600Y-141898414D01*
X154113016Y-141896600D01*
X154550452Y-141896600D01*
X154587393Y-141951887D01*
X154681413Y-142045907D01*
X154791968Y-142119777D01*
X154914810Y-142170660D01*
X155045218Y-142196600D01*
X155178182Y-142196600D01*
X155308590Y-142170660D01*
X155431432Y-142119777D01*
X155541987Y-142045907D01*
X155636007Y-141951887D01*
X155709877Y-141841332D01*
X155760760Y-141718490D01*
X155786700Y-141588082D01*
X155786700Y-141455118D01*
X155760760Y-141324710D01*
X155709877Y-141201868D01*
X155636007Y-141091313D01*
X155541987Y-140997293D01*
X155431432Y-140923423D01*
X155308590Y-140872540D01*
X155178182Y-140846600D01*
X155045218Y-140846600D01*
X154914810Y-140872540D01*
X154791968Y-140923423D01*
X154681413Y-140997293D01*
X154587393Y-141091313D01*
X154550452Y-141146600D01*
X154249930Y-141146600D01*
X151251000Y-138147671D01*
X151251000Y-137305416D01*
X151252814Y-137287000D01*
X151250620Y-137264723D01*
X151245574Y-137213487D01*
X151224131Y-137142800D01*
X151200697Y-137098958D01*
X151189310Y-137077653D01*
X151154189Y-137034859D01*
X151142448Y-137020552D01*
X151128139Y-137008809D01*
X147728695Y-133609366D01*
X147716948Y-133595052D01*
X147659847Y-133548191D01*
X147594700Y-133513369D01*
X147524013Y-133491926D01*
X147468919Y-133486500D01*
X147468916Y-133486500D01*
X147450500Y-133484686D01*
X147432084Y-133486500D01*
X145586348Y-133486500D01*
X145549407Y-133431213D01*
X145455387Y-133337193D01*
X145344832Y-133263323D01*
X145221990Y-133212440D01*
X145091582Y-133186500D01*
X144958618Y-133186500D01*
X144828210Y-133212440D01*
X144705368Y-133263323D01*
X144594813Y-133337193D01*
X144500793Y-133431213D01*
X144426923Y-133541768D01*
X144376040Y-133664610D01*
X144350100Y-133795018D01*
X144350100Y-133927982D01*
X144376040Y-134058390D01*
X144426923Y-134181232D01*
X144500793Y-134291787D01*
X144594813Y-134385807D01*
X144705368Y-134459677D01*
X144828210Y-134510560D01*
X144958618Y-134536500D01*
X145091582Y-134536500D01*
X145221990Y-134510560D01*
X145344832Y-134459677D01*
X145455387Y-134385807D01*
X145549407Y-134291787D01*
X145586348Y-134236500D01*
X147295171Y-134236500D01*
X150291333Y-137232663D01*
X150245890Y-137213840D01*
X150115482Y-137187900D01*
X149982518Y-137187900D01*
X149852110Y-137213840D01*
X149729268Y-137264723D01*
X149618713Y-137338593D01*
X149524693Y-137432613D01*
X149487752Y-137487900D01*
X146272230Y-137487900D01*
X143921028Y-135136698D01*
X143934000Y-135071482D01*
X143934000Y-134938518D01*
X143908060Y-134808110D01*
X143857177Y-134685268D01*
X143783307Y-134574713D01*
X143689287Y-134480693D01*
X143578732Y-134406823D01*
X143455890Y-134355940D01*
X143325482Y-134330000D01*
X143192518Y-134330000D01*
X143062110Y-134355940D01*
X142939268Y-134406823D01*
X142828713Y-134480693D01*
X142734693Y-134574713D01*
X142660823Y-134685268D01*
X142609940Y-134808110D01*
X142584000Y-134938518D01*
X141552176Y-134938518D01*
X141567500Y-134861482D01*
X141567500Y-134728518D01*
X141541560Y-134598110D01*
X141490677Y-134475268D01*
X141416807Y-134364713D01*
X141322787Y-134270693D01*
X141212232Y-134196823D01*
X141089390Y-134145940D01*
X140958982Y-134120000D01*
X140826018Y-134120000D01*
X140760802Y-134132972D01*
X140710000Y-134082171D01*
X140710000Y-130443939D01*
X141030312Y-130123628D01*
X141095528Y-130136600D01*
X141228492Y-130136600D01*
X141358900Y-130110660D01*
X141481742Y-130059777D01*
X141592297Y-129985907D01*
X141686317Y-129891887D01*
X141760187Y-129781332D01*
X141811070Y-129658490D01*
X141837010Y-129528082D01*
X141837010Y-129395118D01*
X141811070Y-129264710D01*
X141760187Y-129141868D01*
X141686317Y-129031313D01*
X141592297Y-128937293D01*
X141481742Y-128863423D01*
X141358900Y-128812540D01*
X141228492Y-128786600D01*
X141095528Y-128786600D01*
X140965120Y-128812540D01*
X140842278Y-128863423D01*
X140731723Y-128937293D01*
X140637703Y-129031313D01*
X140563833Y-129141868D01*
X140512950Y-129264710D01*
X140487010Y-129395118D01*
X140487010Y-129528082D01*
X140499982Y-129593298D01*
X140082862Y-130010419D01*
X140068553Y-130022162D01*
X140056811Y-130036470D01*
X140021691Y-130079264D01*
X139986870Y-130144410D01*
X139965427Y-130215098D01*
X139958186Y-130288610D01*
X126832700Y-130288610D01*
X126832700Y-128197818D01*
X128554600Y-128197818D01*
X128554600Y-128330782D01*
X128580540Y-128461190D01*
X128631423Y-128584032D01*
X128705293Y-128694587D01*
X128799313Y-128788607D01*
X128909868Y-128862477D01*
X129032710Y-128913360D01*
X129163118Y-128939300D01*
X129296082Y-128939300D01*
X129426490Y-128913360D01*
X129549332Y-128862477D01*
X129659887Y-128788607D01*
X129753907Y-128694587D01*
X129827777Y-128584032D01*
X129878660Y-128461190D01*
X129904600Y-128330782D01*
X129904600Y-128197818D01*
X129878660Y-128067410D01*
X129827777Y-127944568D01*
X129753907Y-127834013D01*
X129659887Y-127739993D01*
X129549332Y-127666123D01*
X129426490Y-127615240D01*
X129296082Y-127589300D01*
X129163118Y-127589300D01*
X129032710Y-127615240D01*
X128909868Y-127666123D01*
X128799313Y-127739993D01*
X128705293Y-127834013D01*
X128631423Y-127944568D01*
X128580540Y-128067410D01*
X128554600Y-128197818D01*
X126832700Y-128197818D01*
X126832700Y-126761216D01*
X133228300Y-126761216D01*
X133228300Y-126894180D01*
X133254240Y-127024588D01*
X133305123Y-127147430D01*
X133378993Y-127257985D01*
X133473013Y-127352005D01*
X133583568Y-127425875D01*
X133706410Y-127476758D01*
X133836818Y-127502698D01*
X133969782Y-127502698D01*
X134100190Y-127476758D01*
X134223032Y-127425875D01*
X134333587Y-127352005D01*
X134427607Y-127257985D01*
X134501477Y-127147430D01*
X134552360Y-127024588D01*
X134578300Y-126894180D01*
X134578300Y-126761216D01*
X134565328Y-126696000D01*
X134657510Y-126603818D01*
X136058500Y-126603818D01*
X136058500Y-126736782D01*
X136084440Y-126867190D01*
X136135323Y-126990032D01*
X136209193Y-127100587D01*
X136303213Y-127194607D01*
X136413768Y-127268477D01*
X136536610Y-127319360D01*
X136667018Y-127345300D01*
X136799982Y-127345300D01*
X136930390Y-127319360D01*
X137053232Y-127268477D01*
X137163787Y-127194607D01*
X137257807Y-127100587D01*
X137331677Y-126990032D01*
X137382560Y-126867190D01*
X137408500Y-126736782D01*
X137408500Y-126603818D01*
X137382560Y-126473410D01*
X137331677Y-126350568D01*
X137257807Y-126240013D01*
X137163787Y-126145993D01*
X137053232Y-126072123D01*
X136930390Y-126021240D01*
X136799982Y-125995300D01*
X136667018Y-125995300D01*
X136536610Y-126021240D01*
X136413768Y-126072123D01*
X136303213Y-126145993D01*
X136209193Y-126240013D01*
X136135323Y-126350568D01*
X136084440Y-126473410D01*
X136058500Y-126603818D01*
X134657510Y-126603818D01*
X135566810Y-125694518D01*
X140604600Y-125694518D01*
X140604600Y-125827482D01*
X140630540Y-125957890D01*
X140681423Y-126080732D01*
X140755293Y-126191287D01*
X140849313Y-126285307D01*
X140959868Y-126359177D01*
X141082710Y-126410060D01*
X141213118Y-126436000D01*
X141346082Y-126436000D01*
X141411298Y-126423028D01*
X141992001Y-127003731D01*
X141992000Y-131449969D01*
X141773598Y-131668372D01*
X141708382Y-131655400D01*
X141575418Y-131655400D01*
X141445010Y-131681340D01*
X141322168Y-131732223D01*
X141211613Y-131806093D01*
X141117593Y-131900113D01*
X141043723Y-132010668D01*
X140992840Y-132133510D01*
X140966900Y-132263918D01*
X140966900Y-132396882D01*
X140992840Y-132527290D01*
X141043723Y-132650132D01*
X141117593Y-132760687D01*
X141211613Y-132854707D01*
X141322168Y-132928577D01*
X141445010Y-132979460D01*
X141575418Y-133005400D01*
X141708382Y-133005400D01*
X141838790Y-132979460D01*
X141961632Y-132928577D01*
X142072187Y-132854707D01*
X142166207Y-132760687D01*
X142240077Y-132650132D01*
X142290960Y-132527290D01*
X142316900Y-132396882D01*
X142316900Y-132263918D01*
X142303928Y-132198702D01*
X142619146Y-131883485D01*
X142633448Y-131871748D01*
X142645186Y-131857445D01*
X142645189Y-131857442D01*
X142680309Y-131814647D01*
X142715130Y-131749502D01*
X142715131Y-131749499D01*
X142736574Y-131678813D01*
X142742000Y-131623719D01*
X142742000Y-131623717D01*
X142743814Y-131605301D01*
X142742000Y-131586885D01*
X142742000Y-126866816D01*
X142743814Y-126848400D01*
X142741775Y-126827698D01*
X142736574Y-126774887D01*
X142715131Y-126704200D01*
X142680309Y-126639053D01*
X142633448Y-126581952D01*
X142619139Y-126570209D01*
X141941628Y-125892698D01*
X141954600Y-125827482D01*
X141954600Y-125694518D01*
X141928660Y-125564110D01*
X141877777Y-125441268D01*
X141803907Y-125330713D01*
X141709887Y-125236693D01*
X141599332Y-125162823D01*
X141476490Y-125111940D01*
X141346082Y-125086000D01*
X141213118Y-125086000D01*
X141082710Y-125111940D01*
X140959868Y-125162823D01*
X140849313Y-125236693D01*
X140755293Y-125330713D01*
X140681423Y-125441268D01*
X140630540Y-125564110D01*
X140604600Y-125694518D01*
X135566810Y-125694518D01*
X137853528Y-123407800D01*
X140342475Y-123407800D01*
X140310023Y-123456368D01*
X140259140Y-123579210D01*
X140233200Y-123709618D01*
X140233200Y-123842582D01*
X140259140Y-123972990D01*
X140310023Y-124095832D01*
X140383893Y-124206387D01*
X140477913Y-124300407D01*
X140588468Y-124374277D01*
X140711310Y-124425160D01*
X140841718Y-124451100D01*
X140974682Y-124451100D01*
X141039898Y-124438128D01*
X153059601Y-136457831D01*
X153059601Y-136856151D01*
X153004313Y-136893093D01*
X152910293Y-136987113D01*
X152836423Y-137097668D01*
X152785540Y-137220510D01*
X152759600Y-137350918D01*
X152759600Y-137483882D01*
X152785540Y-137614290D01*
X152836423Y-137737132D01*
X152910293Y-137847687D01*
X153004313Y-137941707D01*
X153114868Y-138015577D01*
X153237710Y-138066460D01*
X153368118Y-138092400D01*
X153501082Y-138092400D01*
X153631490Y-138066460D01*
X153754332Y-138015577D01*
X153864887Y-137941707D01*
X153958907Y-137847687D01*
X154032777Y-137737132D01*
X154083660Y-137614290D01*
X154109600Y-137483882D01*
X154109600Y-137350918D01*
X154083660Y-137220510D01*
X154032777Y-137097668D01*
X153958907Y-136987113D01*
X153864887Y-136893093D01*
X153809600Y-136856152D01*
X153809600Y-136320916D01*
X153811414Y-136302500D01*
X153809600Y-136284081D01*
X153804174Y-136228987D01*
X153782731Y-136158300D01*
X153747909Y-136093153D01*
X153701048Y-136036052D01*
X153686739Y-136024309D01*
X143095948Y-125433518D01*
X144460300Y-125433518D01*
X144460300Y-125566482D01*
X144486240Y-125696890D01*
X144537123Y-125819732D01*
X144610993Y-125930287D01*
X144705013Y-126024307D01*
X144815568Y-126098177D01*
X144938410Y-126149060D01*
X145068818Y-126175000D01*
X145201782Y-126175000D01*
X145266998Y-126162028D01*
X151974809Y-132869839D01*
X151986552Y-132884148D01*
X152043653Y-132931009D01*
X152108800Y-132965831D01*
X152179487Y-132987274D01*
X152234581Y-132992700D01*
X152234584Y-132992700D01*
X152253000Y-132994514D01*
X152271416Y-132992700D01*
X154975052Y-132992700D01*
X155011993Y-133047987D01*
X155106013Y-133142007D01*
X155216568Y-133215877D01*
X155339410Y-133266760D01*
X155469818Y-133292700D01*
X155602782Y-133292700D01*
X155733190Y-133266760D01*
X155856032Y-133215877D01*
X155966587Y-133142007D01*
X156060607Y-133047987D01*
X156134477Y-132937432D01*
X156185360Y-132814590D01*
X156211300Y-132684182D01*
X156211300Y-132551218D01*
X156185360Y-132420810D01*
X156134477Y-132297968D01*
X156060607Y-132187413D01*
X155966587Y-132093393D01*
X155856032Y-132019523D01*
X155733190Y-131968640D01*
X155602782Y-131942700D01*
X155469818Y-131942700D01*
X155339410Y-131968640D01*
X155216568Y-132019523D01*
X155106013Y-132093393D01*
X155011993Y-132187413D01*
X154975052Y-132242700D01*
X152408330Y-132242700D01*
X145797328Y-125631698D01*
X145810300Y-125566482D01*
X145810300Y-125433518D01*
X145784360Y-125303110D01*
X145733477Y-125180268D01*
X145659607Y-125069713D01*
X145565587Y-124975693D01*
X145455032Y-124901823D01*
X145332190Y-124850940D01*
X145201782Y-124825000D01*
X145068818Y-124825000D01*
X144938410Y-124850940D01*
X144815568Y-124901823D01*
X144705013Y-124975693D01*
X144610993Y-125069713D01*
X144537123Y-125180268D01*
X144486240Y-125303110D01*
X144460300Y-125433518D01*
X143095948Y-125433518D01*
X141570228Y-123907798D01*
X141583200Y-123842582D01*
X141583200Y-123709618D01*
X141557260Y-123579210D01*
X141506377Y-123456368D01*
X141473925Y-123407800D01*
X145064271Y-123407800D01*
X153027472Y-131371002D01*
X153014500Y-131436218D01*
X153014500Y-131569182D01*
X153040440Y-131699590D01*
X153091323Y-131822432D01*
X153165193Y-131932987D01*
X153259213Y-132027007D01*
X153369768Y-132100877D01*
X153492610Y-132151760D01*
X153623018Y-132177700D01*
X153755982Y-132177700D01*
X153886390Y-132151760D01*
X154009232Y-132100877D01*
X154119787Y-132027007D01*
X154213807Y-131932987D01*
X154287677Y-131822432D01*
X154338560Y-131699590D01*
X154364500Y-131569182D01*
X154364500Y-131436218D01*
X154338560Y-131305810D01*
X154287677Y-131182968D01*
X154213807Y-131072413D01*
X154119787Y-130978393D01*
X154009232Y-130904523D01*
X153886390Y-130853640D01*
X153755982Y-130827700D01*
X153623018Y-130827700D01*
X153557802Y-130840672D01*
X145497795Y-122780666D01*
X145486048Y-122766352D01*
X145428947Y-122719491D01*
X145363800Y-122684669D01*
X145293113Y-122663226D01*
X145238019Y-122657800D01*
X145238016Y-122657800D01*
X145219600Y-122655986D01*
X145201184Y-122657800D01*
X137716613Y-122657800D01*
X137698197Y-122655986D01*
X137679781Y-122657800D01*
X137679779Y-122657800D01*
X137624685Y-122663226D01*
X137553998Y-122684669D01*
X137488851Y-122719491D01*
X137431750Y-122766352D01*
X137420007Y-122780661D01*
X134034998Y-126165670D01*
X133969782Y-126152698D01*
X133836818Y-126152698D01*
X133706410Y-126178638D01*
X133583568Y-126229521D01*
X133473013Y-126303391D01*
X133378993Y-126397411D01*
X133305123Y-126507966D01*
X133254240Y-126630808D01*
X133228300Y-126761216D01*
X126832700Y-126761216D01*
X126832700Y-123374418D01*
X128601600Y-123374418D01*
X128601600Y-123507382D01*
X128627540Y-123637790D01*
X128678423Y-123760632D01*
X128752293Y-123871187D01*
X128846313Y-123965207D01*
X128956868Y-124039077D01*
X129079710Y-124089960D01*
X129210118Y-124115900D01*
X129343082Y-124115900D01*
X129473490Y-124089960D01*
X129596332Y-124039077D01*
X129706887Y-123965207D01*
X129800907Y-123871187D01*
X129874777Y-123760632D01*
X129925660Y-123637790D01*
X129951600Y-123507382D01*
X129951600Y-123374418D01*
X129925660Y-123244010D01*
X129874777Y-123121168D01*
X129800907Y-123010613D01*
X129706887Y-122916593D01*
X129596332Y-122842723D01*
X129473490Y-122791840D01*
X129343082Y-122765900D01*
X129210118Y-122765900D01*
X129079710Y-122791840D01*
X128956868Y-122842723D01*
X128846313Y-122916593D01*
X128752293Y-123010613D01*
X128678423Y-123121168D01*
X128627540Y-123244010D01*
X128601600Y-123374418D01*
X126832700Y-123374418D01*
X126832700Y-122617629D01*
X129121314Y-120329016D01*
X129237518Y-120377149D01*
X129437864Y-120417000D01*
X129642136Y-120417000D01*
X129842482Y-120377149D01*
X130031204Y-120298978D01*
X130201049Y-120185491D01*
X130345491Y-120041049D01*
X130458978Y-119871204D01*
X130537149Y-119682482D01*
X130577000Y-119482136D01*
X130577000Y-119277864D01*
X131043000Y-119277864D01*
X131043000Y-119482136D01*
X131082851Y-119682482D01*
X131161022Y-119871204D01*
X131274509Y-120041049D01*
X131418951Y-120185491D01*
X131588796Y-120298978D01*
X131777518Y-120377149D01*
X131977864Y-120417000D01*
X132182136Y-120417000D01*
X132382482Y-120377149D01*
X132571204Y-120298978D01*
X132741049Y-120185491D01*
X132885491Y-120041049D01*
X132998978Y-119871204D01*
X133077149Y-119682482D01*
X133117000Y-119482136D01*
X133117000Y-119277864D01*
X133583000Y-119277864D01*
X133583000Y-119482136D01*
X133622851Y-119682482D01*
X133701022Y-119871204D01*
X133814509Y-120041049D01*
X133958951Y-120185491D01*
X134128796Y-120298978D01*
X134317518Y-120377149D01*
X134517864Y-120417000D01*
X134722136Y-120417000D01*
X134922482Y-120377149D01*
X135111204Y-120298978D01*
X135281049Y-120185491D01*
X135425491Y-120041049D01*
X135538978Y-119871204D01*
X135617149Y-119682482D01*
X135657000Y-119482136D01*
X135657000Y-119277864D01*
X135648379Y-119234518D01*
X141233000Y-119234518D01*
X141233000Y-119367482D01*
X141258940Y-119497890D01*
X141309823Y-119620732D01*
X141383693Y-119731287D01*
X141477713Y-119825307D01*
X141588268Y-119899177D01*
X141711110Y-119950060D01*
X141841518Y-119976000D01*
X141974482Y-119976000D01*
X142104890Y-119950060D01*
X142227732Y-119899177D01*
X142338287Y-119825307D01*
X142432307Y-119731287D01*
X142506177Y-119620732D01*
X142557060Y-119497890D01*
X142583000Y-119367482D01*
X142583000Y-119234518D01*
X142557060Y-119104110D01*
X142506177Y-118981268D01*
X142432307Y-118870713D01*
X142338287Y-118776693D01*
X142227732Y-118702823D01*
X142104890Y-118651940D01*
X141974482Y-118626000D01*
X141841518Y-118626000D01*
X141711110Y-118651940D01*
X141588268Y-118702823D01*
X141477713Y-118776693D01*
X141383693Y-118870713D01*
X141309823Y-118981268D01*
X141258940Y-119104110D01*
X141233000Y-119234518D01*
X135648379Y-119234518D01*
X135617149Y-119077518D01*
X135538978Y-118888796D01*
X135425491Y-118718951D01*
X135281049Y-118574509D01*
X135111204Y-118461022D01*
X134922482Y-118382851D01*
X134722136Y-118343000D01*
X134517864Y-118343000D01*
X134317518Y-118382851D01*
X134128796Y-118461022D01*
X133958951Y-118574509D01*
X133814509Y-118718951D01*
X133701022Y-118888796D01*
X133622851Y-119077518D01*
X133583000Y-119277864D01*
X133117000Y-119277864D01*
X133077149Y-119077518D01*
X132998978Y-118888796D01*
X132885491Y-118718951D01*
X132741049Y-118574509D01*
X132571204Y-118461022D01*
X132382482Y-118382851D01*
X132182136Y-118343000D01*
X131977864Y-118343000D01*
X131777518Y-118382851D01*
X131588796Y-118461022D01*
X131418951Y-118574509D01*
X131274509Y-118718951D01*
X131161022Y-118888796D01*
X131082851Y-119077518D01*
X131043000Y-119277864D01*
X130577000Y-119277864D01*
X130537149Y-119077518D01*
X130458978Y-118888796D01*
X130345491Y-118718951D01*
X130201049Y-118574509D01*
X130031204Y-118461022D01*
X129842482Y-118382851D01*
X129642136Y-118343000D01*
X129437864Y-118343000D01*
X129237518Y-118382851D01*
X129048796Y-118461022D01*
X128878951Y-118574509D01*
X128734509Y-118718951D01*
X128621022Y-118888796D01*
X128542851Y-119077518D01*
X128503000Y-119277864D01*
X128503000Y-119482136D01*
X128542851Y-119682482D01*
X128590984Y-119798686D01*
X126205562Y-122184109D01*
X126191253Y-122195852D01*
X126179511Y-122210160D01*
X126144391Y-122252954D01*
X126109570Y-122318100D01*
X126088127Y-122388788D01*
X126080886Y-122462300D01*
X126082701Y-122480726D01*
X126082700Y-132048352D01*
X126027413Y-132085293D01*
X125933393Y-132179313D01*
X125859523Y-132289868D01*
X125808640Y-132412710D01*
X125782700Y-132543118D01*
X125782700Y-132676082D01*
X125808640Y-132806490D01*
X125859523Y-132929332D01*
X125899517Y-132989187D01*
X124154995Y-131244666D01*
X124143248Y-131230352D01*
X124086147Y-131183491D01*
X124021000Y-131148669D01*
X123950313Y-131127226D01*
X123895219Y-131121800D01*
X123895216Y-131121800D01*
X123876800Y-131119986D01*
X123858384Y-131121800D01*
X120842430Y-131121800D01*
X120450548Y-130729918D01*
X124216600Y-130729918D01*
X124216600Y-130862882D01*
X124242540Y-130993290D01*
X124293423Y-131116132D01*
X124367293Y-131226687D01*
X124461313Y-131320707D01*
X124571868Y-131394577D01*
X124694710Y-131445460D01*
X124825118Y-131471400D01*
X124958082Y-131471400D01*
X125088490Y-131445460D01*
X125211332Y-131394577D01*
X125321887Y-131320707D01*
X125415907Y-131226687D01*
X125489777Y-131116132D01*
X125540660Y-130993290D01*
X125566600Y-130862882D01*
X125566600Y-130729918D01*
X125540660Y-130599510D01*
X125489777Y-130476668D01*
X125415907Y-130366113D01*
X125321887Y-130272093D01*
X125211332Y-130198223D01*
X125088490Y-130147340D01*
X124958082Y-130121400D01*
X124825118Y-130121400D01*
X124694710Y-130147340D01*
X124571868Y-130198223D01*
X124461313Y-130272093D01*
X124367293Y-130366113D01*
X124293423Y-130476668D01*
X124242540Y-130599510D01*
X124216600Y-130729918D01*
X120450548Y-130729918D01*
X119821828Y-130101198D01*
X119834800Y-130035982D01*
X119834800Y-129981520D01*
X120991000Y-129981520D01*
X120991000Y-130114484D01*
X121016940Y-130244892D01*
X121067823Y-130367734D01*
X121141693Y-130478289D01*
X121235713Y-130572309D01*
X121346268Y-130646179D01*
X121469110Y-130697062D01*
X121599518Y-130723002D01*
X121732482Y-130723002D01*
X121862890Y-130697062D01*
X121985732Y-130646179D01*
X122096287Y-130572309D01*
X122190307Y-130478289D01*
X122264177Y-130367734D01*
X122315060Y-130244892D01*
X122341000Y-130114484D01*
X122341000Y-129981520D01*
X122315060Y-129851112D01*
X122264177Y-129728270D01*
X122190307Y-129617715D01*
X122096287Y-129523695D01*
X121985732Y-129449825D01*
X121862890Y-129398942D01*
X121732482Y-129373002D01*
X121599518Y-129373002D01*
X121469110Y-129398942D01*
X121346268Y-129449825D01*
X121235713Y-129523695D01*
X121141693Y-129617715D01*
X121067823Y-129728270D01*
X121016940Y-129851112D01*
X120991000Y-129981520D01*
X119834800Y-129981520D01*
X119834800Y-129903018D01*
X119808860Y-129772610D01*
X119757977Y-129649768D01*
X119684107Y-129539213D01*
X119590087Y-129445193D01*
X119479532Y-129371323D01*
X119356690Y-129320440D01*
X119226282Y-129294500D01*
X119093318Y-129294500D01*
X118962910Y-129320440D01*
X118840068Y-129371323D01*
X118729513Y-129445193D01*
X118635493Y-129539213D01*
X118561623Y-129649768D01*
X118510740Y-129772610D01*
X118484800Y-129903018D01*
X118484800Y-130035982D01*
X118510740Y-130166390D01*
X118561623Y-130289232D01*
X118635493Y-130399787D01*
X118729513Y-130493807D01*
X118840068Y-130567677D01*
X118962910Y-130618560D01*
X119093318Y-130644500D01*
X119226282Y-130644500D01*
X119291498Y-130631528D01*
X120408909Y-131748939D01*
X120420652Y-131763248D01*
X120442147Y-131780888D01*
X120477752Y-131810109D01*
X120534722Y-131840560D01*
X120542900Y-131844931D01*
X120613587Y-131866374D01*
X120668681Y-131871800D01*
X120668683Y-131871800D01*
X120687099Y-131873614D01*
X120705515Y-131871800D01*
X123721471Y-131871800D01*
X126050984Y-134201314D01*
X126002851Y-134317518D01*
X125963000Y-134517864D01*
X125963000Y-134722136D01*
X126002851Y-134922482D01*
X126081022Y-135111204D01*
X126194509Y-135281049D01*
X126301460Y-135388000D01*
X125158540Y-135388000D01*
X125265491Y-135281049D01*
X125378978Y-135111204D01*
X125457149Y-134922482D01*
X125497000Y-134722136D01*
X125497000Y-134517864D01*
X125457149Y-134317518D01*
X125378978Y-134128796D01*
X125265491Y-133958951D01*
X125121049Y-133814509D01*
X124951204Y-133701022D01*
X124762482Y-133622851D01*
X124562136Y-133583000D01*
X124357864Y-133583000D01*
X124157518Y-133622851D01*
X123968796Y-133701022D01*
X123798951Y-133814509D01*
X123654509Y-133958951D01*
X123541022Y-134128796D01*
X123462851Y-134317518D01*
X123423000Y-134517864D01*
X123423000Y-134722136D01*
X123462851Y-134922482D01*
X123541022Y-135111204D01*
X123654509Y-135281049D01*
X123761460Y-135388000D01*
X122618540Y-135388000D01*
X122725491Y-135281049D01*
X122838978Y-135111204D01*
X122917149Y-134922482D01*
X122957000Y-134722136D01*
X122957000Y-134517864D01*
X122917149Y-134317518D01*
X122838978Y-134128796D01*
X122725491Y-133958951D01*
X122581049Y-133814509D01*
X122411204Y-133701022D01*
X122222482Y-133622851D01*
X122022136Y-133583000D01*
X121817864Y-133583000D01*
X121617518Y-133622851D01*
X121501315Y-133670984D01*
X116588395Y-128758066D01*
X116576648Y-128743752D01*
X116519547Y-128696891D01*
X116454400Y-128662069D01*
X116383713Y-128640626D01*
X116328619Y-128635200D01*
X116328616Y-128635200D01*
X116310200Y-128633386D01*
X116291784Y-128635200D01*
X106412848Y-128635200D01*
X106375907Y-128579913D01*
X106281887Y-128485893D01*
X106171332Y-128412023D01*
X106048490Y-128361140D01*
X105918082Y-128335200D01*
X105785118Y-128335200D01*
X105654710Y-128361140D01*
X105531868Y-128412023D01*
X105421313Y-128485893D01*
X105327293Y-128579913D01*
X105253423Y-128690468D01*
X105202540Y-128813310D01*
X105176600Y-128943718D01*
X92400000Y-128943718D01*
X92400000Y-126298518D01*
X105470300Y-126298518D01*
X105470300Y-126431482D01*
X105496240Y-126561890D01*
X105547123Y-126684732D01*
X105620993Y-126795287D01*
X105715013Y-126889307D01*
X105825568Y-126963177D01*
X105948410Y-127014060D01*
X106078818Y-127040000D01*
X106211782Y-127040000D01*
X106342190Y-127014060D01*
X106465032Y-126963177D01*
X106575587Y-126889307D01*
X106669607Y-126795287D01*
X106706548Y-126740000D01*
X107032671Y-126740000D01*
X108546609Y-128253939D01*
X108558352Y-128268248D01*
X108615453Y-128315109D01*
X108680600Y-128349931D01*
X108751287Y-128371374D01*
X108806381Y-128376800D01*
X108806384Y-128376800D01*
X108824800Y-128378614D01*
X108843216Y-128376800D01*
X119356484Y-128376800D01*
X119374900Y-128378614D01*
X119393316Y-128376800D01*
X119393319Y-128376800D01*
X119448413Y-128371374D01*
X119519100Y-128349931D01*
X119584247Y-128315109D01*
X119641348Y-128268248D01*
X119653095Y-128253934D01*
X120392630Y-127514399D01*
X120379100Y-127582418D01*
X120379100Y-127715382D01*
X120405040Y-127845790D01*
X120455923Y-127968632D01*
X120529793Y-128079187D01*
X120623813Y-128173207D01*
X120734368Y-128247077D01*
X120857210Y-128297960D01*
X120987618Y-128323900D01*
X121120582Y-128323900D01*
X121250990Y-128297960D01*
X121373832Y-128247077D01*
X121484387Y-128173207D01*
X121578407Y-128079187D01*
X121652277Y-127968632D01*
X121703160Y-127845790D01*
X121729100Y-127715382D01*
X121729100Y-127582418D01*
X121703160Y-127452010D01*
X121652277Y-127329168D01*
X121578407Y-127218613D01*
X121484387Y-127124593D01*
X121455822Y-127105507D01*
X123366211Y-125195118D01*
X124298400Y-125195118D01*
X124298400Y-125328082D01*
X124324340Y-125458490D01*
X124375223Y-125581332D01*
X124449093Y-125691887D01*
X124543113Y-125785907D01*
X124653668Y-125859777D01*
X124776510Y-125910660D01*
X124906918Y-125936600D01*
X125039882Y-125936600D01*
X125170290Y-125910660D01*
X125293132Y-125859777D01*
X125403687Y-125785907D01*
X125497707Y-125691887D01*
X125571577Y-125581332D01*
X125622460Y-125458490D01*
X125648400Y-125328082D01*
X125648400Y-125195118D01*
X125622460Y-125064710D01*
X125571577Y-124941868D01*
X125497707Y-124831313D01*
X125403687Y-124737293D01*
X125293132Y-124663423D01*
X125170290Y-124612540D01*
X125039882Y-124586600D01*
X124906918Y-124586600D01*
X124776510Y-124612540D01*
X124653668Y-124663423D01*
X124543113Y-124737293D01*
X124449093Y-124831313D01*
X124375223Y-124941868D01*
X124324340Y-125064710D01*
X124298400Y-125195118D01*
X123366211Y-125195118D01*
X125220140Y-123341190D01*
X125234448Y-123329448D01*
X125269880Y-123286274D01*
X125281309Y-123272348D01*
X125316130Y-123207202D01*
X125316131Y-123207199D01*
X125337574Y-123136513D01*
X125343000Y-123081419D01*
X125343000Y-123081417D01*
X125344814Y-123063001D01*
X125343000Y-123044585D01*
X125343000Y-120805329D01*
X125982140Y-120166190D01*
X125996448Y-120154448D01*
X126016423Y-120130108D01*
X126043310Y-120097347D01*
X126078130Y-120032201D01*
X126078131Y-120032200D01*
X126099574Y-119961513D01*
X126104942Y-119907003D01*
X126194509Y-120041049D01*
X126338951Y-120185491D01*
X126508796Y-120298978D01*
X126697518Y-120377149D01*
X126897864Y-120417000D01*
X127102136Y-120417000D01*
X127302482Y-120377149D01*
X127491204Y-120298978D01*
X127661049Y-120185491D01*
X127805491Y-120041049D01*
X127918978Y-119871204D01*
X127997149Y-119682482D01*
X128037000Y-119482136D01*
X128037000Y-119277864D01*
X127997149Y-119077518D01*
X127918978Y-118888796D01*
X127805491Y-118718951D01*
X127661049Y-118574509D01*
X127491204Y-118461022D01*
X127302482Y-118382851D01*
X127102136Y-118343000D01*
X126897864Y-118343000D01*
X126697518Y-118382851D01*
X126508796Y-118461022D01*
X126338951Y-118574509D01*
X126194509Y-118718951D01*
X126105000Y-118852910D01*
X126105000Y-117075518D01*
X132627000Y-117075518D01*
X132627000Y-117208482D01*
X132652940Y-117338890D01*
X132703823Y-117461732D01*
X132777693Y-117572287D01*
X132871713Y-117666307D01*
X132982268Y-117740177D01*
X133105110Y-117791060D01*
X133235518Y-117817000D01*
X133368482Y-117817000D01*
X133498890Y-117791060D01*
X133621732Y-117740177D01*
X133732287Y-117666307D01*
X133826307Y-117572287D01*
X133900177Y-117461732D01*
X133951060Y-117338890D01*
X133977000Y-117208482D01*
X133977000Y-117075518D01*
X133951060Y-116945110D01*
X133900177Y-116822268D01*
X133826307Y-116711713D01*
X133732287Y-116617693D01*
X133621732Y-116543823D01*
X133498890Y-116492940D01*
X133368482Y-116467000D01*
X133235518Y-116467000D01*
X133105110Y-116492940D01*
X132982268Y-116543823D01*
X132871713Y-116617693D01*
X132777693Y-116711713D01*
X132703823Y-116822268D01*
X132652940Y-116945110D01*
X132627000Y-117075518D01*
X126105000Y-117075518D01*
X126105000Y-116620929D01*
X126857702Y-115868228D01*
X126922918Y-115881200D01*
X127055882Y-115881200D01*
X127186290Y-115855260D01*
X127309132Y-115804377D01*
X127419687Y-115730507D01*
X127513707Y-115636487D01*
X127587577Y-115525932D01*
X127638460Y-115403090D01*
X127664400Y-115272682D01*
X127664400Y-115139718D01*
X127638460Y-115009310D01*
X127587577Y-114886468D01*
X127513707Y-114775913D01*
X127419687Y-114681893D01*
X127309132Y-114608023D01*
X127186290Y-114557140D01*
X127055882Y-114531200D01*
X126922918Y-114531200D01*
X126792510Y-114557140D01*
X126669668Y-114608023D01*
X126559113Y-114681893D01*
X126465093Y-114775913D01*
X126391223Y-114886468D01*
X126340340Y-115009310D01*
X126314400Y-115139718D01*
X126314400Y-115272682D01*
X126327372Y-115337898D01*
X125477862Y-116187409D01*
X125463553Y-116199152D01*
X125451811Y-116213460D01*
X125416691Y-116256254D01*
X125384735Y-116316040D01*
X125381870Y-116321400D01*
X125368578Y-116365219D01*
X125360427Y-116392088D01*
X125353186Y-116465600D01*
X125355001Y-116484026D01*
X125355000Y-118852911D01*
X125265491Y-118718951D01*
X125121049Y-118574509D01*
X124951204Y-118461022D01*
X124762482Y-118382851D01*
X124562136Y-118343000D01*
X124357864Y-118343000D01*
X124157518Y-118382851D01*
X123968796Y-118461022D01*
X123798951Y-118574509D01*
X123654509Y-118718951D01*
X123541022Y-118888796D01*
X123462851Y-119077518D01*
X123423000Y-119277864D01*
X123423000Y-119482136D01*
X123462851Y-119682482D01*
X123541022Y-119871204D01*
X123654509Y-120041049D01*
X123798951Y-120185491D01*
X123968796Y-120298978D01*
X124085001Y-120347111D01*
X124085000Y-122761370D01*
X122295000Y-124551370D01*
X122295000Y-121979418D01*
X122312500Y-121979418D01*
X122312500Y-122112382D01*
X122338440Y-122242790D01*
X122389323Y-122365632D01*
X122463193Y-122476187D01*
X122557213Y-122570207D01*
X122667768Y-122644077D01*
X122790610Y-122694960D01*
X122921018Y-122720900D01*
X123053982Y-122720900D01*
X123184390Y-122694960D01*
X123307232Y-122644077D01*
X123417787Y-122570207D01*
X123511807Y-122476187D01*
X123585677Y-122365632D01*
X123636560Y-122242790D01*
X123662500Y-122112382D01*
X123662500Y-121979418D01*
X123636560Y-121849010D01*
X123585677Y-121726168D01*
X123511807Y-121615613D01*
X123417787Y-121521593D01*
X123307232Y-121447723D01*
X123184390Y-121396840D01*
X123053982Y-121370900D01*
X122921018Y-121370900D01*
X122790610Y-121396840D01*
X122667768Y-121447723D01*
X122557213Y-121521593D01*
X122463193Y-121615613D01*
X122389323Y-121726168D01*
X122338440Y-121849010D01*
X122312500Y-121979418D01*
X122295000Y-121979418D01*
X122295000Y-120347111D01*
X122411204Y-120298978D01*
X122581049Y-120185491D01*
X122725491Y-120041049D01*
X122838978Y-119871204D01*
X122917149Y-119682482D01*
X122957000Y-119482136D01*
X122957000Y-119277864D01*
X122917149Y-119077518D01*
X122838978Y-118888796D01*
X122725491Y-118718951D01*
X122581049Y-118574509D01*
X122411204Y-118461022D01*
X122222482Y-118382851D01*
X122022136Y-118343000D01*
X121817864Y-118343000D01*
X121617518Y-118382851D01*
X121428796Y-118461022D01*
X121258951Y-118574509D01*
X121114509Y-118718951D01*
X121001022Y-118888796D01*
X120922851Y-119077518D01*
X120883000Y-119277864D01*
X120883000Y-119482136D01*
X120922851Y-119682482D01*
X121001022Y-119871204D01*
X121114509Y-120041049D01*
X121258951Y-120185491D01*
X121428796Y-120298978D01*
X121545001Y-120347111D01*
X121545000Y-124685670D01*
X119489855Y-126740816D01*
X119416232Y-126691623D01*
X119293390Y-126640740D01*
X119162982Y-126614800D01*
X119030018Y-126614800D01*
X118899610Y-126640740D01*
X118776768Y-126691623D01*
X118666213Y-126765493D01*
X118572193Y-126859513D01*
X118498323Y-126970068D01*
X118447440Y-127092910D01*
X118421500Y-127223318D01*
X118421500Y-127356282D01*
X118447440Y-127486690D01*
X118498323Y-127609532D01*
X118509861Y-127626800D01*
X108980130Y-127626800D01*
X107466195Y-126112866D01*
X107454448Y-126098552D01*
X107397347Y-126051691D01*
X107332200Y-126016869D01*
X107261513Y-125995426D01*
X107206419Y-125990000D01*
X107206416Y-125990000D01*
X107188000Y-125988186D01*
X107169584Y-125990000D01*
X106706548Y-125990000D01*
X106669607Y-125934713D01*
X106575587Y-125840693D01*
X106465032Y-125766823D01*
X106342190Y-125715940D01*
X106211782Y-125690000D01*
X106078818Y-125690000D01*
X105948410Y-125715940D01*
X105825568Y-125766823D01*
X105715013Y-125840693D01*
X105620993Y-125934713D01*
X105547123Y-126045268D01*
X105496240Y-126168110D01*
X105470300Y-126298518D01*
X92400000Y-126298518D01*
X92400000Y-117925329D01*
X95280000Y-117925329D01*
X95280000Y-118294671D01*
X95352056Y-118656917D01*
X95493397Y-118998145D01*
X95698593Y-119305243D01*
X95959757Y-119566407D01*
X96266855Y-119771603D01*
X96608083Y-119912944D01*
X96970329Y-119985000D01*
X97339671Y-119985000D01*
X97701917Y-119912944D01*
X98043145Y-119771603D01*
X98350243Y-119566407D01*
X98611407Y-119305243D01*
X98816603Y-118998145D01*
X98957944Y-118656917D01*
X99030000Y-118294671D01*
X99030000Y-117925329D01*
X98957944Y-117563083D01*
X98816603Y-117221855D01*
X98611407Y-116914757D01*
X98350243Y-116653593D01*
X98043145Y-116448397D01*
X97701917Y-116307056D01*
X97339671Y-116235000D01*
X96970329Y-116235000D01*
X96608083Y-116307056D01*
X96266855Y-116448397D01*
X95959757Y-116653593D01*
X95698593Y-116914757D01*
X95493397Y-117221855D01*
X95352056Y-117563083D01*
X95280000Y-117925329D01*
X92400000Y-117925329D01*
X92400000Y-115330118D01*
X109896500Y-115330118D01*
X109896500Y-115463082D01*
X109922440Y-115593490D01*
X109973323Y-115716332D01*
X110047193Y-115826887D01*
X110141213Y-115920907D01*
X110251768Y-115994777D01*
X110374610Y-116045660D01*
X110505018Y-116071600D01*
X110637982Y-116071600D01*
X110768390Y-116045660D01*
X110891232Y-115994777D01*
X111001787Y-115920907D01*
X111095807Y-115826887D01*
X111132748Y-115771600D01*
X113721771Y-115771600D01*
X116713144Y-118762974D01*
X116657510Y-118774040D01*
X116534668Y-118824923D01*
X116424113Y-118898793D01*
X116330093Y-118992813D01*
X116256223Y-119103368D01*
X116205340Y-119226210D01*
X116179400Y-119356618D01*
X116179400Y-119489582D01*
X116205340Y-119619990D01*
X116256223Y-119742832D01*
X116330093Y-119853387D01*
X116424113Y-119947407D01*
X116479401Y-119984349D01*
X116479400Y-121313677D01*
X116427307Y-121235713D01*
X116333287Y-121141693D01*
X116222732Y-121067823D01*
X116099890Y-121016940D01*
X115969482Y-120991000D01*
X115836518Y-120991000D01*
X115706110Y-121016940D01*
X115583268Y-121067823D01*
X115472713Y-121141693D01*
X115378693Y-121235713D01*
X115304823Y-121346268D01*
X115253940Y-121469110D01*
X115228000Y-121599518D01*
X115228000Y-121732482D01*
X115253940Y-121862890D01*
X115304823Y-121985732D01*
X115378693Y-122096287D01*
X115472713Y-122190307D01*
X115583268Y-122264177D01*
X115706110Y-122315060D01*
X115836518Y-122341000D01*
X115969482Y-122341000D01*
X116099890Y-122315060D01*
X116222732Y-122264177D01*
X116333287Y-122190307D01*
X116427307Y-122096287D01*
X116479400Y-122018323D01*
X116479400Y-122897370D01*
X114943798Y-124432972D01*
X114878582Y-124420000D01*
X114745618Y-124420000D01*
X114615210Y-124445940D01*
X114492368Y-124496823D01*
X114381813Y-124570693D01*
X114287793Y-124664713D01*
X114213923Y-124775268D01*
X114163040Y-124898110D01*
X114137100Y-125028518D01*
X114137100Y-125161482D01*
X114163040Y-125291890D01*
X114213923Y-125414732D01*
X114287793Y-125525287D01*
X114381813Y-125619307D01*
X114492368Y-125693177D01*
X114615210Y-125744060D01*
X114745618Y-125770000D01*
X114878582Y-125770000D01*
X115008990Y-125744060D01*
X115131832Y-125693177D01*
X115242387Y-125619307D01*
X115336407Y-125525287D01*
X115410277Y-125414732D01*
X115461160Y-125291890D01*
X115487100Y-125161482D01*
X115487100Y-125028518D01*
X115474128Y-124963302D01*
X117106540Y-123330890D01*
X117120848Y-123319148D01*
X117167709Y-123262047D01*
X117202531Y-123196900D01*
X117223974Y-123126213D01*
X117229400Y-123071119D01*
X117229400Y-123071117D01*
X117231214Y-123052701D01*
X117229400Y-123034285D01*
X117229400Y-119984348D01*
X117284687Y-119947407D01*
X117378707Y-119853387D01*
X117452577Y-119742832D01*
X117503460Y-119619990D01*
X117514526Y-119564356D01*
X119259001Y-121308831D01*
X119259000Y-124721170D01*
X119034698Y-124945472D01*
X118969482Y-124932500D01*
X118836518Y-124932500D01*
X118706110Y-124958440D01*
X118583268Y-125009323D01*
X118472713Y-125083193D01*
X118378693Y-125177213D01*
X118304823Y-125287768D01*
X118253940Y-125410610D01*
X118228000Y-125541018D01*
X118228000Y-125673982D01*
X118253940Y-125804390D01*
X118304823Y-125927232D01*
X118378693Y-126037787D01*
X118472713Y-126131807D01*
X118583268Y-126205677D01*
X118706110Y-126256560D01*
X118836518Y-126282500D01*
X118969482Y-126282500D01*
X119099890Y-126256560D01*
X119222732Y-126205677D01*
X119333287Y-126131807D01*
X119427307Y-126037787D01*
X119501177Y-125927232D01*
X119552060Y-125804390D01*
X119578000Y-125673982D01*
X119578000Y-125541018D01*
X119565028Y-125475802D01*
X119886140Y-125154690D01*
X119900448Y-125142948D01*
X119947309Y-125085847D01*
X119982131Y-125020700D01*
X120003574Y-124950013D01*
X120009000Y-124894919D01*
X120009000Y-124894917D01*
X120010814Y-124876501D01*
X120009000Y-124858085D01*
X120009000Y-121171915D01*
X120010814Y-121153499D01*
X120009000Y-121135081D01*
X120003574Y-121079987D01*
X119982131Y-121009300D01*
X119976161Y-120998130D01*
X119947309Y-120944153D01*
X119934208Y-120928189D01*
X119900448Y-120887052D01*
X119886139Y-120875309D01*
X119427830Y-120417000D01*
X119482136Y-120417000D01*
X119682482Y-120377149D01*
X119871204Y-120298978D01*
X120041049Y-120185491D01*
X120185491Y-120041049D01*
X120298978Y-119871204D01*
X120377149Y-119682482D01*
X120417000Y-119482136D01*
X120417000Y-119277864D01*
X120377149Y-119077518D01*
X120298978Y-118888796D01*
X120185491Y-118718951D01*
X120041049Y-118574509D01*
X119871204Y-118461022D01*
X119682482Y-118382851D01*
X119482136Y-118343000D01*
X119277864Y-118343000D01*
X119077518Y-118382851D01*
X118888796Y-118461022D01*
X118718951Y-118574509D01*
X118574509Y-118718951D01*
X118461022Y-118888796D01*
X118382851Y-119077518D01*
X118343000Y-119277864D01*
X118343000Y-119332170D01*
X114155295Y-115144466D01*
X114143548Y-115130152D01*
X114086447Y-115083291D01*
X114021300Y-115048469D01*
X113950613Y-115027026D01*
X113895519Y-115021600D01*
X113895516Y-115021600D01*
X113877100Y-115019786D01*
X113858684Y-115021600D01*
X111132748Y-115021600D01*
X111095807Y-114966313D01*
X111001787Y-114872293D01*
X110891232Y-114798423D01*
X110768390Y-114747540D01*
X110637982Y-114721600D01*
X110505018Y-114721600D01*
X110374610Y-114747540D01*
X110251768Y-114798423D01*
X110141213Y-114872293D01*
X110047193Y-114966313D01*
X109973323Y-115076868D01*
X109922440Y-115199710D01*
X109896500Y-115330118D01*
X92400000Y-115330118D01*
X92400000Y-114233518D01*
X104855000Y-114233518D01*
X104855000Y-114366482D01*
X104880940Y-114496890D01*
X104931823Y-114619732D01*
X105005693Y-114730287D01*
X105099713Y-114824307D01*
X105210268Y-114898177D01*
X105333110Y-114949060D01*
X105463518Y-114975000D01*
X105596482Y-114975000D01*
X105726890Y-114949060D01*
X105849732Y-114898177D01*
X105960287Y-114824307D01*
X106054307Y-114730287D01*
X106128177Y-114619732D01*
X106179060Y-114496890D01*
X106205000Y-114366482D01*
X106205000Y-114233518D01*
X107155000Y-114233518D01*
X107155000Y-114366482D01*
X107180940Y-114496890D01*
X107231823Y-114619732D01*
X107305693Y-114730287D01*
X107399713Y-114824307D01*
X107510268Y-114898177D01*
X107633110Y-114949060D01*
X107763518Y-114975000D01*
X107896482Y-114975000D01*
X108026890Y-114949060D01*
X108149732Y-114898177D01*
X108260287Y-114824307D01*
X108354307Y-114730287D01*
X108428177Y-114619732D01*
X108479060Y-114496890D01*
X108505000Y-114366482D01*
X108505000Y-114233518D01*
X125175000Y-114233518D01*
X125175000Y-114366482D01*
X125200940Y-114496890D01*
X125251823Y-114619732D01*
X125325693Y-114730287D01*
X125419713Y-114824307D01*
X125530268Y-114898177D01*
X125653110Y-114949060D01*
X125783518Y-114975000D01*
X125916482Y-114975000D01*
X126046890Y-114949060D01*
X126169732Y-114898177D01*
X126280287Y-114824307D01*
X126374307Y-114730287D01*
X126448177Y-114619732D01*
X126499060Y-114496890D01*
X126525000Y-114366482D01*
X126525000Y-114233518D01*
X127475000Y-114233518D01*
X127475000Y-114366482D01*
X127500940Y-114496890D01*
X127551823Y-114619732D01*
X127625693Y-114730287D01*
X127719713Y-114824307D01*
X127830268Y-114898177D01*
X127953110Y-114949060D01*
X128083518Y-114975000D01*
X128216482Y-114975000D01*
X128346890Y-114949060D01*
X128469732Y-114898177D01*
X128580287Y-114824307D01*
X128674307Y-114730287D01*
X128748177Y-114619732D01*
X128799060Y-114496890D01*
X128825000Y-114366482D01*
X128825000Y-114233518D01*
X145495000Y-114233518D01*
X145495000Y-114366482D01*
X145520940Y-114496890D01*
X145571823Y-114619732D01*
X145645693Y-114730287D01*
X145739713Y-114824307D01*
X145850268Y-114898177D01*
X145973110Y-114949060D01*
X146103518Y-114975000D01*
X146236482Y-114975000D01*
X146366890Y-114949060D01*
X146489732Y-114898177D01*
X146600287Y-114824307D01*
X146694307Y-114730287D01*
X146768177Y-114619732D01*
X146819060Y-114496890D01*
X146845000Y-114366482D01*
X146845000Y-114233518D01*
X147795000Y-114233518D01*
X147795000Y-114366482D01*
X147820940Y-114496890D01*
X147871823Y-114619732D01*
X147945693Y-114730287D01*
X148039713Y-114824307D01*
X148150268Y-114898177D01*
X148273110Y-114949060D01*
X148403518Y-114975000D01*
X148536482Y-114975000D01*
X148666890Y-114949060D01*
X148789732Y-114898177D01*
X148900287Y-114824307D01*
X148994307Y-114730287D01*
X149043129Y-114657218D01*
X157746700Y-114657218D01*
X157746700Y-114790182D01*
X157772640Y-114920590D01*
X157823523Y-115043432D01*
X157897393Y-115153987D01*
X157991413Y-115248007D01*
X158101968Y-115321877D01*
X158224810Y-115372760D01*
X158355218Y-115398700D01*
X158488182Y-115398700D01*
X158618590Y-115372760D01*
X158741432Y-115321877D01*
X158851987Y-115248007D01*
X158946007Y-115153987D01*
X159019877Y-115043432D01*
X159070760Y-114920590D01*
X159096700Y-114790182D01*
X159096700Y-114657218D01*
X159070760Y-114526810D01*
X159019877Y-114403968D01*
X158946007Y-114293413D01*
X158851987Y-114199393D01*
X158741432Y-114125523D01*
X158618590Y-114074640D01*
X158488182Y-114048700D01*
X158355218Y-114048700D01*
X158224810Y-114074640D01*
X158101968Y-114125523D01*
X157991413Y-114199393D01*
X157897393Y-114293413D01*
X157823523Y-114403968D01*
X157772640Y-114526810D01*
X157746700Y-114657218D01*
X149043129Y-114657218D01*
X149068177Y-114619732D01*
X149119060Y-114496890D01*
X149145000Y-114366482D01*
X149145000Y-114233518D01*
X149119060Y-114103110D01*
X149068177Y-113980268D01*
X148994307Y-113869713D01*
X148900287Y-113775693D01*
X148789732Y-113701823D01*
X148666890Y-113650940D01*
X148536482Y-113625000D01*
X148403518Y-113625000D01*
X148273110Y-113650940D01*
X148150268Y-113701823D01*
X148039713Y-113775693D01*
X147945693Y-113869713D01*
X147871823Y-113980268D01*
X147820940Y-114103110D01*
X147795000Y-114233518D01*
X146845000Y-114233518D01*
X146819060Y-114103110D01*
X146768177Y-113980268D01*
X146694307Y-113869713D01*
X146600287Y-113775693D01*
X146489732Y-113701823D01*
X146366890Y-113650940D01*
X146236482Y-113625000D01*
X146103518Y-113625000D01*
X145973110Y-113650940D01*
X145850268Y-113701823D01*
X145739713Y-113775693D01*
X145645693Y-113869713D01*
X145571823Y-113980268D01*
X145520940Y-114103110D01*
X145495000Y-114233518D01*
X128825000Y-114233518D01*
X128799060Y-114103110D01*
X128748177Y-113980268D01*
X128674307Y-113869713D01*
X128580287Y-113775693D01*
X128469732Y-113701823D01*
X128346890Y-113650940D01*
X128216482Y-113625000D01*
X128083518Y-113625000D01*
X127953110Y-113650940D01*
X127830268Y-113701823D01*
X127719713Y-113775693D01*
X127625693Y-113869713D01*
X127551823Y-113980268D01*
X127500940Y-114103110D01*
X127475000Y-114233518D01*
X126525000Y-114233518D01*
X126499060Y-114103110D01*
X126448177Y-113980268D01*
X126374307Y-113869713D01*
X126280287Y-113775693D01*
X126169732Y-113701823D01*
X126046890Y-113650940D01*
X125916482Y-113625000D01*
X125783518Y-113625000D01*
X125653110Y-113650940D01*
X125530268Y-113701823D01*
X125419713Y-113775693D01*
X125325693Y-113869713D01*
X125251823Y-113980268D01*
X125200940Y-114103110D01*
X125175000Y-114233518D01*
X108505000Y-114233518D01*
X108479060Y-114103110D01*
X108428177Y-113980268D01*
X108354307Y-113869713D01*
X108260287Y-113775693D01*
X108149732Y-113701823D01*
X108026890Y-113650940D01*
X107896482Y-113625000D01*
X107763518Y-113625000D01*
X107633110Y-113650940D01*
X107510268Y-113701823D01*
X107399713Y-113775693D01*
X107305693Y-113869713D01*
X107231823Y-113980268D01*
X107180940Y-114103110D01*
X107155000Y-114233518D01*
X106205000Y-114233518D01*
X106179060Y-114103110D01*
X106128177Y-113980268D01*
X106054307Y-113869713D01*
X105960287Y-113775693D01*
X105849732Y-113701823D01*
X105726890Y-113650940D01*
X105596482Y-113625000D01*
X105463518Y-113625000D01*
X105333110Y-113650940D01*
X105210268Y-113701823D01*
X105099713Y-113775693D01*
X105005693Y-113869713D01*
X104931823Y-113980268D01*
X104880940Y-114103110D01*
X104855000Y-114233518D01*
X92400000Y-114233518D01*
X92400000Y-113355000D01*
X160233026Y-113355000D01*
X160272223Y-113727931D01*
G37*
X160272223Y-113727931D02*
X160278150Y-113756805D01*
X160283666Y-113785719D01*
X160284977Y-113790064D01*
X160475542Y-114405681D01*
X160486966Y-114432856D01*
X160497992Y-114460147D01*
X160500122Y-114464154D01*
X160806632Y-115031033D01*
X160823109Y-115055460D01*
X160839233Y-115080101D01*
X160842101Y-115083618D01*
X161252881Y-115580166D01*
X161273791Y-115600930D01*
X161294392Y-115621967D01*
X161297889Y-115624860D01*
X161797291Y-116032163D01*
X161821836Y-116048470D01*
X161846131Y-116065105D01*
X161850123Y-116067264D01*
X162419128Y-116369809D01*
X162446310Y-116381012D01*
X162473435Y-116392638D01*
X162477771Y-116393980D01*
X163094703Y-116580243D01*
X163123593Y-116585963D01*
X163152410Y-116592088D01*
X163156924Y-116592563D01*
X163505000Y-116626692D01*
X163505001Y-140040116D01*
X163157606Y-140076629D01*
X163128758Y-140082551D01*
X163099818Y-140088072D01*
X163095474Y-140089383D01*
X162503533Y-140272618D01*
X162476382Y-140284031D01*
X162449066Y-140295068D01*
X162445059Y-140297199D01*
X161899985Y-140591920D01*
X161875565Y-140608392D01*
X161850917Y-140624521D01*
X161847400Y-140627389D01*
X161369951Y-141022369D01*
X161349222Y-141043244D01*
X161328149Y-141063880D01*
X161325256Y-141067377D01*
X160933618Y-141547573D01*
X160917307Y-141572122D01*
X160900676Y-141596412D01*
X160898517Y-141600404D01*
X160607608Y-142147524D01*
X160596399Y-142174719D01*
X160584779Y-142201832D01*
X160583437Y-142206167D01*
X160404338Y-142799371D01*
X160398615Y-142828276D01*
X160392493Y-142857079D01*
X160392018Y-142861592D01*
X160360308Y-143185000D01*
X92400000Y-143185000D01*
X92400000Y-141629999D01*
X123648670Y-141629999D01*
X123648670Y-141630001D01*
X123662626Y-141771701D01*
X123703959Y-141907955D01*
X123771079Y-142033528D01*
X123861407Y-142143594D01*
X123971473Y-142233922D01*
X124097046Y-142301042D01*
X124233300Y-142342375D01*
X124375000Y-142356331D01*
X125625000Y-142356331D01*
X125766700Y-142342375D01*
X125902954Y-142301042D01*
X126028527Y-142233922D01*
X126138593Y-142143594D01*
X126228921Y-142033528D01*
X126296041Y-141907955D01*
X126337374Y-141771701D01*
X126351330Y-141630001D01*
X126351330Y-141629999D01*
X126337374Y-141488299D01*
X126296041Y-141352045D01*
X126228921Y-141226472D01*
X126138593Y-141116406D01*
X126028527Y-141026078D01*
X125902954Y-140958958D01*
X125766700Y-140917625D01*
X125625000Y-140903669D01*
X125071176Y-140903669D01*
X125098414Y-140885469D01*
X125185469Y-140798414D01*
X125253868Y-140696048D01*
X125300981Y-140582306D01*
X125325000Y-140461557D01*
X125325000Y-140338443D01*
X125300981Y-140217694D01*
X125253868Y-140103952D01*
X125185469Y-140001586D01*
X125098414Y-139914531D01*
X124996048Y-139846132D01*
X124882306Y-139799019D01*
X124761557Y-139775000D01*
X124638443Y-139775000D01*
X124517694Y-139799019D01*
X124403952Y-139846132D01*
X124301586Y-139914531D01*
X124214531Y-140001586D01*
X124146132Y-140103952D01*
X124141902Y-140114164D01*
X123856066Y-140400000D01*
X124141902Y-140685836D01*
X124146132Y-140696048D01*
X124214531Y-140798414D01*
X124301586Y-140885469D01*
X124334756Y-140907633D01*
X124233300Y-140917625D01*
X124097046Y-140958958D01*
X123971473Y-141026078D01*
X123861407Y-141116406D01*
X123771079Y-141226472D01*
X123703959Y-141352045D01*
X123662626Y-141488299D01*
X123648670Y-141629999D01*
X92400000Y-141629999D01*
X92400000Y-140844927D01*
X123411139Y-140844927D01*
X123444174Y-140948530D01*
X123557064Y-140997654D01*
X123677367Y-141023811D01*
X123800462Y-141025995D01*
X123921618Y-141004122D01*
X124036179Y-140959033D01*
X124055826Y-140948530D01*
X124088861Y-140844927D01*
X123750000Y-140506066D01*
X123411139Y-140844927D01*
X92400000Y-140844927D01*
X92400000Y-140450462D01*
X123124005Y-140450462D01*
X123145878Y-140571618D01*
X123190967Y-140686179D01*
X123201470Y-140705826D01*
X123305073Y-140738861D01*
X123643934Y-140400000D01*
X123305073Y-140061139D01*
X123201470Y-140094174D01*
X123152346Y-140207064D01*
X123126189Y-140327367D01*
X123124005Y-140450462D01*
X92400000Y-140450462D01*
X92400000Y-138245329D01*
X95280000Y-138245329D01*
X95280000Y-138614671D01*
X95352056Y-138976917D01*
X95493397Y-139318145D01*
X95698593Y-139625243D01*
X95959757Y-139886407D01*
X96266855Y-140091603D01*
X96608083Y-140232944D01*
X96970329Y-140305000D01*
X97339671Y-140305000D01*
X97701917Y-140232944D01*
X98043145Y-140091603D01*
X98247476Y-139955073D01*
X123411139Y-139955073D01*
X123750000Y-140293934D01*
X124088861Y-139955073D01*
X124055826Y-139851470D01*
X123942936Y-139802346D01*
X123822633Y-139776189D01*
X123699538Y-139774005D01*
X123578382Y-139795878D01*
X123463821Y-139840967D01*
X123444174Y-139851470D01*
X123411139Y-139955073D01*
X98247476Y-139955073D01*
X98350243Y-139886407D01*
X98611407Y-139625243D01*
X98731890Y-139444927D01*
X123411139Y-139444927D01*
X123444174Y-139548530D01*
X123557064Y-139597654D01*
X123677367Y-139623811D01*
X123800462Y-139625995D01*
X123921618Y-139604122D01*
X124036179Y-139559033D01*
X124055826Y-139548530D01*
X124088861Y-139444927D01*
X123750000Y-139106066D01*
X123411139Y-139444927D01*
X98731890Y-139444927D01*
X98816603Y-139318145D01*
X98927480Y-139050462D01*
X123124005Y-139050462D01*
X123145878Y-139171618D01*
X123190967Y-139286179D01*
X123201470Y-139305826D01*
X123305073Y-139338861D01*
X123643934Y-139000000D01*
X123305073Y-138661139D01*
X123201470Y-138694174D01*
X123152346Y-138807064D01*
X123126189Y-138927367D01*
X123124005Y-139050462D01*
X98927480Y-139050462D01*
X98957944Y-138976917D01*
X99030000Y-138614671D01*
X99030000Y-138555073D01*
X123411139Y-138555073D01*
X123750000Y-138893934D01*
X124088861Y-138555073D01*
X124055826Y-138451470D01*
X123942936Y-138402346D01*
X123822633Y-138376189D01*
X123699538Y-138374005D01*
X123578382Y-138395878D01*
X123463821Y-138440967D01*
X123444174Y-138451470D01*
X123411139Y-138555073D01*
X99030000Y-138555073D01*
X99030000Y-138245329D01*
X98957944Y-137883083D01*
X98911104Y-137769999D01*
X123648670Y-137769999D01*
X123648670Y-137770001D01*
X123662626Y-137911701D01*
X123703959Y-138047955D01*
X123771079Y-138173528D01*
X123861407Y-138283594D01*
X123971473Y-138373922D01*
X124097046Y-138441042D01*
X124233300Y-138482375D01*
X124334756Y-138492367D01*
X124301586Y-138514531D01*
X124214531Y-138601586D01*
X124146132Y-138703952D01*
X124141902Y-138714164D01*
X123856066Y-139000000D01*
X124141902Y-139285836D01*
X124146132Y-139296048D01*
X124214531Y-139398414D01*
X124301586Y-139485469D01*
X124403952Y-139553868D01*
X124517694Y-139600981D01*
X124638443Y-139625000D01*
X124761557Y-139625000D01*
X124882306Y-139600981D01*
X124996048Y-139553868D01*
X125098414Y-139485469D01*
X125175000Y-139408883D01*
X125251586Y-139485469D01*
X125353952Y-139553868D01*
X125467694Y-139600981D01*
X125588443Y-139625000D01*
X125711557Y-139625000D01*
X125832306Y-139600981D01*
X125946048Y-139553868D01*
X126048414Y-139485469D01*
X126100000Y-139433883D01*
X126151586Y-139485469D01*
X126253952Y-139553868D01*
X126367694Y-139600981D01*
X126371386Y-139601715D01*
X126544671Y-139775000D01*
X126488443Y-139775000D01*
X126367694Y-139799019D01*
X126253952Y-139846132D01*
X126151586Y-139914531D01*
X126064531Y-140001586D01*
X125996132Y-140103952D01*
X125949019Y-140217694D01*
X125925000Y-140338443D01*
X125925000Y-140461557D01*
X125949019Y-140582306D01*
X125996132Y-140696048D01*
X126064531Y-140798414D01*
X126151586Y-140885469D01*
X126253952Y-140953868D01*
X126367694Y-141000981D01*
X126488443Y-141025000D01*
X126611557Y-141025000D01*
X126732306Y-141000981D01*
X126846048Y-140953868D01*
X126948414Y-140885469D01*
X127000000Y-140833883D01*
X127051586Y-140885469D01*
X127153952Y-140953868D01*
X127267694Y-141000981D01*
X127388443Y-141025000D01*
X127511557Y-141025000D01*
X127632306Y-141000981D01*
X127746048Y-140953868D01*
X127848414Y-140885469D01*
X127900000Y-140833883D01*
X127951586Y-140885469D01*
X128053952Y-140953868D01*
X128083596Y-140966147D01*
X127971473Y-141026078D01*
X127861407Y-141116406D01*
X127771079Y-141226472D01*
X127703959Y-141352045D01*
X127662626Y-141488299D01*
X127648670Y-141629999D01*
X127648670Y-141630001D01*
X127662626Y-141771701D01*
X127703959Y-141907955D01*
X127771079Y-142033528D01*
X127861407Y-142143594D01*
X127971473Y-142233922D01*
X128097046Y-142301042D01*
X128233300Y-142342375D01*
X128375000Y-142356331D01*
X129625000Y-142356331D01*
X129766700Y-142342375D01*
X129902954Y-142301042D01*
X130028527Y-142233922D01*
X130138593Y-142143594D01*
X130228921Y-142033528D01*
X130265326Y-141965418D01*
X148509600Y-141965418D01*
X148509600Y-142098382D01*
X148535540Y-142228790D01*
X148586423Y-142351632D01*
X148660293Y-142462187D01*
X148754313Y-142556207D01*
X148864868Y-142630077D01*
X148987710Y-142680960D01*
X149118118Y-142706900D01*
X149251082Y-142706900D01*
X149381490Y-142680960D01*
X149504332Y-142630077D01*
X149614887Y-142556207D01*
X149708907Y-142462187D01*
X149782777Y-142351632D01*
X149833660Y-142228790D01*
X149859600Y-142098382D01*
X149859600Y-141965418D01*
X149833660Y-141835010D01*
X149782777Y-141712168D01*
X149708907Y-141601613D01*
X149614887Y-141507593D01*
X149504332Y-141433723D01*
X149381490Y-141382840D01*
X149251082Y-141356900D01*
X149118118Y-141356900D01*
X148987710Y-141382840D01*
X148864868Y-141433723D01*
X148754313Y-141507593D01*
X148660293Y-141601613D01*
X148586423Y-141712168D01*
X148535540Y-141835010D01*
X148509600Y-141965418D01*
X130265326Y-141965418D01*
X130296041Y-141907955D01*
X130337374Y-141771701D01*
X130351330Y-141630001D01*
X130351330Y-141629999D01*
X130337374Y-141488299D01*
X130296041Y-141352045D01*
X130228921Y-141226472D01*
X130138593Y-141116406D01*
X130028527Y-141026078D01*
X129902954Y-140958958D01*
X129766700Y-140917625D01*
X129665244Y-140907633D01*
X129698414Y-140885469D01*
X129738956Y-140844927D01*
X129911139Y-140844927D01*
X129944174Y-140948530D01*
X130057064Y-140997654D01*
X130177367Y-141023811D01*
X130300462Y-141025995D01*
X130421618Y-141004122D01*
X130536179Y-140959033D01*
X130555826Y-140948530D01*
X130588861Y-140844927D01*
X130250000Y-140506066D01*
X129911139Y-140844927D01*
X129738956Y-140844927D01*
X129785469Y-140798414D01*
X129853868Y-140696048D01*
X129858098Y-140685836D01*
X130143934Y-140400000D01*
X130356066Y-140400000D01*
X130694927Y-140738861D01*
X130798530Y-140705826D01*
X130847654Y-140592936D01*
X130873811Y-140472633D01*
X130875995Y-140349538D01*
X130854122Y-140228382D01*
X130809033Y-140113821D01*
X130798530Y-140094174D01*
X130694927Y-140061139D01*
X130356066Y-140400000D01*
X130143934Y-140400000D01*
X129858098Y-140114164D01*
X129853868Y-140103952D01*
X129785469Y-140001586D01*
X129738956Y-139955073D01*
X129911139Y-139955073D01*
X130250000Y-140293934D01*
X130588861Y-139955073D01*
X130555826Y-139851470D01*
X130442936Y-139802346D01*
X130322633Y-139776189D01*
X130199538Y-139774005D01*
X130078382Y-139795878D01*
X129963821Y-139840967D01*
X129944174Y-139851470D01*
X129911139Y-139955073D01*
X129738956Y-139955073D01*
X129698414Y-139914531D01*
X129596048Y-139846132D01*
X129482306Y-139799019D01*
X129361557Y-139775000D01*
X129238443Y-139775000D01*
X129117694Y-139799019D01*
X129003952Y-139846132D01*
X128901586Y-139914531D01*
X128825000Y-139991117D01*
X128748414Y-139914531D01*
X128646048Y-139846132D01*
X128532306Y-139799019D01*
X128411557Y-139775000D01*
X128288443Y-139775000D01*
X128167694Y-139799019D01*
X128053952Y-139846132D01*
X127951586Y-139914531D01*
X127900000Y-139966117D01*
X127848414Y-139914531D01*
X127746048Y-139846132D01*
X127632306Y-139799019D01*
X127628615Y-139798285D01*
X127455330Y-139625000D01*
X127511557Y-139625000D01*
X127632306Y-139600981D01*
X127746048Y-139553868D01*
X127848414Y-139485469D01*
X127935469Y-139398414D01*
X128003868Y-139296048D01*
X128050981Y-139182306D01*
X128075000Y-139061557D01*
X128075000Y-138938443D01*
X128050981Y-138817694D01*
X128003868Y-138703952D01*
X127935469Y-138601586D01*
X127848414Y-138514531D01*
X127746048Y-138446132D01*
X127632306Y-138399019D01*
X127511557Y-138375000D01*
X127388443Y-138375000D01*
X127267694Y-138399019D01*
X127153952Y-138446132D01*
X127051586Y-138514531D01*
X127000000Y-138566117D01*
X126948414Y-138514531D01*
X126846048Y-138446132D01*
X126732306Y-138399019D01*
X126611557Y-138375000D01*
X126488443Y-138375000D01*
X126367694Y-138399019D01*
X126253952Y-138446132D01*
X126151586Y-138514531D01*
X126100000Y-138566117D01*
X126048414Y-138514531D01*
X125946048Y-138446132D01*
X125916404Y-138433853D01*
X126028527Y-138373922D01*
X126138593Y-138283594D01*
X126228921Y-138173528D01*
X126296041Y-138047955D01*
X126337374Y-137911701D01*
X126351330Y-137770001D01*
X126351330Y-137769999D01*
X127648670Y-137769999D01*
X127648670Y-137770001D01*
X127662626Y-137911701D01*
X127703959Y-138047955D01*
X127771079Y-138173528D01*
X127861407Y-138283594D01*
X127971473Y-138373922D01*
X128097046Y-138441042D01*
X128233300Y-138482375D01*
X128375000Y-138496331D01*
X128928824Y-138496331D01*
X128901586Y-138514531D01*
X128814531Y-138601586D01*
X128746132Y-138703952D01*
X128699019Y-138817694D01*
X128675000Y-138938443D01*
X128675000Y-139061557D01*
X128699019Y-139182306D01*
X128746132Y-139296048D01*
X128814531Y-139398414D01*
X128901586Y-139485469D01*
X129003952Y-139553868D01*
X129117694Y-139600981D01*
X129238443Y-139625000D01*
X129361557Y-139625000D01*
X129482306Y-139600981D01*
X129596048Y-139553868D01*
X129698414Y-139485469D01*
X129738956Y-139444927D01*
X129911139Y-139444927D01*
X129944174Y-139548530D01*
X130057064Y-139597654D01*
X130177367Y-139623811D01*
X130300462Y-139625995D01*
X130421618Y-139604122D01*
X130536179Y-139559033D01*
X130555826Y-139548530D01*
X130588861Y-139444927D01*
X130250000Y-139106066D01*
X129911139Y-139444927D01*
X129738956Y-139444927D01*
X129785469Y-139398414D01*
X129853868Y-139296048D01*
X129858098Y-139285836D01*
X130143934Y-139000000D01*
X130356066Y-139000000D01*
X130694927Y-139338861D01*
X130798530Y-139305826D01*
X130847654Y-139192936D01*
X130873811Y-139072633D01*
X130875995Y-138949538D01*
X130854122Y-138828382D01*
X130809033Y-138713821D01*
X130798530Y-138694174D01*
X130694927Y-138661139D01*
X130356066Y-139000000D01*
X130143934Y-139000000D01*
X129858098Y-138714164D01*
X129853868Y-138703952D01*
X129785469Y-138601586D01*
X129738956Y-138555073D01*
X129911139Y-138555073D01*
X130250000Y-138893934D01*
X130588861Y-138555073D01*
X130555826Y-138451470D01*
X130442936Y-138402346D01*
X130322633Y-138376189D01*
X130199538Y-138374005D01*
X130078382Y-138395878D01*
X129963821Y-138440967D01*
X129944174Y-138451470D01*
X129911139Y-138555073D01*
X129738956Y-138555073D01*
X129698414Y-138514531D01*
X129665244Y-138492367D01*
X129766700Y-138482375D01*
X129902954Y-138441042D01*
X130028527Y-138373922D01*
X130138593Y-138283594D01*
X130228921Y-138173528D01*
X130296041Y-138047955D01*
X130337374Y-137911701D01*
X130351330Y-137770001D01*
X130351330Y-137769999D01*
X130337374Y-137628299D01*
X130329250Y-137601518D01*
X134199000Y-137601518D01*
X134199000Y-137734482D01*
X134224940Y-137864890D01*
X134275823Y-137987732D01*
X134349693Y-138098287D01*
X134443713Y-138192307D01*
X134554268Y-138266177D01*
X134677110Y-138317060D01*
X134807518Y-138343000D01*
X134940482Y-138343000D01*
X135070890Y-138317060D01*
X135193732Y-138266177D01*
X135304287Y-138192307D01*
X135398307Y-138098287D01*
X135472177Y-137987732D01*
X135523060Y-137864890D01*
X135549000Y-137734482D01*
X135549000Y-137601518D01*
X135523060Y-137471110D01*
X135472177Y-137348268D01*
X135398307Y-137237713D01*
X135304287Y-137143693D01*
X135193732Y-137069823D01*
X135070890Y-137018940D01*
X134940482Y-136993000D01*
X134807518Y-136993000D01*
X134677110Y-137018940D01*
X134554268Y-137069823D01*
X134443713Y-137143693D01*
X134349693Y-137237713D01*
X134275823Y-137348268D01*
X134224940Y-137471110D01*
X134199000Y-137601518D01*
X130329250Y-137601518D01*
X130296041Y-137492045D01*
X130228921Y-137366472D01*
X130138593Y-137256406D01*
X130028527Y-137166078D01*
X129902954Y-137098958D01*
X129766700Y-137057625D01*
X129625000Y-137043669D01*
X128375000Y-137043669D01*
X128233300Y-137057625D01*
X128097046Y-137098958D01*
X127971473Y-137166078D01*
X127861407Y-137256406D01*
X127771079Y-137366472D01*
X127703959Y-137492045D01*
X127662626Y-137628299D01*
X127648670Y-137769999D01*
X126351330Y-137769999D01*
X126337374Y-137628299D01*
X126296041Y-137492045D01*
X126228921Y-137366472D01*
X126138593Y-137256406D01*
X126028527Y-137166078D01*
X125902954Y-137098958D01*
X125766700Y-137057625D01*
X125625000Y-137043669D01*
X124375000Y-137043669D01*
X124233300Y-137057625D01*
X124097046Y-137098958D01*
X123971473Y-137166078D01*
X123861407Y-137256406D01*
X123771079Y-137366472D01*
X123703959Y-137492045D01*
X123662626Y-137628299D01*
X123648670Y-137769999D01*
X98911104Y-137769999D01*
X98816603Y-137541855D01*
X98611407Y-137234757D01*
X98350243Y-136973593D01*
X98043145Y-136768397D01*
X97701917Y-136627056D01*
X97339671Y-136555000D01*
X96970329Y-136555000D01*
X96608083Y-136627056D01*
X96266855Y-136768397D01*
X95959757Y-136973593D01*
X95698593Y-137234757D01*
X95493397Y-137541855D01*
X95352056Y-137883083D01*
X95280000Y-138245329D01*
X92400000Y-138245329D01*
X92400000Y-128943718D01*
X105176600Y-128943718D01*
X105176600Y-129076682D01*
X105202540Y-129207090D01*
X105253423Y-129329932D01*
X105327293Y-129440487D01*
X105421313Y-129534507D01*
X105531868Y-129608377D01*
X105654710Y-129659260D01*
X105785118Y-129685200D01*
X105918082Y-129685200D01*
X106048490Y-129659260D01*
X106171332Y-129608377D01*
X106281887Y-129534507D01*
X106375907Y-129440487D01*
X106412848Y-129385200D01*
X116154871Y-129385200D01*
X117628472Y-130858801D01*
X117599600Y-130843369D01*
X117528913Y-130821926D01*
X117473819Y-130816500D01*
X117473816Y-130816500D01*
X117455400Y-130814686D01*
X117436984Y-130816500D01*
X115081148Y-130816500D01*
X115044207Y-130761213D01*
X114950187Y-130667193D01*
X114839632Y-130593323D01*
X114716790Y-130542440D01*
X114586382Y-130516500D01*
X114453418Y-130516500D01*
X114323010Y-130542440D01*
X114200168Y-130593323D01*
X114089613Y-130667193D01*
X113995593Y-130761213D01*
X113921723Y-130871768D01*
X113870840Y-130994610D01*
X113844900Y-131125018D01*
X113844900Y-131257982D01*
X113870840Y-131388390D01*
X113921723Y-131511232D01*
X113995593Y-131621787D01*
X114089613Y-131715807D01*
X114200168Y-131789677D01*
X114323010Y-131840560D01*
X114453418Y-131866500D01*
X114586382Y-131866500D01*
X114716790Y-131840560D01*
X114839632Y-131789677D01*
X114950187Y-131715807D01*
X115044207Y-131621787D01*
X115081148Y-131566500D01*
X117300071Y-131566500D01*
X119316570Y-133583000D01*
X119277864Y-133583000D01*
X119077518Y-133622851D01*
X118888796Y-133701022D01*
X118718951Y-133814509D01*
X118574509Y-133958951D01*
X118461022Y-134128796D01*
X118412889Y-134245000D01*
X110163030Y-134245000D01*
X106807328Y-130889298D01*
X106820300Y-130824082D01*
X106820300Y-130691118D01*
X106794360Y-130560710D01*
X106743477Y-130437868D01*
X106669607Y-130327313D01*
X106575587Y-130233293D01*
X106465032Y-130159423D01*
X106342190Y-130108540D01*
X106211782Y-130082600D01*
X106078818Y-130082600D01*
X105948410Y-130108540D01*
X105825568Y-130159423D01*
X105715013Y-130233293D01*
X105620993Y-130327313D01*
X105547123Y-130437868D01*
X105496240Y-130560710D01*
X105470300Y-130691118D01*
X105470300Y-130824082D01*
X105496240Y-130954490D01*
X105547123Y-131077332D01*
X105620993Y-131187887D01*
X105715013Y-131281907D01*
X105825568Y-131355777D01*
X105948410Y-131406660D01*
X106078818Y-131432600D01*
X106211782Y-131432600D01*
X106276998Y-131419628D01*
X109729509Y-134872139D01*
X109741252Y-134886448D01*
X109771466Y-134911243D01*
X109798352Y-134933309D01*
X109849433Y-134960612D01*
X109863500Y-134968131D01*
X109934187Y-134989574D01*
X109989281Y-134995000D01*
X109989283Y-134995000D01*
X110007699Y-134996814D01*
X110026115Y-134995000D01*
X118412889Y-134995000D01*
X118461022Y-135111204D01*
X118574509Y-135281049D01*
X118718951Y-135425491D01*
X118888796Y-135538978D01*
X119077518Y-135617149D01*
X119277864Y-135657000D01*
X119482136Y-135657000D01*
X119682482Y-135617149D01*
X119871204Y-135538978D01*
X120041049Y-135425491D01*
X120185491Y-135281049D01*
X120298978Y-135111204D01*
X120318887Y-135063138D01*
X120336691Y-135096446D01*
X120383552Y-135153548D01*
X120397866Y-135165295D01*
X121247709Y-136015139D01*
X121259452Y-136029448D01*
X121273759Y-136041189D01*
X121316553Y-136076310D01*
X121361007Y-136100070D01*
X121381700Y-136111131D01*
X121452387Y-136132574D01*
X121507481Y-136138000D01*
X121507484Y-136138000D01*
X121525900Y-136139814D01*
X121544316Y-136138000D01*
X130918584Y-136138000D01*
X130937000Y-136139814D01*
X130955416Y-136138000D01*
X130955419Y-136138000D01*
X131010513Y-136132574D01*
X131081200Y-136111131D01*
X131146347Y-136076309D01*
X131203448Y-136029448D01*
X131215195Y-136015134D01*
X131661314Y-135569016D01*
X131777518Y-135617149D01*
X131977864Y-135657000D01*
X132182136Y-135657000D01*
X132382482Y-135617149D01*
X132571204Y-135538978D01*
X132741049Y-135425491D01*
X132885491Y-135281049D01*
X132998978Y-135111204D01*
X133077149Y-134922482D01*
X133117000Y-134722136D01*
X133117000Y-134517864D01*
X133077149Y-134317518D01*
X132998978Y-134128796D01*
X132885491Y-133958951D01*
X132784540Y-133858000D01*
X133581670Y-133858000D01*
X133581670Y-135382000D01*
X133586980Y-135435909D01*
X133602704Y-135487747D01*
X133628240Y-135535521D01*
X133662605Y-135577395D01*
X133704479Y-135611760D01*
X133752253Y-135637296D01*
X133804091Y-135653020D01*
X133858000Y-135658330D01*
X135382000Y-135658330D01*
X135435909Y-135653020D01*
X135487747Y-135637296D01*
X135535521Y-135611760D01*
X135577395Y-135577395D01*
X135611760Y-135535521D01*
X135637296Y-135487747D01*
X135653020Y-135435909D01*
X135658330Y-135382000D01*
X135658330Y-133858000D01*
X135653020Y-133804091D01*
X135637296Y-133752253D01*
X135611760Y-133704479D01*
X135577395Y-133662605D01*
X135535521Y-133628240D01*
X135487747Y-133602704D01*
X135435909Y-133586980D01*
X135382000Y-133581670D01*
X133858000Y-133581670D01*
X133804091Y-133586980D01*
X133752253Y-133602704D01*
X133704479Y-133628240D01*
X133662605Y-133662605D01*
X133628240Y-133704479D01*
X133602704Y-133752253D01*
X133586980Y-133804091D01*
X133581670Y-133858000D01*
X132784540Y-133858000D01*
X132741049Y-133814509D01*
X132571204Y-133701022D01*
X132382482Y-133622851D01*
X132182136Y-133583000D01*
X131977864Y-133583000D01*
X131777518Y-133622851D01*
X131588796Y-133701022D01*
X131418951Y-133814509D01*
X131274509Y-133958951D01*
X131161022Y-134128796D01*
X131082851Y-134317518D01*
X131043000Y-134517864D01*
X131043000Y-134722136D01*
X131082851Y-134922482D01*
X131130984Y-135038686D01*
X130781671Y-135388000D01*
X130238540Y-135388000D01*
X130345491Y-135281049D01*
X130458978Y-135111204D01*
X130537149Y-134922482D01*
X130577000Y-134722136D01*
X130577000Y-134517864D01*
X130537149Y-134317518D01*
X130458978Y-134128796D01*
X130345491Y-133958951D01*
X130201049Y-133814509D01*
X130031204Y-133701022D01*
X129842482Y-133622851D01*
X129642136Y-133583000D01*
X129437864Y-133583000D01*
X129237518Y-133622851D01*
X129048796Y-133701022D01*
X128878951Y-133814509D01*
X128734509Y-133958951D01*
X128621022Y-134128796D01*
X128542851Y-134317518D01*
X128503000Y-134517864D01*
X128503000Y-134722136D01*
X128542851Y-134922482D01*
X128621022Y-135111204D01*
X128734509Y-135281049D01*
X128841460Y-135388000D01*
X127698540Y-135388000D01*
X127805491Y-135281049D01*
X127918978Y-135111204D01*
X127997149Y-134922482D01*
X128037000Y-134722136D01*
X128037000Y-134517864D01*
X127997149Y-134317518D01*
X127918978Y-134128796D01*
X127805491Y-133958951D01*
X127661049Y-133814509D01*
X127491204Y-133701022D01*
X127302482Y-133622851D01*
X127102136Y-133583000D01*
X126897864Y-133583000D01*
X126697518Y-133622851D01*
X126581314Y-133670984D01*
X126078113Y-133167784D01*
X126137968Y-133207777D01*
X126260810Y-133258660D01*
X126391218Y-133284600D01*
X126524182Y-133284600D01*
X126654590Y-133258660D01*
X126777432Y-133207777D01*
X126887987Y-133133907D01*
X126982007Y-133039887D01*
X127055877Y-132929332D01*
X127106760Y-132806490D01*
X127132700Y-132676082D01*
X127132700Y-132543118D01*
X127106760Y-132412710D01*
X127055877Y-132289868D01*
X126982007Y-132179313D01*
X126887987Y-132085293D01*
X126832700Y-132048352D01*
X126832700Y-130288610D01*
X139958186Y-130288610D01*
X139960001Y-130307036D01*
X139960000Y-134219084D01*
X139958186Y-134237500D01*
X139960000Y-134255916D01*
X139960000Y-134255918D01*
X139965426Y-134311012D01*
X139986869Y-134381699D01*
X140021691Y-134446846D01*
X140068552Y-134503948D01*
X140082866Y-134515695D01*
X140230472Y-134663302D01*
X140217500Y-134728518D01*
X140217500Y-134861482D01*
X140243440Y-134991890D01*
X140294323Y-135114732D01*
X140368193Y-135225287D01*
X140462213Y-135319307D01*
X140572768Y-135393177D01*
X140695610Y-135444060D01*
X140826018Y-135470000D01*
X140958982Y-135470000D01*
X141089390Y-135444060D01*
X141212232Y-135393177D01*
X141322787Y-135319307D01*
X141416807Y-135225287D01*
X141490677Y-135114732D01*
X141541560Y-134991890D01*
X141552176Y-134938518D01*
X142584000Y-134938518D01*
X142584000Y-135071482D01*
X142609940Y-135201890D01*
X142660823Y-135324732D01*
X142734693Y-135435287D01*
X142828713Y-135529307D01*
X142939268Y-135603177D01*
X143062110Y-135654060D01*
X143192518Y-135680000D01*
X143325482Y-135680000D01*
X143390698Y-135667028D01*
X144756555Y-137032885D01*
X144722890Y-137018940D01*
X144592482Y-136993000D01*
X144459518Y-136993000D01*
X144329110Y-137018940D01*
X144206268Y-137069823D01*
X144095713Y-137143693D01*
X144001693Y-137237713D01*
X143927823Y-137348268D01*
X143876940Y-137471110D01*
X143851000Y-137601518D01*
X143851000Y-137734482D01*
X143876940Y-137864890D01*
X143927823Y-137987732D01*
X144001693Y-138098287D01*
X144095713Y-138192307D01*
X144206268Y-138266177D01*
X144329110Y-138317060D01*
X144459518Y-138343000D01*
X144592482Y-138343000D01*
X144722890Y-138317060D01*
X144845732Y-138266177D01*
X144956287Y-138192307D01*
X145050307Y-138098287D01*
X145124177Y-137987732D01*
X145175060Y-137864890D01*
X145201000Y-137734482D01*
X145201000Y-137601518D01*
X145175060Y-137471110D01*
X145161116Y-137437445D01*
X145838709Y-138115039D01*
X145850452Y-138129348D01*
X145907553Y-138176209D01*
X145972700Y-138211031D01*
X146043387Y-138232474D01*
X146098481Y-138237900D01*
X146098484Y-138237900D01*
X146116900Y-138239714D01*
X146135316Y-138237900D01*
X149487752Y-138237900D01*
X149524693Y-138293187D01*
X149618713Y-138387207D01*
X149729268Y-138461077D01*
X149852110Y-138511960D01*
X149982518Y-138537900D01*
X150115482Y-138537900D01*
X150245890Y-138511960D01*
X150368732Y-138461077D01*
X150479287Y-138387207D01*
X150504952Y-138361542D01*
X150506426Y-138376512D01*
X150527869Y-138447199D01*
X150562691Y-138512346D01*
X150609552Y-138569448D01*
X150623866Y-138581195D01*
X153816409Y-141773739D01*
X153828152Y-141788048D01*
X153885253Y-141834909D01*
X153950400Y-141869731D01*
X154021087Y-141891174D01*
X154076181Y-141896600D01*
X154076184Y-141896600D01*
X154094600Y-141898414D01*
X154113016Y-141896600D01*
X154550452Y-141896600D01*
X154587393Y-141951887D01*
X154681413Y-142045907D01*
X154791968Y-142119777D01*
X154914810Y-142170660D01*
X155045218Y-142196600D01*
X155178182Y-142196600D01*
X155308590Y-142170660D01*
X155431432Y-142119777D01*
X155541987Y-142045907D01*
X155636007Y-141951887D01*
X155709877Y-141841332D01*
X155760760Y-141718490D01*
X155786700Y-141588082D01*
X155786700Y-141455118D01*
X155760760Y-141324710D01*
X155709877Y-141201868D01*
X155636007Y-141091313D01*
X155541987Y-140997293D01*
X155431432Y-140923423D01*
X155308590Y-140872540D01*
X155178182Y-140846600D01*
X155045218Y-140846600D01*
X154914810Y-140872540D01*
X154791968Y-140923423D01*
X154681413Y-140997293D01*
X154587393Y-141091313D01*
X154550452Y-141146600D01*
X154249930Y-141146600D01*
X151251000Y-138147671D01*
X151251000Y-137305416D01*
X151252814Y-137287000D01*
X151250620Y-137264723D01*
X151245574Y-137213487D01*
X151224131Y-137142800D01*
X151200697Y-137098958D01*
X151189310Y-137077653D01*
X151154189Y-137034859D01*
X151142448Y-137020552D01*
X151128139Y-137008809D01*
X147728695Y-133609366D01*
X147716948Y-133595052D01*
X147659847Y-133548191D01*
X147594700Y-133513369D01*
X147524013Y-133491926D01*
X147468919Y-133486500D01*
X147468916Y-133486500D01*
X147450500Y-133484686D01*
X147432084Y-133486500D01*
X145586348Y-133486500D01*
X145549407Y-133431213D01*
X145455387Y-133337193D01*
X145344832Y-133263323D01*
X145221990Y-133212440D01*
X145091582Y-133186500D01*
X144958618Y-133186500D01*
X144828210Y-133212440D01*
X144705368Y-133263323D01*
X144594813Y-133337193D01*
X144500793Y-133431213D01*
X144426923Y-133541768D01*
X144376040Y-133664610D01*
X144350100Y-133795018D01*
X144350100Y-133927982D01*
X144376040Y-134058390D01*
X144426923Y-134181232D01*
X144500793Y-134291787D01*
X144594813Y-134385807D01*
X144705368Y-134459677D01*
X144828210Y-134510560D01*
X144958618Y-134536500D01*
X145091582Y-134536500D01*
X145221990Y-134510560D01*
X145344832Y-134459677D01*
X145455387Y-134385807D01*
X145549407Y-134291787D01*
X145586348Y-134236500D01*
X147295171Y-134236500D01*
X150291333Y-137232663D01*
X150245890Y-137213840D01*
X150115482Y-137187900D01*
X149982518Y-137187900D01*
X149852110Y-137213840D01*
X149729268Y-137264723D01*
X149618713Y-137338593D01*
X149524693Y-137432613D01*
X149487752Y-137487900D01*
X146272230Y-137487900D01*
X143921028Y-135136698D01*
X143934000Y-135071482D01*
X143934000Y-134938518D01*
X143908060Y-134808110D01*
X143857177Y-134685268D01*
X143783307Y-134574713D01*
X143689287Y-134480693D01*
X143578732Y-134406823D01*
X143455890Y-134355940D01*
X143325482Y-134330000D01*
X143192518Y-134330000D01*
X143062110Y-134355940D01*
X142939268Y-134406823D01*
X142828713Y-134480693D01*
X142734693Y-134574713D01*
X142660823Y-134685268D01*
X142609940Y-134808110D01*
X142584000Y-134938518D01*
X141552176Y-134938518D01*
X141567500Y-134861482D01*
X141567500Y-134728518D01*
X141541560Y-134598110D01*
X141490677Y-134475268D01*
X141416807Y-134364713D01*
X141322787Y-134270693D01*
X141212232Y-134196823D01*
X141089390Y-134145940D01*
X140958982Y-134120000D01*
X140826018Y-134120000D01*
X140760802Y-134132972D01*
X140710000Y-134082171D01*
X140710000Y-130443939D01*
X141030312Y-130123628D01*
X141095528Y-130136600D01*
X141228492Y-130136600D01*
X141358900Y-130110660D01*
X141481742Y-130059777D01*
X141592297Y-129985907D01*
X141686317Y-129891887D01*
X141760187Y-129781332D01*
X141811070Y-129658490D01*
X141837010Y-129528082D01*
X141837010Y-129395118D01*
X141811070Y-129264710D01*
X141760187Y-129141868D01*
X141686317Y-129031313D01*
X141592297Y-128937293D01*
X141481742Y-128863423D01*
X141358900Y-128812540D01*
X141228492Y-128786600D01*
X141095528Y-128786600D01*
X140965120Y-128812540D01*
X140842278Y-128863423D01*
X140731723Y-128937293D01*
X140637703Y-129031313D01*
X140563833Y-129141868D01*
X140512950Y-129264710D01*
X140487010Y-129395118D01*
X140487010Y-129528082D01*
X140499982Y-129593298D01*
X140082862Y-130010419D01*
X140068553Y-130022162D01*
X140056811Y-130036470D01*
X140021691Y-130079264D01*
X139986870Y-130144410D01*
X139965427Y-130215098D01*
X139958186Y-130288610D01*
X126832700Y-130288610D01*
X126832700Y-128197818D01*
X128554600Y-128197818D01*
X128554600Y-128330782D01*
X128580540Y-128461190D01*
X128631423Y-128584032D01*
X128705293Y-128694587D01*
X128799313Y-128788607D01*
X128909868Y-128862477D01*
X129032710Y-128913360D01*
X129163118Y-128939300D01*
X129296082Y-128939300D01*
X129426490Y-128913360D01*
X129549332Y-128862477D01*
X129659887Y-128788607D01*
X129753907Y-128694587D01*
X129827777Y-128584032D01*
X129878660Y-128461190D01*
X129904600Y-128330782D01*
X129904600Y-128197818D01*
X129878660Y-128067410D01*
X129827777Y-127944568D01*
X129753907Y-127834013D01*
X129659887Y-127739993D01*
X129549332Y-127666123D01*
X129426490Y-127615240D01*
X129296082Y-127589300D01*
X129163118Y-127589300D01*
X129032710Y-127615240D01*
X128909868Y-127666123D01*
X128799313Y-127739993D01*
X128705293Y-127834013D01*
X128631423Y-127944568D01*
X128580540Y-128067410D01*
X128554600Y-128197818D01*
X126832700Y-128197818D01*
X126832700Y-126761216D01*
X133228300Y-126761216D01*
X133228300Y-126894180D01*
X133254240Y-127024588D01*
X133305123Y-127147430D01*
X133378993Y-127257985D01*
X133473013Y-127352005D01*
X133583568Y-127425875D01*
X133706410Y-127476758D01*
X133836818Y-127502698D01*
X133969782Y-127502698D01*
X134100190Y-127476758D01*
X134223032Y-127425875D01*
X134333587Y-127352005D01*
X134427607Y-127257985D01*
X134501477Y-127147430D01*
X134552360Y-127024588D01*
X134578300Y-126894180D01*
X134578300Y-126761216D01*
X134565328Y-126696000D01*
X134657510Y-126603818D01*
X136058500Y-126603818D01*
X136058500Y-126736782D01*
X136084440Y-126867190D01*
X136135323Y-126990032D01*
X136209193Y-127100587D01*
X136303213Y-127194607D01*
X136413768Y-127268477D01*
X136536610Y-127319360D01*
X136667018Y-127345300D01*
X136799982Y-127345300D01*
X136930390Y-127319360D01*
X137053232Y-127268477D01*
X137163787Y-127194607D01*
X137257807Y-127100587D01*
X137331677Y-126990032D01*
X137382560Y-126867190D01*
X137408500Y-126736782D01*
X137408500Y-126603818D01*
X137382560Y-126473410D01*
X137331677Y-126350568D01*
X137257807Y-126240013D01*
X137163787Y-126145993D01*
X137053232Y-126072123D01*
X136930390Y-126021240D01*
X136799982Y-125995300D01*
X136667018Y-125995300D01*
X136536610Y-126021240D01*
X136413768Y-126072123D01*
X136303213Y-126145993D01*
X136209193Y-126240013D01*
X136135323Y-126350568D01*
X136084440Y-126473410D01*
X136058500Y-126603818D01*
X134657510Y-126603818D01*
X135566810Y-125694518D01*
X140604600Y-125694518D01*
X140604600Y-125827482D01*
X140630540Y-125957890D01*
X140681423Y-126080732D01*
X140755293Y-126191287D01*
X140849313Y-126285307D01*
X140959868Y-126359177D01*
X141082710Y-126410060D01*
X141213118Y-126436000D01*
X141346082Y-126436000D01*
X141411298Y-126423028D01*
X141992001Y-127003731D01*
X141992000Y-131449969D01*
X141773598Y-131668372D01*
X141708382Y-131655400D01*
X141575418Y-131655400D01*
X141445010Y-131681340D01*
X141322168Y-131732223D01*
X141211613Y-131806093D01*
X141117593Y-131900113D01*
X141043723Y-132010668D01*
X140992840Y-132133510D01*
X140966900Y-132263918D01*
X140966900Y-132396882D01*
X140992840Y-132527290D01*
X141043723Y-132650132D01*
X141117593Y-132760687D01*
X141211613Y-132854707D01*
X141322168Y-132928577D01*
X141445010Y-132979460D01*
X141575418Y-133005400D01*
X141708382Y-133005400D01*
X141838790Y-132979460D01*
X141961632Y-132928577D01*
X142072187Y-132854707D01*
X142166207Y-132760687D01*
X142240077Y-132650132D01*
X142290960Y-132527290D01*
X142316900Y-132396882D01*
X142316900Y-132263918D01*
X142303928Y-132198702D01*
X142619146Y-131883485D01*
X142633448Y-131871748D01*
X142645186Y-131857445D01*
X142645189Y-131857442D01*
X142680309Y-131814647D01*
X142715130Y-131749502D01*
X142715131Y-131749499D01*
X142736574Y-131678813D01*
X142742000Y-131623719D01*
X142742000Y-131623717D01*
X142743814Y-131605301D01*
X142742000Y-131586885D01*
X142742000Y-126866816D01*
X142743814Y-126848400D01*
X142741775Y-126827698D01*
X142736574Y-126774887D01*
X142715131Y-126704200D01*
X142680309Y-126639053D01*
X142633448Y-126581952D01*
X142619139Y-126570209D01*
X141941628Y-125892698D01*
X141954600Y-125827482D01*
X141954600Y-125694518D01*
X141928660Y-125564110D01*
X141877777Y-125441268D01*
X141803907Y-125330713D01*
X141709887Y-125236693D01*
X141599332Y-125162823D01*
X141476490Y-125111940D01*
X141346082Y-125086000D01*
X141213118Y-125086000D01*
X141082710Y-125111940D01*
X140959868Y-125162823D01*
X140849313Y-125236693D01*
X140755293Y-125330713D01*
X140681423Y-125441268D01*
X140630540Y-125564110D01*
X140604600Y-125694518D01*
X135566810Y-125694518D01*
X137853528Y-123407800D01*
X140342475Y-123407800D01*
X140310023Y-123456368D01*
X140259140Y-123579210D01*
X140233200Y-123709618D01*
X140233200Y-123842582D01*
X140259140Y-123972990D01*
X140310023Y-124095832D01*
X140383893Y-124206387D01*
X140477913Y-124300407D01*
X140588468Y-124374277D01*
X140711310Y-124425160D01*
X140841718Y-124451100D01*
X140974682Y-124451100D01*
X141039898Y-124438128D01*
X153059601Y-136457831D01*
X153059601Y-136856151D01*
X153004313Y-136893093D01*
X152910293Y-136987113D01*
X152836423Y-137097668D01*
X152785540Y-137220510D01*
X152759600Y-137350918D01*
X152759600Y-137483882D01*
X152785540Y-137614290D01*
X152836423Y-137737132D01*
X152910293Y-137847687D01*
X153004313Y-137941707D01*
X153114868Y-138015577D01*
X153237710Y-138066460D01*
X153368118Y-138092400D01*
X153501082Y-138092400D01*
X153631490Y-138066460D01*
X153754332Y-138015577D01*
X153864887Y-137941707D01*
X153958907Y-137847687D01*
X154032777Y-137737132D01*
X154083660Y-137614290D01*
X154109600Y-137483882D01*
X154109600Y-137350918D01*
X154083660Y-137220510D01*
X154032777Y-137097668D01*
X153958907Y-136987113D01*
X153864887Y-136893093D01*
X153809600Y-136856152D01*
X153809600Y-136320916D01*
X153811414Y-136302500D01*
X153809600Y-136284081D01*
X153804174Y-136228987D01*
X153782731Y-136158300D01*
X153747909Y-136093153D01*
X153701048Y-136036052D01*
X153686739Y-136024309D01*
X143095948Y-125433518D01*
X144460300Y-125433518D01*
X144460300Y-125566482D01*
X144486240Y-125696890D01*
X144537123Y-125819732D01*
X144610993Y-125930287D01*
X144705013Y-126024307D01*
X144815568Y-126098177D01*
X144938410Y-126149060D01*
X145068818Y-126175000D01*
X145201782Y-126175000D01*
X145266998Y-126162028D01*
X151974809Y-132869839D01*
X151986552Y-132884148D01*
X152043653Y-132931009D01*
X152108800Y-132965831D01*
X152179487Y-132987274D01*
X152234581Y-132992700D01*
X152234584Y-132992700D01*
X152253000Y-132994514D01*
X152271416Y-132992700D01*
X154975052Y-132992700D01*
X155011993Y-133047987D01*
X155106013Y-133142007D01*
X155216568Y-133215877D01*
X155339410Y-133266760D01*
X155469818Y-133292700D01*
X155602782Y-133292700D01*
X155733190Y-133266760D01*
X155856032Y-133215877D01*
X155966587Y-133142007D01*
X156060607Y-133047987D01*
X156134477Y-132937432D01*
X156185360Y-132814590D01*
X156211300Y-132684182D01*
X156211300Y-132551218D01*
X156185360Y-132420810D01*
X156134477Y-132297968D01*
X156060607Y-132187413D01*
X155966587Y-132093393D01*
X155856032Y-132019523D01*
X155733190Y-131968640D01*
X155602782Y-131942700D01*
X155469818Y-131942700D01*
X155339410Y-131968640D01*
X155216568Y-132019523D01*
X155106013Y-132093393D01*
X155011993Y-132187413D01*
X154975052Y-132242700D01*
X152408330Y-132242700D01*
X145797328Y-125631698D01*
X145810300Y-125566482D01*
X145810300Y-125433518D01*
X145784360Y-125303110D01*
X145733477Y-125180268D01*
X145659607Y-125069713D01*
X145565587Y-124975693D01*
X145455032Y-124901823D01*
X145332190Y-124850940D01*
X145201782Y-124825000D01*
X145068818Y-124825000D01*
X144938410Y-124850940D01*
X144815568Y-124901823D01*
X144705013Y-124975693D01*
X144610993Y-125069713D01*
X144537123Y-125180268D01*
X144486240Y-125303110D01*
X144460300Y-125433518D01*
X143095948Y-125433518D01*
X141570228Y-123907798D01*
X141583200Y-123842582D01*
X141583200Y-123709618D01*
X141557260Y-123579210D01*
X141506377Y-123456368D01*
X141473925Y-123407800D01*
X145064271Y-123407800D01*
X153027472Y-131371002D01*
X153014500Y-131436218D01*
X153014500Y-131569182D01*
X153040440Y-131699590D01*
X153091323Y-131822432D01*
X153165193Y-131932987D01*
X153259213Y-132027007D01*
X153369768Y-132100877D01*
X153492610Y-132151760D01*
X153623018Y-132177700D01*
X153755982Y-132177700D01*
X153886390Y-132151760D01*
X154009232Y-132100877D01*
X154119787Y-132027007D01*
X154213807Y-131932987D01*
X154287677Y-131822432D01*
X154338560Y-131699590D01*
X154364500Y-131569182D01*
X154364500Y-131436218D01*
X154338560Y-131305810D01*
X154287677Y-131182968D01*
X154213807Y-131072413D01*
X154119787Y-130978393D01*
X154009232Y-130904523D01*
X153886390Y-130853640D01*
X153755982Y-130827700D01*
X153623018Y-130827700D01*
X153557802Y-130840672D01*
X145497795Y-122780666D01*
X145486048Y-122766352D01*
X145428947Y-122719491D01*
X145363800Y-122684669D01*
X145293113Y-122663226D01*
X145238019Y-122657800D01*
X145238016Y-122657800D01*
X145219600Y-122655986D01*
X145201184Y-122657800D01*
X137716613Y-122657800D01*
X137698197Y-122655986D01*
X137679781Y-122657800D01*
X137679779Y-122657800D01*
X137624685Y-122663226D01*
X137553998Y-122684669D01*
X137488851Y-122719491D01*
X137431750Y-122766352D01*
X137420007Y-122780661D01*
X134034998Y-126165670D01*
X133969782Y-126152698D01*
X133836818Y-126152698D01*
X133706410Y-126178638D01*
X133583568Y-126229521D01*
X133473013Y-126303391D01*
X133378993Y-126397411D01*
X133305123Y-126507966D01*
X133254240Y-126630808D01*
X133228300Y-126761216D01*
X126832700Y-126761216D01*
X126832700Y-123374418D01*
X128601600Y-123374418D01*
X128601600Y-123507382D01*
X128627540Y-123637790D01*
X128678423Y-123760632D01*
X128752293Y-123871187D01*
X128846313Y-123965207D01*
X128956868Y-124039077D01*
X129079710Y-124089960D01*
X129210118Y-124115900D01*
X129343082Y-124115900D01*
X129473490Y-124089960D01*
X129596332Y-124039077D01*
X129706887Y-123965207D01*
X129800907Y-123871187D01*
X129874777Y-123760632D01*
X129925660Y-123637790D01*
X129951600Y-123507382D01*
X129951600Y-123374418D01*
X129925660Y-123244010D01*
X129874777Y-123121168D01*
X129800907Y-123010613D01*
X129706887Y-122916593D01*
X129596332Y-122842723D01*
X129473490Y-122791840D01*
X129343082Y-122765900D01*
X129210118Y-122765900D01*
X129079710Y-122791840D01*
X128956868Y-122842723D01*
X128846313Y-122916593D01*
X128752293Y-123010613D01*
X128678423Y-123121168D01*
X128627540Y-123244010D01*
X128601600Y-123374418D01*
X126832700Y-123374418D01*
X126832700Y-122617629D01*
X129121314Y-120329016D01*
X129237518Y-120377149D01*
X129437864Y-120417000D01*
X129642136Y-120417000D01*
X129842482Y-120377149D01*
X130031204Y-120298978D01*
X130201049Y-120185491D01*
X130345491Y-120041049D01*
X130458978Y-119871204D01*
X130537149Y-119682482D01*
X130577000Y-119482136D01*
X130577000Y-119277864D01*
X131043000Y-119277864D01*
X131043000Y-119482136D01*
X131082851Y-119682482D01*
X131161022Y-119871204D01*
X131274509Y-120041049D01*
X131418951Y-120185491D01*
X131588796Y-120298978D01*
X131777518Y-120377149D01*
X131977864Y-120417000D01*
X132182136Y-120417000D01*
X132382482Y-120377149D01*
X132571204Y-120298978D01*
X132741049Y-120185491D01*
X132885491Y-120041049D01*
X132998978Y-119871204D01*
X133077149Y-119682482D01*
X133117000Y-119482136D01*
X133117000Y-119277864D01*
X133583000Y-119277864D01*
X133583000Y-119482136D01*
X133622851Y-119682482D01*
X133701022Y-119871204D01*
X133814509Y-120041049D01*
X133958951Y-120185491D01*
X134128796Y-120298978D01*
X134317518Y-120377149D01*
X134517864Y-120417000D01*
X134722136Y-120417000D01*
X134922482Y-120377149D01*
X135111204Y-120298978D01*
X135281049Y-120185491D01*
X135425491Y-120041049D01*
X135538978Y-119871204D01*
X135617149Y-119682482D01*
X135657000Y-119482136D01*
X135657000Y-119277864D01*
X135648379Y-119234518D01*
X141233000Y-119234518D01*
X141233000Y-119367482D01*
X141258940Y-119497890D01*
X141309823Y-119620732D01*
X141383693Y-119731287D01*
X141477713Y-119825307D01*
X141588268Y-119899177D01*
X141711110Y-119950060D01*
X141841518Y-119976000D01*
X141974482Y-119976000D01*
X142104890Y-119950060D01*
X142227732Y-119899177D01*
X142338287Y-119825307D01*
X142432307Y-119731287D01*
X142506177Y-119620732D01*
X142557060Y-119497890D01*
X142583000Y-119367482D01*
X142583000Y-119234518D01*
X142557060Y-119104110D01*
X142506177Y-118981268D01*
X142432307Y-118870713D01*
X142338287Y-118776693D01*
X142227732Y-118702823D01*
X142104890Y-118651940D01*
X141974482Y-118626000D01*
X141841518Y-118626000D01*
X141711110Y-118651940D01*
X141588268Y-118702823D01*
X141477713Y-118776693D01*
X141383693Y-118870713D01*
X141309823Y-118981268D01*
X141258940Y-119104110D01*
X141233000Y-119234518D01*
X135648379Y-119234518D01*
X135617149Y-119077518D01*
X135538978Y-118888796D01*
X135425491Y-118718951D01*
X135281049Y-118574509D01*
X135111204Y-118461022D01*
X134922482Y-118382851D01*
X134722136Y-118343000D01*
X134517864Y-118343000D01*
X134317518Y-118382851D01*
X134128796Y-118461022D01*
X133958951Y-118574509D01*
X133814509Y-118718951D01*
X133701022Y-118888796D01*
X133622851Y-119077518D01*
X133583000Y-119277864D01*
X133117000Y-119277864D01*
X133077149Y-119077518D01*
X132998978Y-118888796D01*
X132885491Y-118718951D01*
X132741049Y-118574509D01*
X132571204Y-118461022D01*
X132382482Y-118382851D01*
X132182136Y-118343000D01*
X131977864Y-118343000D01*
X131777518Y-118382851D01*
X131588796Y-118461022D01*
X131418951Y-118574509D01*
X131274509Y-118718951D01*
X131161022Y-118888796D01*
X131082851Y-119077518D01*
X131043000Y-119277864D01*
X130577000Y-119277864D01*
X130537149Y-119077518D01*
X130458978Y-118888796D01*
X130345491Y-118718951D01*
X130201049Y-118574509D01*
X130031204Y-118461022D01*
X129842482Y-118382851D01*
X129642136Y-118343000D01*
X129437864Y-118343000D01*
X129237518Y-118382851D01*
X129048796Y-118461022D01*
X128878951Y-118574509D01*
X128734509Y-118718951D01*
X128621022Y-118888796D01*
X128542851Y-119077518D01*
X128503000Y-119277864D01*
X128503000Y-119482136D01*
X128542851Y-119682482D01*
X128590984Y-119798686D01*
X126205562Y-122184109D01*
X126191253Y-122195852D01*
X126179511Y-122210160D01*
X126144391Y-122252954D01*
X126109570Y-122318100D01*
X126088127Y-122388788D01*
X126080886Y-122462300D01*
X126082701Y-122480726D01*
X126082700Y-132048352D01*
X126027413Y-132085293D01*
X125933393Y-132179313D01*
X125859523Y-132289868D01*
X125808640Y-132412710D01*
X125782700Y-132543118D01*
X125782700Y-132676082D01*
X125808640Y-132806490D01*
X125859523Y-132929332D01*
X125899517Y-132989187D01*
X124154995Y-131244666D01*
X124143248Y-131230352D01*
X124086147Y-131183491D01*
X124021000Y-131148669D01*
X123950313Y-131127226D01*
X123895219Y-131121800D01*
X123895216Y-131121800D01*
X123876800Y-131119986D01*
X123858384Y-131121800D01*
X120842430Y-131121800D01*
X120450548Y-130729918D01*
X124216600Y-130729918D01*
X124216600Y-130862882D01*
X124242540Y-130993290D01*
X124293423Y-131116132D01*
X124367293Y-131226687D01*
X124461313Y-131320707D01*
X124571868Y-131394577D01*
X124694710Y-131445460D01*
X124825118Y-131471400D01*
X124958082Y-131471400D01*
X125088490Y-131445460D01*
X125211332Y-131394577D01*
X125321887Y-131320707D01*
X125415907Y-131226687D01*
X125489777Y-131116132D01*
X125540660Y-130993290D01*
X125566600Y-130862882D01*
X125566600Y-130729918D01*
X125540660Y-130599510D01*
X125489777Y-130476668D01*
X125415907Y-130366113D01*
X125321887Y-130272093D01*
X125211332Y-130198223D01*
X125088490Y-130147340D01*
X124958082Y-130121400D01*
X124825118Y-130121400D01*
X124694710Y-130147340D01*
X124571868Y-130198223D01*
X124461313Y-130272093D01*
X124367293Y-130366113D01*
X124293423Y-130476668D01*
X124242540Y-130599510D01*
X124216600Y-130729918D01*
X120450548Y-130729918D01*
X119821828Y-130101198D01*
X119834800Y-130035982D01*
X119834800Y-129981520D01*
X120991000Y-129981520D01*
X120991000Y-130114484D01*
X121016940Y-130244892D01*
X121067823Y-130367734D01*
X121141693Y-130478289D01*
X121235713Y-130572309D01*
X121346268Y-130646179D01*
X121469110Y-130697062D01*
X121599518Y-130723002D01*
X121732482Y-130723002D01*
X121862890Y-130697062D01*
X121985732Y-130646179D01*
X122096287Y-130572309D01*
X122190307Y-130478289D01*
X122264177Y-130367734D01*
X122315060Y-130244892D01*
X122341000Y-130114484D01*
X122341000Y-129981520D01*
X122315060Y-129851112D01*
X122264177Y-129728270D01*
X122190307Y-129617715D01*
X122096287Y-129523695D01*
X121985732Y-129449825D01*
X121862890Y-129398942D01*
X121732482Y-129373002D01*
X121599518Y-129373002D01*
X121469110Y-129398942D01*
X121346268Y-129449825D01*
X121235713Y-129523695D01*
X121141693Y-129617715D01*
X121067823Y-129728270D01*
X121016940Y-129851112D01*
X120991000Y-129981520D01*
X119834800Y-129981520D01*
X119834800Y-129903018D01*
X119808860Y-129772610D01*
X119757977Y-129649768D01*
X119684107Y-129539213D01*
X119590087Y-129445193D01*
X119479532Y-129371323D01*
X119356690Y-129320440D01*
X119226282Y-129294500D01*
X119093318Y-129294500D01*
X118962910Y-129320440D01*
X118840068Y-129371323D01*
X118729513Y-129445193D01*
X118635493Y-129539213D01*
X118561623Y-129649768D01*
X118510740Y-129772610D01*
X118484800Y-129903018D01*
X118484800Y-130035982D01*
X118510740Y-130166390D01*
X118561623Y-130289232D01*
X118635493Y-130399787D01*
X118729513Y-130493807D01*
X118840068Y-130567677D01*
X118962910Y-130618560D01*
X119093318Y-130644500D01*
X119226282Y-130644500D01*
X119291498Y-130631528D01*
X120408909Y-131748939D01*
X120420652Y-131763248D01*
X120442147Y-131780888D01*
X120477752Y-131810109D01*
X120534722Y-131840560D01*
X120542900Y-131844931D01*
X120613587Y-131866374D01*
X120668681Y-131871800D01*
X120668683Y-131871800D01*
X120687099Y-131873614D01*
X120705515Y-131871800D01*
X123721471Y-131871800D01*
X126050984Y-134201314D01*
X126002851Y-134317518D01*
X125963000Y-134517864D01*
X125963000Y-134722136D01*
X126002851Y-134922482D01*
X126081022Y-135111204D01*
X126194509Y-135281049D01*
X126301460Y-135388000D01*
X125158540Y-135388000D01*
X125265491Y-135281049D01*
X125378978Y-135111204D01*
X125457149Y-134922482D01*
X125497000Y-134722136D01*
X125497000Y-134517864D01*
X125457149Y-134317518D01*
X125378978Y-134128796D01*
X125265491Y-133958951D01*
X125121049Y-133814509D01*
X124951204Y-133701022D01*
X124762482Y-133622851D01*
X124562136Y-133583000D01*
X124357864Y-133583000D01*
X124157518Y-133622851D01*
X123968796Y-133701022D01*
X123798951Y-133814509D01*
X123654509Y-133958951D01*
X123541022Y-134128796D01*
X123462851Y-134317518D01*
X123423000Y-134517864D01*
X123423000Y-134722136D01*
X123462851Y-134922482D01*
X123541022Y-135111204D01*
X123654509Y-135281049D01*
X123761460Y-135388000D01*
X122618540Y-135388000D01*
X122725491Y-135281049D01*
X122838978Y-135111204D01*
X122917149Y-134922482D01*
X122957000Y-134722136D01*
X122957000Y-134517864D01*
X122917149Y-134317518D01*
X122838978Y-134128796D01*
X122725491Y-133958951D01*
X122581049Y-133814509D01*
X122411204Y-133701022D01*
X122222482Y-133622851D01*
X122022136Y-133583000D01*
X121817864Y-133583000D01*
X121617518Y-133622851D01*
X121501315Y-133670984D01*
X116588395Y-128758066D01*
X116576648Y-128743752D01*
X116519547Y-128696891D01*
X116454400Y-128662069D01*
X116383713Y-128640626D01*
X116328619Y-128635200D01*
X116328616Y-128635200D01*
X116310200Y-128633386D01*
X116291784Y-128635200D01*
X106412848Y-128635200D01*
X106375907Y-128579913D01*
X106281887Y-128485893D01*
X106171332Y-128412023D01*
X106048490Y-128361140D01*
X105918082Y-128335200D01*
X105785118Y-128335200D01*
X105654710Y-128361140D01*
X105531868Y-128412023D01*
X105421313Y-128485893D01*
X105327293Y-128579913D01*
X105253423Y-128690468D01*
X105202540Y-128813310D01*
X105176600Y-128943718D01*
X92400000Y-128943718D01*
X92400000Y-126298518D01*
X105470300Y-126298518D01*
X105470300Y-126431482D01*
X105496240Y-126561890D01*
X105547123Y-126684732D01*
X105620993Y-126795287D01*
X105715013Y-126889307D01*
X105825568Y-126963177D01*
X105948410Y-127014060D01*
X106078818Y-127040000D01*
X106211782Y-127040000D01*
X106342190Y-127014060D01*
X106465032Y-126963177D01*
X106575587Y-126889307D01*
X106669607Y-126795287D01*
X106706548Y-126740000D01*
X107032671Y-126740000D01*
X108546609Y-128253939D01*
X108558352Y-128268248D01*
X108615453Y-128315109D01*
X108680600Y-128349931D01*
X108751287Y-128371374D01*
X108806381Y-128376800D01*
X108806384Y-128376800D01*
X108824800Y-128378614D01*
X108843216Y-128376800D01*
X119356484Y-128376800D01*
X119374900Y-128378614D01*
X119393316Y-128376800D01*
X119393319Y-128376800D01*
X119448413Y-128371374D01*
X119519100Y-128349931D01*
X119584247Y-128315109D01*
X119641348Y-128268248D01*
X119653095Y-128253934D01*
X120392630Y-127514399D01*
X120379100Y-127582418D01*
X120379100Y-127715382D01*
X120405040Y-127845790D01*
X120455923Y-127968632D01*
X120529793Y-128079187D01*
X120623813Y-128173207D01*
X120734368Y-128247077D01*
X120857210Y-128297960D01*
X120987618Y-128323900D01*
X121120582Y-128323900D01*
X121250990Y-128297960D01*
X121373832Y-128247077D01*
X121484387Y-128173207D01*
X121578407Y-128079187D01*
X121652277Y-127968632D01*
X121703160Y-127845790D01*
X121729100Y-127715382D01*
X121729100Y-127582418D01*
X121703160Y-127452010D01*
X121652277Y-127329168D01*
X121578407Y-127218613D01*
X121484387Y-127124593D01*
X121455822Y-127105507D01*
X123366211Y-125195118D01*
X124298400Y-125195118D01*
X124298400Y-125328082D01*
X124324340Y-125458490D01*
X124375223Y-125581332D01*
X124449093Y-125691887D01*
X124543113Y-125785907D01*
X124653668Y-125859777D01*
X124776510Y-125910660D01*
X124906918Y-125936600D01*
X125039882Y-125936600D01*
X125170290Y-125910660D01*
X125293132Y-125859777D01*
X125403687Y-125785907D01*
X125497707Y-125691887D01*
X125571577Y-125581332D01*
X125622460Y-125458490D01*
X125648400Y-125328082D01*
X125648400Y-125195118D01*
X125622460Y-125064710D01*
X125571577Y-124941868D01*
X125497707Y-124831313D01*
X125403687Y-124737293D01*
X125293132Y-124663423D01*
X125170290Y-124612540D01*
X125039882Y-124586600D01*
X124906918Y-124586600D01*
X124776510Y-124612540D01*
X124653668Y-124663423D01*
X124543113Y-124737293D01*
X124449093Y-124831313D01*
X124375223Y-124941868D01*
X124324340Y-125064710D01*
X124298400Y-125195118D01*
X123366211Y-125195118D01*
X125220140Y-123341190D01*
X125234448Y-123329448D01*
X125269880Y-123286274D01*
X125281309Y-123272348D01*
X125316130Y-123207202D01*
X125316131Y-123207199D01*
X125337574Y-123136513D01*
X125343000Y-123081419D01*
X125343000Y-123081417D01*
X125344814Y-123063001D01*
X125343000Y-123044585D01*
X125343000Y-120805329D01*
X125982140Y-120166190D01*
X125996448Y-120154448D01*
X126016423Y-120130108D01*
X126043310Y-120097347D01*
X126078130Y-120032201D01*
X126078131Y-120032200D01*
X126099574Y-119961513D01*
X126104942Y-119907003D01*
X126194509Y-120041049D01*
X126338951Y-120185491D01*
X126508796Y-120298978D01*
X126697518Y-120377149D01*
X126897864Y-120417000D01*
X127102136Y-120417000D01*
X127302482Y-120377149D01*
X127491204Y-120298978D01*
X127661049Y-120185491D01*
X127805491Y-120041049D01*
X127918978Y-119871204D01*
X127997149Y-119682482D01*
X128037000Y-119482136D01*
X128037000Y-119277864D01*
X127997149Y-119077518D01*
X127918978Y-118888796D01*
X127805491Y-118718951D01*
X127661049Y-118574509D01*
X127491204Y-118461022D01*
X127302482Y-118382851D01*
X127102136Y-118343000D01*
X126897864Y-118343000D01*
X126697518Y-118382851D01*
X126508796Y-118461022D01*
X126338951Y-118574509D01*
X126194509Y-118718951D01*
X126105000Y-118852910D01*
X126105000Y-117075518D01*
X132627000Y-117075518D01*
X132627000Y-117208482D01*
X132652940Y-117338890D01*
X132703823Y-117461732D01*
X132777693Y-117572287D01*
X132871713Y-117666307D01*
X132982268Y-117740177D01*
X133105110Y-117791060D01*
X133235518Y-117817000D01*
X133368482Y-117817000D01*
X133498890Y-117791060D01*
X133621732Y-117740177D01*
X133732287Y-117666307D01*
X133826307Y-117572287D01*
X133900177Y-117461732D01*
X133951060Y-117338890D01*
X133977000Y-117208482D01*
X133977000Y-117075518D01*
X133951060Y-116945110D01*
X133900177Y-116822268D01*
X133826307Y-116711713D01*
X133732287Y-116617693D01*
X133621732Y-116543823D01*
X133498890Y-116492940D01*
X133368482Y-116467000D01*
X133235518Y-116467000D01*
X133105110Y-116492940D01*
X132982268Y-116543823D01*
X132871713Y-116617693D01*
X132777693Y-116711713D01*
X132703823Y-116822268D01*
X132652940Y-116945110D01*
X132627000Y-117075518D01*
X126105000Y-117075518D01*
X126105000Y-116620929D01*
X126857702Y-115868228D01*
X126922918Y-115881200D01*
X127055882Y-115881200D01*
X127186290Y-115855260D01*
X127309132Y-115804377D01*
X127419687Y-115730507D01*
X127513707Y-115636487D01*
X127587577Y-115525932D01*
X127638460Y-115403090D01*
X127664400Y-115272682D01*
X127664400Y-115139718D01*
X127638460Y-115009310D01*
X127587577Y-114886468D01*
X127513707Y-114775913D01*
X127419687Y-114681893D01*
X127309132Y-114608023D01*
X127186290Y-114557140D01*
X127055882Y-114531200D01*
X126922918Y-114531200D01*
X126792510Y-114557140D01*
X126669668Y-114608023D01*
X126559113Y-114681893D01*
X126465093Y-114775913D01*
X126391223Y-114886468D01*
X126340340Y-115009310D01*
X126314400Y-115139718D01*
X126314400Y-115272682D01*
X126327372Y-115337898D01*
X125477862Y-116187409D01*
X125463553Y-116199152D01*
X125451811Y-116213460D01*
X125416691Y-116256254D01*
X125384735Y-116316040D01*
X125381870Y-116321400D01*
X125368578Y-116365219D01*
X125360427Y-116392088D01*
X125353186Y-116465600D01*
X125355001Y-116484026D01*
X125355000Y-118852911D01*
X125265491Y-118718951D01*
X125121049Y-118574509D01*
X124951204Y-118461022D01*
X124762482Y-118382851D01*
X124562136Y-118343000D01*
X124357864Y-118343000D01*
X124157518Y-118382851D01*
X123968796Y-118461022D01*
X123798951Y-118574509D01*
X123654509Y-118718951D01*
X123541022Y-118888796D01*
X123462851Y-119077518D01*
X123423000Y-119277864D01*
X123423000Y-119482136D01*
X123462851Y-119682482D01*
X123541022Y-119871204D01*
X123654509Y-120041049D01*
X123798951Y-120185491D01*
X123968796Y-120298978D01*
X124085001Y-120347111D01*
X124085000Y-122761370D01*
X122295000Y-124551370D01*
X122295000Y-121979418D01*
X122312500Y-121979418D01*
X122312500Y-122112382D01*
X122338440Y-122242790D01*
X122389323Y-122365632D01*
X122463193Y-122476187D01*
X122557213Y-122570207D01*
X122667768Y-122644077D01*
X122790610Y-122694960D01*
X122921018Y-122720900D01*
X123053982Y-122720900D01*
X123184390Y-122694960D01*
X123307232Y-122644077D01*
X123417787Y-122570207D01*
X123511807Y-122476187D01*
X123585677Y-122365632D01*
X123636560Y-122242790D01*
X123662500Y-122112382D01*
X123662500Y-121979418D01*
X123636560Y-121849010D01*
X123585677Y-121726168D01*
X123511807Y-121615613D01*
X123417787Y-121521593D01*
X123307232Y-121447723D01*
X123184390Y-121396840D01*
X123053982Y-121370900D01*
X122921018Y-121370900D01*
X122790610Y-121396840D01*
X122667768Y-121447723D01*
X122557213Y-121521593D01*
X122463193Y-121615613D01*
X122389323Y-121726168D01*
X122338440Y-121849010D01*
X122312500Y-121979418D01*
X122295000Y-121979418D01*
X122295000Y-120347111D01*
X122411204Y-120298978D01*
X122581049Y-120185491D01*
X122725491Y-120041049D01*
X122838978Y-119871204D01*
X122917149Y-119682482D01*
X122957000Y-119482136D01*
X122957000Y-119277864D01*
X122917149Y-119077518D01*
X122838978Y-118888796D01*
X122725491Y-118718951D01*
X122581049Y-118574509D01*
X122411204Y-118461022D01*
X122222482Y-118382851D01*
X122022136Y-118343000D01*
X121817864Y-118343000D01*
X121617518Y-118382851D01*
X121428796Y-118461022D01*
X121258951Y-118574509D01*
X121114509Y-118718951D01*
X121001022Y-118888796D01*
X120922851Y-119077518D01*
X120883000Y-119277864D01*
X120883000Y-119482136D01*
X120922851Y-119682482D01*
X121001022Y-119871204D01*
X121114509Y-120041049D01*
X121258951Y-120185491D01*
X121428796Y-120298978D01*
X121545001Y-120347111D01*
X121545000Y-124685670D01*
X119489855Y-126740816D01*
X119416232Y-126691623D01*
X119293390Y-126640740D01*
X119162982Y-126614800D01*
X119030018Y-126614800D01*
X118899610Y-126640740D01*
X118776768Y-126691623D01*
X118666213Y-126765493D01*
X118572193Y-126859513D01*
X118498323Y-126970068D01*
X118447440Y-127092910D01*
X118421500Y-127223318D01*
X118421500Y-127356282D01*
X118447440Y-127486690D01*
X118498323Y-127609532D01*
X118509861Y-127626800D01*
X108980130Y-127626800D01*
X107466195Y-126112866D01*
X107454448Y-126098552D01*
X107397347Y-126051691D01*
X107332200Y-126016869D01*
X107261513Y-125995426D01*
X107206419Y-125990000D01*
X107206416Y-125990000D01*
X107188000Y-125988186D01*
X107169584Y-125990000D01*
X106706548Y-125990000D01*
X106669607Y-125934713D01*
X106575587Y-125840693D01*
X106465032Y-125766823D01*
X106342190Y-125715940D01*
X106211782Y-125690000D01*
X106078818Y-125690000D01*
X105948410Y-125715940D01*
X105825568Y-125766823D01*
X105715013Y-125840693D01*
X105620993Y-125934713D01*
X105547123Y-126045268D01*
X105496240Y-126168110D01*
X105470300Y-126298518D01*
X92400000Y-126298518D01*
X92400000Y-117925329D01*
X95280000Y-117925329D01*
X95280000Y-118294671D01*
X95352056Y-118656917D01*
X95493397Y-118998145D01*
X95698593Y-119305243D01*
X95959757Y-119566407D01*
X96266855Y-119771603D01*
X96608083Y-119912944D01*
X96970329Y-119985000D01*
X97339671Y-119985000D01*
X97701917Y-119912944D01*
X98043145Y-119771603D01*
X98350243Y-119566407D01*
X98611407Y-119305243D01*
X98816603Y-118998145D01*
X98957944Y-118656917D01*
X99030000Y-118294671D01*
X99030000Y-117925329D01*
X98957944Y-117563083D01*
X98816603Y-117221855D01*
X98611407Y-116914757D01*
X98350243Y-116653593D01*
X98043145Y-116448397D01*
X97701917Y-116307056D01*
X97339671Y-116235000D01*
X96970329Y-116235000D01*
X96608083Y-116307056D01*
X96266855Y-116448397D01*
X95959757Y-116653593D01*
X95698593Y-116914757D01*
X95493397Y-117221855D01*
X95352056Y-117563083D01*
X95280000Y-117925329D01*
X92400000Y-117925329D01*
X92400000Y-115330118D01*
X109896500Y-115330118D01*
X109896500Y-115463082D01*
X109922440Y-115593490D01*
X109973323Y-115716332D01*
X110047193Y-115826887D01*
X110141213Y-115920907D01*
X110251768Y-115994777D01*
X110374610Y-116045660D01*
X110505018Y-116071600D01*
X110637982Y-116071600D01*
X110768390Y-116045660D01*
X110891232Y-115994777D01*
X111001787Y-115920907D01*
X111095807Y-115826887D01*
X111132748Y-115771600D01*
X113721771Y-115771600D01*
X116713144Y-118762974D01*
X116657510Y-118774040D01*
X116534668Y-118824923D01*
X116424113Y-118898793D01*
X116330093Y-118992813D01*
X116256223Y-119103368D01*
X116205340Y-119226210D01*
X116179400Y-119356618D01*
X116179400Y-119489582D01*
X116205340Y-119619990D01*
X116256223Y-119742832D01*
X116330093Y-119853387D01*
X116424113Y-119947407D01*
X116479401Y-119984349D01*
X116479400Y-121313677D01*
X116427307Y-121235713D01*
X116333287Y-121141693D01*
X116222732Y-121067823D01*
X116099890Y-121016940D01*
X115969482Y-120991000D01*
X115836518Y-120991000D01*
X115706110Y-121016940D01*
X115583268Y-121067823D01*
X115472713Y-121141693D01*
X115378693Y-121235713D01*
X115304823Y-121346268D01*
X115253940Y-121469110D01*
X115228000Y-121599518D01*
X115228000Y-121732482D01*
X115253940Y-121862890D01*
X115304823Y-121985732D01*
X115378693Y-122096287D01*
X115472713Y-122190307D01*
X115583268Y-122264177D01*
X115706110Y-122315060D01*
X115836518Y-122341000D01*
X115969482Y-122341000D01*
X116099890Y-122315060D01*
X116222732Y-122264177D01*
X116333287Y-122190307D01*
X116427307Y-122096287D01*
X116479400Y-122018323D01*
X116479400Y-122897370D01*
X114943798Y-124432972D01*
X114878582Y-124420000D01*
X114745618Y-124420000D01*
X114615210Y-124445940D01*
X114492368Y-124496823D01*
X114381813Y-124570693D01*
X114287793Y-124664713D01*
X114213923Y-124775268D01*
X114163040Y-124898110D01*
X114137100Y-125028518D01*
X114137100Y-125161482D01*
X114163040Y-125291890D01*
X114213923Y-125414732D01*
X114287793Y-125525287D01*
X114381813Y-125619307D01*
X114492368Y-125693177D01*
X114615210Y-125744060D01*
X114745618Y-125770000D01*
X114878582Y-125770000D01*
X115008990Y-125744060D01*
X115131832Y-125693177D01*
X115242387Y-125619307D01*
X115336407Y-125525287D01*
X115410277Y-125414732D01*
X115461160Y-125291890D01*
X115487100Y-125161482D01*
X115487100Y-125028518D01*
X115474128Y-124963302D01*
X117106540Y-123330890D01*
X117120848Y-123319148D01*
X117167709Y-123262047D01*
X117202531Y-123196900D01*
X117223974Y-123126213D01*
X117229400Y-123071119D01*
X117229400Y-123071117D01*
X117231214Y-123052701D01*
X117229400Y-123034285D01*
X117229400Y-119984348D01*
X117284687Y-119947407D01*
X117378707Y-119853387D01*
X117452577Y-119742832D01*
X117503460Y-119619990D01*
X117514526Y-119564356D01*
X119259001Y-121308831D01*
X119259000Y-124721170D01*
X119034698Y-124945472D01*
X118969482Y-124932500D01*
X118836518Y-124932500D01*
X118706110Y-124958440D01*
X118583268Y-125009323D01*
X118472713Y-125083193D01*
X118378693Y-125177213D01*
X118304823Y-125287768D01*
X118253940Y-125410610D01*
X118228000Y-125541018D01*
X118228000Y-125673982D01*
X118253940Y-125804390D01*
X118304823Y-125927232D01*
X118378693Y-126037787D01*
X118472713Y-126131807D01*
X118583268Y-126205677D01*
X118706110Y-126256560D01*
X118836518Y-126282500D01*
X118969482Y-126282500D01*
X119099890Y-126256560D01*
X119222732Y-126205677D01*
X119333287Y-126131807D01*
X119427307Y-126037787D01*
X119501177Y-125927232D01*
X119552060Y-125804390D01*
X119578000Y-125673982D01*
X119578000Y-125541018D01*
X119565028Y-125475802D01*
X119886140Y-125154690D01*
X119900448Y-125142948D01*
X119947309Y-125085847D01*
X119982131Y-125020700D01*
X120003574Y-124950013D01*
X120009000Y-124894919D01*
X120009000Y-124894917D01*
X120010814Y-124876501D01*
X120009000Y-124858085D01*
X120009000Y-121171915D01*
X120010814Y-121153499D01*
X120009000Y-121135081D01*
X120003574Y-121079987D01*
X119982131Y-121009300D01*
X119976161Y-120998130D01*
X119947309Y-120944153D01*
X119934208Y-120928189D01*
X119900448Y-120887052D01*
X119886139Y-120875309D01*
X119427830Y-120417000D01*
X119482136Y-120417000D01*
X119682482Y-120377149D01*
X119871204Y-120298978D01*
X120041049Y-120185491D01*
X120185491Y-120041049D01*
X120298978Y-119871204D01*
X120377149Y-119682482D01*
X120417000Y-119482136D01*
X120417000Y-119277864D01*
X120377149Y-119077518D01*
X120298978Y-118888796D01*
X120185491Y-118718951D01*
X120041049Y-118574509D01*
X119871204Y-118461022D01*
X119682482Y-118382851D01*
X119482136Y-118343000D01*
X119277864Y-118343000D01*
X119077518Y-118382851D01*
X118888796Y-118461022D01*
X118718951Y-118574509D01*
X118574509Y-118718951D01*
X118461022Y-118888796D01*
X118382851Y-119077518D01*
X118343000Y-119277864D01*
X118343000Y-119332170D01*
X114155295Y-115144466D01*
X114143548Y-115130152D01*
X114086447Y-115083291D01*
X114021300Y-115048469D01*
X113950613Y-115027026D01*
X113895519Y-115021600D01*
X113895516Y-115021600D01*
X113877100Y-115019786D01*
X113858684Y-115021600D01*
X111132748Y-115021600D01*
X111095807Y-114966313D01*
X111001787Y-114872293D01*
X110891232Y-114798423D01*
X110768390Y-114747540D01*
X110637982Y-114721600D01*
X110505018Y-114721600D01*
X110374610Y-114747540D01*
X110251768Y-114798423D01*
X110141213Y-114872293D01*
X110047193Y-114966313D01*
X109973323Y-115076868D01*
X109922440Y-115199710D01*
X109896500Y-115330118D01*
X92400000Y-115330118D01*
X92400000Y-114233518D01*
X104855000Y-114233518D01*
X104855000Y-114366482D01*
X104880940Y-114496890D01*
X104931823Y-114619732D01*
X105005693Y-114730287D01*
X105099713Y-114824307D01*
X105210268Y-114898177D01*
X105333110Y-114949060D01*
X105463518Y-114975000D01*
X105596482Y-114975000D01*
X105726890Y-114949060D01*
X105849732Y-114898177D01*
X105960287Y-114824307D01*
X106054307Y-114730287D01*
X106128177Y-114619732D01*
X106179060Y-114496890D01*
X106205000Y-114366482D01*
X106205000Y-114233518D01*
X107155000Y-114233518D01*
X107155000Y-114366482D01*
X107180940Y-114496890D01*
X107231823Y-114619732D01*
X107305693Y-114730287D01*
X107399713Y-114824307D01*
X107510268Y-114898177D01*
X107633110Y-114949060D01*
X107763518Y-114975000D01*
X107896482Y-114975000D01*
X108026890Y-114949060D01*
X108149732Y-114898177D01*
X108260287Y-114824307D01*
X108354307Y-114730287D01*
X108428177Y-114619732D01*
X108479060Y-114496890D01*
X108505000Y-114366482D01*
X108505000Y-114233518D01*
X125175000Y-114233518D01*
X125175000Y-114366482D01*
X125200940Y-114496890D01*
X125251823Y-114619732D01*
X125325693Y-114730287D01*
X125419713Y-114824307D01*
X125530268Y-114898177D01*
X125653110Y-114949060D01*
X125783518Y-114975000D01*
X125916482Y-114975000D01*
X126046890Y-114949060D01*
X126169732Y-114898177D01*
X126280287Y-114824307D01*
X126374307Y-114730287D01*
X126448177Y-114619732D01*
X126499060Y-114496890D01*
X126525000Y-114366482D01*
X126525000Y-114233518D01*
X127475000Y-114233518D01*
X127475000Y-114366482D01*
X127500940Y-114496890D01*
X127551823Y-114619732D01*
X127625693Y-114730287D01*
X127719713Y-114824307D01*
X127830268Y-114898177D01*
X127953110Y-114949060D01*
X128083518Y-114975000D01*
X128216482Y-114975000D01*
X128346890Y-114949060D01*
X128469732Y-114898177D01*
X128580287Y-114824307D01*
X128674307Y-114730287D01*
X128748177Y-114619732D01*
X128799060Y-114496890D01*
X128825000Y-114366482D01*
X128825000Y-114233518D01*
X145495000Y-114233518D01*
X145495000Y-114366482D01*
X145520940Y-114496890D01*
X145571823Y-114619732D01*
X145645693Y-114730287D01*
X145739713Y-114824307D01*
X145850268Y-114898177D01*
X145973110Y-114949060D01*
X146103518Y-114975000D01*
X146236482Y-114975000D01*
X146366890Y-114949060D01*
X146489732Y-114898177D01*
X146600287Y-114824307D01*
X146694307Y-114730287D01*
X146768177Y-114619732D01*
X146819060Y-114496890D01*
X146845000Y-114366482D01*
X146845000Y-114233518D01*
X147795000Y-114233518D01*
X147795000Y-114366482D01*
X147820940Y-114496890D01*
X147871823Y-114619732D01*
X147945693Y-114730287D01*
X148039713Y-114824307D01*
X148150268Y-114898177D01*
X148273110Y-114949060D01*
X148403518Y-114975000D01*
X148536482Y-114975000D01*
X148666890Y-114949060D01*
X148789732Y-114898177D01*
X148900287Y-114824307D01*
X148994307Y-114730287D01*
X149043129Y-114657218D01*
X157746700Y-114657218D01*
X157746700Y-114790182D01*
X157772640Y-114920590D01*
X157823523Y-115043432D01*
X157897393Y-115153987D01*
X157991413Y-115248007D01*
X158101968Y-115321877D01*
X158224810Y-115372760D01*
X158355218Y-115398700D01*
X158488182Y-115398700D01*
X158618590Y-115372760D01*
X158741432Y-115321877D01*
X158851987Y-115248007D01*
X158946007Y-115153987D01*
X159019877Y-115043432D01*
X159070760Y-114920590D01*
X159096700Y-114790182D01*
X159096700Y-114657218D01*
X159070760Y-114526810D01*
X159019877Y-114403968D01*
X158946007Y-114293413D01*
X158851987Y-114199393D01*
X158741432Y-114125523D01*
X158618590Y-114074640D01*
X158488182Y-114048700D01*
X158355218Y-114048700D01*
X158224810Y-114074640D01*
X158101968Y-114125523D01*
X157991413Y-114199393D01*
X157897393Y-114293413D01*
X157823523Y-114403968D01*
X157772640Y-114526810D01*
X157746700Y-114657218D01*
X149043129Y-114657218D01*
X149068177Y-114619732D01*
X149119060Y-114496890D01*
X149145000Y-114366482D01*
X149145000Y-114233518D01*
X149119060Y-114103110D01*
X149068177Y-113980268D01*
X148994307Y-113869713D01*
X148900287Y-113775693D01*
X148789732Y-113701823D01*
X148666890Y-113650940D01*
X148536482Y-113625000D01*
X148403518Y-113625000D01*
X148273110Y-113650940D01*
X148150268Y-113701823D01*
X148039713Y-113775693D01*
X147945693Y-113869713D01*
X147871823Y-113980268D01*
X147820940Y-114103110D01*
X147795000Y-114233518D01*
X146845000Y-114233518D01*
X146819060Y-114103110D01*
X146768177Y-113980268D01*
X146694307Y-113869713D01*
X146600287Y-113775693D01*
X146489732Y-113701823D01*
X146366890Y-113650940D01*
X146236482Y-113625000D01*
X146103518Y-113625000D01*
X145973110Y-113650940D01*
X145850268Y-113701823D01*
X145739713Y-113775693D01*
X145645693Y-113869713D01*
X145571823Y-113980268D01*
X145520940Y-114103110D01*
X145495000Y-114233518D01*
X128825000Y-114233518D01*
X128799060Y-114103110D01*
X128748177Y-113980268D01*
X128674307Y-113869713D01*
X128580287Y-113775693D01*
X128469732Y-113701823D01*
X128346890Y-113650940D01*
X128216482Y-113625000D01*
X128083518Y-113625000D01*
X127953110Y-113650940D01*
X127830268Y-113701823D01*
X127719713Y-113775693D01*
X127625693Y-113869713D01*
X127551823Y-113980268D01*
X127500940Y-114103110D01*
X127475000Y-114233518D01*
X126525000Y-114233518D01*
X126499060Y-114103110D01*
X126448177Y-113980268D01*
X126374307Y-113869713D01*
X126280287Y-113775693D01*
X126169732Y-113701823D01*
X126046890Y-113650940D01*
X125916482Y-113625000D01*
X125783518Y-113625000D01*
X125653110Y-113650940D01*
X125530268Y-113701823D01*
X125419713Y-113775693D01*
X125325693Y-113869713D01*
X125251823Y-113980268D01*
X125200940Y-114103110D01*
X125175000Y-114233518D01*
X108505000Y-114233518D01*
X108479060Y-114103110D01*
X108428177Y-113980268D01*
X108354307Y-113869713D01*
X108260287Y-113775693D01*
X108149732Y-113701823D01*
X108026890Y-113650940D01*
X107896482Y-113625000D01*
X107763518Y-113625000D01*
X107633110Y-113650940D01*
X107510268Y-113701823D01*
X107399713Y-113775693D01*
X107305693Y-113869713D01*
X107231823Y-113980268D01*
X107180940Y-114103110D01*
X107155000Y-114233518D01*
X106205000Y-114233518D01*
X106179060Y-114103110D01*
X106128177Y-113980268D01*
X106054307Y-113869713D01*
X105960287Y-113775693D01*
X105849732Y-113701823D01*
X105726890Y-113650940D01*
X105596482Y-113625000D01*
X105463518Y-113625000D01*
X105333110Y-113650940D01*
X105210268Y-113701823D01*
X105099713Y-113775693D01*
X105005693Y-113869713D01*
X104931823Y-113980268D01*
X104880940Y-114103110D01*
X104855000Y-114233518D01*
X92400000Y-114233518D01*
X92400000Y-113355000D01*
X160233026Y-113355000D01*
X160272223Y-113727931D01*
%TD*%
M02*
