%TF.GenerationSoftware,KiCad,Pcbnew,(5.1.9-0-10_14)*%
%TF.CreationDate,2021-04-26T08:01:11+02:00*%
%TF.ProjectId,wificlock,77696669-636c-46f6-936b-2e6b69636164,rev?*%
%TF.SameCoordinates,Original*%
%TF.FileFunction,Legend,Top*%
%TF.FilePolarity,Positive*%
%FSLAX46Y46*%
G04 Gerber Fmt 4.6, Leading zero omitted, Abs format (unit mm)*
G04 Created by KiCad (PCBNEW (5.1.9-0-10_14)) date 2021-04-26 08:01:11*
%MOMM*%
%LPD*%
G01*
G04 APERTURE LIST*
%ADD10C,0.150000*%
%ADD11C,0.300000*%
%TA.AperFunction,Profile*%
%ADD12C,0.100000*%
%TD*%
%ADD13C,0.100000*%
%ADD14C,0.120000*%
G04 APERTURE END LIST*
D10*
X107511904Y-132600238D02*
X108083333Y-132600238D01*
X108197619Y-132638333D01*
X108273809Y-132714523D01*
X108311904Y-132828809D01*
X108311904Y-132905000D01*
X108311904Y-131838333D02*
X108311904Y-132219285D01*
X107511904Y-132219285D01*
X108235714Y-131114523D02*
X108273809Y-131152619D01*
X108311904Y-131266904D01*
X108311904Y-131343095D01*
X108273809Y-131457380D01*
X108197619Y-131533571D01*
X108121428Y-131571666D01*
X107969047Y-131609761D01*
X107854761Y-131609761D01*
X107702380Y-131571666D01*
X107626190Y-131533571D01*
X107550000Y-131457380D01*
X107511904Y-131343095D01*
X107511904Y-131266904D01*
X107550000Y-131152619D01*
X107588095Y-131114523D01*
X107511904Y-130543095D02*
X108083333Y-130543095D01*
X108197619Y-130581190D01*
X108273809Y-130657380D01*
X108311904Y-130771666D01*
X108311904Y-130847857D01*
X108311904Y-129781190D02*
X108311904Y-130162142D01*
X107511904Y-130162142D01*
X108235714Y-129057380D02*
X108273809Y-129095476D01*
X108311904Y-129209761D01*
X108311904Y-129285952D01*
X108273809Y-129400238D01*
X108197619Y-129476428D01*
X108121428Y-129514523D01*
X107969047Y-129552619D01*
X107854761Y-129552619D01*
X107702380Y-129514523D01*
X107626190Y-129476428D01*
X107550000Y-129400238D01*
X107511904Y-129285952D01*
X107511904Y-129209761D01*
X107550000Y-129095476D01*
X107588095Y-129057380D01*
X107511904Y-128485952D02*
X108083333Y-128485952D01*
X108197619Y-128524047D01*
X108273809Y-128600238D01*
X108311904Y-128714523D01*
X108311904Y-128790714D01*
X108311904Y-127724047D02*
X108311904Y-128105000D01*
X107511904Y-128105000D01*
X108235714Y-127000238D02*
X108273809Y-127038333D01*
X108311904Y-127152619D01*
X108311904Y-127228809D01*
X108273809Y-127343095D01*
X108197619Y-127419285D01*
X108121428Y-127457380D01*
X107969047Y-127495476D01*
X107854761Y-127495476D01*
X107702380Y-127457380D01*
X107626190Y-127419285D01*
X107550000Y-127343095D01*
X107511904Y-127228809D01*
X107511904Y-127152619D01*
X107550000Y-127038333D01*
X107588095Y-127000238D01*
X107511904Y-126428809D02*
X108083333Y-126428809D01*
X108197619Y-126466904D01*
X108273809Y-126543095D01*
X108311904Y-126657380D01*
X108311904Y-126733571D01*
X108311904Y-125666904D02*
X108311904Y-126047857D01*
X107511904Y-126047857D01*
X108235714Y-124943095D02*
X108273809Y-124981190D01*
X108311904Y-125095476D01*
X108311904Y-125171666D01*
X108273809Y-125285952D01*
X108197619Y-125362142D01*
X108121428Y-125400238D01*
X107969047Y-125438333D01*
X107854761Y-125438333D01*
X107702380Y-125400238D01*
X107626190Y-125362142D01*
X107550000Y-125285952D01*
X107511904Y-125171666D01*
X107511904Y-125095476D01*
X107550000Y-124981190D01*
X107588095Y-124943095D01*
D11*
X102581476Y-136700761D02*
X103057666Y-138700761D01*
X103438619Y-137272190D01*
X103819571Y-138700761D01*
X104295761Y-136700761D01*
X105057666Y-138700761D02*
X105057666Y-137367428D01*
X105057666Y-136700761D02*
X104962428Y-136796000D01*
X105057666Y-136891238D01*
X105152904Y-136796000D01*
X105057666Y-136700761D01*
X105057666Y-136891238D01*
X106676714Y-137653142D02*
X106010047Y-137653142D01*
X106010047Y-138700761D02*
X106010047Y-136700761D01*
X106962428Y-136700761D01*
X107724333Y-138700761D02*
X107724333Y-137367428D01*
X107724333Y-136700761D02*
X107629095Y-136796000D01*
X107724333Y-136891238D01*
X107819571Y-136796000D01*
X107724333Y-136700761D01*
X107724333Y-136891238D01*
X109819571Y-138510285D02*
X109724333Y-138605523D01*
X109438619Y-138700761D01*
X109248142Y-138700761D01*
X108962428Y-138605523D01*
X108771952Y-138415047D01*
X108676714Y-138224571D01*
X108581476Y-137843619D01*
X108581476Y-137557904D01*
X108676714Y-137176952D01*
X108771952Y-136986476D01*
X108962428Y-136796000D01*
X109248142Y-136700761D01*
X109438619Y-136700761D01*
X109724333Y-136796000D01*
X109819571Y-136891238D01*
X110962428Y-138700761D02*
X110771952Y-138605523D01*
X110676714Y-138415047D01*
X110676714Y-136700761D01*
X112010047Y-138700761D02*
X111819571Y-138605523D01*
X111724333Y-138510285D01*
X111629095Y-138319809D01*
X111629095Y-137748380D01*
X111724333Y-137557904D01*
X111819571Y-137462666D01*
X112010047Y-137367428D01*
X112295761Y-137367428D01*
X112486238Y-137462666D01*
X112581476Y-137557904D01*
X112676714Y-137748380D01*
X112676714Y-138319809D01*
X112581476Y-138510285D01*
X112486238Y-138605523D01*
X112295761Y-138700761D01*
X112010047Y-138700761D01*
X114391000Y-138605523D02*
X114200523Y-138700761D01*
X113819571Y-138700761D01*
X113629095Y-138605523D01*
X113533857Y-138510285D01*
X113438619Y-138319809D01*
X113438619Y-137748380D01*
X113533857Y-137557904D01*
X113629095Y-137462666D01*
X113819571Y-137367428D01*
X114200523Y-137367428D01*
X114391000Y-137462666D01*
X115248142Y-138700761D02*
X115248142Y-136700761D01*
X115438619Y-137938857D02*
X116010047Y-138700761D01*
X116010047Y-137367428D02*
X115248142Y-138129333D01*
X110105285Y-140000761D02*
X110771952Y-142000761D01*
X111438619Y-140000761D01*
X113152904Y-142000761D02*
X112010047Y-142000761D01*
X112581476Y-142000761D02*
X112581476Y-140000761D01*
X112391000Y-140286476D01*
X112200523Y-140476952D01*
X112010047Y-140572190D01*
X114010047Y-141810285D02*
X114105285Y-141905523D01*
X114010047Y-142000761D01*
X113914809Y-141905523D01*
X114010047Y-141810285D01*
X114010047Y-142000761D01*
X116010047Y-142000761D02*
X114867190Y-142000761D01*
X115438619Y-142000761D02*
X115438619Y-140000761D01*
X115248142Y-140286476D01*
X115057666Y-140476952D01*
X114867190Y-140572190D01*
D12*
X160655000Y-143510000D02*
G75*
G02*
X163830000Y-140335000I3175000J0D01*
G01*
X163830000Y-116332000D02*
G75*
G02*
X160528000Y-113030000I0J3302000D01*
G01*
X92075000Y-113030000D02*
X160528000Y-113030000D01*
X92075000Y-143510000D02*
X92075000Y-113030000D01*
X160655000Y-143510000D02*
X92075000Y-143510000D01*
X163830000Y-116332000D02*
X163830000Y-140335000D01*
D13*
%TO.C,J1*%
X124170000Y-140900000D02*
G75*
G02*
X124170000Y-138500000I1210000J1200000D01*
G01*
X132370000Y-138500000D02*
G75*
G02*
X132370000Y-140900000I-1210000J-1200000D01*
G01*
%TO.C,SW3*%
X152190000Y-115900000D02*
X152190000Y-115200000D01*
X152190000Y-115900000D02*
X151490000Y-115900000D01*
X144990000Y-115900000D02*
X145690000Y-115900000D01*
X144990000Y-115900000D02*
X144990000Y-115200000D01*
X146590000Y-113200000D02*
X150590000Y-113200000D01*
%TO.C,SW2*%
X131870000Y-115900000D02*
X131870000Y-115200000D01*
X131870000Y-115900000D02*
X131170000Y-115900000D01*
X124670000Y-115900000D02*
X125370000Y-115900000D01*
X124670000Y-115900000D02*
X124670000Y-115200000D01*
X126270000Y-113200000D02*
X130270000Y-113200000D01*
%TO.C,SW1*%
X111550000Y-115900000D02*
X111550000Y-115200000D01*
X111550000Y-115900000D02*
X110850000Y-115900000D01*
X104350000Y-115900000D02*
X105050000Y-115900000D01*
X104350000Y-115900000D02*
X104350000Y-115200000D01*
X105950000Y-113200000D02*
X109950000Y-113200000D01*
D14*
%TO.C,D1*%
X100695000Y-121575000D02*
X100695000Y-125475000D01*
X98695000Y-121575000D02*
X98695000Y-125475000D01*
X100695000Y-121575000D02*
X98695000Y-121575000D01*
%TO.C,U2*%
X163250000Y-118880000D02*
X163250000Y-118270000D01*
X163250000Y-118880000D02*
X170870000Y-118880000D01*
X146630000Y-118880000D02*
X147250000Y-118880000D01*
X146630000Y-121000000D02*
X146630000Y-118880000D01*
X146630000Y-135120000D02*
X146630000Y-133000000D01*
X147250000Y-135120000D02*
X146630000Y-135120000D01*
X170870000Y-135120000D02*
X163250000Y-135120000D01*
X170870000Y-118880000D02*
X170870000Y-135120000D01*
%TO.C,Y1*%
X136055000Y-132810000D02*
X136455000Y-132810000D01*
X136055000Y-132610000D02*
X136455000Y-132610000D01*
X136055000Y-129010000D02*
X136455000Y-129010000D01*
X134055000Y-132810000D02*
X136055000Y-132810000D01*
X136455000Y-131610000D02*
X136855000Y-131610000D01*
X136455000Y-131610000D02*
X136455000Y-132610000D01*
X136055000Y-132610000D02*
X134055000Y-132610000D01*
X134055000Y-132610000D02*
X134055000Y-131610000D01*
X134055000Y-129810000D02*
X134055000Y-129010000D01*
X134055000Y-129010000D02*
X136055000Y-129010000D01*
X136455000Y-129010000D02*
X136455000Y-129810000D01*
%TO.C,U4*%
X104090000Y-122630000D02*
X102275000Y-122630000D01*
X104090000Y-122395000D02*
X104090000Y-122630000D01*
X107950000Y-122395000D02*
X104090000Y-122395000D01*
X111810000Y-122395000D02*
X111810000Y-122630000D01*
X107950000Y-122395000D02*
X111810000Y-122395000D01*
X104090000Y-135415000D02*
X104090000Y-135180000D01*
X107950000Y-135415000D02*
X104090000Y-135415000D01*
X111810000Y-135415000D02*
X111810000Y-135180000D01*
X107950000Y-135415000D02*
X111810000Y-135415000D01*
%TO.C,U3*%
X141870000Y-138090000D02*
X139420000Y-138090000D01*
X140070000Y-141310000D02*
X141870000Y-141310000D01*
%TO.C,U1*%
X140970000Y-121940000D02*
X137520000Y-121940000D01*
X140970000Y-121940000D02*
X142920000Y-121940000D01*
X140970000Y-132060000D02*
X139020000Y-132060000D01*
X140970000Y-132060000D02*
X142920000Y-132060000D01*
%TO.C,R16*%
X116581422Y-131520000D02*
X117098578Y-131520000D01*
X116581422Y-130100000D02*
X117098578Y-130100000D01*
%TO.C,R15*%
X116581422Y-128980000D02*
X117098578Y-128980000D01*
X116581422Y-127560000D02*
X117098578Y-127560000D01*
%TO.C,R14*%
X123900000Y-129798578D02*
X123900000Y-129281422D01*
X122480000Y-129798578D02*
X122480000Y-129281422D01*
%TO.C,R13*%
X122480000Y-124201422D02*
X122480000Y-124718578D01*
X123900000Y-124201422D02*
X123900000Y-124718578D01*
%TO.C,R12*%
X130100000Y-129281422D02*
X130100000Y-129798578D01*
X131520000Y-129281422D02*
X131520000Y-129798578D01*
%TO.C,R11*%
X130100000Y-124201422D02*
X130100000Y-124718578D01*
X131520000Y-124201422D02*
X131520000Y-124718578D01*
%TO.C,R10*%
X116581422Y-126440000D02*
X117098578Y-126440000D01*
X116581422Y-125020000D02*
X117098578Y-125020000D01*
%TO.C,R9*%
X146610000Y-139441422D02*
X146610000Y-139958578D01*
X148030000Y-139441422D02*
X148030000Y-139958578D01*
%TO.C,R8*%
X150570000Y-139958578D02*
X150570000Y-139441422D01*
X149150000Y-139958578D02*
X149150000Y-139441422D01*
%TO.C,R7*%
X153110000Y-139958578D02*
X153110000Y-139441422D01*
X151690000Y-139958578D02*
X151690000Y-139441422D01*
%TO.C,R6*%
X154230000Y-115311422D02*
X154230000Y-115828578D01*
X155650000Y-115311422D02*
X155650000Y-115828578D01*
%TO.C,R5*%
X156770000Y-115311422D02*
X156770000Y-115828578D01*
X158190000Y-115311422D02*
X158190000Y-115828578D01*
%TO.C,R4*%
X158190000Y-139958578D02*
X158190000Y-139441422D01*
X156770000Y-139958578D02*
X156770000Y-139441422D01*
%TO.C,R3*%
X135330000Y-139441422D02*
X135330000Y-139958578D01*
X133910000Y-139441422D02*
X133910000Y-139958578D01*
%TO.C,R2*%
X154230000Y-139441422D02*
X154230000Y-139958578D01*
X155650000Y-139441422D02*
X155650000Y-139958578D01*
%TO.C,R1*%
X121210000Y-139958578D02*
X121210000Y-139441422D01*
X122630000Y-139958578D02*
X122630000Y-139441422D01*
%TO.C,Q4*%
X128580000Y-128780000D02*
X128580000Y-130240000D01*
X125420000Y-128780000D02*
X125420000Y-130940000D01*
X125420000Y-128780000D02*
X126350000Y-128780000D01*
X128580000Y-128780000D02*
X127650000Y-128780000D01*
%TO.C,Q3*%
X128580000Y-123700000D02*
X128580000Y-125160000D01*
X125420000Y-123700000D02*
X125420000Y-125860000D01*
X125420000Y-123700000D02*
X126350000Y-123700000D01*
X128580000Y-123700000D02*
X127650000Y-123700000D01*
%TO.C,Q2*%
X140660000Y-135380000D02*
X140660000Y-133920000D01*
X143820000Y-135380000D02*
X143820000Y-133220000D01*
X143820000Y-135380000D02*
X142890000Y-135380000D01*
X140660000Y-135380000D02*
X141590000Y-135380000D01*
%TO.C,Q1*%
X136850000Y-135380000D02*
X136850000Y-133920000D01*
X140010000Y-135380000D02*
X140010000Y-133220000D01*
X140010000Y-135380000D02*
X139080000Y-135380000D01*
X136850000Y-135380000D02*
X137780000Y-135380000D01*
%TO.C,C8*%
X116581422Y-123900000D02*
X117098578Y-123900000D01*
X116581422Y-122480000D02*
X117098578Y-122480000D01*
%TO.C,C7*%
X144070000Y-139441422D02*
X144070000Y-139958578D01*
X145490000Y-139441422D02*
X145490000Y-139958578D01*
%TO.C,C6*%
X137870000Y-139958578D02*
X137870000Y-139441422D01*
X136450000Y-139958578D02*
X136450000Y-139441422D01*
%TO.C,C5*%
X143435000Y-119121422D02*
X143435000Y-119638578D01*
X144855000Y-119121422D02*
X144855000Y-119638578D01*
%TO.C,C4*%
X141680000Y-116463578D02*
X141680000Y-115946422D01*
X140260000Y-116463578D02*
X140260000Y-115946422D01*
%TO.C,C3*%
X139140000Y-116463578D02*
X139140000Y-115946422D01*
X137720000Y-116463578D02*
X137720000Y-115946422D01*
%TO.C,C2*%
X136600000Y-116463578D02*
X136600000Y-115946422D01*
X135180000Y-116463578D02*
X135180000Y-115946422D01*
%TO.C,C1*%
X140711422Y-121360000D02*
X141228578Y-121360000D01*
X140711422Y-119940000D02*
X141228578Y-119940000D01*
%TD*%
M02*
