<?xml version="1.0" encoding="utf-8"?>
<!DOCTYPE svg PUBLIC "-//W3C//DTD SVG 20010904//EN" "http://www.w3.org/TR/2001/REC-SVG-20010904/DTD/svg10.dtd">
<svg version="1.0" xmlns="http://www.w3.org/2000/svg" width="407px" height="153px" viewBox="0 0 407 153" preserveAspectRatio="xMidYMid meet">
 <g fill="none" stroke="#000000" stroke-width="1">
  <path d="M0.2 0.2C0.5 -0.2 1.5 0.1 2 0.1L6.5 0.1L24.5 0.1L94.4 0.1L319 0.1L381.8 0.1L399.5 0.1L404.4 0.1C405 0.1 406 -0.2 406.5 0.2C407.1 0.5 406.8 1.7 406.8 2.2L406.8 8.2L406.8 33.8L406.8 122.8L406.8 145.1L406.8 150.7C406.8 151.2 407 152.2 406.5 152.7C406.2 153.1 405.4 153 405 153L400.5 153L383.1 153L313 153L88 153L25 153L7.2 153L2.4 153C1.8 153 0.8 153.1 0.2 152.8C-0.2 152.7 0 151.4 0 151L0 145L0 119.7L0 29.5L0 7.5L0 2.1C0 1.7 -0.4 0.5 0.2 0.2M138.4 18.1C139.2 17.7 140.5 18 141.4 18C144 18 146.5 18.1 149.1 18.2C157.7 18.7 166.2 18.8 174.8 19C177.5 19 180.2 19.1 183 19.7C184.1 20 185.5 20.1 186.4 21.1C187.5 22.4 186.7 23.5 185.7 24.5C184.1 26.2 182.2 27.5 180.4 29C179.5 29.7 178.7 30.5 177.8 31C177 31.4 175.8 31.1 175 31.1L168.4 31.1L148.7 31.1L143 31.1C142.2 31.1 141.1 31.2 140.4 31C139.7 30.8 139.1 29.8 138.7 29.4C137.2 28 136 26.5 134.5 25.1C134.1 24.7 133 23.8 133 23.1C133 22.5 133.7 22 134.1 21.5C135.4 20.5 136.8 18.7 138.4 18.1M44.8 18.1C47.1 17.8 49.4 18.1 51.7 18.1L65 18.1C68.2 18.1 71.4 18.1 74.7 18.2C77.1 18.2 79.7 18.2 82.1 18.8C82.7 19 83.2 19.2 83.8 19.7C84.5 20.1 85.7 21.1 85.7 22.1C85.7 22.8 85 23.5 84.5 24C83.4 25.1 82.2 26.1 81.1 27.1C80.1 28 78.8 29.7 77.5 30.1C76.7 30.2 75.5 30.1 74.5 30.1L68.5 30.1L49 30.1L41.4 30.1C40.4 30.1 39 30.4 38.1 30C37.1 29.7 36 28 35.2 27.1C34.4 26.1 33.4 25.2 32.7 24.1C31.7 22.4 33 20.8 34.4 19.8C37.2 17.5 41.5 18.5 44.8 18.1M350 19.1C352.1 18.8 354.4 19.1 356.5 19.1L369.2 19.1C372.4 19.1 375.5 19.1 378.7 19.2C381.1 19.2 383.7 19.2 386.1 19.8C386.7 20 387.2 20.2 387.8 20.7C388.5 21.1 389.5 22 389.7 23C389.8 24.8 386.1 27.1 384.8 28.2C383.8 29.1 382.7 30.5 381.4 31C380.4 31.2 379 31 378 31C376 31 374.1 31.1 372.1 31.1L353.2 31.1L345.8 31.1C344.8 31.1 343.4 31.4 342.4 31C341.4 30.7 340.5 29.2 339.8 28.5C338 26.7 334.7 24 337.2 21.4C337.5 21.1 338 20.7 338.4 20.4C341.7 18.5 346.4 19.7 350 19.1M243 19.2C246.2 18.8 249.8 19.2 253.1 19.2C259.7 19.2 266.1 19.2 272.7 19.5C277 19.7 282.2 18.8 286.2 20.5C287.7 21.2 288.1 22.7 287.2 24C286 26 283.7 27.5 281.8 29.1C281.1 29.7 280.2 30.7 279.4 31C278.5 31.2 277.5 31.1 276.7 31.1L271 31.1C264.4 31.1 257.8 31 251.2 31L244 31C243 31 241.5 31.2 240.7 30.8C240 30.7 239.4 29.8 239 29.2C237.8 28 236.7 26.5 235.5 25.2C235.1 24.8 234 23.8 234.2 23.1C234.5 22.5 235.2 22.1 235.7 21.7C238 19.5 240.1 19.7 243 19.2M51.4 21.1C53.8 20.8 56.4 21.1 58.8 21.1C63.4 21.1 67.8 21.1 72.4 21.4C74.1 21.5 76 21.4 77.7 21.7C78.2 21.7 79 21.5 79.4 22C80 22.4 79.1 23.4 78.8 23.7C77.5 24.8 76 26 74.2 26.4C70.8 27.4 66.8 27.1 63.4 27.1C57.2 27.1 51.1 27 45 27C42.7 27 40.4 26.5 38.8 24.8C38.2 24.2 37.5 23.2 37.8 22.4C38.4 21.4 40.5 21.5 41.4 21.5C44.7 21.4 48.1 21.5 51.4 21.1M181.2 22.5C180.7 24.2 177.8 25.7 176.4 26.8C175.8 27.2 175.2 28 174.5 28.1C172 28.7 168.5 28.1 165.8 28.1C160.2 28.1 154.7 28.5 149.1 28.1C146 27.8 143.2 28.1 141 25.5C140.4 24.8 139.4 24.1 139.5 23.1C139.5 22 141.1 21.8 142 21.7C144.5 21.1 147.2 21.4 149.8 21.4C157.1 21.4 164.5 21.7 171.8 22C175.5 22.1 179.7 22.7 183.2 21.8M282.5 22.7C281.5 24.1 279.8 25.2 278.5 26.4C278 26.8 277.2 27.5 276.5 27.8C275.8 28.1 274.8 28 274.1 28L268.8 28L250.8 28C247.7 28 243.5 28.5 241.7 25.5C241.2 25 240.5 24 240.7 23.1C241 22.2 242.7 22.5 243.2 22.5C245.8 22.1 248.7 22.2 251.2 22.2C258.2 22.2 265.2 22.1 272.2 22.1C276.4 22.1 280.5 22.5 284.5 22M355.8 22.1C358.7 21.8 361.8 22.1 364.8 22.1C368.8 22.1 373 21.8 377 22.2C378.5 22.4 380.1 22.2 381.7 22.4C382.2 22.4 383 22.2 383.4 22.5C384 23.1 383 24 382.7 24.4C381.4 25.7 379.8 27 378.1 27.5C375.7 28.1 373.1 27.8 370.7 28C363.5 28.5 356 28.2 348.8 28C346.4 27.8 344.2 27.4 342.7 25.4C342.4 24.8 341.4 23.7 341.8 23C342.2 22.2 344.5 22.5 345.2 22.5C348.7 22.2 352.4 22.7 355.8 22.1M29.1 25C30.2 24.8 31.2 26.2 31.8 27C33.8 29.1 35.5 31 35.5 34C35.5 38.4 34.4 43.1 33.7 47.5C32.8 53.2 32.2 59.2 30.7 64.8C29.8 67.5 28.7 69.7 26.5 71.5C25.8 72.1 25 73 24 73C23 72.8 22.2 72 21.7 71.2C20.1 69.5 19.2 67.5 19.5 65.2C21.2 55.1 22.5 44.8 24.2 34.7C24.7 32.1 25 28.5 26.7 26.5C27.2 26 28.2 25 29.1 25M87.5 25.1C88.4 25.1 89.2 26.1 89.8 26.7C91.5 28.7 90.2 33.2 90 35.7C88.7 45.4 87.5 55.5 85.2 65.1C84.7 67.8 83.5 70 81.2 71.7C80.5 72.2 79.7 73 78.7 73C77.7 73 76.8 72 76.2 71.2C73.5 68.5 74.1 65.1 74.5 61.7C75.4 55.1 76.5 48.5 77.5 42C77.8 39.8 78.1 37.5 78.5 35.4C78.7 34.4 78.7 33.1 79.1 32.1C79.4 31.4 80.4 30.7 81 30.1C82.4 28.8 83.8 27.5 85.2 26.4C85.8 25.8 86.7 25.1 87.5 25.1M130.1 25.2C131.4 25.1 132.7 26.4 133.4 27.2C135.4 29.4 136.8 31.1 136.8 34.1C136.8 38.7 135.8 43.2 135.1 47.8C134.2 53.5 133.7 59.4 132.2 65C131.7 67.7 130.4 69.8 128.1 71.7C127.4 72.2 126.4 73 125.4 73C124.2 73 123.4 72 122.8 71.1C121.4 69 121.1 66.4 121.4 63.8C122.5 54 123.7 43.8 126 34.1C126.4 31.8 126.8 29.4 128 27.2C128.4 26.4 129 25.4 130.1 25.2M189 25.4C190.1 25.2 191.1 26.7 191.5 27.7C192.2 30.1 191.5 33.4 191.2 35.8C190 45.4 189.2 55.2 186.8 64.7C186.2 67.1 185.2 69.4 183.4 71.2C182.7 72 181.8 72.8 180.7 73C179.5 73.1 178.5 72.2 177.7 71.4C175 68.8 175.4 66 175.8 62.5C176.8 55.8 177.7 49.1 178.8 42.4C179.2 39.2 179.5 35.8 180.7 32.8C181.5 30.2 184.2 28.7 186.2 27C187 26.4 188 25.4 189 25.4M392.1 25.4C393.2 25.4 394.1 26.7 394.2 27.7C394.5 30.5 394 33.4 393.8 36.2C393.4 41.5 392.5 47 391.8 52.2C391.2 56.8 390.8 61.4 389.7 65.8C389.1 68.4 388.2 70.5 386.2 72.4C385.7 73 384.8 74 384 74C383 74 381.8 72.5 381.2 72C380.2 71 378.8 70 378.2 68.7C377.7 67.2 378.7 64.7 378.8 63.2C379.5 57.1 380.5 50.8 381.4 44.7C382 40.8 382.1 36.5 383.7 33C384.7 30.4 387.1 28.7 389.2 27C390 26.4 391.1 25.4 392.1 25.4M290.7 25.5C292 25.2 292.4 27 292.5 28C293.1 30.7 292.5 33.8 292.4 36.7C292 41.8 291.1 47.1 290.4 52.2C289.8 56.7 289.2 61.2 288.1 65.7C287.5 68.2 286.2 70.4 284.4 72.2C283.8 72.8 283 73.8 282.1 74C281 74.1 280.1 72.8 279.4 72.1C276.4 69.1 277.2 65.7 277.5 61.8C278.1 55.5 279.2 49.1 280.1 42.8C280.4 40.7 280.7 38.7 281 36.5C281.1 35.7 281 34.5 281.4 33.7C282 32.5 283.2 31.7 284.1 30.8C285.8 29.1 288.2 26 290.7 25.5M231.7 25.7C234 25.4 236.2 29.4 237.4 31C238 31.7 238.7 32.2 238.7 33.2C238.7 37 237.5 41 237 44.5C236 51.2 235.4 58.2 233.7 64.8C233 67.8 231 72.7 227.2 73C222.5 73.2 222.5 66.7 222.8 63.7C223.8 54 225.2 44 227.1 34.4C227.7 31.7 228 26 231.7 25.7M332.7 26C333.7 25.7 334.5 26.4 335.2 27C336.8 28.4 340 31.5 340 33.8C340 37.8 338.8 42.2 338.2 46.2C337.4 52.5 336.8 59 335.2 65.1C334.7 67.8 333.7 70.2 331.5 72.2C331 72.8 330.1 73.7 329.2 74C328.2 74.1 327.4 73.1 326.7 72.4C324.4 70.1 324.1 67.7 324.2 64.5C324.5 59.8 325.4 55.2 326.1 50.5C326.8 45.4 327.4 40.1 328.4 35C329 32.1 329.1 26.7 332.7 26M130 28.5C130.4 30.8 132.8 32.1 133.1 34.4C133.4 37.2 132.7 40.5 132.2 43.4C131.7 48.2 131 53.1 130.1 58C129.5 60.4 129.1 63.1 128.2 65.4C127.8 66.4 126.8 67.2 125.7 67.1C124.7 67 124.8 65.7 124.8 65C125 62.8 125.2 60.5 125.5 58.4C126.4 52 127.2 45.4 128.4 39C128.8 36.2 129 32.5 130.2 30.1M231.5 28.5C231.7 31.1 234.1 32.8 234.4 35.5C234.5 38 234 40.8 233.7 43.2C233.1 48.2 232.2 53.4 231.5 58.4C231.1 60.8 230.7 63.5 229.5 65.7C229.1 66.4 228.2 67.7 227.2 67.5C226.4 67.5 226.5 66.1 226.5 65.5C226.5 63.2 227 61 227.1 58.7C227.5 52.4 228.7 46 229.5 39.7C230 36.7 230.1 32.7 231.7 30.1M189.1 29.2C187.8 32.1 187.8 36.1 187.4 39.2C186.4 45.8 185.4 52.4 184.5 59C184.1 61.5 184 63.8 182.4 66C182 66.5 181.1 67.7 180.2 67.7C179.4 67.5 179.5 66 179.4 65.4C179.1 63 179.8 60.5 180 58.1C180.5 51.5 181.4 44.4 183.1 38C183.8 35.1 185.5 32.1 188.2 30.8M391.8 29.2C390.5 32.2 390.5 35.8 390.1 39.1C389.2 45.7 388.5 52.4 387.5 59C387.1 61.2 386.8 63.8 386 66.1C385.7 67 385 68 384 68.1C382.8 68.1 382.4 66.8 382.4 66C382.2 63.5 382.7 61.1 383 58.7C383.5 52.5 384.4 46.2 385.7 40.1C386.4 36.7 387.4 33.2 390.7 31.4M28.4 30.2C29.1 30 29.8 31 30.1 31.4C31.4 33 31.8 35 31.7 37C31 44.8 29.7 52.7 28 60.4C27.5 62.2 27.1 64.4 26.1 66.1C25.7 66.7 25.2 67.4 24.5 67.5C23.5 67.8 23.7 66.4 23.5 65.8C23.4 63.8 23.8 61.5 24 59.5C24.8 52.1 26.1 44.8 27.1 37.4C27.4 35.7 27.7 33.8 27.8 32.1C28 31.5 27.8 30.5 28.4 30.2M333.2 31.7C334.1 31.5 334.8 32.5 335.1 33.1C336.2 35 336 37.1 335.8 39.2C335.1 46.7 333.8 54 332.4 61.2C332 63.2 331.7 67.5 329.1 68.1C328.2 68.2 327.7 67.5 327.5 66.7C327.4 64.8 328 62.5 328.1 60.7C329.1 53.2 330.1 45.8 331.2 38.5C331.5 36.8 331.8 35.1 332.2 33.4C332.4 32.8 332.5 31.8 333.2 31.7M86.4 32C87.1 32.1 86.7 33.4 86.7 34C86.5 36.1 86.2 38.1 86 40.2C84.8 47.2 84 54.2 82.5 61.2C82.1 63.5 82 67.8 78.7 67.1C77.5 66.8 77.8 65.8 77.8 65C78 63 78.2 61.1 78.4 59.1C79.4 52 80.1 44.7 81.8 37.7C82.2 35.7 82.8 33.8 84.7 32.7C85.1 32.4 85.8 31.8 86.4 32M289 32C290 31.7 289.7 33.1 289.5 33.7C289.4 35.8 289.1 37.8 288.8 40C287.8 47.1 286.7 54.2 285.2 61.2C284.8 63.2 284.7 67.4 282.1 68C280.8 68.2 280.7 67.1 280.7 66.2C280.7 64.1 281 61.8 281.2 59.7C282.2 52.7 282.8 45.5 284.5 38.7C285.1 36.5 286.5 32.7 289 32M207 44.2C209.7 44 212.8 47.1 212.8 49.8C212.8 52.2 210 54.8 207.7 55.1C206.1 55.2 204.4 55.1 203.1 54C200.1 50.8 203 44.8 207 44.2M207.2 49.2C208.5 49.1 207.7 51 206.8 51C205.8 51.1 206.4 49.2 207.2 49.2M39.8 69.1C42.1 68.8 44.7 69.1 47 69.1L60.8 69.1L68.1 69.1C69.1 69.1 70.5 68.8 71.5 69.1C72.4 69.4 73.1 71 73.7 71.7C74.2 72.5 75.8 74.1 76 75.2C76 76 75.1 76.5 74.7 77C73.4 78 71.5 80.7 69.8 81.1C68.7 81.4 67.1 81.1 66 81.1L58.1 81.1L40.2 81.1C37.1 81.1 33.2 81.5 30.2 80.4C29.4 80.1 28.8 79.5 28.2 79C27.4 78.1 26.4 77.1 26.2 75.8C26.1 73.7 29.1 71.8 30.7 70.8C33.5 69.1 36.7 69.5 39.8 69.1M134.1 69.2C135 68.8 136.4 69.1 137.2 69.1L144.4 69.1L163.5 69.1C166.2 69.1 169.8 68.5 172.4 69.1C173.4 69.4 174.1 70.7 174.7 71.4C175.5 72.4 177.1 73.8 177.4 75.1C177.7 77 174.5 79.1 173.2 80C169.8 82.1 165.1 82 161.2 82C155 82.1 148.8 82.1 142.5 82.1L135.4 82.1C134.5 82.1 133.1 82.4 132.2 82C131.7 81.8 131.2 81 131 80.5C130.1 79.4 129.1 78.2 128.2 77.1C128 76.7 127.1 76 127.4 75.2C127.5 74.5 128.5 74 129.1 73.5C130.7 72.2 132.2 70.1 134.1 69.2M236.1 69.2C237 68.8 238.4 69.1 239.4 69.1L246.4 69.1L262 69.1C265.4 69.1 269.1 69 272.5 69.8C274.5 70.4 276.2 72 277.7 73.4C278.1 73.8 278.8 74.5 278.8 75.2C278.8 76 278.1 76.7 277.7 77.2C276.4 78.7 274.4 81 272.7 81.8C271.8 82.2 270.4 82 269.5 82C267.4 82 265.2 82.1 263.1 82.1L243 82.1L237.1 82.1C236.2 82.1 235.1 82.2 234.4 82C233.8 81.8 233.4 81.1 233 80.7C232 79.7 231 78.7 230 77.7C229.5 77.2 228.8 76.5 228.8 76C229 75.4 230 74.7 230.4 74.2C231.5 73.1 232.8 72.1 234 71C234.5 70.4 235.2 69.5 236.1 69.2M336.5 70.4C337.4 70.1 338.5 70.2 339.4 70.2L345.4 70.2L366 70.2L373.1 70.2C374 70.2 375.4 70 376.2 70.4C377.5 70.8 379 73.4 379.8 74.5C380.1 75 380.8 75.5 380.7 76.1C380.5 76.7 379.7 77.2 379.2 77.7C378 79 376.2 81.1 374.5 82C373.7 82.4 372.4 82.1 371.5 82.1L364.8 82.1L344.1 82.1L338 82.1C337.1 82.1 336 82.2 335.2 82C333.7 81.4 332.2 78.8 331.2 77.5C330.8 77.1 330.1 76.5 330.2 75.8C330.4 75.2 331.2 74.7 331.7 74.4C333.1 73.1 334.8 71 336.5 70.4M43.2 72.1C46 71.8 49 72.1 51.7 72.1C56.4 72.1 61.1 72 65.7 72.4C67.2 72.5 72.1 73.4 69.7 75.8C69.4 76.1 69.1 76.2 68.8 76.5C68.4 76.8 68 77 67.4 77.2C64.8 78.1 62 77.8 59.4 78C53.1 78.2 46.8 78 40.5 78C38.4 78 36.2 78 34.1 77.5C33.4 77.4 32.4 77.2 32 76.5C31.4 75.4 33.1 74.2 33.8 73.8C36.5 71.8 40.1 72.5 43.2 72.1M144.4 72.1C147.1 71.8 150.1 72.1 152.8 72.1C157.7 72.1 162.5 72 167.2 72.5C168.7 72.7 171.5 73 172 74.8C172.2 76.4 169.1 77.7 168 78C164.7 79 161.1 79 157.8 79.1C152.5 79.4 147 79.7 141.7 79C139.5 78.7 135.4 79.2 133.8 77.4C132.5 76 134 74.7 135.1 73.8C137.8 72 141.2 72.5 144.4 72.1M246.1 72.1C249 71.8 252 72.1 254.8 72.1C259.4 72.1 264.2 72 268.8 72.7C270.1 73 272.2 73.4 272.7 74.8C273.2 76.4 270.4 78.1 269.2 78.5C266.1 79.5 262.2 79.1 259 79.1C254 79.1 248.8 79.4 243.8 79C241.5 78.8 238.2 79.4 236.2 77.8C234.4 76.4 235.7 75 237.1 73.8C239.7 72 243.1 72.5 246.1 72.1M346.8 73.1C349.7 72.8 352.8 73.1 355.8 73.1C360.7 73.1 365.7 73 370.5 73.4C371.5 73.5 373.2 73.5 374 74.2C375.4 75.7 373 77.8 371.8 78.2C369.4 79.1 366.7 78.8 364.1 79C357.8 79.4 351.7 79 345.4 79C343.2 79 341.1 78.8 339.1 78.5C338.4 78.4 337.2 78.2 336.8 77.5C336.1 76.4 337.5 75 338.4 74.4C340.8 72.8 344.2 73.5 346.8 73.1M22.7 77.1C23.4 76.8 24.7 78.4 25.1 78.8C27.8 81.4 28 83.7 27.7 87.2C27 94.4 25.5 101.4 24.5 108.5C24.2 110.7 23.8 113 23.5 115.1C23.4 116.1 23.4 117.7 23 118.5C22.5 119.4 21.5 120 20.8 120.5C19.4 121.8 18 123.2 16.4 124.4C15.7 125 15 125.7 14.1 126C12.7 126.2 11.8 124.5 11.7 123.4C11.2 120.5 12 117.2 12.2 114.4C13.4 105.1 14.7 95.4 16.8 86.2C17.4 83.2 18.5 81.5 20.5 79.2C21.1 78.5 21.8 77.4 22.7 77.1M125 77.2C125.8 77.4 126.8 79 127.2 79.5C128.1 80.5 129.7 82 130 83.2C130.1 84.5 129.5 86.2 129.4 87.5C128.4 94.2 127.2 101 126.2 107.7C125.8 111.1 125.8 115.2 124.2 118.4C123.1 121 120.5 122.7 118.4 124.4C117.7 125 116.7 126 115.7 126C114.5 125.8 113.7 124.2 113.5 123.2C113.1 120.4 113.7 117.5 114 114.8C114.5 109.1 115.4 103.5 116.2 97.8C116.8 93.5 117.2 89.2 118.5 85.1C119.2 82.5 121 80.5 123 78.8C123.4 78.4 124.2 77.2 125 77.2M77.8 78C79 77.8 80 78.8 80.5 79.7C82.4 82 82.8 83.7 82.5 86.7C81.2 96.8 79.8 107.1 77.7 117.1C77.1 119.5 76.5 122 75.2 124.1C74.8 124.8 74.1 126 73.1 126.1C72.2 126.1 71.2 125 70.7 124.4C68.8 122.5 66.4 119.8 66.4 117C66.5 113.2 67.5 109.4 68.1 105.8C69.1 99.2 69.8 92.5 71.2 86.1C72 83.1 74.2 78.4 77.8 78M179.5 78.4C180.7 78.2 181.7 79.4 182.2 80.2C183.8 82.7 183.8 85 183.5 87.8C182.5 97.7 181.4 108 179.1 117.5C178.5 119.8 178.1 122.1 177.1 124.2C176.7 125.1 176 126.2 174.8 126.2C172.5 126.2 170.4 122.7 169.2 121.1C168.7 120.4 168 119.7 168 118.8C167.8 115.1 169 111 169.5 107.4C170.5 100.4 171.1 93.2 172.7 86.4C173.4 83.1 175.5 78.5 179.5 78.4M226.4 78.4C227.7 78.2 228.5 79.5 229.1 80.4C231.1 83.2 230.7 86.1 230.4 89.4C229.7 96.2 228.5 103.1 227.5 110C227.2 112 227 114.1 226.7 116.1C226.5 117.1 226.5 118.4 226.1 119.4C225.8 120.2 224.8 120.8 224.1 121.4C222.4 123 219.8 125.8 217.4 126C215.8 126 215.1 124.7 215 123.2C214.7 120.5 215.2 117.4 215.5 114.7C216.4 105.2 217.8 95.7 219.7 86.4C220.2 83.1 222.4 78.7 226.4 78.4M281.5 78.4C282.7 78.4 283.5 79.4 284.1 80.2C285.7 82.7 285.5 85.4 285.2 88.2C284.2 98.1 283 108.2 281.1 118C280.5 120.4 280 123.1 278.4 125.1C278 125.7 277.1 126.7 276.4 126.8C275.7 126.8 274.7 125.2 274.1 124.8C271.8 122.5 270.1 120.4 270.1 117C270.1 112.2 271 107.4 271.7 102.7C272.4 97.1 273 91.4 274.2 86C275 83.2 276.4 81.7 278.5 80C279.4 79.2 280.4 78.4 281.5 78.4M382.4 78.4C383.4 78.2 384.2 79 385 79.7C387.1 81.8 387.1 84.5 386.8 87.4C385.5 97.5 385.1 107.8 382.7 117.8C382 120.2 381.4 122.7 380.2 124.8C379.8 125.7 379.2 126.8 378.2 127C377.4 127.1 376.7 126.1 376.1 125.5C374.7 124.1 373.5 122.5 372.2 121C371.8 120.2 371 119.5 371 118.7C371 115.2 372.1 111.5 372.5 108.1C373.4 101 374.4 93.7 375.8 86.5C376.4 84 377.5 82.1 379.4 80.2C380.2 79.4 381.2 78.5 382.4 78.4M327.4 78.5C328.7 78.1 329.5 79.2 330.4 80.1C331.1 80.8 332.5 82 332.8 83C333.4 84.4 332.5 87 332.4 88.4C331.2 95.5 330.4 102.8 329.2 110C329 112.1 328.7 114.1 328.4 116.2C328.2 117.2 328.2 118.5 327.8 119.4C327.5 120.2 326.5 120.8 325.8 121.5C324.1 123.1 321.5 126.5 319.1 127C317.8 127.1 317.1 125.5 316.8 124.5C316.2 121.8 316.7 118.7 317 115.8C318.2 106.4 319.2 97 320.8 87.7C321.4 84.7 322.2 82.7 324.5 80.5C325.2 79.8 326.2 78.7 327.4 78.5M22.8 83.4C23.8 83.1 24 84.4 24 85.1C24 87.1 23.8 89.2 23.7 91.2C23 98.5 22 106.2 20 113.2C19.4 115.1 18.7 117.1 17.1 118.5C16.7 118.8 16.1 119.4 15.5 119.4C14.7 119.4 15.1 118 15.1 117.5C15.2 115.4 15.7 113.2 16 111.1C17 104 18.4 97 19.8 90C20.2 88.1 20.5 83.8 22.8 83.4M225.8 83.5C226.7 83.5 226.8 84.8 227 85.5C227.1 87.5 226.8 89.8 226.5 91.8C225.7 99.2 225.4 107.2 223.1 114.4C222.4 116.2 221.7 118 220.2 119.4C219.8 119.8 219.1 120.5 218.4 120.5C217.7 120.4 218.1 119 218.1 118.5C218.4 116.4 218.7 114.4 219 112.2C220.1 104.8 221.2 97.4 222.8 90.1C223.1 88.5 223.2 86.2 224.1 84.8C224.4 84.2 225.1 83.5 225.8 83.5M327.5 83.5C328.4 83.4 328.7 84.7 328.7 85.2C328.7 87.4 328.4 89.5 328.2 91.7C327.5 99.1 326.7 106.8 324.8 114.1C324.4 116 323.7 117.8 322.2 119.2C321.8 119.7 321.2 120.4 320.7 120.4C320 120.4 320.1 119 320.1 118.5C320.4 116.2 320.7 114.1 321 111.8C321.8 104.7 322.5 97.4 324 90.2C324.4 88.2 325.1 84.1 327.5 83.5M77.1 83.7C78 83.5 78.5 84.4 78.7 85.1C79 87 78.5 89.1 78.4 91C77.4 98.4 76.1 105.8 74.8 113.2C74.5 115 74.4 116.7 74.1 118.4C74 119 74 120 73.2 120.1C72.5 120.1 71.7 119.2 71.2 118.7C70.1 117 70.5 114.4 70.7 112.4C71.4 105.1 72.4 97.5 74.1 90.4C74.5 88.7 74.8 86.8 75.7 85.2C76 84.7 76.4 83.8 77.1 83.7M124.4 83.7C125.2 83.5 125.5 84.8 125.5 85.4C125.7 87.4 125.4 89.5 125.1 91.5C124.5 96.2 123.8 101.1 123.1 105.8C122.8 108.4 122.7 111.1 122 113.5C121.4 115.4 120.5 117.2 119.1 118.5C118.7 118.8 118.1 119.5 117.5 119.5C116.8 119.5 117 118.1 117 117.7C117.2 115.5 117.4 113.5 117.7 111.4C118.7 104.2 119.8 97.1 121.2 90.1C121.7 88.4 122.1 84 124.4 83.7M179 83.8C179.8 83.7 180.1 84.5 180.1 85.2C180.1 87.1 179.8 88.8 179.7 90.7C179.1 98.1 177.7 105.5 176.5 112.8C176.1 114.8 175.8 116.8 175.4 118.8C175.2 119.4 175.1 120.5 174.4 120.5C173.7 120.5 173.1 119.4 173 118.8C172.2 116.7 172.5 114.4 172.5 112.2C172.5 105 174.1 97.4 175.5 90.4C176 88.5 176.5 84.1 179 83.8M382.4 83.8C383.1 83.7 383.5 84.5 383.7 85.2C383.8 87 383.5 88.8 383.2 90.5C382.2 98 381.2 105.2 380.1 112.7C379.8 114.7 379.5 116.7 379.2 118.7C379.1 119.2 379.1 120.4 378.4 120.5C377.7 120.5 377.1 119.8 376.7 119.4C375.1 117.7 375 115.5 375.2 113.4C376.2 105.8 377.1 98.1 378.7 90.5C379.1 88.5 379.8 84 382.4 83.8M280.4 84.4C281.5 84.1 281.7 85 281.7 85.8C281.7 87.5 281.5 89.2 281.2 90.8C280.4 98.1 279.5 105.4 278.5 112.7C278.2 114.7 278 116.7 277.5 118.7C277.4 119.2 277.2 120.4 276.5 120.5C275.8 120.5 275.1 119.8 274.7 119.4C273.2 117.8 273.5 115.2 273.7 113.2C274.5 106 275.5 98.5 277 91.2C277.4 89 277.5 84.8 280.4 84.4M198.8 96.2C205.4 95.1 207.4 105.8 200.8 107C195.4 107.8 191.7 100.5 196.5 97.2C197.2 96.8 198 96.5 198.8 96.2M200 100.2C201.4 100.2 201.2 103.2 199.7 103.1C198 103 198.2 100.1 200 100.2M229.1 120C230.1 119.5 231.5 119.8 232.5 120C234.4 120.1 236.5 120.1 238.4 120.1C245.5 120.2 252.7 120.2 259.8 120.7C261.7 120.8 263.4 120.7 265.2 120.8C265.8 120.8 266.5 120.7 267.1 121C267.8 121.2 268.2 122.1 268.8 122.7C270 124 271.1 125.4 272.1 126.7C272.5 127.1 273.7 128 273.5 128.7C273.4 129.8 271.2 131.5 270.2 132.1C269.1 132.7 267.8 132.7 266.5 132.8C264.1 133.1 261.5 133.1 259.1 133.1C250.5 133.1 242 133 233.4 133C230.7 133 228 132.8 225.4 132.5C224.1 132.4 222.8 132.4 221.7 131.7C217.8 129.1 223.1 125.1 225.1 123.2C225.7 122.8 226.1 122.4 226.7 122C227.4 121.2 228.2 120.4 229.1 120M25 120.2C26 119.8 27.4 120.1 28.4 120.1L35.8 120.1L54.7 120.1C57.4 120.1 60.8 119.5 63.4 120.1C64.5 120.4 65.4 122 66.1 122.8C68 124.8 71.2 127.5 68.5 130.1C68.2 130.4 67.8 130.7 67.4 131C64.4 132.5 60 131.8 56.7 132C47.7 132.4 38.5 132 29.5 132C26.7 132 24 131.8 21.1 131.7C19.8 131.5 18.4 131.7 17.2 131C16 130.1 16 128.5 16.8 127.4C18.2 125.4 20.4 123.8 22.4 122.2C23.1 121.5 24 120.5 25 120.2M133.7 120.1C136.1 119.8 138.7 120.1 141.1 120.1L155.2 120.1L161.7 120.1C162.5 120.1 163.7 120 164.5 120.2C165.2 120.4 165.8 121.2 166.4 121.8C167.8 123.2 169.1 124.7 170.4 126.1C170.8 126.7 171.8 127.5 171.8 128.2C171.8 129.8 168.8 131.7 167.5 132C163 133.2 157.5 132.5 152.8 132.4C146.1 132.1 139.4 132 132.7 132C129.8 132 127 131.7 124.1 131.5C122.5 131.4 120.5 131.4 119.2 130.5C116.5 128.5 119.5 126.5 121.1 125.2C122.7 124 124.2 122 126.2 121.1C128.7 120.1 131.2 120.5 133.7 120.1M189.4 121.2C195.8 121 197.1 131.7 190.2 132C187.7 132.1 184.4 129.7 184.1 127C184 124.2 186.8 121.2 189.4 121.2M291.4 121.2C292.7 121.1 293.8 122.1 294.7 123C295.7 124 296.8 125.2 297 126.7C297.2 129.5 294.5 132 291.8 132.1C289 132.2 285.8 130 286.1 126.8C286.2 125.2 287.2 124 288.2 123C289.1 122.1 290.1 121.2 291.4 121.2M335.4 121.1C337.8 120.8 340.4 121.1 342.8 121.1L357 121.1L364.7 121.1C365.8 121.1 367.2 120.8 368.4 121.1C369.5 121.4 370.8 123.2 371.5 124.1C373.5 126.4 376.4 128.7 373.2 131.4C372.8 131.8 372.2 132.1 371.7 132.2C368.5 133.2 365.1 132.8 361.8 133C353.5 133.5 345.1 133.1 336.8 133.1C333.8 133.1 331 133.1 328 132.8C326.5 132.7 325.1 132.8 323.8 132.1C323.4 132 323 131.5 322.7 131.2C322.1 130.7 321.5 130.1 321.4 129.4C321.4 128.5 322 128 322.5 127.4C323.7 126.1 325.1 125.1 326.4 124C327.2 123.1 328.4 121.8 329.5 121.4C331.2 120.7 333.5 121.4 335.4 121.1M392.4 121.2C399.1 120.1 400.4 131.8 394.1 133.1C392.5 133.4 391.1 132.2 390 131.2C389 130.4 388 129.4 387.5 128.1C386.7 125.1 389.5 121.8 392.4 121.2M87.1 121.4C91.8 120.5 94.4 125.7 92.2 129.4C91.7 130.5 90.7 131.7 89.4 132C83.1 133 80.1 122.7 87.1 121.4M232 123C232.8 122.5 234 122.8 234.8 123C236.4 123.1 238.1 123.1 239.7 123.1C246.7 123.2 253.8 123.1 260.8 124C263.1 124.4 265.1 124.7 266.7 126.5C267.1 127.1 268.1 128.4 267.4 129C266.8 129.5 265.7 129.5 265 129.5C263 129.7 260.8 129.7 258.8 129.8C251.1 130.1 243.4 130.1 235.7 130.1C233.4 130.1 231.1 129.8 228.8 129.8C228.2 129.8 226.7 130 226.4 129.4C226 128.7 227 127.8 227.2 127.4C228.5 126 230.2 123.7 232 123M21.8 128.7C22.7 127 24.7 125.8 26.1 124.5C26.7 124.1 27.2 123.4 28 123.2C28.8 123 29.8 123.1 30.7 123.1L36.2 123.1C42 123.1 48.1 122.5 53.8 123.1C57 123.4 60.4 123 62.8 125.5C63.4 126.1 64.4 127.1 64.2 128C64.2 129 62.4 128.7 61.8 128.7C59.2 129 56.5 129 53.8 129C47 129 40.1 129.1 33.2 129.1C28.8 129.1 24.2 128.8 20 129.4M130 123.2C130.7 123 131.8 123.1 132.5 123.1L138.2 123.1C145.1 123.1 152.2 122.7 159.1 123.4C161.4 123.7 163.1 124.4 164.7 126.1C165 126.5 166.2 127.7 165.5 128.2C165 128.7 163.5 128.7 162.8 128.7C160.8 128.7 158.7 129 156.7 129C149 129 141.4 129.1 133.7 129.1L126.7 129.1C126.2 129.1 124.7 129.4 124.4 128.8C124.1 128.2 125.2 127.5 125.5 127.2C126.8 126 128.4 124 130 123.2M332.4 124.2C333.1 124 334.2 124.1 335 124.1L341 124.1C348.2 124.1 355.7 123.7 363 124.4C365.1 124.7 367 125.2 368.4 127C368.8 127.4 370 128.7 369.2 129.2C368.5 129.8 367.1 129.7 366.2 129.7C364.2 129.7 362.2 130 360.2 130C352.5 130 344.7 130.1 337 130.1L329.8 130.1C329.4 130.1 327.7 130.4 327.4 129.8C327.1 129.4 328 128.7 328.2 128.4C329.4 127.2 331 125 332.4 124.2M189.2 125.7C190.5 125.4 191.7 127.8 190.1 128.1C188.8 128.2 187.7 126 189.2 125.7M392.8 125.8C394.5 125.4 395.7 128 393.8 128.5C392.1 129 390.5 126.2 392.8 125.8M291.1 126.2C292.2 125.8 293.4 127.5 292.1 128C290.7 128.5 289.5 126.8 291.1 126.2"/>
 </g>
</svg>